<svg xmlns="http://www.w3.org/2000/svg" width="129" height="42" viewBox="0 0 129 42">
    <path fill="#a8adb4" d="M106.8925 32.26l-2.3864.8415-2.475.8173-2.572.785-2.66.7527-2.733.7284-2.821.687-2.894.655-2.967.615-3.031.582-3.096.542-3.152.493-3.209.453-3.257.412-3.314.364-3.305.307-3.281.259-3.233.194-3.185.145-3.136.097-3.08.04-3.023-.008-2.959-.065-2.894-.105-2.813-.162-2.749-.21-2.661-.251-2.58-.3-2.491-.348-2.402-.388-2.306-.437-2.201-.478-2.096-.518-1.983-.559-1.87-.599-1.758-.639-1.628-.672-1.508-.72-1.38-.752-1.233-.785-1.105-.825-.96-.858-.806-.89-.661-.922-.5-.955-.347-.988-.177-1.011L0 26.555l.1613-1.0357.3144-1.035.4838-1.044.6288-1.036.7902-1.036.9272-1.028 1.0723-1.019 1.218-1.019 1.346-1.003 1.484-.995 1.6044-.979 1.7254-.963 1.8543-.947 1.959-.9303 2.08-.915 2.177-.89 2.282-.866 2.387-.841 2.475-.8094 2.572-.793 2.661-.7525 2.733-.72 2.821-.696 2.895-.655 2.967-.615 3.032-.583 3.096-.542 3.153-.494 3.209-.453 3.257-.413 3.314-.364 3.306-.308 3.281-.259L72.5.321l3.184-.147L78.82.077 81.9.0364l3.024.008 2.959.064 2.8945.105 2.814.1617 2.749.211L99 .837l2.58.2996 2.4914.348 2.4026.389 2.306.437 2.201.4774 2.0962.518 1.9833.5583 1.8706.599 1.758.6393 1.629.6717 1.508.72 1.379.7524 1.234.785 1.105.8257.96.8578.806.89.661.923.5.955.347.987.178 1.0116.008 1.0357-.161 1.036-.315 1.0358-.483 1.044-.628 1.036-.79 1.036-.927 1.0276-1.072 1.019-1.217 1.02-1.346 1.003-1.483.995-1.604.979-1.725.963-1.855.947-1.959.938-2.08.906-2.176.89"/>
    <path fill="#003082" d="M101.9262 32.2275l-2.072.8336-2.1608.818-2.2332.777-2.314.761-2.3785.72-2.451.688-2.5236.656-2.572.615-2.644.583-2.693.534-2.741.502-2.789.454-2.838.405-2.878.364-2.878.308-2.854.251-2.814.202-2.765.146-2.733.097-2.677.041-2.628-.016-2.58-.056-2.515-.113-2.451-.154-2.387-.21-2.322-.251-2.241-.299-2.169-.348-2.088-.388-1.999-.428-1.919-.478-1.822-.518-1.725-.558-1.628-.599-1.532-.64-1.419-.672-1.306-.712-1.201-.752L12.9 34l-.9513-.8257-.8386-.8495-.701-.8903-.572-.9226-.443-.947-.29-.988-.161-1.012-.008-1.028.137-1.036.283-1.036.419-1.036.549-1.036.686-1.036.806-1.028.935-1.02 1.056-1.011 1.178-1.004 1.282-.987 1.403-.98 1.5-.963 1.612-.947 1.701-.931 1.807-.907 1.903-.89 1.984-.866 2.072-.833 2.161-.818 2.233-.777 2.314-.761 2.379-.72 2.451-.688 2.524-.656 2.58-.615 2.637-.582 2.693-.534 2.742-.502 2.79-.453 2.838-.405 2.879-.364L66.344.81l2.854-.251L72.01.358l2.765-.146 2.733-.097 2.676-.041 2.628.017 2.58.0568 2.5154.114 2.451.154 2.387.21 2.322.2508 2.2416.2995 2.169.348 2.088.389 1.999.429 1.919.478 1.822.518 1.725.558 1.637.599 1.523.639 1.419.672 1.306.712 1.202.753 1.081.785.951.826.8387.85.701.89.5723.922.4433.954.2982.98.153 1.012.008 1.036-.137 1.028-.282 1.036-.411 1.036-.557 1.036-.686 1.036-.806 1.028-.9352 1.02-1.056 1.012-1.177 1.004-1.282.987-1.403.979-1.4994.964-1.612.946-1.701.931-1.807.906-1.903.89"/>
    <path fill="#fff" d="M103.192 18.5444l.0968.1604.0807.1606.0804.1685.064.176.064.184.056.184.04.2.04.2.032.208.032.208.016.225.008.225.008.232v5.939l.016.409.032.369.024.313.032.273.041.225.032.176.024.064.024.056.016.048.024.032.032.032.04.024.049.024.056.024.153.048.193.04.225.04.274.04.314.032.363.024.209.016v.73H99.3v-.73l.218-.016.3546-.025.315-.032.274-.041.234-.04.1935-.04.145-.048.065-.024.048-.024.04-.024.025-.033.024-.032.024-.048.024-.057.017-.064.04-.176.032-.225.032-.273.032-.313.025-.37.024-.409v-5.57l-.008-.394-.024-.361-.016-.169-.016-.169-.024-.152-.024-.145-.024-.137-.032-.137-.04-.12-.032-.112-.048-.113-.04-.097-.048-.089-.056-.088-.056-.073-.056-.08-.072-.064-.072-.065-.073-.056-.08-.048-.089-.048-.097-.048-.096-.032-.105-.032-.113-.032-.113-.024-.121-.016-.121-.008-.129-.009-.137-.008-.202.008-.202.024-.21.04-.218.056-.218.064-.225.088-.234.096-.242.112-.242.128-.25.144-.258.161-.258.177-.266.193-.274.209-.282.225-.282.232v6.541l.008.377.008.337.024.297.024.257.016.12.024.105.016.089.024.088.025.072.032.056.024.056.032.04.041.041.041.032.056.04.065.032.081.032.081.024.097.032.097.024.234.048.275.04.306.032.338.024.226.016v.73h-6.69v-.73l.226-.016.338-.024.299-.032.266-.041.226-.048.105-.024.089-.032.089-.032.072-.024.064-.04.057-.032.048-.032.033-.041.032-.048.032-.048.024-.064.032-.072.025-.088.016-.096.024-.096.016-.121.033-.249.016-.297.016-.337v-7.41l-.016-.337-.016-.297-.033-.257-.016-.113-.024-.104-.016-.096-.024-.08-.032-.072-.024-.065-.032-.057-.032-.04-.032-.04-.048-.032-.056-.032-.064-.033-.073-.032-.089-.032-.089-.024-.104-.033-.226-.04-.266-.048-.299-.032-.339-.032-.226-.008v-.731h4.498v2.392l.113-.161.113-.161.121-.161.113-.144.121-.145.121-.136.13-.136.121-.129.129-.121.137-.121.129-.112.137-.104.137-.104.137-.096.137-.089.145-.088.146-.08.145-.072.153-.072.1537-.064.153-.065.153-.057.161-.048.162-.04.161-.04.161-.032.1694-.032.169-.024.17-.016.177-.016.169-.008h.387l.193.016.194.024.185.024.1854.041.177.048.169.056.161.056.161.072.153.08.145.089.145.104.137.105.129.112.129.121.121.128.113.145.105.145M84.849 29.62l.193-.0083.194-.016.186-.032.177-.0482.177-.056.177-.0723.161-.088.1695-.096.161-.112.153-.128.1534-.136.153-.152.137-.16.145-.177.137-.192.128-.2.129-.217.113-.224.112-.225.097-.232.097-.241.088-.248.072-.2568.073-.265.056-.265.057-.281.04-.281.041-.2886.024-.297.024-.305.008-.313.008-.313-.008-.321-.008-.305-.024-.305-.025-.289-.04-.289-.04-.281-.057-.281-.057-.265-.072-.2643-.073-.257-.089-.249-.096-.241-.097-.2324-.113-.225-.113-.225-.129-.216-.129-.201-.137-.192-.145-.184-.137-.16-.153-.152-.154-.136-.153-.128-.161-.112-.169-.104-.161-.08-.178-.072-.178-.064-.178-.04-.186-.04-.193-.016-.193-.008-.194.008-.186.016-.186.04-.178.041-.178.064-.178.072-.161.081-.169.105-.161.112-.153.128-.153.136-.145.152-.145.161-.137.185-.137.193-.137.201-.121.217-.121.225-.104.225-.105.233-.096.241-.081.249-.082.257-.065.265-.065.265-.049.281-.048.281-.033.289-.033.289-.016.305-.017.305v.634l.016.313.016.305.032.297.032.289.049.281.048.281.057.265.073.265.072.257.089.249.088.241.104.232.105.225.121.225.121.217.137.201.129.193.145.177.145.161.145.152.153.137.153.129.161.113.169.097.169.088.169.072.177.056.185.048.186.032.185.016.195.007zm0 .73l-.347-.008-.339-.016-.3308-.04-.322-.048-.315-.0643-.298-.0723-.153-.048-.145-.0483-.137-.048-.145-.056-.137-.057-.137-.064-.137-.065-.129-.064-.129-.073-.129-.072-.121-.081-.121-.08-.121-.089-.121-.088-.113-.097-.113-.096-.113-.097-.105-.104-.105-.104-.105-.112-.105-.112-.0968-.12-.088-.112-.097-.12-.0885-.129-.081-.12-.081-.129-.081-.136-.145-.265-.137-.281-.121-.289-.105-.297-.097-.313-.089-.321-.065-.329-.065-.337-.041-.353-.033-.361-.024-.369V23.3l.024-.369.032-.361.04-.3537.065-.337.064-.329.088-.321.096-.305.104-.305.121-.289.137-.2726.145-.273.08-.1285.08-.1285.081-.1286.089-.12.096-.12.089-.121.097-.112.105-.112.105-.112.105-.104.104-.104.113-.096.112-.096.113-.096.121-.088.12-.08.121-.088.121-.072.129-.08.129-.072.129-.064.137-.064.136-.064.137-.057.282-.104.298-.088.298-.08.315-.056.323-.048.33-.04.339-.016.347-.008.355.008.338.016.33.04.323.048.314.057.298.081.298.088.282.105.137.057.137.064.137.064.129.065.129.072.129.08.121.072.121.089.121.081.113.088.12.097.113.096.105.097.113.104.105.105.104.112.096.113.096.112.097.121.089.12.088.12.089.129.08.129.073.129.153.273.128.273.121.289.113.305.089.305.089.321.065.329.065.337.04.353.032.361.016.37.008.385-.008.378-.016.369-.032.361-.049.353-.056.337-.064.329-.089.321-.097.313-.105.297-.121.289-.137.281-.145.265-.161.265-.169.249-.097.121-.088.112-.096.121-.104.112-.105.112-.105.104-.105.105-.113.096-.112.096-.113.097-.121.088-.121.088-.121.08-.121.081-.129.072-.129.072-.137.064-.129.064-.137.064-.137.056-.145.057-.137.048-.145.048-.153.048-.298.073-.314.064-.323.049-.3308.04-.339.016-.347.008zm-15.931-2.7365l-.0805-.1287-.0807-.1363-.0726-.1364-.0726-.144-.073-.144-.129-.289-.121-.297-.0968-.305-.0888-.321-.0807-.321-.0563-.337-.0484-.345-.0322-.353-.024-.361-.008-.369.008-.369.0163-.361.0403-.345.0403-.345.0643-.329.0646-.329.0885-.313.097-.305.113-.289.129-.289.137-.273.145-.265.1695-.257.1774-.248.1854-.24.2013-.233.113-.104.1048-.112.113-.104.113-.096.113-.096.113-.096.121-.088.121-.088.129-.08.121-.08.129-.08.129-.072.137-.064.129-.065.137-.064.138-.056.29-.104.291-.096.299-.072.314-.064.315-.048.331-.04.331-.016.347-.008h.186l.186.008.201.008.201.016.419.049.46.064.476.08.508.097.54.12.565.137v3.033H76.3l-.008-.208-.008-.16v-.16l-.016-.152-.016-.144-.016-.144-.024-.128-.032-.137-.0327-.128-.04-.12-.04-.112-.0487-.112-.0567-.104-.056-.096-.057-.096-.073-.088-.065-.088-.081-.081-.073-.072-.089-.072-.089-.064-.089-.056-.097-.056-.105-.048-.105-.04-.113-.04-.113-.032-.121-.032-.129-.024-.129-.016-.129-.016-.145-.008h-.137l-.21.008-.202.016-.202.032-.185.04-.186.056-.185.064-.178.072-.169.096-.161.096-.162.113-.153.128-.153.136-.137.153-.137.16-.137.169-.129.185-.121.193-.113.209-.105.208-.097.224-.089.225-.081.241-.073.241-.064.257-.064.265-.049.265-.04.281-.04.289-.024.297-.016.305-.016.313v.65l.016.321.024.305.032.305.04.297.048.281.064.272.064.273.08.256.089.249.096.241.105.233.113.217.129.216.129.209.145.193.154.185.153.176.161.161.169.152.178.137.185.128.194.113.194.104.21.088.209.08.218.064.218.056.233.04.234.032.25.017.25.008.21-.008h.218l.21-.016.201-.016.21-.016.193-.032.201-.025.193-.04.194-.032.185-.048.186-.048.177-.048.177-.064.178-.056.169-.072.169-.072v1.011l-.234.088-.226.081-.225.08-.234.072-.2257.064-.226.057-.226.056-.226.048-.225.049-.218.033-.226.032-.225.024-.218.024-.226.016-.218.008h-.218l-.346-.008-.339-.024-.33-.032-.322-.057-.153-.024-.161-.04-.153-.032-.1454-.048-.153-.04-.145-.048-.145-.056-.145-.056-.137-.064-.145-.064-.138-.064-.128-.0722-.137-.072-.129-.08-.129-.08-.129-.088-.121-.089-.121-.089-.121-.096-.121-.104-.113-.105-.121-.104-.113-.113-.105-.121-.105-.112-.105-.121-.105-.12-.096-.128-.096-.128-.089-.129m-5.483.313v-4.8h-.798l-.25.008-.234.016-.234.024-.226.0328-.218.032-.21.048-.201.048-.202.056-.186.064-.185.064-.177.08-.169.08-.161.088-.153.096-.145.105-.145.104-.129.112-.121.12-.113.121-.105.128-.0964.137-.081.136-.081.144-.064.145-.057.153-.057.161-.0407.16-.033.169-.016.177-.016.176-.008.177.008.136.008.1366.016.128.016.129.024.128.033.12.04.112.0405.1206.048.112.048.112.064.104.065.104.065.096.08.104.081.096.089.088.089.088.097.08.097.08.097.072.105.0645.105.056.105.056.113.048.113.04.113.04.121.0328.121.024.121.024.129.008.129.008.137.008.129-.008.129-.008.129-.016.137-.024.145-.032.138-.04.145-.048.153-.056.153-.064.153-.064.154-.08.161-.08.161-.088.17-.096.161-.104.178-.11zm.532.249l-.266.249-.258.233-.258.217-.258.201-.258.185-.258.1688-.258.145-.25.136-.258.12-.258.105-.258.088-.25.072-.258.056-.25.04-.258.024-.25.008-.202-.008-.201-.008-.193-.016-.185-.032-.185-.032-.1777-.048-.177-.048-.169-.064-.17-.064-.161-.08-.1618-.08-.153-.097-.153-.096-.145-.113-.145-.112-.138-.128-.129-.128-.121-.136-.113-.137-.105-.144-.105-.144-.088-.1528-.072-.152-.073-.16-.064-.16-.057-.1687-.049-.177-.04-.168-.024-.185-.024-.185-.008-.1842-.008-.193.008-.217.016-.225.0245-.2083.04-.209.048-.201.064-.2003.072-.185.081-.192.089-.177.112-.1763.113-.1685.129-.169.137-.161.145-.152.162-.144.177-.144.097-.08.113-.08.113-.072.113-.072.121-.072.121-.064.129-.064.137-.064.282-.112.299-.104.315-.096.331-.088.355-.072.363-.072.387-.048.403-.048.419-.032.4437-.033.4514-.008.476-.008h.483v-1.59l-.008-.1842v-.185l-.016-.169-.016-.169-.016-.161-.024-.161-.032-.153-.032-.145-.041-.137-.04-.129-.048-.128-.049-.12-.057-.11-.065-.112-.064-.105-.064-.0966-.081-.089-.073-.089-.089-.08-.089-.072-.089-.0723-.097-.056-.097-.056-.113-.048-.105-.048-.113-.04-.121-.032-.121-.024-.129-.024-.137-.008-.137-.016h-.274l-.129.008-.129.016-.129.016-.121.024-.129.033-.121.033-.121.04-.113.04-.121.048-.113.056-.113.056-.105.064-.113.072-.105.072-.105.08-.056.048-.056.064-.0564.064-.048.073-.049.081-.0487.088-.04.088-.04.096-.032.112-.041.105-.024.1208-.032.128-.049.265-.0405.297-.008.2244h-1.58v-2.34l.306-.1282.298-.12.298-.112.298-.1046.29-.096.298-.0885.283-.08.291-.072.282-.065.283-.048.274-.048.274-.04.274-.033.266-.016.266-.017h.524l.25.016.242.016.226.024.2254.032.217.04.21.048.194.056.193.064.186.072.1777.08.1614.088.161.088.153.104.137.104.137.112.129.129.112.128.113.136.105.144.089.152.089.16.081.168.064.177.065.185.048.184.048.201.04.2.024.216.024.216.008.233.008.233v6.043l.016.337.016.313.032.281.032.257.049.225.024.104.032.096.032.088.033.08.032.072.04.072.04.065.041.064.049.056.048.048.056.048.057.04.057.032.064.032.0645.032.0727.016.0647.024.0802.008.073.008h.081l.128-.008.145-.016.17-.032.185-.048.072.875-.21.064-.202.064-.193.048-.193.04-.186.032-.178.024-.17.008-.169.008h-.105l-.105-.008-.105-.008-.096-.016-.0967-.016-.097-.024-.0884-.024-.088-.032-.0884-.032-.081-.04-.081-.04-.081-.048-.081-.048-.072-.057-.073-.056-.072-.064-.0647-.064-.065-.072-.057-.072-.065-.072-.056-.088-.056-.08-.048-.088-.049-.097-.097-.201-.081-.217-.0724-.233-.054-.249z"/>
    <path fill="#fff" d="M44.513 26.9384V14.1586l-.008-.3873-.008-.346-.0242-.305-.0323-.2636-.016-.1153-.016-.107-.0243-.0907-.0242-.0907-.0244-.0742-.032-.066-.0243-.0575-.0323-.0414-.0402-.042-.0486-.033-.0562-.041-.0645-.033-.0727-.033-.0805-.025-.097-.033-.0966-.025-.234-.05-.2577-.042-.3064-.033-.3387-.033-.226-.009v-.75h4.507V23.03h.556l2.967-2.917.443-.4695.395-.412.322-.346.274-.2968.209-.239.145-.1817.048-.066.04-.0573.024-.033.008-.033-.008-.0247v-.024l-.016-.0244-.017-.025-.057-.0413-.065-.033-.097-.025-.105-.024-.137-.0164h-.153l-.299-.009-.25-.009h-.596v-.75h4.991v.75l-.218.008-.298.024-.275.025-.242.033-.218.041-.185.041-.153.041-.129.049-.105.049-.105.082-.162.14-.201.182-.258.239-.299.288-.347.338-.396.395-.444.436-2.241 2.249L53.029 27l.347.4033.315.354.283.313.242.2636.218.223.1777.181.137.132.112.091.105.066.113.058.137.049.153.041.169.041.186.033.209.024.218.016.226.017v.75h-3.595l-5.394-6.435h-.556v3.691l.016.346.016.305.025.263.033.223.04.182.024.074.032.066.024.058.032.049.033.041.04.033.048.041.056.033.064.033.073.033.073.025.088.033.193.041.226.041.25.033.282.024.226.017v.75h-6.402v-.75l.226-.017.3383-.025.3065-.033.258-.041.234-.05.097-.025.097-.032.08-.033.073-.025.0645-.041.056-.033.049-.033.04-.042.0323-.049.024-.049.032-.066.0242-.074.024-.09.0245-.099.016-.099.016-.123.032-.255.024-.305.008-.346"/>
    <path fill="#fff" d="M38.321 27.6718l.0163-.3462V13.7713l-.0162-.346-.024-.305-.024-.2636-.016-.1153-.024-.107-.016-.0907-.024-.0907-.032-.0742-.024-.066-.032-.0575-.032-.0414-.032-.042-.048-.033-.056-.041-.064-.033-.073-.033-.089-.025-.088-.033-.105-.025-.226-.05-.266-.042-.298-.033-.338-.033-.226-.009v-.75h4.499v15.903l.008.387.008.346.016.304.033.264.016.123.016.107.024.091.025.09.025.074.024.057.032.057.033.041.041.041.04.033.056.041.064.033.081.033.081.025.089.032.105.025.234.049.266.041.306.033.347.025.226.016v.75h-6.692v-.75l.226-.017.339-.025.299-.033.266-.041.226-.049.105-.025.088-.033.089-.033.073-.025.065-.041.057-.033.048-.033.032-.041.032-.05.032-.05.024-.066.032-.074.025-.091.016-.099.024-.099.016-.124.024-.255"/>
    <path fill="#fff" d="M23.9376 23.6058h6.6757l-3.3138-8.108-3.362 8.108zm-.379.9704l-1.0078 2.3602-.137.3372-.1208.3043-.0967.279-.0807.246-.0644.222-.0484.189-.0242.156-.008.132.008.065.0163.057.032.049.04.049.048.049.072.041.072.033.089.033.104.033.113.024.121.024.137.016.153.016.153.009.177.008h.371v.749h-4.523v-.748l.25-.017.234-.016.218-.017.193-.025.161-.033.137-.033.112-.041.048-.017.04-.024.032-.025.024-.025.056-.082.081-.132.096-.181.113-.239.129-.288.153-.337.169-.395.185-.444 6.162-14.907h.806l6.119 14.991.178.387.161.337.145.304.129.255.121.222.113.181.089.131.081.098.041.041.04.033.049.033.057.033.113.058.137.041.153.041.169.033.193.025.201.016.274.016v.748h-6.474v-.748h.411l.185-.008.177-.009.161-.017.145-.017.137-.016.129-.025.105-.033.096-.033.089-.033.065-.041.065-.041.04-.05.032-.049.024-.057v-.057l-.008-.181-.016-.197-.04-.214-.056-.23-.073-.247-.081-.255-.105-.272-.113-.288-.976-2.369h-7.482z"/>
</svg>