<?xml version="1.0" encoding="utf-8"?>
<!-- Generated by IcoMoon.io -->
<svg version="1.1" xmlns="http://www.w3.org/2000/svg" xmlns:xlink="http://www.w3.org/1999/xlink" width="624" height="184" viewBox="0 0 624 184">
<svg id="ap-icon-24-edit_point" width="24" height="24" viewBox="0 0 24 24" x="0" y="0">
<path fill="#b31b34" d="M24 12c0 6.627-5.373 12-12 12s-12-5.373-12-12c0-6.627 5.373-12 12-12s12 5.373 12 12z"></path>
<path fill="#fff" d="M20 12c0 4.418-3.582 8-8 8s-8-3.582-8-8c0-4.418 3.582-8 8-8s8 3.582 8 8z"></path>
<path fill="#144382" d="M14.003 8.538c1.202 0.705 1.997 1.991 1.997 3.462 0 0.738-0.2 1.429-0.548 2.022-0.695 1.184-1.981 1.978-3.452 1.978-0.738 0-1.428-0.2-2.022-0.548-1.184-0.695-1.978-1.981-1.978-3.452 0-0.737 0.2-1.428 0.548-2.021 0.695-1.184 1.981-1.979 3.452-1.979 0.737 0 1.428 0.199 2.021 0.547z"></path>
</svg>
<svg id="ap-icon-24-publish" width="24" height="24" viewBox="0 0 24 24" x="40" y="0">
<path fill="#fff" d="M17.508 2.481c3.306 1.938 5.491 5.474 5.491 9.52 0 2.028-0.549 3.928-1.507 5.559-1.91 3.254-5.446 5.439-9.493 5.439-2.028 0-3.928-0.549-5.559-1.506-3.255-1.91-5.44-5.446-5.44-9.493 0-2.028 0.549-3.927 1.506-5.558 1.91-3.255 5.447-5.441 9.494-5.441 2.027 0 3.927 0.548 5.558 1.505z"></path>
<path fill="#b31b34" d="M12 1c-4.247 0-7.89 2.384-9.715 5.939l-2.285-1.013 0.024 8.853 6.976-5.778-1.98-0.987c1.315-2.422 4.045-4.013 6.98-4.013 4.274 0 8 3.704 8 8 0 4.295-3.726 8-8 8-2.668 0-5.212-1.347-6.608-3.414l-2.157 1.971c2.004 2.691 5.171 4.443 8.764 4.443 6.055 0 11-4.916 11-11 0-6.086-4.945-11-11-11z"></path>
<path fill="#0d2c56" d="M12 6c-0.54 0-1.005 0.452-1 1l0.043 4.93c0.001 0.129 0.036 0.48 0.119 0.703 0.087 0.235 0.298 0.555 0.388 0.645l2.906 2.787c0.381 0.386 0.988 0.481 1.37 0.095 0.381-0.388 0.349-1.005-0.033-1.394l-2.794-2.766v-5c0-0.546-0.46-1-1-1z"></path>
</svg>
<svg id="ap-icon-24-project_red" width="24" height="24" viewBox="0 0 24 24" x="80" y="0">
<path fill="#b31b34" d="M21 3v11c-7.25 1.75-9-3.5-16.622 0.21v-10.96c7.872-4 9.372 3.25 16.622-0.25z"></path>
<path fill="#a8adb4" d="M3.875 1h0.239c0.483 0 0.875 0.392 0.875 0.875v20.25c0 0.483-0.392 0.875-0.875 0.875h-0.239c-0.483 0-0.875-0.392-0.875-0.875v-20.25c0-0.483 0.392-0.875 0.875-0.875z"></path>
</svg>
<svg id="ap-icon-24-project_yellow" width="24" height="24" viewBox="0 0 24 24" x="120" y="0">
<path fill="#ffc61e" d="M21 3v11c-7.25 1.75-9-3.5-16.622 0.21v-10.96c7.872-4 9.372 3.25 16.622-0.25z"></path>
<path fill="#a8adb4" d="M3.875 1h0.239c0.483 0 0.875 0.392 0.875 0.875v20.25c0 0.483-0.392 0.875-0.875 0.875h-0.239c-0.483 0-0.875-0.392-0.875-0.875v-20.25c0-0.483 0.392-0.875 0.875-0.875z"></path>
</svg>
<svg id="ap-icon-24-list" width="24" height="24" viewBox="0 0 24 24" x="160" y="0">
<path fill="#b31b34" d="M4 8l-3 8 3 8h19l-3-8 3-8-3-8h-19z"></path>
<path fill="#fff" d="M18.75 2l2 5h-15.25l-1.75-5z"></path>
<path fill="#b31b34" d="M3.25 15l2.25-6h15.25l-2.25 6z"></path>
<path fill="#fff" d="M5.25 22l-2-5h15.25l1.75 5z"></path>
</svg>
<svg id="ap-icon-24-cache" width="24" height="24" viewBox="0 0 24 24" x="200" y="0">
<path fill="#0d2c56" d="M22 11c0.5 0 1 0 1-0.467 0-0.533-0.5-0.533-1-0.533h-2v-2h2c0.5 0 1 0 1-0.5s-0.5-0.5-1-0.5h-2l0.067-2-1.067-1h-2v-2c0-0.5 0-1-0.5-1s-0.5 0.5-0.5 1v2h-2v-2c0-0.5 0-1-0.5-1s-0.5 0.5-0.5 1v2h-2v-2c0-0.5 0-1-0.5-1s-0.5 0.5-0.5 1v2h-2v-2c0-0.5 0-1-0.5-1s-0.5 0.5-0.5 1v2h-2l-1 1v2h-2c-0.5 0-1 0-1 0.5s0.5 0.5 1 0.5h2v2h-2c-0.5 0-1 0-1 0.5s0.5 0.5 1 0.5h2v2h-2c-0.5 0-1 0-1 0.467 0 0.533 0.5 0.533 1 0.533h2v2h-2c-0.5 0-1 0-1 0.5s0.5 0.5 1 0.5h2v2l1 1h2v2c0 0.463 0 1 0.5 1s0.5-0.5 0.5-1v-2h2v2c0 0.5 0 1 0.5 1s0.5-0.5 0.5-1v-2h2v2c0 0.5 0 1 0.5 1s0.5-0.5 0.5-1v-2h2v2c0 0.5 0 1 0.5 1s0.5-0.5 0.5-1v-2h2l1-1v-2h2c0.5 0 1 0 1-0.5s-0.5-0.5-1-0.5h-2v-2h2c0.5 0 1 0 1-0.5s-0.5-0.5-1-0.5h-2v-2z"></path>
<path fill="#fff" d="M8 8h8v8h-8v-8z"></path>
<path fill="#b31b34" d="M9 9h6v6h-6v-6z"></path>
</svg>
<svg id="ap-icon-24-log" width="24" height="24" viewBox="0 0 24 24" x="240" y="0">
<path fill="#fff" d="M7.75 21.5h8.75l-4.5-11.5z"></path>
<path fill="#7f8691" d="M8 1c-2.5 4-2.5 10 0 14-1-1-4-3-4-7s3-6 4-7z"></path>
<path fill="#7f8691" d="M4 0c-2.75 5-2.75 11 0 16-1-1-4-4-4-8s3-7 4-8z"></path>
<path fill="#7f8691" d="M20 16c2.75-5 2.75-11 0-16 1 1 4 4 4 8s-3 7-4 8z"></path>
<path fill="#7f8691" d="M16 15c2.5-4 2.5-10 0-14 1 1 4 3 4 7s-3 6-4 7z"></path>
<path fill="#0d2c56" d="M10 10l-4 14h2l0.615-2h6.77l0.615 2h2l-4-14zM12 11l1.231 4h-2.461zM10.461 16h3.077l0.615 2h-4.308zM9.538 19h4.923l0.615 2h-6.154z"></path>
<path fill="#b31b34" d="M14.003 4.538c1.202 0.705 1.997 1.991 1.997 3.462 0 0.738-0.2 1.429-0.548 2.022l0.010-0.019c-0.705 1.202-1.991 1.997-3.462 1.997-0.738 0-1.428-0.2-2.022-0.548l0.019 0.010c-1.203-0.705-1.997-1.991-1.997-3.462 0-0.737 0.2-1.428 0.548-2.021l-0.010 0.019c0.705-1.203 1.991-1.997 3.463-1.997 0.737 0 1.428 0.199 2.021 0.547l-0.019-0.010z"></path>
</svg>
<svg id="ap-icon-24-session" width="24" height="24" viewBox="0 0 24 24" x="280" y="0">
<path fill="#0d2c56" d="M2 2h20c0.552 0 1 0.448 1 1v15c0 0.552-0.448 1-1 1h-20c-0.552 0-1-0.448-1-1v-15c0-0.552 0.448-1 1-1z"></path>
<path fill="#fff" d="M2 3h20v14h-20v-14z"></path>
<path fill="#b31b34" d="M13 13.075v-0.825c1.102-0.621 2-2.168 2-3.716 0-2.485 0-4.5-3-4.5s-3 2.015-3 4.5c0 1.548 0.898 3.095 2 3.716v0.825c-3.392 0.277-5 1.944-5 3.959l12.122-0.034c0-2.015-1.729-3.648-5.122-3.925z"></path>
<path fill="#0d2c56" d="M11 17.75v1.5c0 1-1.5 2-4 2v1h10v-1c-2.5 0-4-1-4-2v-1.5z"></path>
</svg>
<svg id="ap-icon-24-database" width="24" height="24" viewBox="0 0 24 24" x="320" y="0">
<path fill="#fff" d="M2 2.5h20.25v19h-20.25v-19z"></path>
<path fill="#0d2c56" d="M24.078 4.936c0-0.666-0.236-1.408-1.36-2.356-0.668-0.563-1.582-1.054-2.718-1.459-2.144-0.765-4.965-1.186-7.942-1.186s-5.798 0.421-7.942 1.186c-1.136 0.405-2.050 0.896-2.718 1.459-1.124 0.947-1.321 1.69-1.321 2.356v14c0 0.666 0.197 1.408 1.321 2.356 0.668 0.563 1.582 1.054 2.718 1.459 2.144 0.765 4.984 1.186 7.961 1.186s5.778-0.421 7.922-1.186c1.136-0.405 2.050-0.896 2.718-1.459 1.124-0.947 1.36-1.69 1.36-2.356zM5.466 3.832c1.791-0.578 4.132-0.896 6.592-0.896s4.802 0.318 6.592 0.896c1.75 0.565 2.335 0.922 2.427 1.104-0.092 0.182-0.677 1.039-2.427 1.604-1.791 0.578-4.132 0.896-6.592 0.896s-4.802-0.318-6.592-0.896c-1.75-0.565-2.296-1.422-2.388-1.604 0.092-0.182 0.638-0.539 2.388-1.104zM18.651 20.040c-1.791 0.578-4.132 0.896-6.593 0.896s-4.802-0.318-6.592-0.896c-1.75-0.565-2.296-0.922-2.388-1.104v-3.5c0.331 0.155 0.657 0.428 1.039 0.564 2.144 0.765 4.965 1.186 7.942 1.186s5.798-0.421 7.942-1.186c0.38-0.136 0.748-0.41 1.078-0.564v3.5c-0.092 0.182-0.677 0.539-2.427 1.104zM18.651 13.29c-1.791 0.578-4.132 0.896-6.593 0.896s-4.802-0.318-6.592-0.896c-1.75-0.565-2.326-1.172-2.418-1.354l0.030-3.25c0.331 0.155 0.657 0.428 1.039 0.564 2.144 0.765 4.965 1.186 7.942 1.186s5.798-0.421 7.942-1.186c0.38-0.136 0.735-0.41 1.065-0.564v3.25c-0.092 0.182-0.664 0.789-2.414 1.354z"></path>
</svg>
<svg id="ap-icon-24-project" width="24" height="24" viewBox="0 0 24 24" x="360" y="0">
<path fill="#fff" d="M3 3h17v18.75h-17v-18.75z"></path>
<path fill="#b31b34" d="M20 5v16h-14c-1.5 0-2-0.43-2-1.5s0.5-1.5 2-1.5h12v-17h-13.143c-1.571 0-2.857 1.237-2.857 2.75v16.25c0 2 2 3 4 3h16v-18z"></path>
<path fill="#0d2c56" d="M6 19c-0.5 0-1 0-1 0.5s0.5 0.5 1 0.5h12v-1z"></path>
</svg>
<svg id="ap-icon-24-site" width="24" height="24" viewBox="0 0 24 24" x="400" y="0">
<path fill="#fff" d="M1 12l2 2 6 9h6l6-9 2-2-11-9z"></path>
<path fill="#b31b34" d="M1 9.5v4l11-8.5 11 8.5v-4c-4-3.167-11.070-8.556-11-8.5z"></path>
<path fill="#0d2c56" d="M3 22c0 0.5 0.5 1 1.037 1h4.963v-6h6v6h4.997c0.503 0 1.003-0.5 1.003-1v-8l-9-7-9 6.985z"></path>
</svg>
<svg id="ap-icon-24-scheduler" width="24" height="24" viewBox="0 0 24 24" x="440" y="0">
<path fill="#fff" d="M2.595 7h18.905l-0.034 14.688-0.466 1.313h-18l-0.405-2z"></path>
<path fill="#0d2c56" d="M20 4h-1v0.5c0 1-1 1.5-2 1.5s-2-0.5-2-1.5v-0.5h-6v0.5c0 1-1 1.5-2 1.5s-2-0.5-2-1.5v-0.5h-1c-1.25 0-1.939 0.5-1.939 2v14c0 1.5 0.689 2 1.939 2h16c1.5 0 2-0.5 2-2v-14c0-1.5-0.5-2-2-2zM21 21h-18v-14h18zM7 5c0.5 0 1-0.5 1-1v-3c0-0.5-0.5-1-1-1s-1 0.5-1 1v3c0 0.5 0.5 1 1 1zM17 5c0.5 0 1-0.5 1-1v-3c0-0.503-0.5-1-1-1s-1 0.5-1 1v3c0 0.5 0.5 1 1 1zM20.042 22.953h-16.022c-0.783 0-1.424-1.197-1.424-1.953v0.687c0 0.756 0.641 2.375 1.424 2.375h16.022c0.783 0 1.424-1.619 1.424-2.375v-0.687c0 0.756-0.641 1.953-1.424 1.953z"></path>
<path fill="#fff" d="M10.636 14.859c0.020-0.007 0.041-0.014 0.061-0.021 0 0-0.271 0.212-0.271 0.212v0c-0.022 0.009-0.044 0.018-0.066 0.027 0 0 0.276-0.218 0.276-0.218z"></path>
<path fill="#fff" d="M13.197 12.467c0.022-0.098 0.048-0.195 0.069-0.294 0 0 0.302-0.147 0.302-0.147v0c-0.006 0.036-0.010 0.072-0.017 0.108-0.011 0.059-0.032 0.117-0.037 0.177 0 0-0.317 0.156-0.317 0.156z"></path>
<path fill="#b31b34" d="M6 9v2h4v2h-4v2h4v2h-4v2h6v-10z"></path>
<path fill="#b31b34" d="M14 9v2h2v8h2v-10z"></path>
</svg>
<svg id="ap-icon-24-module" width="24" height="24" viewBox="0 0 24 24" x="480" y="0">
<path fill="#0d2c56" d="M11.25 1.142l-10.5 4.369c-0.563 0.19-0.75 0.38-0.75 0.75v11.026c-0.002 0.509 0.188 0.95 0.75 1.14l10.5 4.369c0.563 0.19 0.938 0.19 1.5 0l10.5-4.369c0.563-0.19 0.75-0.57 0.75-1.14v-11.016c0-0.38-0.188-0.57-0.737-0.787l-10.513-4.341c-0.563-0.19-0.938-0.19-1.5 0z"></path>
<path fill="#fff" d="M2 7v9.75l9 3.609v-9.859z"></path>
<path fill="#fff" d="M13 10.5v9.876l9-3.626v-9.75z"></path>
<path fill="#fff" d="M4.25 6l7.75-3.366 7.75 3.366-7.75 3z"></path>
<path fill="#b31b34" d="M8 8.597l11.644-4.606-3.144-1.298-11.5 4.693v3.363l3 1.25z"></path>
</svg>
<svg id="ap-icon-24-webuser" width="24" height="24" viewBox="0 0 24 24" x="520" y="0">
<path fill="#2197db" d="M22.971 1c0.529 0 1.029 0.5 1.029 1v19.999c0 0.501-0.5 1.001-1 1.001h-21.991c-0.509 0-1.009-0.5-1.009-1v-20c0-0.5 0.5-1 1-1z"></path>
<path fill="#fff" opacity="0.75" d="M1 2h22v20h-22v-20z"></path>
<path fill="#7f8691" d="M18.94 4.028c-2.97 0-2.883 2.044-2.883 4.529 0 1.548 0.852 2.992 1.943 3.612v0.75c-0.829 0.068-1.553 0.231-2.174 0.467-0.177 1.054-0.631 2.026-1.311 2.76 0.847 0.191 1.592 0.483 2.222 0.872l6.263-0.018v-3.181c-0.773-0.43-1.771-0.798-3-0.899v-0.75c1.090-0.621 1.91-2.094 1.91-3.641 0-2.485-0-4.5-2.97-4.5z"></path>
<path fill="#7f8691" d="M4.94 4.006c-2.97 0-2.854 2.073-2.854 4.558 0 1.548 0.823 2.963 1.914 3.583v0.825c-1.229 0.101-2.227 0.4-3 0.835v3.193l6.41-0.018c0.597-0.344 1.291-0.606 2.072-0.783-0.689-0.737-1.155-1.716-1.329-2.784-0.616-0.222-1.333-0.375-2.154-0.443v-0.825c1.090-0.621 1.91-2.094 1.91-3.641 0-2.485-0-4.5-2.97-4.5z"></path>
<path fill="#0d2c56" d="M13 17v-0.827c1.090-0.623 1.91-2.147 1.91-3.699 0-2.493 0-4.514-2.97-4.514s-2.864 2.048-2.864 4.541c0 1.553 0.834 3.050 1.924 3.673v0.827c-3.358 0.278-5 1.979-5 4h12c0-2.021-1.642-3.722-5-4z"></path>
</svg>
<svg id="ap-icon-24-orgunit" width="24" height="24" viewBox="0 0 24 24" x="560" y="0">
<path fill="#ffc61e" d="M22.971 1c0.529 0 1.029 0.5 1.029 1v19.999c0 0.501-0.5 1.001-1 1.001h-21.991c-0.509 0-1.009-0.5-1.009-1v-20c0-0.5 0.5-1 1-1z"></path>
<path fill="#fdf9ae" d="M1 2h22v20h-22v-20z"></path>
<path fill="#7f8691" d="M18.94 4.028c-2.97 0-2.883 2.044-2.883 4.529 0 1.548 0.852 2.992 1.943 3.612v0.75c-0.829 0.068-1.553 0.231-2.174 0.467-0.177 1.054-0.631 2.026-1.311 2.76 0.847 0.191 1.592 0.483 2.222 0.872l6.263-0.018v-3.181c-0.773-0.43-1.771-0.798-3-0.899v-0.75c1.090-0.621 1.91-2.094 1.91-3.641 0-2.485-0-4.5-2.97-4.5z"></path>
<path fill="#7f8691" d="M4.94 4.006c-2.97 0-2.854 2.073-2.854 4.558 0 1.548 0.823 2.963 1.914 3.583v0.825c-1.229 0.101-2.227 0.4-3 0.835v3.193l6.41-0.018c0.597-0.344 1.291-0.606 2.072-0.783-0.689-0.737-1.155-1.716-1.329-2.784-0.616-0.222-1.333-0.375-2.154-0.443v-0.825c1.090-0.621 1.91-2.094 1.91-3.641 0-2.485-0-4.5-2.97-4.5z"></path>
<path fill="#b31b34" d="M13 17v-0.827c1.090-0.623 1.91-2.147 1.91-3.699 0-2.493 0-4.514-2.97-4.514s-2.864 2.048-2.864 4.541c0 1.553 0.834 3.050 1.924 3.673v0.827c-3.358 0.278-5 1.979-5 4h12c0-2.021-1.642-3.722-5-4z"></path>
</svg>
<svg id="ap-icon-24-group" width="24" height="24" viewBox="0 0 24 24" x="600" y="0">
<path fill="#b31b34" d="M9 0c-3.857 0-3.857 3.22-3.857 6.96 0 2.329 1.441 5.106 2.857 6.040v1c-4.361 0.417-8 2.968-8 6h6.508c1.3-1.384 3.126-2.321 4.936-2.791 0.157-0.136 0.939-0.039 0.649-0.312-0.721-0.852-1.239-1.815-1.593-2.839l-0.333-1.178c-0.417-1.873-0.369-3.879-0.068-5.746 0.036-1.663 1.109-3.197 2.57-3.934-0.327-1.903-1.221-3.201-3.668-3.201z"></path>
<path fill="#0d2c56" d="M16 18v-1c1.416-0.934 2.857-3.711 2.857-6.040 0-3.74 0-6.96-3.857-6.96s-3.857 3.22-3.857 6.96c0 2.329 1.441 5.106 2.857 6.040v1c-4.361 0.417-8 2.968-8 6h18c0-3.032-3.639-5.583-8-6z"></path>
</svg>
<svg id="ap-icon-24-user" width="24" height="24" viewBox="0 0 24 24" x="0" y="40">
<path fill="#b31b34" d="M13 18v-1c1.416-0.934 2.857-3.711 2.857-6.040 0-3.74 0-6.96-3.857-6.96s-3.857 3.22-3.857 6.96c0 2.329 1.441 5.106 2.857 6.040v1c-4.361 0.417-8 2.968-8 6h18c0-3.032-3.639-5.583-8-6z"></path>
</svg>
<svg id="ap-icon-24-role" width="24" height="24" viewBox="0 0 24 24" x="40" y="40">
<path fill="#7f8691" d="M13 18v-1c1.416-0.934 2.857-3.711 2.857-6.040 0-3.74 0-6.96-3.857-6.96s-3.857 3.22-3.857 6.96c0 2.329 1.441 5.106 2.857 6.040v1c-4.361 0.417-8 2.968-8 6h18c0-3.032-3.639-5.583-8-6z"></path>
<path fill="#ffc61e" d="M7 4h10c0.552 0 1 0.448 1 1v1c0 0.552-0.448 1-1 1h-10c-0.552 0-1-0.448-1-1v-1c0-0.552 0.448-1 1-1z"></path>
<path fill="#ffc61e" d="M10 1h4c0.552 0 1 0.448 1 1v2c0 0.552-0.448 1-1 1h-4c-0.552 0-1-0.448-1-1v-2c0-0.552 0.448-1 1-1z"></path>
</svg>
<svg id="ap-icon-24-folder" width="24" height="24" viewBox="0 0 24 24" x="80" y="40">
<path fill="#ffc61e" d="M10 4h12.971c0.529 0 1.029 0.5 1.029 1v15.999c0 0.501-0.5 1.001-1 1.001h-21.991c-0.509 0-1.009-0.5-1.009-1v-19c0-0.5 0.5-1 1-1h6z"></path>
<path fill="#fdf9ae" d="M1 6h22v15h-22v-15z"></path>
</svg>
<svg id="ap-icon-24-subsitemap" width="24" height="24" viewBox="0 0 24 24" x="120" y="40">
<path fill="#ffc61e" d="M10 4h12.971c0.529 0 1.029 0.5 1.029 1v15.999c0 0.501-0.5 1.001-1 1.001h-21.991c-0.509 0-1.009-0.5-1.009-1v-19c0-0.5 0.5-1 1-1h6z"></path>
<path fill="#fdf9ae" d="M1 6h22v15h-22v-15z"></path>
<path fill="#0d2c56" d="M10 16h8c0.5 0 1-0.5 1-1v-2c0-0.5-0.25-1-1-1h-8c-0.5 0-1 0.5-1 1h-1v-2h6c0.5 0 1-0.5 1-1v-2c0-0.5-0.5-1-1-1h-7.932c-0.568 0-1.068 0.5-1.068 1v2c0 0.5 0.5 1 1 1h1v8h2v1c0 0.5 0.537 1 1 1h8c0.5 0 1-0.5 1-1v-2c0-0.5-0.5-1-1-1h-8c-0.5 0-1 0.5-1 1h-1v-4h1v1c0 0.75 0.5 1 1 1z"></path>
<path fill="#fff" d="M6 8h2v2h-2v-2z"></path>
<path fill="#fff" d="M10 13h2v2h-2v-2z"></path>
<path fill="#fff" d="M10 18h2v2h-2v-2z"></path>
</svg>
<svg id="ap-icon-24-configfolder" width="24" height="24" viewBox="0 0 24 24" x="160" y="40">
<path fill="#ffc61e" d="M10 4h12.971c0.529 0 1.029 0.5 1.029 1v15.999c0 0.501-0.5 1.001-1 1.001h-21.991c-0.509 0-1.009-0.5-1.009-1v-19c0-0.5 0.5-1 1-1h6z"></path>
<path fill="#fdf9ae" d="M1 6h22v15h-22v-15z"></path>
<path fill="#0d2c56" d="M15.725 17.5c0.025-0.5 0.275-0.75 0.757-0.756 0.518 0.006 0.768 0.256 0.757 0.756 0.011 0.5-0.239 0.75-0.757 0.756-0.482-0.007-0.732-0.257-0.757-0.756zM11.023 14.311l5.403 5.396c0.195 0.195 0.433 0.293 0.713 0.293 0.275 0 0.515-0.098 0.721-0.293l0.84-0.855c0.201-0.19 0.301-0.427 0.301-0.712 0-0.28-0.1-0.52-0.301-0.72l-5.395-5.388c-0.206 0.517-0.508 0.975-0.907 1.373s-0.857 0.7-1.374 0.906zM6 10.869c0 0.206 0.061 0.485 0.182 0.839 0.248 0.707 0.683 1.28 1.303 1.721s1.303 0.661 2.048 0.661c0.977 0 1.813-0.347 2.507-1.040s1.042-1.528 1.042-2.504c0-0.976-0.347-1.811-1.042-2.504s-1.53-1.040-2.507-1.040c-0.306 0-0.627 0.044-0.963 0.131s-0.619 0.21-0.852 0.368c-0.084 0.058-0.127 0.132-0.127 0.222s0.042 0.164 0.127 0.222l2.281 1.308v1.75l-1.489 0.898c-0.026-0.016-0.235-0.144-0.626-0.384s-0.749-0.454-1.073-0.641c-0.325-0.187-0.511-0.281-0.558-0.281-0.079 0-0.141 0.026-0.186 0.079s-0.067 0.119-0.067 0.198z"></path>
</svg>
<svg id="ap-icon-24-imagegallery" width="24" height="24" viewBox="0 0 24 24" x="200" y="40">
<path fill="#ffc61e" d="M10 4h12.971c0.529 0 1.029 0.5 1.029 1v15.999c0 0.501-0.5 1.001-1 1.001h-21.991c-0.509 0-1.009-0.5-1.009-1v-19c0-0.5 0.5-1 1-1h6z"></path>
<path fill="#fdf9ae" d="M1 6h22v15h-22v-15z"></path>
<path fill="#2197db" d="M5.059 8h13.883c0.585 0 1.059 0.474 1.059 1.059v9.882c0 0.585-0.474 1.059-1.059 1.059h-13.883c-0.585 0-1.059-0.474-1.059-1.059v-9.882c0-0.585 0.474-1.059 1.059-1.059z"></path>
<path fill="#fff" opacity="0.6" d="M5.059 8h13.883c0.585 0 1.059 0.474 1.059 1.059v9.882c0 0.585-0.474 1.059-1.059 1.059h-13.883c-0.585 0-1.059-0.474-1.059-1.059v-9.882c0-0.585 0.474-1.059 1.059-1.059z"></path>
<path fill="#fdf9ae" d="M9.002 9.269c0.601 0.352 0.998 0.995 0.998 1.731 0 0.369-0.1 0.714-0.274 1.011l0.005-0.009c-0.352 0.601-0.995 0.998-1.731 0.998-0.369 0-0.714-0.1-1.011-0.274l0.009 0.005c-0.601-0.352-0.999-0.995-0.999-1.731 0-0.369 0.1-0.714 0.274-1.011l-0.005 0.009c0.352-0.601 0.995-0.999 1.731-0.999 0.369 0 0.714 0.1 1.011 0.274l-0.009-0.005z"></path>
<path fill="#0d2c56" d="M4 18v1c0 0.5 0.5 1 1 1h14c0.5 0 1-0.5 1-1v-4l-4-4-5 5-3-2z"></path>
</svg>
<svg id="ap-icon-24-downloadgallery" width="24" height="24" viewBox="0 0 24 24" x="240" y="40">
<path fill="#ffc61e" d="M10 4h12.971c0.529 0 1.029 0.5 1.029 1v15.999c0 0.501-0.5 1.001-1 1.001h-21.991c-0.509 0-1.009-0.5-1.009-1v-19c0-0.5 0.5-1 1-1h6z"></path>
<path fill="#fdf9ae" d="M1 6h22v15h-22v-15z"></path>
<path fill="#0d2c56" d="M5 7v14c0 0.5 0.5 1 1 1h12c0.494 0 1-0.5 1-1v-9l-6-6h-6.92c-0.581 0-1.080 0.5-1.080 1z"></path>
<path fill="#fff" d="M6 7v14h12v-10.062l-4.5-3.938z"></path>
<path fill="#0d2c56" d="M13 6v5c0 0.5 0.5 1 1 1h5z"></path>
<path fill="#fff" opacity="0.4" d="M5 7v14c0 0.5 0.5 1 1 1h12c0.494 0 1-0.5 1-1v-9l-6-6h-6.92c-0.581 0-1.080 0.5-1.080 1z"></path>
</svg>
<svg id="ap-icon-24-htmlgallery" width="24" height="24" viewBox="0 0 24 24" x="280" y="40">
<path fill="#ffc61e" d="M10 4h12.971c0.529 0 1.029 0.5 1.029 1v15.999c0 0.501-0.5 1.001-1 1.001h-21.991c-0.509 0-1.009-0.5-1.009-1v-19c0-0.5 0.5-1 1-1h6z"></path>
<path fill="#fdf9ae" d="M1 6h22v15h-22v-15z"></path>
<path fill="#0d2c56" d="M13.5 17.35l1.5 1.65 5-5.5-5-5.5-1.5 1.65 3.5 3.85z"></path>
<path fill="#0d2c56" d="M10.5 9.65l-1.5-1.65-5 5.5 5 5.5 1.5-1.65-3.5-3.85z"></path>
</svg>
<svg id="ap-icon-24-tablegallery" width="24" height="24" viewBox="0 0 24 24" x="320" y="40">
<path fill="#ffc61e" d="M10 4h12.971c0.529 0 1.029 0.5 1.029 1v15.999c0 0.501-0.5 1.001-1 1.001h-21.991c-0.509 0-1.009-0.5-1.009-1v-19c0-0.5 0.5-1 1-1h6z"></path>
<path fill="#fdf9ae" d="M1 6h22v15h-22v-15z"></path>
<path fill="#0d2c56" d="M6 7h13c0.552 0 1 0.448 1 1v11c0 0.552-0.448 1-1 1h-13c-0.552 0-1-0.448-1-1v-11c0-0.552 0.448-1 1-1z"></path>
<path fill="#fff" d="M6 8h6v3h-6v-3z"></path>
<path fill="#fff" d="M13 8h6v3h-6v-3z"></path>
<path fill="#fff" d="M13 12h6v3h-6v-3z"></path>
<path fill="#fff" d="M6 12h6v3h-6v-3z"></path>
<path fill="#fff" d="M13 16h6v3h-6v-3z"></path>
<path fill="#fff" d="M6 16h6v3h-6v-3z"></path>
</svg>
<svg id="ap-icon-24-linkgallery" width="24" height="24" viewBox="0 0 24 24" x="360" y="40">
<path fill="#ffc61e" d="M10 4h12.971c0.529 0 1.029 0.5 1.029 1v15.999c0 0.501-0.5 1.001-1 1.001h-21.991c-0.509 0-1.009-0.5-1.009-1v-19c0-0.5 0.5-1 1-1h6z"></path>
<path fill="#fdf9ae" d="M1 6h22v15h-22v-15z"></path>
<path fill="#fff" d="M8.042 8h4.916c1.68 0 3.042 1.362 3.042 3.042v4.916c0 1.68-1.362 3.042-3.042 3.042h-4.916c-1.68 0-3.042-1.362-3.042-3.042v-4.916c0-1.68 1.362-3.042 3.042-3.042z"></path>
<path fill="#0d2c56" d="M15.977 14.273v2.5q0 0.93-0.66 1.59t-1.59 0.66h-6.5q-0.93 0-1.59-0.66t-0.66-1.59v-6.5q0-0.93 0.66-1.59t1.59-0.66h5.5q0.109 0 0.18 0.070t0.070 0.18v0.5q0 0.109-0.070 0.18t-0.18 0.070h-5.5q-0.516 0-0.883 0.367t-0.367 0.883v6.5q0 0.516 0.367 0.883t0.883 0.367h6.5q0.516 0 0.883-0.367t0.367-0.883v-2.5q0-0.109 0.070-0.18t0.18-0.070h0.5q0.109 0 0.18 0.070t0.070 0.18zM18.977 7.523v4q0 0.203-0.148 0.352t-0.352 0.148-0.352-0.148l-1.375-1.375-5.094 5.094q-0.078 0.078-0.18 0.078t-0.18-0.078l-0.891-0.891q-0.078-0.078-0.078-0.18t0.078-0.18l5.094-5.094-1.375-1.375q-0.148-0.148-0.148-0.352t0.148-0.352 0.352-0.148h4q0.203 0 0.352 0.148t0.148 0.352z"></path>
</svg>
<svg id="ap-icon-24-navlevel" width="24" height="24" viewBox="0 0 24 24" x="400" y="40">
<path fill="#2197db" d="M10 4h12.971c0.529 0 1.029 0.5 1.029 1v15.999c0 0.501-0.5 1.001-1 1.001h-21.991c-0.509 0-1.009-0.5-1.009-1v-19c0-0.5 0.5-1 1-1h6z"></path>
<path fill="#fff" opacity="0.6" d="M1 6h22v15h-22v-15z"></path>
</svg>
<svg id="ap-icon-24-category" width="24" height="24" viewBox="0 0 24 24" x="440" y="40">
<path fill="#b31b34" d="M10 4h12.971c0.529 0 1.029 0.5 1.029 1v15.999c0 0.501-0.5 1.001-1 1.001h-21.991c-0.509 0-1.009-0.5-1.009-1v-19c0-0.5 0.5-1 1-1h6z"></path>
<path fill="#fdf9ae" opacity="0.6" d="M1 6h22v15h-22v-15z"></path>
</svg>
<svg id="ap-icon-24-plain" width="24" height="24" viewBox="0 0 24 24" x="480" y="40">
<path fill="#0d2c56" d="M3 0h18c0.552 0 1 0.448 1 1v22c0 0.552-0.448 1-1 1h-18c-0.552 0-1-0.448-1-1v-22c0-0.552 0.448-1 1-1z"></path>
<path fill="#fff" d="M3 1h18v22h-18v-22z"></path>
<path fill="#fff" opacity="0.4" d="M3 0h18c0.552 0 1 0.448 1 1v22c0 0.552-0.448 1-1 1h-18c-0.552 0-1-0.448-1-1v-22c0-0.552 0.448-1 1-1z"></path>
<path fill="#a8adb4" d="M6.5 9h11c0.276 0 0.5 0.224 0.5 0.5s-0.224 0.5-0.5 0.5h-11c-0.276 0-0.5-0.224-0.5-0.5s0.224-0.5 0.5-0.5z"></path>
<path fill="#a8adb4" d="M6.5 11h11c0.276 0 0.5 0.224 0.5 0.5s-0.224 0.5-0.5 0.5h-11c-0.276 0-0.5-0.224-0.5-0.5s0.224-0.5 0.5-0.5z"></path>
<path fill="#a8adb4" d="M6.5 13h11c0.276 0 0.5 0.224 0.5 0.5s-0.224 0.5-0.5 0.5h-11c-0.276 0-0.5-0.224-0.5-0.5s0.224-0.5 0.5-0.5z"></path>
<path fill="#a8adb4" d="M6.5 15h11c0.276 0 0.5 0.224 0.5 0.5s-0.224 0.5-0.5 0.5h-11c-0.276 0-0.5-0.224-0.5-0.5s0.224-0.5 0.5-0.5z"></path>
<path fill="#a8adb4" d="M6.5 17h11c0.276 0 0.5 0.224 0.5 0.5s-0.224 0.5-0.5 0.5h-11c-0.276 0-0.5-0.224-0.5-0.5s0.224-0.5 0.5-0.5z"></path>
<path fill="#a8adb4" d="M6.5 19h11c0.276 0 0.5 0.224 0.5 0.5s-0.224 0.5-0.5 0.5h-11c-0.276 0-0.5-0.224-0.5-0.5s0.224-0.5 0.5-0.5z"></path>
<path fill="#a8adb4" d="M6.5 7h11c0.276 0 0.5 0.224 0.5 0.5s-0.224 0.5-0.5 0.5h-11c-0.276 0-0.5-0.224-0.5-0.5s0.224-0.5 0.5-0.5z"></path>
<path fill="#a8adb4" d="M6.5 5h11c0.276 0 0.5 0.224 0.5 0.5s-0.224 0.5-0.5 0.5h-11c-0.276 0-0.5-0.224-0.5-0.5s0.224-0.5 0.5-0.5z"></path>
</svg>
<svg id="ap-icon-24-containerpage" width="24" height="24" viewBox="0 0 24 24" x="520" y="40">
<path fill="#0d2c56" d="M3 0h18c0.552 0 1 0.448 1 1v22c0 0.552-0.448 1-1 1h-18c-0.552 0-1-0.448-1-1v-22c0-0.552 0.448-1 1-1z"></path>
<path fill="#fff" d="M3 1h18v22h-18v-22z"></path>
<path fill="#fff" opacity="0.4" d="M3 0h18c0.552 0 1 0.448 1 1v22c0 0.552-0.448 1-1 1h-18c-0.552 0-1-0.448-1-1v-22c0-0.552 0.448-1 1-1z"></path>
<path fill="#b31b34" d="M6 17h12v4h-12v-4z"></path>
<path fill="#2197db" d="M6 4h12v4h-12v-4z"></path>
<path fill="#b31b34" d="M13 10h5v5h-5v-5z"></path>
<path fill="#2197db" d="M6 10h5v5h-5v-5z"></path>
</svg>
<svg id="ap-icon-24-modelpage" width="24" height="24" viewBox="0 0 24 24" x="560" y="40">
<path fill="#0d2c56" d="M3 0h18c0.552 0 1 0.448 1 1v22c0 0.552-0.448 1-1 1h-18c-0.552 0-1-0.448-1-1v-22c0-0.552 0.448-1 1-1z"></path>
<path fill="#fff" d="M3 1h18v22h-18v-22z"></path>
<path fill="#fff" opacity="0.4" d="M3 0h18c0.552 0 1 0.448 1 1v22c0 0.552-0.448 1-1 1h-18c-0.552 0-1-0.448-1-1v-22c0-0.552 0.448-1 1-1z"></path>
<path fill="#b31b34" d="M6 17h12v4h-12v-4z"></path>
<path fill="#a8adb4" d="M6 4h12v4h-12v-4z"></path>
<path fill="#b31b34" d="M13 10h5v5h-5v-5z"></path>
<path fill="#a8adb4" d="M6 10h5v5h-5v-5z"></path>
</svg>
<svg id="ap-icon-24-containerpage_template" width="24" height="24" viewBox="0 0 24 24" x="600" y="40">
<path fill="#b31b34" d="M3 0h18c0.552 0 1 0.448 1 1v22c0 0.552-0.448 1-1 1h-18c-0.552 0-1-0.448-1-1v-22c0-0.552 0.448-1 1-1z"></path>
<path fill="#fff" d="M3 1h18v22h-18v-22z"></path>
<path fill="#fff" opacity="0.4" d="M3 0h18c0.552 0 1 0.448 1 1v22c0 0.552-0.448 1-1 1h-18c-0.552 0-1-0.448-1-1v-22c0-0.552 0.448-1 1-1z"></path>
<path fill="#b31b34" opacity="0.1" d="M3 1h18v22h-18v-22z"></path>
<path fill="#b31b34" d="M6 17h12v4h-12v-4z"></path>
<path fill="#2197db" d="M6 4h12v4h-12v-4z"></path>
<path fill="#b31b34" d="M13 10h5v5h-5v-5z"></path>
<path fill="#2197db" d="M6 10h5v5h-5v-5z"></path>
</svg>
<svg id="ap-icon-24-function" width="24" height="24" viewBox="0 0 24 24" x="0" y="80">
<path fill="#0d2c56" d="M3 0h18c0.552 0 1 0.448 1 1v22c0 0.552-0.448 1-1 1h-18c-0.552 0-1-0.448-1-1v-22c0-0.552 0.448-1 1-1z"></path>
<path fill="#fff" d="M3 1h18v22h-18v-22z"></path>
<path fill="#fff" opacity="0.4" d="M3 0h18c0.552 0 1 0.448 1 1v22c0 0.552-0.448 1-1 1h-18c-0.552 0-1-0.448-1-1v-22c0-0.552 0.448-1 1-1z"></path>
<path fill="#0d2c56" d="M14 21l3-1.5c-1-2-0.5-3.5 2-3.5v-4c-2.5 0-3.341-1.5-2-3.5l-3-1.5c-1 2.5-3 2.5-4 0l-3 1.5c1 2 0.5 3.5-2 3.5v4c2.5 0 3 1.5 2 3.5l3 1.5c1-2.5 3-2.5 4 0zM9 14c0-1.75 1.5-3 3-3s3 1.25 3 3c0 1.75-1.25 3-3 3-1.5 0-3-1.25-3-3z"></path>
</svg>
<svg id="ap-icon-24-htmlredirect" width="24" height="24" viewBox="0 0 24 24" x="40" y="80">
<path fill="#0d2c56" d="M3 0h18c0.552 0 1 0.448 1 1v22c0 0.552-0.448 1-1 1h-18c-0.552 0-1-0.448-1-1v-22c0-0.552 0.448-1 1-1z"></path>
<path fill="#fff" d="M3 1h18v22h-18v-22z"></path>
<path fill="#fff" opacity="0.4" d="M3 0h18c0.552 0 1 0.448 1 1v22c0 0.552-0.448 1-1 1h-18c-0.552 0-1-0.448-1-1v-22c0-0.552 0.448-1 1-1z"></path>
<path fill="#0d2c56" d="M0 12v4c0 0.5 0.5 1 0.956 1h5.044v4l7-7-7-7v4h-5c-0.5 0-1 0.5-1 1z"></path>
<path fill="#2197db" d="M1 12v4h6v2.75l4.75-4.75-4.75-4.75v2.75z"></path>
</svg>
<svg id="ap-icon-24-binary" width="24" height="24" viewBox="0 0 24 24" x="80" y="80">
<path fill="#0d2c56" d="M3 0h18c0.552 0 1 0.448 1 1v22c0 0.552-0.448 1-1 1h-18c-0.552 0-1-0.448-1-1v-22c0-0.552 0.448-1 1-1z"></path>
<path fill="#fff" d="M3 1h18v22h-18v-22z"></path>
<path fill="#fff" opacity="0.4" d="M3 0h18c0.552 0 1 0.448 1 1v22c0 0.552-0.448 1-1 1h-18c-0.552 0-1-0.448-1-1v-22c0-0.552 0.448-1 1-1z"></path>
<path fill="#0d2c56" d="M7 4h3v1h-3v-1z"></path>
<path fill="#0d2c56" d="M6 5v5h1v-1h1v-1h-1v-3z"></path>
<path fill="#0d2c56" d="M10 5v1h-1v1h1v3h1v-5z"></path>
<path fill="#0d2c56" d="M7 10h3v1h-3v-1z"></path>
<path fill="#0d2c56" d="M8 7h1v1h-1v-1z"></path>
<path fill="#0d2c56" d="M15 4v1h-1v1h1v4h-2v1h5v-1h-2v-6z"></path>
<path fill="#0d2c56" d="M14 13h3v1h-3v-1z"></path>
<path fill="#0d2c56" d="M13 14v5h1v-1h1v-1h-1v-3z"></path>
<path fill="#0d2c56" d="M17 14v1h-1v1h1v3h1v-5z"></path>
<path fill="#0d2c56" d="M14 19h3v1h-3v-1z"></path>
<path fill="#0d2c56" d="M15 16h1v1h-1v-1z"></path>
<path fill="#0d2c56" d="M8 13v1h-1v1h1v4h-2v1h5v-1h-2v-6z"></path>
</svg>
<svg id="ap-icon-24-localization" width="24" height="24" viewBox="0 0 24 24" x="120" y="80">
<path fill="#0d2c56" d="M3 0h18c0.552 0 1 0.448 1 1v22c0 0.552-0.448 1-1 1h-18c-0.552 0-1-0.448-1-1v-22c0-0.552 0.448-1 1-1z"></path>
<path fill="#fff" d="M3 1h18v22h-18v-22z"></path>
<path fill="#fff" opacity="0.4" d="M3 0h18c0.552 0 1 0.448 1 1v22c0 0.552-0.448 1-1 1h-18c-0.552 0-1-0.448-1-1v-22c0-0.552 0.448-1 1-1z"></path>
<path fill="#0d2c56" d="M17.030 15.108c1.484-0.835 1.972-1.633 1.971-3.133-0.001-2.135-2-4.001-4.5-4.001s-4.5 1.5-4.518 3.454c-3.483 0.072-4.981 1.822-4.982 3.548-0.001 1.774 0.999 2.774 1.999 3.024 0.012 1.516-1.533 1.777-1.925 1.974 1.274 0.021 2.735-0.301 3.441-1.469 3.985 0.19 5.234-1.504 5.485-2.528 0.555 0.075 0.84 0.048 1.467 0.006 0.832 0.789 2.033 0.994 3.533 0.994-0.708-0.346-1.798-1.101-1.971-1.867z"></path>
<path fill="#fff" d="M15.5 15.001c-0.595 0.076-0.979 0.114-1.495-0.023-0.134-1.269-0.533-2.862-2.957-3.463-0.049-1.356 1.451-2.516 3.451-2.516s3.41 1.349 3.5 3.001c0.054 1.002-0.193 1.623-2 2.752 0.197 0.674 0.927 1.329 1.5 1.749-1.183-0.393-1.662-0.942-2-1.5z"></path>
</svg>
<svg id="ap-icon-24-localization_descriptor" width="24" height="24" viewBox="0 0 24 24" x="160" y="80">
<path fill="#b31b34" d="M3 0h18c0.552 0 1 0.448 1 1v22c0 0.552-0.448 1-1 1h-18c-0.552 0-1-0.448-1-1v-22c0-0.552 0.448-1 1-1z"></path>
<path fill="#fff" d="M3 1h18v22h-18v-22z"></path>
<path fill="#fff" opacity="0.4" d="M3 0h18c0.552 0 1 0.448 1 1v22c0 0.552-0.448 1-1 1h-18c-0.552 0-1-0.448-1-1v-22c0-0.552 0.448-1 1-1z"></path>
<path fill="#b31b34" opacity="0.1" d="M3 1h18v22h-18v-22z"></path>
<path fill="#0d2c56" d="M17.030 15.108c1.484-0.835 1.972-1.633 1.971-3.133-0.001-2.135-2-4.001-4.5-4.001s-4.5 1.5-4.518 3.454c-3.483 0.072-4.981 1.822-4.982 3.548-0.001 1.774 0.999 2.774 1.999 3.024 0.012 1.516-1.533 1.777-1.925 1.974 1.274 0.021 2.735-0.301 3.441-1.469 3.985 0.19 5.234-1.504 5.485-2.528 0.555 0.075 0.84 0.048 1.467 0.006 0.832 0.789 2.033 0.994 3.533 0.994-0.708-0.346-1.798-1.101-1.971-1.867z"></path>
<path fill="#fff" d="M15.5 15.001c-0.595 0.076-0.979 0.114-1.495-0.023-0.134-1.269-0.533-2.862-2.957-3.463-0.049-1.356 1.451-2.516 3.451-2.516s3.41 1.349 3.5 3.001c0.054 1.002-0.193 1.623-2 2.752 0.197 0.674 0.927 1.329 1.5 1.749-1.183-0.393-1.662-0.942-2-1.5z"></path>
</svg>
<svg id="ap-icon-24-jsp_search" width="24" height="24" viewBox="0 0 24 24" x="200" y="80">
<path fill="#0d2c56" d="M3 0h18c0.552 0 1 0.448 1 1v22c0 0.552-0.448 1-1 1h-18c-0.552 0-1-0.448-1-1v-22c0-0.552 0.448-1 1-1z"></path>
<path fill="#fff" d="M3 1h18v22h-18v-22z"></path>
<path fill="#fff" opacity="0.4" d="M3 0h18c0.552 0 1 0.448 1 1v22c0 0.552-0.448 1-1 1h-18c-0.552 0-1-0.448-1-1v-22c0-0.552 0.448-1 1-1z"></path>
<path fill="#0d2c56" d="M10.217 6.99c-2.891 0-5.217 2.361-5.217 5.26s2.325 5.24 5.217 5.24c1.091 0 2.248-0.198 3.402-1.192l0.411 0.432c-0.157 0.339-0.079 0.736 0.471 1.266l2.46 2.499c0.712 0.701 1.312 0.562 1.696 0.165 0.371-0.383 0.551-0.928-0.176-1.66l-2.499-2.484c-0.516-0.531-0.93-0.604-1.282-0.445l-0.419-0.44c1-1.17 1.171-2.31 1.171-3.392 0-2.899-2.344-5.25-5.236-5.25z"></path>
<path fill="#fff" d="M12.119 8.989c1.133 0.664 1.881 1.875 1.881 3.261 0 0.695-0.188 1.346-0.516 1.905l0.010-0.018c-0.664 1.133-1.876 1.881-3.262 1.881-0.695 0-1.346-0.188-1.905-0.516l0.018 0.010c-1.133-0.664-1.882-1.875-1.882-3.261 0-0.695 0.188-1.345 0.516-1.904l-0.010 0.018c0.664-1.133 1.876-1.882 3.263-1.882 0.695 0 1.345 0.188 1.904 0.516l-0.018-0.010z"></path>
</svg>
<svg id="ap-icon-24-sitemap_config" width="24" height="24" viewBox="0 0 24 24" x="240" y="80">
<path fill="#0d2c56" d="M3 0h18c0.552 0 1 0.448 1 1v22c0 0.552-0.448 1-1 1h-18c-0.552 0-1-0.448-1-1v-22c0-0.552 0.448-1 1-1z"></path>
<path fill="#fff" d="M3 1h18v22h-18v-22z"></path>
<path fill="#fff" opacity="0.4" d="M3 0h18c0.552 0 1 0.448 1 1v22c0 0.552-0.448 1-1 1h-18c-0.552 0-1-0.448-1-1v-22c0-0.552 0.448-1 1-1z"></path>
<path fill="#0d2c56" d="M10 16h8c0.5 0 1-0.5 1-1v-2c0-0.5-0.25-1-1-1h-8c-0.5 0-1 0.5-1 1h-1v-2h6c0.5 0 1-0.5 1-1v-2c0-0.5-0.5-1-1-1h-7.932c-0.568 0-1.068 0.5-1.068 1v2c0 0.5 0.5 1 1 1h1v8h2v1c0 0.5 0.537 1 1 1h8c0.5 0 1-0.5 1-1v-2c0-0.5-0.5-1-1-1h-8c-0.5 0-1 0.5-1 1h-1v-4h1v1c0 0.75 0.5 1 1 1zM10 13h2l-0.014 2h-1.999zM10 18h2v2h-2zM6 10v-2h2v2z"></path>
</svg>
<svg id="ap-icon-24-module_config" width="24" height="24" viewBox="0 0 24 24" x="280" y="80">
<path fill="#0d2c56" d="M3 0h18c0.552 0 1 0.448 1 1v22c0 0.552-0.448 1-1 1h-18c-0.552 0-1-0.448-1-1v-22c0-0.552 0.448-1 1-1z"></path>
<path fill="#fff" d="M3 1h18v22h-18v-22z"></path>
<path fill="#fff" opacity="0.4" d="M3 0h18c0.552 0 1 0.448 1 1v22c0 0.552-0.448 1-1 1h-18c-0.552 0-1-0.448-1-1v-22c0-0.552 0.448-1 1-1z"></path>
<path fill="#0d2c56" d="M15.725 19.5c0.025-0.5 0.275-0.75 0.757-0.756 0.518 0.006 0.768 0.256 0.757 0.756 0.011 0.5-0.239 0.75-0.757 0.756-0.482-0.007-0.732-0.257-0.757-0.756zM11.023 16.311l5.403 5.396c0.195 0.195 0.433 0.293 0.713 0.293 0.275 0 0.515-0.098 0.721-0.293l0.84-0.855c0.201-0.19 0.301-0.427 0.301-0.712 0-0.28-0.1-0.52-0.301-0.72l-5.395-5.388c-0.206 0.517-0.508 0.975-0.907 1.373s-0.857 0.7-1.374 0.906zM6 12.869c0 0.206 0.061 0.485 0.182 0.839 0.248 0.707 0.683 1.28 1.303 1.721s1.303 0.661 2.048 0.661c0.977 0 1.813-0.347 2.507-1.040s1.042-1.528 1.042-2.504c0-0.976-0.347-1.811-1.042-2.504s-1.53-1.040-2.507-1.040c-0.306 0-0.627 0.044-0.963 0.131s-0.619 0.21-0.852 0.368c-0.084 0.058-0.127 0.132-0.127 0.222s0.042 0.164 0.127 0.222l2.281 1.308v1.75l-1.489 0.898c-0.026-0.016-0.235-0.144-0.626-0.384s-0.749-0.454-1.073-0.641c-0.325-0.187-0.511-0.281-0.558-0.281-0.079 0-0.141 0.026-0.186 0.079s-0.067 0.119-0.067 0.198z"></path>
</svg>
<svg id="ap-icon-24-xmlcontent" width="24" height="24" viewBox="0 0 24 24" x="320" y="80">
<path fill="#0d2c56" d="M3 0h18c0.552 0 1 0.448 1 1v22c0 0.552-0.448 1-1 1h-18c-0.552 0-1-0.448-1-1v-22c0-0.552 0.448-1 1-1z"></path>
<path fill="#fff" d="M3 1h18v22h-18v-22z"></path>
<path fill="#fff" opacity="0.4" d="M3 0h18c0.552 0 1 0.448 1 1v22c0 0.552-0.448 1-1 1h-18c-0.552 0-1-0.448-1-1v-22c0-0.552 0.448-1 1-1z"></path>
<path fill="#0d2c56" d="M14.5 19.2l1.269 1.8 4.231-6-4.231-6-1.269 1.8 2.962 4.2z"></path>
<path fill="#0d2c56" d="M9.5 10.8l-1.269-1.8-4.231 6 4.231 6 1.269-1.8-2.962-4.2z"></path>
<path fill="#0d2c56" d="M11.766 9l1.984 0.249-1.516 11.751-1.984-0.249 1.516-11.751z"></path>
</svg>
<svg id="ap-icon-24-pointer" width="24" height="24" viewBox="0 0 24 24" x="360" y="80">
<path fill="#0d2c56" d="M3 0h18c0.552 0 1 0.448 1 1v22c0 0.552-0.448 1-1 1h-18c-0.552 0-1-0.448-1-1v-22c0-0.552 0.448-1 1-1z"></path>
<path fill="#fff" d="M3 1h18v22h-18v-22z"></path>
<path fill="#fff" opacity="0.4" d="M3 0h18c0.552 0 1 0.448 1 1v22c0 0.552-0.448 1-1 1h-18c-0.552 0-1-0.448-1-1v-22c0-0.552 0.448-1 1-1z"></path>
<path fill="#fff" d="M7.333 10h6.334c1.289 0 2.333 1.045 2.333 2.333v6.334c0 1.289-1.045 2.333-2.333 2.333h-6.334c-1.289 0-2.333-1.045-2.333-2.333v-6.334c0-1.289 1.045-2.333 2.333-2.333z"></path>
<path fill="#0d2c56" d="M15.982 16.259v2.495q0 0.928-0.659 1.587t-1.587 0.659h-6.489q-0.928 0-1.587-0.659t-0.659-1.587v-6.487q0-0.928 0.659-1.587t1.587-0.659h5.491q0.109 0 0.179 0.070t0.070 0.179v0.499q0 0.109-0.070 0.179t-0.179 0.070h-5.491q-0.515 0-0.881 0.366t-0.367 0.881v6.487q0 0.515 0.367 0.881t0.881 0.366h6.489q0.515 0 0.881-0.366t0.367-0.881v-2.495q0-0.109 0.070-0.179t0.179-0.070h0.499q0.109 0 0.179 0.070t0.070 0.179zM18.977 9.522v3.992q0 0.203-0.148 0.351t-0.351 0.148-0.351-0.148l-1.373-1.372-5.085 5.084q-0.078 0.078-0.179 0.078t-0.179-0.078l-0.889-0.889q-0.078-0.078-0.078-0.179t0.078-0.179l5.085-5.084-1.373-1.372q-0.148-0.148-0.148-0.351t0.148-0.351 0.351-0.148h3.993q0.203 0 0.351 0.148t0.148 0.351z"></path>
</svg>
<svg id="ap-icon-24-formatter_config" width="24" height="24" viewBox="0 0 24 24" x="400" y="80">
<path fill="#b31b34" d="M3 0h18c0.552 0 1 0.448 1 1v22c0 0.552-0.448 1-1 1h-18c-0.552 0-1-0.448-1-1v-22c0-0.552 0.448-1 1-1z"></path>
<path fill="#fff" d="M3 1h18v22h-18v-22z"></path>
<path fill="#fff" opacity="0.4" d="M3 0h18c0.552 0 1 0.448 1 1v22c0 0.552-0.448 1-1 1h-18c-0.552 0-1-0.448-1-1v-22c0-0.552 0.448-1 1-1z"></path>
<path fill="#b31b34" opacity="0.1" d="M3 1h18v22h-18v-22z"></path>
<path fill="#0d2c56" d="M15.725 19.5c0.025-0.5 0.275-0.75 0.757-0.756 0.518 0.006 0.768 0.256 0.757 0.756 0.011 0.5-0.239 0.75-0.757 0.756-0.482-0.007-0.732-0.257-0.757-0.756zM11.023 16.311l5.403 5.396c0.195 0.195 0.433 0.293 0.713 0.293 0.275 0 0.515-0.098 0.721-0.293l0.84-0.855c0.201-0.19 0.301-0.427 0.301-0.712 0-0.28-0.1-0.52-0.301-0.72l-5.395-5.388c-0.206 0.517-0.508 0.975-0.907 1.373s-0.857 0.7-1.374 0.906zM6 12.869c0 0.206 0.061 0.485 0.182 0.839 0.248 0.707 0.683 1.28 1.303 1.721s1.303 0.661 2.048 0.661c0.977 0 1.813-0.347 2.507-1.040s1.042-1.528 1.042-2.504c0-0.976-0.347-1.811-1.042-2.504s-1.53-1.040-2.507-1.040c-0.306 0-0.627 0.044-0.963 0.131s-0.619 0.21-0.852 0.368c-0.084 0.058-0.127 0.132-0.127 0.222s0.042 0.164 0.127 0.222l2.281 1.308v1.75l-1.489 0.898c-0.026-0.016-0.235-0.144-0.626-0.384s-0.749-0.454-1.073-0.641c-0.325-0.187-0.511-0.281-0.558-0.281-0.079 0-0.141 0.026-0.186 0.079s-0.067 0.119-0.067 0.198z"></path>
</svg>
<svg id="ap-icon-24-jsp" width="24" height="24" viewBox="0 0 24 24" x="440" y="80">
<path fill="#b31b34" d="M3 0h18c0.552 0 1 0.448 1 1v22c0 0.552-0.448 1-1 1h-18c-0.552 0-1-0.448-1-1v-22c0-0.552 0.448-1 1-1z"></path>
<path fill="#fff" d="M3 1h18v22h-18v-22z"></path>
<path fill="#fff" opacity="0.4" d="M3 0h18c0.552 0 1 0.448 1 1v22c0 0.552-0.448 1-1 1h-18c-0.552 0-1-0.448-1-1v-22c0-0.552 0.448-1 1-1z"></path>
<path fill="#b31b34" opacity="0.1" d="M3 1h18v22h-18v-22z"></path>
<path fill="#b31b34" d="M1 8h22v9h-22v-9z"></path>
<path fill="#fff" d="M18 9c1 0 2 0.5 2 2.041 0 1.459-1 1.959-2 1.959h-2v3h-1v-7zM16 10v2h2c0.5 0 1-0.25 1-1s-0.5-1-1-1z"></path>
<path fill="#fff" d="M14 9v1h-3.5c-0.25 0-0.5 0.25-0.5 0.463v1.037c-0.013 0.32 0.25 0.5 0.5 0.5h2.25c0.75 0 1.25 0.5 1.25 1.25v1.5c-0.001 0.663-0.5 1.25-1.25 1.25h-3.75v-1h3.5c0.25 0 0.5-0.25 0.5-0.5v-1c0-0.25-0.25-0.5-0.5-0.5h-2.25c-0.721 0.010-1.25-0.5-1.25-1.25v-1.5c-0.011-0.806 0.5-1.25 1.25-1.25z"></path>
<path fill="#fff" d="M7 9h1v5.75c-0.003 0.656-0.573 1.253-1.25 1.25h-1.5c-0.75 0-1.25-0.5-1.25-1.25v-0.75h1v0.5c0.034 0.37 0.25 0.5 0.5 0.5h1c0.25 0 0.5-0.25 0.5-0.5z"></path>
</svg>
<svg id="ap-icon-24-default" width="24" height="24" viewBox="0 0 24 24" x="480" y="80">
<path fill="#0d2c56" d="M3 0h18c0.552 0 1 0.448 1 1v22c0 0.552-0.448 1-1 1h-18c-0.552 0-1-0.448-1-1v-22c0-0.552 0.448-1 1-1z"></path>
<path fill="#fff" d="M3 1h18v22h-18v-22z"></path>
<path fill="#fff" opacity="0.4" d="M3 0h18c0.552 0 1 0.448 1 1v22c0 0.552-0.448 1-1 1h-18c-0.552 0-1-0.448-1-1v-22c0-0.552 0.448-1 1-1z"></path>
<path fill="#0d2c56" d="M6.5 4h11c0.276 0 0.5 0.224 0.5 0.5v0.983c0 0.276-0.224 0.5-0.5 0.5h-11c-0.276 0-0.5-0.224-0.5-0.5v-0.983c0-0.276 0.224-0.5 0.5-0.5z"></path>
<path fill="#a8adb4" d="M6.5 9h11c0.276 0 0.5 0.224 0.5 0.5s-0.224 0.5-0.5 0.5h-11c-0.276 0-0.5-0.224-0.5-0.5s0.224-0.5 0.5-0.5z"></path>
<path fill="#a8adb4" d="M6.5 11h11c0.276 0 0.5 0.224 0.5 0.5s-0.224 0.5-0.5 0.5h-11c-0.276 0-0.5-0.224-0.5-0.5s0.224-0.5 0.5-0.5z"></path>
<path fill="#a8adb4" d="M6.5 13h11c0.276 0 0.5 0.224 0.5 0.5s-0.224 0.5-0.5 0.5h-11c-0.276 0-0.5-0.224-0.5-0.5s0.224-0.5 0.5-0.5z"></path>
<path fill="#a8adb4" d="M6.5 15h11c0.276 0 0.5 0.224 0.5 0.5s-0.224 0.5-0.5 0.5h-11c-0.276 0-0.5-0.224-0.5-0.5s0.224-0.5 0.5-0.5z"></path>
<path fill="#a8adb4" d="M6.5 17h11c0.276 0 0.5 0.224 0.5 0.5s-0.224 0.5-0.5 0.5h-11c-0.276 0-0.5-0.224-0.5-0.5s0.224-0.5 0.5-0.5z"></path>
<path fill="#a8adb4" d="M6.5 19h11c0.276 0 0.5 0.224 0.5 0.5s-0.224 0.5-0.5 0.5h-11c-0.276 0-0.5-0.224-0.5-0.5s0.224-0.5 0.5-0.5z"></path>
</svg>
<svg id="ap-icon-24-unknown_folder" width="24" height="24" viewBox="0 0 24 24" x="520" y="80">
<path fill="#7f8691" d="M10 4h12.971c0.529 0 1.029 0.5 1.029 1v15.999c0 0.501-0.5 1.001-1 1.001h-21.991c-0.509 0-1.009-0.5-1.009-1v-19c0-0.5 0.5-1 1-1h6z"></path>
<path fill="#fff" opacity="0.6" d="M1 6h22v15h-22v-15z"></path>
<path fill="#b31b34" d="M9.931 16c-0.018-0.101-0.074-0.566-0.051-0.848 0.070-0.882 0.247-1.772 0.575-2.569 0.304-0.738 0.783-1.365 1.257-1.965 0.355-0.449 0.887-0.728 1.178-1.209 0.304-0.501 0.548-1.167 0.548-1.671 0-0.605-0.192-1.058-0.575-1.36-0.384-0.322-0.868-0.484-1.452-0.484s-1.151 0.101-1.699 0.302c-0.548 0.181-1.142 0.443-1.781 0.786l-0.932-2.592c0.639-0.443 1.388-0.786 2.247-1.028s1.708-0.363 2.548-0.363c1.041 0 1.9 0.161 2.575 0.484 0.676 0.302 1.205 0.685 1.589 1.149s0.648 0.978 0.795 1.542c0.164 0.544 0.247 1.068 0.247 1.572 0 0.584-0.11 1.119-0.329 1.602-0.201 0.484-0.466 0.937-0.795 1.36-0.311 0.423-0.699 0.781-1.014 1.209-0.574 0.783-1.225 1.534-1.586 2.478-0.19 0.497-0.277 1.18-0.277 1.604z"></path>
<path fill="#b31b34" d="M12.502 17.502c0.601 0.33 0.998 0.933 0.998 1.623 0 0.346-0.1 0.67-0.274 0.948l0.005-0.009c-0.352 0.564-0.995 0.936-1.731 0.936-0.369 0-0.714-0.094-1.011-0.257l0.009 0.005c-0.601-0.33-0.999-0.933-0.999-1.623 0-0.346 0.1-0.669 0.274-0.948l-0.005 0.009c0.352-0.564 0.995-0.936 1.731-0.936 0.369 0 0.714 0.094 1.011 0.257l-0.009-0.005z"></path>
</svg>
<svg id="ap-icon-24-unknown_file" width="24" height="24" viewBox="0 0 24 24" x="560" y="80">
<path fill="#b31b34" d="M3 0h18c0.552 0 1 0.448 1 1v22c0 0.552-0.448 1-1 1h-18c-0.552 0-1-0.448-1-1v-22c0-0.552 0.448-1 1-1z"></path>
<path fill="#fff" d="M3 1h18v22h-18v-22z"></path>
<path fill="#fff" opacity="0.4" d="M3 0h18c0.552 0 1 0.448 1 1v22c0 0.552-0.448 1-1 1h-18c-0.552 0-1-0.448-1-1v-22c0-0.552 0.448-1 1-1z"></path>
<path fill="#7f8691" d="M3 1h18v22h-18v-22z"></path>
<path fill="#fff" opacity="0.6" d="M3 1h18v22h-18v-22z"></path>
<path fill="#b31b34" d="M9.931 16c-0.018-0.101-0.074-0.566-0.051-0.848 0.070-0.882 0.247-1.772 0.575-2.569 0.304-0.738 0.783-1.365 1.257-1.965 0.355-0.449 0.887-0.728 1.178-1.209 0.304-0.501 0.548-1.167 0.548-1.671 0-0.605-0.192-1.058-0.575-1.36-0.384-0.322-0.868-0.484-1.452-0.484s-1.151 0.101-1.699 0.302c-0.548 0.181-1.142 0.443-1.781 0.786l-0.932-2.592c0.639-0.443 1.388-0.786 2.247-1.028s1.708-0.363 2.548-0.363c1.041 0 1.9 0.161 2.575 0.484 0.676 0.302 1.205 0.685 1.589 1.149s0.648 0.978 0.795 1.542c0.164 0.544 0.247 1.068 0.247 1.572 0 0.584-0.11 1.119-0.329 1.602-0.201 0.484-0.466 0.937-0.795 1.36-0.311 0.423-0.699 0.781-1.014 1.209-0.574 0.783-1.225 1.534-1.586 2.478-0.19 0.497-0.277 1.18-0.277 1.604z"></path>
<path fill="#b31b34" d="M12.502 17.502c0.601 0.33 0.998 0.933 0.998 1.623 0 0.346-0.1 0.67-0.274 0.948l0.005-0.009c-0.352 0.564-0.995 0.936-1.731 0.936-0.369 0-0.714-0.094-1.011-0.257l0.009 0.005c-0.601-0.33-0.999-0.933-0.999-1.623 0-0.346 0.1-0.669 0.274-0.948l-0.005 0.009c0.352-0.564 0.995-0.936 1.731-0.936 0.369 0 0.714 0.094 1.011 0.257l-0.009-0.005z"></path>
</svg>
<svg id="ap-icon-24-js" width="24" height="24" viewBox="0 0 24 24" x="600" y="80">
<path fill="#0d2c56" d="M2 1v22c0 0.5 0.5 1 1 1h18c0.494 0 1-0.5 1-1v-16l-7-7h-11.919c-0.581 0-1.080 0.5-1.080 1z"></path>
<path fill="#fff" d="M3 1v22h18v-17l-5-5z"></path>
<path fill="#0d2c56" d="M15 0v6c0 0.5 0.5 1 1 1h6z"></path>
<path fill="#fff" opacity="0.4" d="M2 1v22c0 0.5 0.5 1 1 1h18c0.494 0 1-0.5 1-1v-16l-7-7h-11.919c-0.581 0-1.080 0.5-1.080 1z"></path>
<path fill="#b31b34" d="M8.333 13v-1c0-0.725 0.289-1 0.933-1h0.733v-2h-0.722c-1.503 0-2.722 1.371-2.722 3.063v0.75c0 0.725-0.522 1.188-1.167 1.188h-0.389v2h0.389c0.644 0 1.167 0.463 1.167 1.188v0.75c0 1.691 1.243 2.822 2.722 3.063h0.722v-2h-0.761c-0.644 0-0.906-0.248-0.906-1v-1c0-1.241-0.195-1.5-1.111-2 0.862-0.5 1.111-0.815 1.111-2z"></path>
<path fill="#b31b34" d="M15.667 17v1c0 0.725-0.3 0.893-0.933 1h-0.733v2h0.722c1.503 0 2.722-1.371 2.722-3.063v-0.75c0-0.725 0.522-1.188 1.167-1.188h0.389v-2h-0.389c-0.644 0-1.167-0.463-1.167-1.188v-0.75c0-1.691-1.219-3.063-2.722-3.063h-0.722v2h0.761c0.644 0 0.906 0.248 0.906 1v1c0 1.236 0.23 1.5 1.111 2-0.881 0.5-1.111 0.766-1.111 2z"></path>
<path fill="#b31b34" d="M11 12h2v2h-2v-2z"></path>
<path fill="#b31b34" d="M11 16h2v2l-1.75 3h-0.5v-1.25l1-1.75h-0.75z"></path>
</svg>
<svg id="ap-icon-24-css" width="24" height="24" viewBox="0 0 24 24" x="0" y="120">
<path fill="#0d2c56" d="M2 1v22c0 0.5 0.5 1 1 1h18c0.494 0 1-0.5 1-1v-16l-7-7h-11.919c-0.581 0-1.080 0.5-1.080 1z"></path>
<path fill="#fff" d="M3 1v22h18v-17l-5-5z"></path>
<path fill="#0d2c56" d="M15 0v6c0 0.5 0.5 1 1 1h6z"></path>
<path fill="#fff" opacity="0.4" d="M2 1v22c0 0.5 0.5 1 1 1h18c0.494 0 1-0.5 1-1v-16l-7-7h-11.919c-0.581 0-1.080 0.5-1.080 1z"></path>
<path fill="#0d2c56" d="M9.333 13v-1c0-0.725 0.289-1 0.933-1h0.733v-2h-0.722c-1.503 0-2.722 1.371-2.722 3.063v0.75c0 0.725-0.522 1.188-1.167 1.188h-0.389v2h0.389c0.644 0 1.167 0.463 1.167 1.188v0.75c0 1.691 1.243 2.822 2.722 3.063h0.722v-2h-0.761c-0.644 0-0.906-0.248-0.906-1v-1c0-1.241-0.195-1.5-1.111-2 0.862-0.5 1.111-0.815 1.111-2z"></path>
<path fill="#0d2c56" d="M14.667 17v1c0 0.725-0.3 0.893-0.933 1h-0.733v2h0.722c1.503 0 2.722-1.371 2.722-3.063v-0.75c0-0.725 0.522-1.188 1.167-1.188h0.389v-2h-0.389c-0.644 0-1.167-0.463-1.167-1.188v-0.75c0-1.691-1.219-3.063-2.722-3.063h-0.722v2h0.761c0.644 0 0.906 0.248 0.906 1v1c0 1.236 0.23 1.5 1.111 2-0.881 0.5-1.111 0.766-1.111 2z"></path>
</svg>
<svg id="ap-icon-24-html" width="24" height="24" viewBox="0 0 24 24" x="40" y="120">
<path fill="#0d2c56" d="M2 1v22c0 0.5 0.5 1 1 1h18c0.494 0 1-0.5 1-1v-16l-7-7h-11.919c-0.581 0-1.080 0.5-1.080 1z"></path>
<path fill="#fff" d="M3 1v22h18v-17l-5-5z"></path>
<path fill="#0d2c56" d="M15 0v6c0 0.5 0.5 1 1 1h6z"></path>
<path fill="#fff" opacity="0.4" d="M2 1v22c0 0.5 0.5 1 1 1h18c0.494 0 1-0.5 1-1v-16l-7-7h-11.919c-0.581 0-1.080 0.5-1.080 1z"></path>
<path fill="#0d2c56" d="M13.5 19.2l1.269 1.8 4.231-6-4.231-6-1.269 1.8 2.962 4.2z"></path>
<path fill="#0d2c56" d="M10.519 10.8l-1.269-1.8-4.231 6 4.231 6 1.269-1.8-2.962-4.2z"></path>
</svg>
<svg id="ap-icon-24-xml" width="24" height="24" viewBox="0 0 24 24" x="80" y="120">
<path fill="#0d2c56" d="M2 1v22c0 0.5 0.5 1 1 1h18c0.494 0 1-0.5 1-1v-16l-7-7h-11.919c-0.581 0-1.080 0.5-1.080 1z"></path>
<path fill="#fff" d="M3 1v22h18v-17l-5-5z"></path>
<path fill="#0d2c56" d="M15 0v6c0 0.5 0.5 1 1 1h6z"></path>
<path fill="#fff" opacity="0.4" d="M2 1v22c0 0.5 0.5 1 1 1h18c0.494 0 1-0.5 1-1v-16l-7-7h-11.919c-0.581 0-1.080 0.5-1.080 1z"></path>
<path fill="#0d2c56" d="M14.5 19.2l1.269 1.8 4.231-6-4.231-6-1.269 1.8 2.962 4.2z"></path>
<path fill="#0d2c56" d="M9.5 10.8l-1.269-1.8-4.231 6 4.231 6 1.269-1.8-2.962-4.2z"></path>
<path fill="#0d2c56" d="M11.766 9l1.984 0.249-1.516 11.751-1.984-0.249 1.516-11.751z"></path>
</svg>
<svg id="ap-icon-24-text" width="24" height="24" viewBox="0 0 24 24" x="120" y="120">
<path fill="#0d2c56" d="M2 1v22c0 0.5 0.5 1 1 1h18c0.494 0 1-0.5 1-1v-16l-7-7h-11.919c-0.581 0-1.080 0.5-1.080 1z"></path>
<path fill="#fff" d="M3 1v22h18v-17l-5-5z"></path>
<path fill="#0d2c56" d="M15 0v6c0 0.5 0.5 1 1 1h6z"></path>
<path fill="#fff" opacity="0.4" d="M2 1v22c0 0.5 0.5 1 1 1h18c0.494 0 1-0.5 1-1v-16l-7-7h-11.919c-0.581 0-1.080 0.5-1.080 1z"></path>
<path fill="#a8adb4" d="M6.5 8h9c0.276 0 0.5 0.224 0.5 0.5s-0.224 0.5-0.5 0.5h-9c-0.276 0-0.5-0.224-0.5-0.5s0.224-0.5 0.5-0.5z"></path>
<path fill="#a8adb4" d="M6.5 10h11c0.276 0 0.5 0.224 0.5 0.5s-0.224 0.5-0.5 0.5h-11c-0.276 0-0.5-0.224-0.5-0.5s0.224-0.5 0.5-0.5z"></path>
<path fill="#a8adb4" d="M6.5 12h9c0.276 0 0.5 0.224 0.5 0.5s-0.224 0.5-0.5 0.5h-9c-0.276 0-0.5-0.224-0.5-0.5s0.224-0.5 0.5-0.5z"></path>
<path fill="#a8adb4" d="M6.5 14h7c0.276 0 0.5 0.224 0.5 0.5s-0.224 0.5-0.5 0.5h-7c-0.276 0-0.5-0.224-0.5-0.5s0.224-0.5 0.5-0.5z"></path>
<path fill="#a8adb4" d="M6.5 16h9c0.276 0 0.5 0.224 0.5 0.5s-0.224 0.5-0.5 0.5h-9c-0.276 0-0.5-0.224-0.5-0.5s0.224-0.5 0.5-0.5z"></path>
<path fill="#a8adb4" d="M6.5 18h11c0.276 0 0.5 0.224 0.5 0.5s-0.224 0.5-0.5 0.5h-11c-0.276 0-0.5-0.224-0.5-0.5s0.224-0.5 0.5-0.5z"></path>
<path fill="#a8adb4" d="M6.5 20h9c0.276 0 0.5 0.224 0.5 0.5s-0.224 0.5-0.5 0.5h-9c-0.276 0-0.5-0.224-0.5-0.5s0.224-0.5 0.5-0.5z"></path>
</svg>
<svg id="ap-icon-24-archive" width="24" height="24" viewBox="0 0 24 24" x="160" y="120">
<path fill="#0d2c56" d="M2 1v22c0 0.5 0.5 1 1 1h18c0.494 0 1-0.5 1-1v-16l-7-7h-11.919c-0.581 0-1.080 0.5-1.080 1z"></path>
<path fill="#fff" d="M3 1v22h18v-17l-5-5z"></path>
<path fill="#0d2c56" d="M15 0v6c0 0.5 0.5 1 1 1h6z"></path>
<path fill="#fff" opacity="0.4" d="M2 1v22c0 0.5 0.5 1 1 1h18c0.494 0 1-0.5 1-1v-16l-7-7h-11.919c-0.581 0-1.080 0.5-1.080 1z"></path>
<path fill="#0d2c56" d="M7 0h3v1h-3v-1z"></path>
<path fill="#0d2c56" d="M10 1h3v1h-3v-1z"></path>
<path fill="#0d2c56" d="M7 2h3v1h-3v-1z"></path>
<path fill="#0d2c56" d="M10 3h3v1h-3v-1z"></path>
<path fill="#0d2c56" d="M7 4h3v1h-3v-1z"></path>
<path fill="#0d2c56" d="M10 5h3v1h-3v-1z"></path>
<path fill="#0d2c56" d="M7 6h3v1h-3v-1z"></path>
<path fill="#0d2c56" d="M10 7h3v1h-3v-1z"></path>
<path fill="#0d2c56" d="M7 8h3v1h-3v-1z"></path>
<path fill="#0d2c56" d="M10 9h3v1h-3v-1z"></path>
<path fill="#0d2c56" d="M7 10h3v1h-3v-1z"></path>
<path fill="#0d2c56" d="M10 11h3v1h-3v-1z"></path>
<path fill="#0d2c56" d="M7 12v1c0.113 2.041-0.219 4.041-1 6 2.626 1.328 5.292 1.355 8 0-0.742-1.877-1.070-3.879-1-6h-3v-1zM10 16c1.105 0 2 0.448 2 1v0c0 0.552-0.895 1-2 1v0c-1.105 0-2-0.448-2-1v0c0-0.552 0.895-1 2-1v0z"></path>
</svg>
<svg id="ap-icon-24-word" width="24" height="24" viewBox="0 0 24 24" x="200" y="120">
<path fill="#0d2c56" d="M2 1v22c0 0.5 0.5 1 1 1h18c0.494 0 1-0.5 1-1v-16l-7-7h-11.919c-0.581 0-1.080 0.5-1.080 1z"></path>
<path fill="#fff" d="M3 1v22h18v-17l-5-5z"></path>
<path fill="#0d2c56" d="M15 0v6c0 0.5 0.5 1 1 1h6z"></path>
<path fill="#fff" opacity="0.4" d="M2 1v22c0 0.5 0.5 1 1 1h18c0.494 0 1-0.5 1-1v-16l-7-7h-11.919c-0.581 0-1.080 0.5-1.080 1z"></path>
<path fill="#0d2c56" d="M4 8h16v14h-16v-14z"></path>
<path fill="#fff" d="M7.883 20l-2.883-10h1.475l2.142 7.31 2.379-7.31h1.882l2.379 7.31 2.142-7.31h1.475l-2.883 10h-1.467l-2.586-8.069-2.586 8.069z"></path>
</svg>
<svg id="ap-icon-24-excel" width="24" height="24" viewBox="0 0 24 24" x="240" y="120">
<path fill="#0d2c56" d="M2 1v22c0 0.5 0.5 1 1 1h18c0.494 0 1-0.5 1-1v-16l-7-7h-11.919c-0.581 0-1.080 0.5-1.080 1z"></path>
<path fill="#fff" d="M3 1v22h18v-17l-5-5z"></path>
<path fill="#0d2c56" d="M15 0v6c0 0.5 0.5 1 1 1h6z"></path>
<path fill="#fff" opacity="0.4" d="M2 1v22c0 0.5 0.5 1 1 1h18c0.494 0 1-0.5 1-1v-16l-7-7h-11.919c-0.581 0-1.080 0.5-1.080 1z"></path>
<path fill="#1bb39a" d="M4 8h16v14h-16v-14z"></path>
<path fill="#fff" d="M7 10h2l3 3.717 3-3.717h2l-3.75 4.75 3.75 5.25h-2l-2.984-4.253-3.016 4.253h-2l3.826-5.25z"></path>
</svg>
<svg id="ap-icon-24-powerpoint" width="24" height="24" viewBox="0 0 24 24" x="280" y="120">
<path fill="#0d2c56" d="M2 1v22c0 0.5 0.5 1 1 1h18c0.494 0 1-0.5 1-1v-16l-7-7h-11.919c-0.581 0-1.080 0.5-1.080 1z"></path>
<path fill="#fff" d="M3 1v22h18v-17l-5-5z"></path>
<path fill="#0d2c56" d="M15 0v6c0 0.5 0.5 1 1 1h6z"></path>
<path fill="#fff" opacity="0.4" d="M2 1v22c0 0.5 0.5 1 1 1h18c0.494 0 1-0.5 1-1v-16l-7-7h-11.919c-0.581 0-1.080 0.5-1.080 1z"></path>
<path fill="#b31b34" d="M4 8h16v14h-16v-14z"></path>
<path fill="#fff" d="M10.75 11.5l-0.020 3h1.713c1.45 0.035 1.864-0.5 1.87-1.5s-0.611-1.505-1.851-1.5zM9 10h3.443c1.128 0 1.98 0.255 2.556 0.764 0.58 0.505 1.002 1.259 1.002 2.236 0 0.987-0.422 1.72-1.002 2.224-0.575 0.505-1.427 0.757-2.556 0.757h-1.713v4.019h-1.73z"></path>
</svg>
<svg id="ap-icon-24-java" width="24" height="24" viewBox="0 0 24 24" x="320" y="120">
<path fill="#0d2c56" d="M2 1v22c0 0.5 0.5 1 1 1h18c0.494 0 1-0.5 1-1v-16l-7-7h-11.919c-0.581 0-1.080 0.5-1.080 1z"></path>
<path fill="#fff" d="M3 1v22h18v-17l-5-5z"></path>
<path fill="#0d2c56" d="M15 0v6c0 0.5 0.5 1 1 1h6z"></path>
<path fill="#fff" opacity="0.4" d="M2 1v22c0 0.5 0.5 1 1 1h18c0.494 0 1-0.5 1-1v-16l-7-7h-11.919c-0.581 0-1.080 0.5-1.080 1z"></path>
<path fill="#0d2c56" d="M9.346 17.24c0 0-0.7 0.467 0.498 0.625 1.451 0.19 2.192 0.162 3.791-0.185 0 0 0.419 0.302 1.007 0.564-3.583 1.762-8.111-0.102-5.296-1.005zM8.908 14.941c0 0-0.785 0.667 0.414 0.809 1.549 0.183 2.773 0.198 4.89-0.27 0 0 0.294 0.341 0.755 0.526-4.332 1.455-9.16 0.115-6.059-1.066z"></path>
<path fill="#b31b34" d="M11.6 11.041c0.883 1.166-0.232 2.215-0.232 2.215s2.242-1.327 1.212-2.99c-0.962-1.545-1.702-2.321 2.29-4.975 0 0-6.267 1.794-3.276 5.751z"></path>
<path fill="#0d2c56" d="M17.34 18.941c0 0 0.518 0.489-0.57 0.868-2.069 0.719-8.611 0.936-10.426 0.028-0.654-0.325 0.571-0.778 0.956-0.873 0.405-0.101 0.632-0.082 0.632-0.082-0.725-0.587-4.693 1.152-2.013 1.651 7.308 1.362 13.323-0.611 11.428-1.591zM9.682 12.558c0 0-3.327 0.906-1.178 1.236 0.908 0.139 2.716 0.108 4.402-0.054 1.377-0.135 2.759-0.419 2.759-0.419s-0.486 0.239-0.837 0.515c-3.379 1.019-9.906 0.545-8.027-0.498 1.589-0.881 2.882-0.781 2.882-0.781zM15.654 16.383c3.434-2.046 1.85-4.013 0.74-3.749-0.271 0.065-0.39 0.121-0.39 0.121s0.101-0.181 0.294-0.26c2.194-0.883 3.88 2.609-0.707 3.993 0 0 0.054-0.054 0.069-0.103z"></path>
<path fill="#b31b34" d="M12.581 1c0 0 1.902 2.183-1.805 5.539-2.972 2.693-0.678 4.228-0.001 5.982-1.732-1.795-3.005-3.376-2.151-4.847 1.253-2.159 4.727-3.206 3.962-6.673z"></path>
<path fill="#0d2c56" d="M10.020 21.934c3.296 0.242 8.36-0.135 8.48-1.924 0 0-0.232 0.679-2.729 1.217-2.818 0.608-6.286 0.538-8.344 0.147 0 0 0.419 0.401 2.586 0.56z"></path>
</svg>
<svg id="ap-icon-24-pdf" width="24" height="24" viewBox="0 0 24 24" x="360" y="120">
<path fill="#0d2c56" d="M2 1v22c0 0.5 0.5 1 1 1h18c0.494 0 1-0.5 1-1v-16l-7-7h-11.919c-0.581 0-1.080 0.5-1.080 1z"></path>
<path fill="#fff" d="M3 1v22h18v-17l-5-5z"></path>
<path fill="#0d2c56" d="M15 0v6c0 0.5 0.5 1 1 1h6z"></path>
<path fill="#fff" opacity="0.4" d="M2 1v22c0 0.5 0.5 1 1 1h18c0.494 0 1-0.5 1-1v-16l-7-7h-11.919c-0.581 0-1.080 0.5-1.080 1z"></path>
<path fill="#b31b34" d="M19.741 15.087c-0.32-0.362-1.029-0.554-2.109-0.57-0.731-0.009-1.61 0.065-2.535 0.214-0.414-0.275-0.841-0.574-1.176-0.934-0.901-0.968-1.654-2.311-2.123-3.788 0.031-0.138 0.057-0.259 0.081-0.383 0 0 0.508-3.315 0.373-4.436-0.019-0.154-0.030-0.198-0.066-0.318l-0.044-0.13c-0.138-0.366-0.409-0.754-0.833-0.733l-0.256-0.009c-0.473 0-0.859 0.278-0.961 0.694-0.308 1.305 0.010 3.257 0.585 5.785l-0.147 0.412c-0.412 1.155-0.929 2.318-1.384 3.345l-0.059 0.133c-0.479 1.079-0.915 1.994-1.309 2.77l-0.407 0.248c-0.030 0.018-0.728 0.442-0.891 0.556-1.389 0.953-2.309 2.035-2.462 2.894-0.049 0.274-0.012 0.625 0.235 0.787l0.394 0.228c0.171 0.098 0.351 0.148 0.536 0.148 0.989 0 2.137-1.416 3.719-4.59 1.826-0.683 3.906-1.252 5.728-1.565 1.389 0.899 3.097 1.523 4.175 1.523 0.191 0 0.356-0.021 0.491-0.062 0.207-0.063 0.381-0.198 0.487-0.382 0.209-0.362 0.252-0.86 0.195-1.371-0.017-0.151-0.122-0.339-0.236-0.467zM4.968 21.137c0.18-0.567 0.894-1.688 1.95-2.682 0.066-0.062 0.23-0.238 0.38-0.401-1.104 2.024-1.843 2.83-2.329 3.084zM11.221 4.586c0.318 0 0.499 0.921 0.514 1.785s-0.161 1.47-0.379 1.918c-0.18-0.664-0.268-1.711-0.268-2.395 0 0-0.013-1.308 0.133-1.308zM9.356 16.381c0.221-0.456 0.452-0.936 0.687-1.446 0.574-1.248 0.936-2.224 1.206-3.027 0.537 1.123 1.206 2.078 1.992 2.842 0.098 0.095 0.202 0.191 0.311 0.287-1.599 0.364-2.98 0.806-4.196 1.343zM19.434 16.277c-0.097 0.070-0.376 0.11-0.556 0.11-0.579 0-1.295-0.304-2.3-0.799 0.386-0.033 0.74-0.050 1.057-0.050 0.581 0 0.753-0.003 1.321 0.164s0.575 0.505 0.478 0.575z"></path>
</svg>
<svg id="ap-icon-24-font" width="24" height="24" viewBox="0 0 24 24" x="400" y="120">
<path fill="#0d2c56" d="M2 1v22c0 0.5 0.5 1 1 1h18c0.494 0 1-0.5 1-1v-16l-7-7h-11.919c-0.581 0-1.080 0.5-1.080 1z"></path>
<path fill="#fff" d="M3 1v22h18v-17l-5-5z"></path>
<path fill="#0d2c56" d="M15 0v6c0 0.5 0.5 1 1 1h6z"></path>
<path fill="#fff" opacity="0.4" d="M2 1v22c0 0.5 0.5 1 1 1h18c0.494 0 1-0.5 1-1v-16l-7-7h-11.919c-0.581 0-1.080 0.5-1.080 1z"></path>
<path fill="#0d2c56" d="M7.024 14l0.014 5.12c0.002 0.899-0.213 1.275-1.058 1.357l-0.48 0.033v0.49h5v-0.49l-0.48-0.033c-0.845-0.082-1-0.458-1.006-1.357l-0.014-5.12h2v-0.5h-2l0.014-2.162c0.004-0.621 0.134-0.981 0.442-1.259 0.269-0.229 0.548-0.308 0.875-0.308s0.615 0.163 0.903 0.474c0.269 0.311 0.538 0.458 0.883 0.458 0.461 0 0.883-0.327 0.883-0.703 0-0.54-0.809-1-1.75-1-1.114 0-2.33 0.376-3.156 0.965-0.787 0.54-1.056 1.144-1.056 2.338l-0.014 1.198h-1.024v0.5z"></path>
<path fill="#0d2c56" d="M16.014 13h-1.014c-1.172 0.18-1.982 0.444-3 0.51v0.49l0.384 0.033c0.999 0.082 1.616 0.264 1.616 1.245v3.722c0 0.899-0.175 1.395-1.020 1.477l-0.48 0.033v0.49h5v-0.49l-0.461-0.033c-0.864-0.082-1.025-0.578-1.025-1.477z"></path>
<path fill="#0d2c56" d="M15.501 10.213c0.301 0.169 0.499 0.477 0.499 0.829 0 0.177-0.050 0.342-0.137 0.484l0.003-0.005c-0.176 0.288-0.498 0.478-0.866 0.478-0.184 0-0.357-0.048-0.505-0.131l0.005 0.002c-0.301-0.169-0.499-0.477-0.499-0.829 0-0.177 0.050-0.342 0.137-0.484l-0.003 0.005c0.176-0.288 0.498-0.478 0.866-0.478 0.184 0 0.357 0.048 0.505 0.131l-0.005-0.002z"></path>
</svg>
<svg id="ap-icon-24-audio" width="24" height="24" viewBox="0 0 24 24" x="440" y="120">
<path fill="#0d2c56" d="M2 1v22c0 0.5 0.5 1 1 1h18c0.494 0 1-0.5 1-1v-16l-7-7h-11.919c-0.581 0-1.080 0.5-1.080 1z"></path>
<path fill="#fff" d="M3 1v22h18v-17l-5-5z"></path>
<path fill="#0d2c56" d="M15 0v6c0 0.5 0.5 1 1 1h6z"></path>
<path fill="#fff" opacity="0.4" d="M2 1v22c0 0.5 0.5 1 1 1h18c0.494 0 1-0.5 1-1v-16l-7-7h-11.919c-0.581 0-1.080 0.5-1.080 1z"></path>
<path fill="#0d2c56" d="M9 11.005h1v8.5h-1v-8.5z"></path>
<path fill="#0d2c56" d="M15 9.755h1v7.75h-1v-7.75z"></path>
<path fill="#0d2c56" d="M15.002 16.206c0.601 0.264 0.998 0.747 0.998 1.298 0 0.277-0.1 0.536-0.274 0.758l0.005-0.007c-0.352 0.451-0.995 0.749-1.731 0.749-0.369 0-0.714-0.075-1.011-0.205l0.009 0.004c-0.601-0.264-0.999-0.747-0.999-1.298 0-0.277 0.1-0.536 0.274-0.758l-0.005 0.007c0.352-0.451 0.995-0.749 1.731-0.749 0.369 0 0.714 0.075 1.011 0.205l-0.009-0.004z"></path>
<path fill="#0d2c56" d="M9.002 18.206c0.601 0.264 0.998 0.747 0.998 1.298 0 0.277-0.1 0.536-0.274 0.758l0.005-0.007c-0.352 0.451-0.995 0.749-1.731 0.749-0.369 0-0.714-0.075-1.011-0.205l0.009 0.004c-0.601-0.264-0.999-0.747-0.999-1.298 0-0.277 0.1-0.536 0.274-0.758l-0.005 0.007c0.352-0.451 0.995-0.749 1.731-0.749 0.369 0 0.714 0.075 1.011 0.205l-0.009-0.004z"></path>
<path fill="#0d2c56" d="M9 11l7-1.995v1.995l-7 2.005z"></path>
</svg>
<svg id="ap-icon-24-video" width="24" height="24" viewBox="0 0 24 24" x="480" y="120">
<path fill="#0d2c56" d="M2 9h20v12h-20v-12z"></path>
<path fill="#fff" d="M9 11v8l6-4z"></path>
<path fill="#0d2c56" d="M1.178 5.085l19.573-4.111 0.822 3.915-19.573 4.111-0.822-3.915z"></path>
</svg>
<svg id="ap-icon-24-image" width="24" height="24" viewBox="0 0 24 24" x="520" y="120">
<path fill="#0d2c56" d="M1 2h22c0.552 0 1 0.448 1 1v18c0 0.552-0.448 1-1 1h-22c-0.552 0-1-0.448-1-1v-18c0-0.552 0.448-1 1-1z"></path>
<path fill="#2197db" d="M1 21v-18h22v18z"></path>
<path fill="#fff" opacity="0.6" d="M1 3h22v18h-22v-18z"></path>
<path fill="#fdf9ae" d="M7.502 5.403c0.902 0.529 1.498 1.493 1.498 2.597 0 0.553-0.15 1.071-0.411 1.516l0.008-0.014c-0.529 0.902-1.493 1.498-2.597 1.498-0.553 0-1.071-0.15-1.516-0.411l0.014 0.008c-0.902-0.529-1.498-1.493-1.498-2.597 0-0.553 0.15-1.071 0.411-1.516l-0.008 0.014c0.529-0.902 1.493-1.498 2.597-1.498 0.553 0 1.071 0.15 1.516 0.411l-0.014-0.008z"></path>
<path fill="#0d2c56" d="M1 21h22v-6l-6-7-7 8-4-2-5 5z"></path>
</svg>
<svg id="ap-icon-24-modelgroup_copy" width="24" height="24" viewBox="0 0 24 24" x="560" y="120">
<path fill="#fff" d="M2 1h20c0.552 0 1 0.448 1 1v20c0 0.552-0.448 1-1 1h-20c-0.552 0-1-0.448-1-1v-20c0-0.552 0.448-1 1-1z"></path>
<path fill="#0d2c56" d="M1 2h1v2h-1v-2z"></path>
<path fill="#0d2c56" d="M1 5h1v2h-1v-2z"></path>
<path fill="#0d2c56" d="M1 8h1v2h-1v-2z"></path>
<path fill="#0d2c56" d="M1 11h1v2h-1v-2z"></path>
<path fill="#0d2c56" d="M1 14h1v2h-1v-2z"></path>
<path fill="#0d2c56" d="M1 17h1v2h-1v-2z"></path>
<path fill="#0d2c56" d="M1 20h1v2h-1v-2z"></path>
<path fill="#0d2c56" d="M2 1h2v1h-2v-1z"></path>
<path fill="#0d2c56" d="M5 1h2v1h-2v-1z"></path>
<path fill="#0d2c56" d="M8 1h2v1h-2v-1z"></path>
<path fill="#0d2c56" d="M11 1h2v1h-2v-1z"></path>
<path fill="#0d2c56" d="M14 1h2v1h-2v-1z"></path>
<path fill="#0d2c56" d="M17 1h2v1h-2v-1z"></path>
<path fill="#0d2c56" d="M20 1h2v1h-2v-1z"></path>
<path fill="#0d2c56" d="M22 2h1v2h-1v-2z"></path>
<path fill="#0d2c56" d="M22 5h1v2h-1v-2z"></path>
<path fill="#0d2c56" d="M22 8h1v2h-1v-2z"></path>
<path fill="#0d2c56" d="M22 11h1v2h-1v-2z"></path>
<path fill="#0d2c56" d="M22 14h1v2h-1v-2z"></path>
<path fill="#0d2c56" d="M22 17h1v2h-1v-2z"></path>
<path fill="#0d2c56" d="M22 20h1v2h-1v-2z"></path>
<path fill="#0d2c56" d="M20 22h2v1h-2v-1z"></path>
<path fill="#0d2c56" d="M17.117 22h2v1h-2v-1z"></path>
<path fill="#0d2c56" d="M14 22h2v1h-2v-1z"></path>
<path fill="#0d2c56" d="M11 22h2v1h-2v-1z"></path>
<path fill="#0d2c56" d="M8 22h2v1h-2v-1z"></path>
<path fill="#0d2c56" d="M5 22h2v1h-2v-1z"></path>
<path fill="#0d2c56" d="M2 22h2v1h-2v-1z"></path>
<path fill="#b31b34" d="M4 13h7v7h-7v-7z"></path>
<path fill="#a8adb4" d="M13 13h7v7h-7v-7z"></path>
<path fill="#b31b34" d="M13 4h7v7h-7v-7z"></path>
<path fill="#a8adb4" d="M4 4h7v7h-7v-7z"></path>
</svg>
<svg id="ap-icon-24-modelgroup_reuse" width="24" height="24" viewBox="0 0 24 24" x="600" y="120">
<path fill="#fff" d="M2 1h20c0.552 0 1 0.448 1 1v20c0 0.552-0.448 1-1 1h-20c-0.552 0-1-0.448-1-1v-20c0-0.552 0.448-1 1-1z"></path>
<path fill="#0d2c56" d="M1 2h1v2h-1v-2z"></path>
<path fill="#0d2c56" d="M1 5h1v2h-1v-2z"></path>
<path fill="#0d2c56" d="M1 8h1v2h-1v-2z"></path>
<path fill="#0d2c56" d="M1 11h1v2h-1v-2z"></path>
<path fill="#0d2c56" d="M1 14h1v2h-1v-2z"></path>
<path fill="#0d2c56" d="M1 17h1v2h-1v-2z"></path>
<path fill="#0d2c56" d="M1 20h1v2h-1v-2z"></path>
<path fill="#0d2c56" d="M2 1h2v1h-2v-1z"></path>
<path fill="#0d2c56" d="M5 1h2v1h-2v-1z"></path>
<path fill="#0d2c56" d="M8 1h2v1h-2v-1z"></path>
<path fill="#0d2c56" d="M11 1h2v1h-2v-1z"></path>
<path fill="#0d2c56" d="M14 1h2v1h-2v-1z"></path>
<path fill="#0d2c56" d="M17 1h2v1h-2v-1z"></path>
<path fill="#0d2c56" d="M20 1h2v1h-2v-1z"></path>
<path fill="#0d2c56" d="M22 2h1v2h-1v-2z"></path>
<path fill="#0d2c56" d="M22 5h1v2h-1v-2z"></path>
<path fill="#0d2c56" d="M22 8h1v2h-1v-2z"></path>
<path fill="#0d2c56" d="M22 11h1v2h-1v-2z"></path>
<path fill="#0d2c56" d="M22 14h1v2h-1v-2z"></path>
<path fill="#0d2c56" d="M22 17h1v2h-1v-2z"></path>
<path fill="#0d2c56" d="M22 20h1v2h-1v-2z"></path>
<path fill="#0d2c56" d="M20 22h2v1h-2v-1z"></path>
<path fill="#0d2c56" d="M17.117 22h2v1h-2v-1z"></path>
<path fill="#0d2c56" d="M14 22h2v1h-2v-1z"></path>
<path fill="#0d2c56" d="M11 22h2v1h-2v-1z"></path>
<path fill="#0d2c56" d="M8 22h2v1h-2v-1z"></path>
<path fill="#0d2c56" d="M5 22h2v1h-2v-1z"></path>
<path fill="#0d2c56" d="M2 22h2v1h-2v-1z"></path>
<path fill="#a8adb4" d="M4 13h7v7h-7v-7z"></path>
<path fill="#2197db" d="M13 13h7v7h-7v-7z"></path>
<path fill="#a8adb4" d="M13 4h7v7h-7v-7z"></path>
<path fill="#2197db" d="M4 4h7v7h-7v-7z"></path>
</svg>
<svg id="ap-icon-24-elementgroup" width="24" height="24" viewBox="0 0 24 24" x="0" y="160">
<path fill="#fff" d="M2 1h20c0.552 0 1 0.448 1 1v20c0 0.552-0.448 1-1 1h-20c-0.552 0-1-0.448-1-1v-20c0-0.552 0.448-1 1-1z"></path>
<path fill="#0d2c56" d="M1 2h1v2h-1v-2z"></path>
<path fill="#0d2c56" d="M1 5h1v2h-1v-2z"></path>
<path fill="#0d2c56" d="M1 8h1v2h-1v-2z"></path>
<path fill="#0d2c56" d="M1 11h1v2h-1v-2z"></path>
<path fill="#0d2c56" d="M1 14h1v2h-1v-2z"></path>
<path fill="#0d2c56" d="M1 17h1v2h-1v-2z"></path>
<path fill="#0d2c56" d="M1 20h1v2h-1v-2z"></path>
<path fill="#0d2c56" d="M2 1h2v1h-2v-1z"></path>
<path fill="#0d2c56" d="M5 1h2v1h-2v-1z"></path>
<path fill="#0d2c56" d="M8 1h2v1h-2v-1z"></path>
<path fill="#0d2c56" d="M11 1h2v1h-2v-1z"></path>
<path fill="#0d2c56" d="M14 1h2v1h-2v-1z"></path>
<path fill="#0d2c56" d="M17 1h2v1h-2v-1z"></path>
<path fill="#0d2c56" d="M20 1h2v1h-2v-1z"></path>
<path fill="#0d2c56" d="M22 2h1v2h-1v-2z"></path>
<path fill="#0d2c56" d="M22 5h1v2h-1v-2z"></path>
<path fill="#0d2c56" d="M22 8h1v2h-1v-2z"></path>
<path fill="#0d2c56" d="M22 11h1v2h-1v-2z"></path>
<path fill="#0d2c56" d="M22 14h1v2h-1v-2z"></path>
<path fill="#0d2c56" d="M22 17h1v2h-1v-2z"></path>
<path fill="#0d2c56" d="M22 20h1v2h-1v-2z"></path>
<path fill="#0d2c56" d="M20 22h2v1h-2v-1z"></path>
<path fill="#0d2c56" d="M17.117 22h2v1h-2v-1z"></path>
<path fill="#0d2c56" d="M14 22h2v1h-2v-1z"></path>
<path fill="#0d2c56" d="M11 22h2v1h-2v-1z"></path>
<path fill="#0d2c56" d="M8 22h2v1h-2v-1z"></path>
<path fill="#0d2c56" d="M5 22h2v1h-2v-1z"></path>
<path fill="#0d2c56" d="M2 22h2v1h-2v-1z"></path>
<path fill="#b31b34" d="M4 13h7v7h-7v-7z"></path>
<path fill="#2197db" d="M13 13h7v7h-7v-7z"></path>
<path fill="#b31b34" d="M13 4h7v7h-7v-7z"></path>
<path fill="#2197db" d="M4 4h7v7h-7v-7z"></path>
</svg>
<svg id="ap-icon-24-inheritancegroup" width="24" height="24" viewBox="0 0 24 24" x="40" y="160">
<path fill="#fff" d="M2 1h20c0.552 0 1 0.448 1 1v20c0 0.552-0.448 1-1 1h-20c-0.552 0-1-0.448-1-1v-20c0-0.552 0.448-1 1-1z"></path>
<path fill="#0d2c56" d="M1 2h1v2h-1v-2z"></path>
<path fill="#0d2c56" d="M1 5h1v2h-1v-2z"></path>
<path fill="#0d2c56" d="M1 8h1v2h-1v-2z"></path>
<path fill="#0d2c56" d="M1 11h1v2h-1v-2z"></path>
<path fill="#0d2c56" d="M1 14h1v2h-1v-2z"></path>
<path fill="#0d2c56" d="M1 17h1v2h-1v-2z"></path>
<path fill="#0d2c56" d="M1 20h1v2h-1v-2z"></path>
<path fill="#0d2c56" d="M2 1h2v1h-2v-1z"></path>
<path fill="#0d2c56" d="M5 1h2v1h-2v-1z"></path>
<path fill="#0d2c56" d="M8 1h2v1h-2v-1z"></path>
<path fill="#0d2c56" d="M11 1h2v1h-2v-1z"></path>
<path fill="#0d2c56" d="M14 1h2v1h-2v-1z"></path>
<path fill="#0d2c56" d="M17 1h2v1h-2v-1z"></path>
<path fill="#0d2c56" d="M20 1h2v1h-2v-1z"></path>
<path fill="#0d2c56" d="M22 2h1v2h-1v-2z"></path>
<path fill="#0d2c56" d="M22 5h1v2h-1v-2z"></path>
<path fill="#0d2c56" d="M22 8h1v2h-1v-2z"></path>
<path fill="#0d2c56" d="M22 11h1v2h-1v-2z"></path>
<path fill="#0d2c56" d="M22 14h1v2h-1v-2z"></path>
<path fill="#0d2c56" d="M22 17h1v2h-1v-2z"></path>
<path fill="#0d2c56" d="M22 20h1v2h-1v-2z"></path>
<path fill="#0d2c56" d="M20 22h2v1h-2v-1z"></path>
<path fill="#0d2c56" d="M17.117 22h2v1h-2v-1z"></path>
<path fill="#0d2c56" d="M14 22h2v1h-2v-1z"></path>
<path fill="#0d2c56" d="M11 22h2v1h-2v-1z"></path>
<path fill="#0d2c56" d="M8 22h2v1h-2v-1z"></path>
<path fill="#0d2c56" d="M5 22h2v1h-2v-1z"></path>
<path fill="#0d2c56" d="M2 22h2v1h-2v-1z"></path>
<path fill="#b31b34" d="M4 13h7v7h-7v-7z"></path>
<path fill="#ffc61e" d="M13 13h7v7h-7v-7z"></path>
<path fill="#ffc61e" d="M13 4h7v7h-7v-7z"></path>
<path fill="#2197db" d="M4 4h7v7h-7v-7z"></path>
</svg>
<svg id="ap-icon-24-warning" width="24" height="24" viewBox="0 0 24 24" x="80" y="160">
<path fill="#ffc61e" d="M12.665 1.413l10.238 20.352c0.131 0.263 0.131 0.563 0 0.823-0.133 0.263-0.357 0.413-0.621 0.413h-20.473c-0.265 0-0.49-0.15-0.623-0.413-0.131-0.26-0.131-0.56 0-0.823l10.238-20.352c0.131-0.263 0.357-0.413 0.621-0.413s0.49 0.15 0.621 0.413z"></path>
<path fill="#0d2c56" d="M12.75 17h-1.5l-0.25-8h2z"></path>
<path fill="#0d2c56" d="M12.501 18.668c0.301 0.22 0.499 0.622 0.499 1.082 0 0.231-0.050 0.446-0.137 0.632l0.003-0.006c-0.176 0.376-0.498 0.624-0.866 0.624-0.184 0-0.357-0.062-0.505-0.171l0.005 0.003c-0.301-0.22-0.499-0.622-0.499-1.082 0-0.23 0.050-0.446 0.137-0.632l-0.003 0.006c0.176-0.376 0.498-0.624 0.866-0.624 0.184 0 0.357 0.062 0.505 0.171l-0.005-0.003z"></path>
</svg>
<svg id="ap-icon-24-principal-all" width="24" height="24" viewBox="0 0 24 24" x="120" y="160">
<path fill="#1bb39a" d="M17.588 2.355c3.345 1.964 5.556 5.546 5.556 9.645 0 2.055-0.556 3.98-1.525 5.632l0.028-0.052c-1.961 3.349-5.54 5.563-9.634 5.563-2.052 0-3.975-0.556-5.625-1.526l0.052 0.028c-3.346-1.964-5.557-5.546-5.557-9.646 0-2.054 0.555-3.979 1.524-5.631l-0.028 0.052c1.961-3.35 5.54-5.564 9.635-5.564 2.052 0 3.974 0.556 5.624 1.525l-0.052-0.028z"></path>
<path fill="#0d2c56" d="M12 0c-6.627 0-12 5.373-12 12s5.373 12 12 12c6.627 0 12-5.373 12-12s-5.373-12-12-12zM8 2v1l-3.5 4h-1.5c1.198-2.071 2.739-4.135 5-5zM12 15l-5.36 6.030c-0.219-0.13-0.432-0.268-0.64-0.413v-4.617l-3-2v-4c0-0.5 0.25-1 1-1h2c0 0 2.25 3.25 6 4zM21.074 11.502c-0.371-1.248-0.692-1.369-2.324-1.924v-0c-0.558-0.175-1.084-0.484-1.527-0.926-1.464-1.464-1.723-3.902 0-5.303 0.098-0.098 0.201-0.189 0.307-0.274 2.983 1.852 4.969 5.157 4.969 8.926 0 1.944-0.829 4.439-1.75 6 0.386-2.496 0.544-5.17 0.324-6.498z"></path>
</svg>
<svg id="ap-icon-24-principal-overwrite" width="24" height="24" viewBox="0 0 24 24" x="160" y="160">
<path fill="#b31b34" d="M18.010 1.613c3.607 2.115 5.99 5.972 5.99 10.387 0 2.213-0.599 4.286-1.644 6.066l0.031-0.056c-2.115 3.607-5.972 5.991-10.387 5.991-2.213 0-4.285-0.599-6.065-1.643l0.056 0.031c-3.607-2.115-5.992-5.973-5.992-10.387 0-2.212 0.599-4.285 1.643-6.064l-0.031 0.056c2.114-3.608 5.973-5.992 10.388-5.992 2.212 0 4.284 0.598 6.063 1.642l-0.057-0.031z"></path>
<path fill="#fff" d="M13 14h-2l-1-8h3.902z"></path>
<path fill="#fff" d="M12.75 16.202c0.451 0.264 0.748 0.747 0.748 1.298 0 0.277-0.075 0.536-0.205 0.758l0.004-0.007c-0.264 0.451-0.746 0.749-1.298 0.749-0.276 0-0.535-0.075-0.758-0.205l0.007 0.004c-0.451-0.264-0.749-0.747-0.749-1.298 0-0.277 0.075-0.536 0.205-0.758l-0.004 0.007c0.264-0.451 0.746-0.749 1.298-0.749 0.276 0 0.535 0.075 0.758 0.205l-0.007-0.004z"></path>
</svg>
</svg>
