<svg xmlns="http://www.w3.org/2000/svg" width="752" height="80" viewBox="0 0 752 80">
  <svg width="32" height="32" viewBox="0 0 32 32">
    <path fill="#b31b34" d="M32 16a16 16 0 1 1-32 0 16 16 0 0 1 32 0z"/>
    <path fill="#fff" d="M26.5 16a10.5 10.5 0 1 1-21 0 10.5 10.5 0 0 1 21 0z"/>
    <path fill="#0d2c56" d="M18.5 11.7a5 5 0 0 1 1.8 6.8 5 5 0 0 1-6.8 1.8 5 5 0 0 1-1.8-6.8 5 5 0 0 1 6.8-1.8z"/>
  </svg>
  <svg width="32" height="32" x="48" viewBox="0 0 32 32">
    <path fill="#b31b34" d="M14 6h16c1 0 2 1 2 2v20c0 1-1 2-2 2H2c-1 0-2-1-2-2V4c0-1 1-2 2-2h8z"/>
    <path fill="#fdf9ae" d="M3 9h26v18H3V9z"/>
  </svg>
  <svg width="32" height="32" x="96" viewBox="0 0 32 32">
    <path fill="#0d2c56" d="M29.8 20c.7 0 1.2-.5 1.2-1.2v-5.3c0-1-.5-1.5-1.5-1.5h-19c-1 0-1.5.5-1.5 1.5V15H6V9h15.5c1 0 1.5-.5 1.5-1.5v-5c0-1-.5-1.5-1.5-1.5h-19C1.5 1 1 1.5 1 2.5v5C1 8.5 1.5 9 2.5 9H4v19h5v1.5c0 1 .5 1.5 1.5 1.5h19c1 0 1.5-.5 1.5-1.5v-5c0-1-.5-1.5-1.5-1.5h-19c-1 0-1.5.5-1.5 1.5V26H6v-9h3v1.5c0 1 .5 1.5 1.5 1.5z"/>
    <path fill="#fff" d="M3 3h4v4H3V3zm8 11h4v4h-4v-4zm0 11h4v4h-4v-4z"/>
  </svg>
  <svg width="32" height="32" x="144" viewBox="0 0 32 32">
    <path fill="#b31b34" d="M6 11 2 21l4 11h24l-4-11 4-10-4-11H2z"/>
    <path fill="#fff" d="m24.8 2 2.7 8H7.7l-3-8zm-17 28-3.3-8h20l3 8z"/>
  </svg>
  <svg width="32" height="32" x="192" viewBox="0 0 32 32">
    <path fill="#fff" d="M3.4 2H28v28.2H3.4V2z"/>
    <path fill="#b31b34" d="M28 4v26H8c-2 0-3-1.4-3-3s1-3 3-3h18V0H6.1A4 4 0 0 0 2 4v23c0 3 3.1 5 6 5h22V4z"/>
    <path fill="#0d2c56" d="M8.5 26c-1.3 0-1.5.5-1.5 1s.3 1 1.5 1H26v-2z"/>
  </svg>
  <svg width="32" height="32" x="240" viewBox="0 0 32 32">
    <path fill="#fff" d="m31 8-9 9h-3l-2 2-1 4-8 8-7-7 8-8 4-1 2-2 1-4.6L24 1l7 7z"/>
    <path fill="#0d2c56" d="M10 22c.6.6 1.5.5 2 0l10-10c.5-.5.6-1.5 0-2s-1.5-.5-2 0L10 20c-.5.5-.6 1.4 0 2zm4.9-.9.2 1a2 2 0 0 1-.6 1.4l-5 5c-.5.5-1 .7-1.5.7s-1-.2-1.5-.6l-3-3.1a2 2 0 0 1-.1-2.9l5.1-5.1A2 2 0 0 1 11 17l2-2a4.9 4.9 0 0 0-6.4.4l-5 5a4.9 4.9 0 0 0 0 7l3 3a4.9 4.9 0 0 0 7 0l5-5A4.9 4.9 0 0 0 17 19zM30.6 4.5l-3.1-3a4.9 4.9 0 0 0-7 0l-5 5A4.9 4.9 0 0 0 15 13l2-2a2 2 0 0 1-.2-1c0-.5.2-1 .6-1.4l5-5c.5-.5 1-.7 1.5-.7s1 .2 1.5.6l3 3.1a2 2 0 0 1 .1 2.9l-5.1 5.1a2 2 0 0 1-2.4.4l-2 2a4.9 4.9 0 0 0 6.4-.4l5-5a4.9 4.9 0 0 0 0-7z"/>
  </svg>
  <svg width="32" height="32" x="288" viewBox="0 0 32 32">
    <path fill="#0d2c56" d="M6.3 5.6c-2 4-1.8 9-1.3 13.3l-3.6 3C1 22.5 0 23 0 24l1.9 6.5c.2.5.3 1.5 1.1 1.6h1c.5 0 .9-.8 1-1l2-5h8l2 5c.1.3.5 1 1 1h1c.4 0 .6-.1.8-.4l1.8-6.2c0-.7.7-1.6.2-2.3L17 18.9c.2-2.7.5-5.8.1-8.5-.5-4-2.7-7.5-5.7-10.2-.1-.2-.4-.2-.6-.2a23 23 0 0 0-4.5 5.6z"/>
    <path fill="#fff" d="M12.5 5.4a3 3 0 0 1 1 4.1h.1a3 3 0 0 1-4.1 1v.1a3 3 0 0 1-1-4.1h-.1a3 3 0 0 1 4.1-1v-.1z"/>
    <path fill="#7f8691" d="m18 8 2 2 4-4 2 2s-1 1 1 3l5 5v-6l-2-2c-2-2-3-1-3-1l-2-2 5-5h-6l-7 7z"/>
  </svg>
  <svg width="32" height="32" x="336" viewBox="0 0 32 32">
    <path fill="#fff" d="M10.3 28.7H22l-6-15.4z"/>
    <path fill="#7f8691" d="M10 2c-3.4 6-3.4 10 0 16-1.7-1.1-5-3.4-5-8s3.3-6.9 5-8z"/>
    <path fill="#7f8691" d="M7 0C.9 8 .9 12 7 20c-2.3-1-7-5-7-10S4.7 1 7 0z"/>
    <path fill="#0d2c56" d="M14 13 8 32h2.7l.6-2h9.4l.6 2H24l-6-19zm2 1.7 1.6 5.3h-3.2zM13.7 22h4.6l.6 2H13zm-1.2 4h7l.6 2h-8.2z"/>
    <path fill="#b31b34" d="M18.5 5.7a5 5 0 0 1 1.8 6.8 5 5 0 0 1-6.8 1.8 5 5 0 0 1-1.8-6.8 5 5 0 0 1 6.8-1.8z"/>
    <path fill="#7f8691" d="M22 18c3.4-6 3.4-10 0-16 1.7 1.1 5 3.4 5 8s-3.3 6.9-5 8z"/>
    <path fill="#7f8691" d="M25 20c6.1-8 6.1-12 0-20 2.3 1 7 5 7 10s-4.7 9-7 10z"/>
  </svg>
  <svg width="32" height="32" x="384" viewBox="0 0 32 32">
    <path fill="#0d2c56" d="M30.5 15c2 0 2-2 0-2H28v-1.9h2.5c2 0 2-2.1 0-2.1H28V5l-1-1h-4V1.5c0-2-2-2-2 0V4h-2V1.5c0-2-2-2-2 0V4h-2V1.5c0-2-2-2-2 0V4h-2V1.5c0-2-2-2-2 0V4H5L4 5v4H1.5c-2 0-2 2 0 2H4v2H1.5c-2 0-2 2.1 0 2.1H4V17H1.5c-2 0-2 2.1 0 2.1H4V21H1.5c-2 0-2 2 0 2l2.5.1V27l1 1h4v2.5c0 2 2 2 2 0V28h2v2.5c0 2 2 2 2 0V28h2v2.5c0 2 2 2 2 0V28h2v2.5c0 2 2 2 2 0V28h4l1-1v-4h2.5c2 0 2-2 0-2H28v-1.9h2.5c2 0 2-2.1 0-2.1H28v-2z"/>
    <path fill="#fff" d="M10 10h12v12H10V10z"/>
    <path fill="#b31b34" d="M12 12h8v8h-8v-8z"/>
  </svg>
  <svg width="32" height="32" x="432" viewBox="0 0 32 32">
    <path fill="#fff" d="M2.6 3.4h27v25.3h-27V3.4z"/>
    <path fill="#0d2c56" d="M32 6.7c0-1-.3-2-1.8-3.2-.9-.7-2.1-1.4-3.6-2a36.6 36.6 0 0 0-21.2.1 9.6 9.6 0 0 0-3.6 2C.3 4.7.1 5.7.1 6.5v18.7c0 .9.2 1.9 1.7 3.1 1 .8 2.1 1.4 3.6 2 2.9 1 6.7 1.5 10.6 1.5s7.7-.5 10.6-1.5c1.5-.6 2.7-1.2 3.6-2 1.5-1.2 1.8-2.2 1.8-3.1zM7.2 5.2C9.6 4.4 12.7 4 16 4s6.4.4 8.8 1.2c2.3.7 3 1.2 3.2 1.5-.1.2-.9 1.3-3.2 2-2.4.9-5.5 1.3-8.8 1.3s-6.4-.4-8.8-1.2c-2.3-.8-3-2-3.1-2.1 0-.3.8-.8 3.1-1.5zm17.6 21.6c-2.4.7-5.5 1.1-8.8 1.1s-6.4-.4-8.8-1.1c-2.3-.8-3-1.3-3.1-1.5v-5.7l1.3.8c2.9 1 6.7 1.6 10.6 1.6s7.7-.6 10.6-1.6l1.4-.8v5.7c-.1.2-.9.7-3.2 1.5zm0-9a32.3 32.3 0 0 1-17.6 0C5 17 4.2 16.2 4 16v-5.4l1.4.8c2.9 1 6.7 1.6 10.6 1.6s7.7-.6 10.6-1.6l1.4-.8V16c-.1.2-.9 1-3.2 1.8z"/>
  </svg>
  <svg width="32" height="32" x="480" viewBox="0 0 32 32">
    <path fill="#fff" d="M4 7.3h24V11H4V7.2z"/>
    <path fill="#0d2c56" d="M4 10h24v16c0 1-1 2-2 2H6c-1 0-2-1-2-2z"/>
    <path fill="#b31b34" d="M2 6c0-1 1-2 2-2h24c1 0 2 1 2 2v2H2z"/>
    <path fill="#fff" d="M12 13h8c.6 0 1 .5 1 1v1.1a1 1 0 0 1-1 1h-8a1 1 0 0 1-1-1V14c0-.5.4-1 1-1z"/>
  </svg>
  <svg width="32" height="32" x="528" viewBox="0 0 32 32">
    <path fill="#fff" d="m4 19 4 11h17l3-11 2-1L16 4 2 18z"/>
    <path fill="#b31b34" d="M2 13v5L16 7l14 11v-5L16 2z"/>
    <path fill="#0d2c56" d="M4 29c0 .5.5 1 1 1h7v-8h8v8h7c.5 0 1-.5 1-1V19l-12-9-12 9z"/>
  </svg>
  <svg width="32" height="32" x="576" viewBox="0 0 32 32">
    <path fill="#b31b34" d="m18.5 19.8 1.6 1.6c-.3.7-.2 1.5 1 2.6l4.9 5c1.4 1.4 2.6 1 3.4.3.7-.8 1-1.9-.4-3.3l-5-5c-1-1-1.9-1.2-2.6-.9l-1.6-1.7z"/>
    <path fill="#0d2c56" d="M17.8 3.4a10.5 10.5 0 0 1 3.8 14.4 10.5 10.5 0 0 1-9.1 5.2 10.5 10.5 0 0 1-9-15.8 10.5 10.5 0 0 1 14.3-3.8z"/>
    <path fill="#fff" d="M16.3 6a7.5 7.5 0 0 1 3.7 6.5 7.5 7.5 0 0 1-7.5 7.5A7.5 7.5 0 0 1 5 12.5 7.5 7.5 0 0 1 16.3 6z"/>
  </svg>
  <svg width="32" height="32" x="624" viewBox="0 0 32 32">
    <path fill="#fff" d="M3 9h26l-.4 19-1.6 2.5H5L3.4 28z"/>
    <path fill="#0d2c56" d="M28 4h-3v1c0 1.5-1 2-2 2s-2-.5-2-2V4H11v1c0 1.5-1.2 2-2 2-1 0-2-.5-2-2V4H4C3 4 2 5 2 6v21c0 1 1 2 2 2h24c1 0 2-1 2-2V6c0-1.1-1-2-2-2zm0 23H4V9h24zM9 6c.7 0 1-.3 1-1V1c0-.5-.3-1-1-1S8 .5 8 1v4c0 .7.3 1 1 1zm14 0c.7 0 1-.3 1-1V1c0-.7-.3-1-1-1s-1 .3-1 1v4c0 .5.3 1 1 1zm4 24H5c-1 0-1-1-2-2 0 1 .5 4 2 4h21.9c1 0 2.1-2 2.1-4-1 1-1 2-2 2z"/>
    <path fill="#b31b34" d="M8 11v2h7v4H8v2h7v4H8v2h9V11zm12 0v2h2v12h2V11z"/>
  </svg>
  <svg width="32" height="32" x="672" viewBox="0 0 32 32">
    <path fill="#0d2c56" d="M2.2 3h27.6C31 3 32 4 32 5.2v18.6a2.2 2.2 0 0 1-2.2 2.2H2.2A2.2 2.2 0 0 1 0 23.8V5.2C0 4 1 3 2.2 3z"/>
    <path fill="#fff" d="M2 5h28v18H2V5z"/>
    <path fill="#b31b34" d="M17 18v-2c1.6-.7 2-2.5 2-3v-2c0-1.6-.6-3-3-3s-3 1.4-3 3v2c0 .5.4 2.3 2 3v2c-5 0-6 2-6 4h14c0-2-1-4-6-4z"/>
    <path fill="#0d2c56" d="M14 25v2c0 1.2-1 2-4 2v1h12v-1c-3 0-4-.8-4-2v-1.8z"/>
  </svg>
  <svg width="32" height="32" x="720" viewBox="0 0 32 32">
    <path fill="#0d2c56" d="m31.4 14.6-14-14a2 2 0 0 0-2.9 0L.6 14.6a2 2 0 0 0 0 2.8l14 14a2 2 0 0 0 2.9 0l13.9-14a2 2 0 0 0 0-2.8z"/>
    <path fill="#fff" d="m11.3 3.9 2.4 2.4a3 3 0 0 1 4 4l4 4a3 3 0 1 1-1.4 1.4l-4-4a2.8 2.8 0 0 1-.3.1v8.4a3 3 0 1 1-2 0v-8.4a3 3 0 0 1-1.7-4L9.8 5.2z"/>
  </svg>
  <svg width="32" height="32" y="48" viewBox="0 0 32 32">
    <path fill="#0d2c56" d="M15 2.3 1 8c-.8.3-1 .5-1 1v14.5c0 .7.3 1.3 1 1.5l14 5.8c.8.2 1.3.2 2 0L31 25c.8-.3 1-.8 1-1.5V9c0-.5-.3-.8-1-1L17 2.2c-.8-.2-1.3-.2-2 0z"/>
    <path fill="#fff" d="M3 10v13l11.5 4.5v-13zm14.5 4.5v13L29 23V10zm-11.8-6 10.3-4 10.3 4-10.3 4z"/>
    <path fill="#b31b34" d="m11 12 15.2-6L22 4.3l-15 6v5l4 1.7z"/>
  </svg>
  <svg width="32" height="32" x="48" y="48" viewBox="0 0 32 32">
    <path fill="#fff" d="M12 3v19l-4 4h11L17.8 7l-.2-2.3L12 3z"/>
    <path fill="#b31b34" d="M12.4 0C7.1 0 7.1 4 7.1 9c0 3.1 1.6 6.2 3.6 7.4v1.7C4.7 18.6 0 22 0 26h8.8c2-1.7 4.6-2.7 7.2-3.2a11.4 11.4 0 0 1-2.7-4.4 21.4 21.4 0 0 1 0-9 5.8 5.8 0 0 1 4.3-4.7C17.2 1.9 16.1 0 12.4 0z"/>
    <path fill="#0d2c56" d="M21.3 24v-1.6c2-1.2 3.6-4.3 3.6-7.4 0-5 0-9-5.3-9s-5.4 4-5.4 9c0 3.1 1.6 6.2 3.6 7.4v1.7C11.8 24.6 7 28 7 32h25c0-4-4.6-7.4-10.7-8z"/>
  </svg>
  <svg width="32" height="32" x="96" y="48" viewBox="0 0 32 32">
    <path fill="#0d2c56" d="M16 6c-3.4 0-4.4 2-4.8 5h.9c1.2 0 2.3.2 3.5.4h.8c1.2-.2 2.3-.4 3.5-.4a8.6 8.6 0 0 1 .9 0c-.4-3-1.4-5-4.8-5zm-.1 7c-.9 0-.2 3-2.8 3-1.1 0-1.7-.4-2-1v1c0 3.2 1.2 4.8 2.9 6v2c-5.3.6-9 4-9 8h17.4a7 7 0 0 1-3.4-6l.3-1.8A13.7 13.7 0 0 0 18 24v-2c1.7-1.2 3-2.8 3-6v-1c-.4.6-1 1-2 1-2.7 0-2-3-2.9-3z"/>
    <path fill="#b31b34" d="M27 29.8v-1.6s-.1-.2-.3-.2h-1.4c-.2 0-.3.1-.3.3v1.4c0 .2.1.3.3.3h1.4c.2 0 .3-.1.3-.3zm2-5.3c0-1.4-1.5-2.5-2.8-2.5-1.3 0-2.3.5-3 1.7l.1.3 1 .8a.2.2 0 0 0 .2 0h.2l.7-.8.6-.2c.5 0 1 .3 1 .7 0 .4-.2.6-.7.8-.5.3-1.3 1-1.3 1.7v.3s.1.2.3.2h1.4c.2 0 .3-.1.3-.2 0-.2.2-.6.6-.8.6-.4 1.4-.8 1.4-2zm3 1.5a6 6 0 1 1-12 0 6 6 0 0 1 12 0z"/>
  </svg>
  <svg width="32" height="32" x="144" y="48" viewBox="0 0 32 32">
    <path fill="#0d2c56" d="M28.8 2c-2 0-4.1.3-6 1a22.5 22.5 0 0 0-9.8 8H8.2c-.7.1-1.6-.3-2.2.4l-3.3 5.8c-.2.5-1 1-.5 1.7.5.4.9 1.3 1.6 1L9 17l6 6-2.3 4c-.2.6-1 1.3-.5 1.9.5.4.9 1.3 1.6 1l5.4-3c.6-.5 1.6-.7 1.8-1.5v-6.3c2-1.7 4-3.5 5.7-5.7 2.4-3 3.4-7 3.3-10.9 0-.2-.2-.4-.4-.5a20.8 20.8 0 0 0-.8 0z"/>
    <path fill="#b31b34" d="m8 20 4 4-10 6z"/>
    <path fill="#fff" d="M25.8 5.3a2.5 2.5 0 0 1 .9 3.5 2.5 2.5 0 0 1-3.5.9 2.5 2.5 0 0 1-.9-3.5 2.5 2.5 0 0 1 3.5-.9z"/>
  </svg>
  <svg width="32" height="32" x="192" y="48" viewBox="0 0 32 32">
    <path fill="#b31b34" d="m11.4 22.6 1.3-1.8-1.5-1.5-1.8 1.3a5 5 0 0 0-1-.4L8 18H6l-.4 2.2a5 5 0 0 0-1 .4l-1.8-1.3-1.5 1.5 1.3 1.8a5 5 0 0 0-.4 1L0 24v2l2.2.4.4 1-1.3 1.8 1.5 1.5 1.8-1.3 1 .4L6 32h2l.4-2.2a5 5 0 0 0 1-.4l1.8 1.3 1.5-1.5-1.3-1.8.4-1L14 26v-2l-2.2-.4a5 5 0 0 0-.4-1z"/>
    <path fill="#0d2c56" d="M32 12v-2l-2.1-.4a8.7 8.7 0 0 0-.2-.7l1.8-1.2-.7-1.8-2.1.4a9 9 0 0 0-.4-.6l1.2-1.8L28 2.5l-1.8 1.2a9 9 0 0 0-.6-.4l.4-2-1.8-.8L23 2.3a9.1 9.1 0 0 0-.7-.2L22 0h-2l-.4 2.1a8.7 8.7 0 0 0-.7.2L17.7.5l-1.8.7.4 2.1a9 9 0 0 0-.6.4l-1.8-1.2L12.5 4l1.2 1.8a9 9 0 0 0-.4.6l-2-.4-.8 1.8L12.3 9a9.1 9.1 0 0 0-.2.7L10 10v2l2.1.4c0 .2 0 .5.2.7l-1.8 1.2.7 1.8 2.1-.4.4.6-1.2 1.8 1.4 1.4 1.8-1.2.6.4-.4 2 1.8.8 1.2-1.8.7.2.4 2.1h2l.4-2.1c.2 0 .5 0 .7-.2l1.2 1.8 1.8-.7-.4-2.1.6-.4 1.8 1.2 1.4-1.4-1.2-1.8.4-.6 2 .4.8-1.8-1.8-1.2.2-.7z"/>
    <path fill="#fff" d="M7 27a2 2 0 1 1 0-4 2 2 0 0 1 0 4zm14-11.7a4.3 4.3 0 1 1 0-8.7 4.3 4.3 0 0 1 0 8.8z"/>
  </svg>
  <svg width="32" height="32" x="240" y="48" viewBox="0 0 32 32">
    <path fill="#b31b34" d="m31.5 25.5-8-8c-.5-.5-2-1-3.8.8L6 4.3 5 2 1.8 0 0 1.8 2 5l2.3 1 14 13.8c-1.8 1.7-1.3 3.2-.8 3.7l8 8c.5.5 2 1 3.8-.8l1.4-1.4c1.8-1.8 1.3-3.3.8-3.8z"/>
    <path fill="#fff" d="M28 28c-.5.5-1.3.4-1.8 0L21 22.7c-.5-.4-.5-1.2 0-1.7s1.3-.5 1.8 0l5.2 5.3c.5.4.5 1.2 0 1.7z"/>
    <path fill="#0d2c56" d="M27.7.3 24 4l4 4 3.7-3.7A6 6 0 0 1 26 12c-.6 0-2 0-2.5-.6L11.4 23.7c.6.8.6 1.7.6 2.3-.2 3.3-2.7 6-6 6a6 6 0 0 1-1.7-.3L8 28l-4-4-3.7 3.7A6 6 0 0 1 6 20a4 4 0 0 1 2.4.6L20.6 8.5A5 5 0 0 1 20 6 6 6 0 0 1 27.7.3z"/>
  </svg>
  <svg width="32" height="32" x="288" y="48" viewBox="0 0 32 32">
    <path fill="#0d2c56" d="M31.6 26 22 16.4a1.5 1.5 0 0 0-2 0l-.8.7-5.7-5.8L23 2H13L8.6 6.4 8 6H6v2.1l.4.5L0 15l5 5 6.4-6.4 5.8 5.7-.7.7a1.5 1.5 0 0 0 0 2.1l9.4 9.5a1.5 1.5 0 0 0 2.1 0l3.6-3.6a1.5 1.5 0 0 0 0-2.1z"/>
  </svg>
  <svg width="32" height="32" x="336" y="48" viewBox="0 0 32 32">
    <path fill="#0d2c56" d="M22 0a10 10 0 0 0-9.8 11.8L0 24v6a2 2 0 0 0 2 2h2v-2h4v-4h4v-4h4l2.6-2.6A10 10 0 1 0 22 0z"/>
    <path fill="#fff" d="M25 10a3 3 0 1 1 0-6 3 3 0 0 1 0 6z"/>
  </svg>
  <svg width="32" height="32" x="384" y="48" viewBox="0 0 32 32">
    <path fill="#0d2c56" d="m26 12 4-4-4-4h-8V1.5c0-.8-.7-1.5-1.5-1.5h-1c-.8 0-1.5.7-1.5 1.5V4H4v8h10v20h4V12z"/>
    <path fill="#b31b34" d="M4 14h22v6H4l-3-3z"/>
  </svg>
  <svg width="32" height="32" x="432" y="48" viewBox="0 0 32 32">
    <path fill="#0d2c56" d="M2.8 3h26.4A2.8 2.8 0 0 1 32 5.8v20.4a2.8 2.8 0 0 1-2.8 2.8H2.8A2.8 2.8 0 0 1 0 26.2V5.8A2.8 2.8 0 0 1 2.8 3z"/>
    <path fill="#fff" d="M3 5h26c.6 0 1 .4 1 1v20c0 .6-.4 1-1 1H3a1 1 0 0 1-1-1V6c0-.6.4-1 1-1z"/>
    <path fill="#b31b34" d="M4.8 10.3c-.5.4-.3 1.2.2 1.7l4 4-4 4c-.5.5-.9 1.3-.5 1.8s1.3.4 2-.3l5-5a.8.8 0 0 0 0-1l-5-5c-.5-.5-1.3-.7-1.8-.3zM14.4 23h11a.5.5 0 0 1 0 1h-11a.5.5 0 0 1 0-1z"/>
  </svg>
  <svg width="32" height="32" x="480" y="48" viewBox="0 0 32 32">
    <path fill="#fff" d="M1 3h22v26H1V3z"/>
    <path fill="#0d2c56" d="M2 2a2 2 0 0 0-2 2v24c0 1.1.9 2 2 2h20a2 2 0 0 0 2-2V4a2 2 0 0 0-2-2zm0 2h20v24H2z"/>
    <path fill="#fff" d="M17 18h12v13H17V18z"/>
    <path fill="#0d2c56" d="M10 20v-2c.5-1.8.9-2.4 2-3.8.6-.8 2-2 2-3.1 0-1.7-3-1.6-4.5-1.2-.7.2-1.1.6-1.9 1.1L6 8c.7-.5 1.3-.7 2-1 1.2-.6 2.7-1 3.8-1 1.2 0 2.2.2 3 .5.9.3 1.5.8 2 1.3s.7 1 .9 1.6l.3 1.7c0 .6-.1 1.2-.4 1.7-.2.6-.6 1-1 1.5A12.1 12.1 0 0 0 14 18v2zm3 2.3a2 2 0 0 1 .7 2.7 2 2 0 0 1-2.7.7 2 2 0 0 1-.7-2.7 2 2 0 0 1 2.7-.7z"/>
    <path fill="#fff" d="M20.8 14.5h4.4V17h-4.4v-2.4z"/>
    <path fill="#b31b34" d="M20.7 14a.7.7 0 0 0-.7.7V16h-4.3a.7.7 0 0 0-.7.7v.6c0 .4.3.7.7.7h.3v12.6c0 .8.6 1.4 1.4 1.4h11.2c.8 0 1.4-.6 1.4-1.4V18h.3a.7.7 0 0 0 .7-.7v-.6a.7.7 0 0 0-.7-.7H26v-1.3a.7.7 0 0 0-.7-.7zm.3 1h4v1h-4v-1zm-2.3 4h.6c.4 0 .7.3.7.7v9.7a.7.7 0 0 1-.7.6h-.6a.7.7 0 0 1-.7-.6v-9.7c0-.4.3-.7.7-.7zm4 0h.6c.4 0 .7.3.7.7v9.6c0 .4-.3.7-.7.7h-.6a.7.7 0 0 1-.7-.7v-9.6c0-.4.3-.7.7-.7zm4 0h.6c.4 0 .7.3.7.7v9.6a.7.7 0 0 1-.7.7h-.6a.7.7 0 0 1-.7-.7v-9.6c0-.4.3-.7.7-.7z"/>
  </svg>
  <svg width="32" height="32" x="528" y="48" viewBox="0 0 32 32">
    <path fill="#fff" d="M1 3h22v26H1z"/>
    <path fill="#fff" d="M10.8 7.3a4.4 4.4 0 0 1 1.5 5.9 4 4 0 0 1-3.6 2 4 4 0 0 1-2-.5 4.4 4.4 0 0 1-1.5-5.9 4 4 0 0 1 3.5-2 4 4 0 0 1 2 .5z"/>
    <path fill="#0d2c56" d="M2 2q-1.8.2-2 2v24q.2 1.8 2 2h20a2 2 0 0 0 2-2V4a2 2 0 0 0-2-2zm0 2h20v24H2z"/>
    <path fill="#b31b34" d="M16.5 17h12a1.5 1.5 0 0 1 1.5 1.5v12a1.5 1.5 0 0 1-1.5 1.5h-12a1.5 1.5 0 0 1-1.5-1.5v-12a1.5 1.5 0 0 1 1.5-1.5"/>
    <path fill="#fff" d="M17 21h11v9H17zm10.4-7h-.8a2.4 2.4 0 0 1 2.4 2.4v1.2a2.4 2.4 0 0 1-2.4 2.4h.8a2.4 2.4 0 0 1-2.4-2.4v-1.2a2.4 2.4 0 0 1 2.4-2.4M19 15a2 2 0 0 1 2 2v1a2 2 0 1 1-4 0v-1a2 2 0 0 1 2-2"/>
    <path fill="#b31b34" d="M27 15a1 1 0 0 1 1 1v2a1 1 0 0 1-2 0v-2a1 1 0 0 1 1-1m-8 0a1 1 0 0 1 1 1v2a1 1 0 0 1-2 0v-2a1 1 0 0 1 1-1"/>
    <path fill="#0d2c56" d="M10 20v-2c.5-1.8.9-2.5 2-3.8.6-.8 2-2.1 2-3.1 0-1.7-3-1.6-4.5-1.2q-.8.3-1.9 1.1L6 8q1-.8 2-1a10 10 0 0 1 3.7-1 8 8 0 0 1 3.2.5 5 5 0 0 1 1.9 1.2l1 1.7.2 1.7-.4 1.7q-.4.8-1 1.5a12 12 0 0 0-2.6 3.6v2zm3 2.3a2 2 0 0 1 .7 2.7 2 2 0 0 1-2.7.7 2 2 0 0 1-.7-2.7 2 2 0 0 1 2.7-.7"/>
    <path fill="#b31b34" d="M21 22v2h1v5h2v-7z"/>
  </svg>
  <svg width="32" height="32" x="576" y="48" viewBox="0 0 32 32">
    <path fill="#0d2c56" d="m16 2.1-1 .4L1.3 10C0 10.7 0 11 0 11v2l16 6.8L32 13v-2s0-.3-1.2-1L17 2.5z"/>
    <path fill="#b31b34" d="M5 2h22a1 1 0 0 1 1 1v17a1 1 0 0 1-1 1H5a1 1 0 0 1-1-1V3a1 1 0 0 1 1-1"/>
    <path fill="#fff" d="M6 4h20v17H6z"/>
    <path fill="#b31b34" d="M9.8 7h12.4a1 1 0 0 1 .8.8v.4a1 1 0 0 1-.8.8H9.8a1 1 0 0 1-.8-.8v-.4a1 1 0 0 1 .8-.8m0 4h12.4a1 1 0 0 1 .8.8v.4a1 1 0 0 1-.8.8H9.8a1 1 0 0 1-.8-.8v-.4a1 1 0 0 1 .8-.8"/>
    <path fill="#0d2c56" d="M0 12.3v16.2Q0 30 1.5 30h29q1.5 0 1.5-1.5V12.3l-16 8z"/>
    <path fill="#fff" d="m0 12 15 7.5q1 .5 2 0L32 12v2l-14 7c-1.5.8-2.5.8-4 0L0 14z"/>
    <path fill="#b31b34" d="M9.8 15h12.4a1 1 0 0 1 .8.8v.4a1 1 0 0 1-.8.8H9.8a1 1 0 0 1-.8-.8v-.4a1 1 0 0 1 .8-.8"/>
  </svg>
  <svg width="32" height="32" x="624" y="48" viewBox="0 0 32 32">
    <path fill="#0d2c56" d="m19.5 1.5 11.1 11.2a5 5 0 0 1 0 6.8l-11.1 11a5 5 0 0 1-6.8 0l-11.2-11a5 5 0 0 1 0-6.8L12.7 1.5a5 5 0 0 1 6.8 0"/>
    <path fill="#fff" d="m17.5 3.6 11 10.9a2 2 0 0 1 0 3l-11 11a2 2 0 0 1-3 0l-11-11a2 2 0 0 1 0-3l11-11a2 2 0 0 1 3 0"/>
    <path fill="#b31b34" d="m16 14.2 1.7 3a.5.5 0 0 0 1 0l2.3-6.3a.6.6 0 0 0-.5-.8l-6.4-1c-.5-.2-.8.3-.6.7l1.4 2.5-1.3.9a6 6 0 0 0-2.6 4.6V23h2v-5.2q.1-1.8 1.7-2.8z"/>
  </svg>
</svg>
