<svg xmlns="http://www.w3.org/2000/svg" width="624" height="184" xmlns:xlink="http://www.w3.org/1999/xlink" viewBox="0 0 624 184">
  <svg width="24" height="24" viewBox="0 0 24 24">
    <path fill="#b31b34" d="M24 12c0 6.63-5.37 12-12 12S0 18.63 0 12 5.37 0 12 0s12 5.37 12 12z"/>
    <path fill="#fff" d="M20 12c0 4.42-3.58 8-8 8s-8-3.58-8-8 3.58-8 8-8 8 3.58 8 8z"/>
    <path fill="#144382" d="M14 8.54c1.2.7 2 2 2 3.46 0 .74-.2 1.43-.55 2.02-.7 1.2-1.98 1.98-3.45 1.98-.74 0-1.43-.2-2.02-.55C8.78 14.75 8 13.47 8 12c0-.74.2-1.43.55-2.02C9.25 8.78 10.53 8 12 8c.74 0 1.43.2 2.02.55z"/>
  </svg>
  <svg width="24" height="24" x="40" viewBox="0 0 24 24">
    <path fill="#fff" d="M17.5 2.48C20.8 4.42 23 7.95 23 12c0 2.03-.55 3.93-1.5 5.56C19.57 20.8 16.04 23 12 23c-2.03 0-3.93-.55-5.56-1.5C3.18 19.57 1 16.04 1 12c0-2.03.55-3.93 1.5-5.56C4.43 3.2 7.96 1 12 1c2.03 0 3.93.55 5.56 1.5z"/>
    <path fill="#b31b34" d="M12 1C7.75 1 4.1 3.38 2.3 6.94l-2.3-1 .02 8.84L7 9 5.02 8C6.32 5.6 9.06 4 12 4c4.27 0 8 3.7 8 8s-3.73 8-8 8c-2.67 0-5.2-1.35-6.6-3.4l-2.17 1.96C5.23 21.26 8.4 23 12 23c6.05 0 11-4.92 11-11 0-6.1-4.95-11-11-11z"/>
    <path fill="#0d2c56" d="M12 6c-.54 0-1 .45-1 1l.04 4.93c0 .13.04.48.12.7.1.24.3.56.4.65l2.9 2.78c.38.4.98.5 1.37.1.38-.4.35-1-.04-1.4L13 12V7c0-.55-.46-1-1-1z"/>
  </svg>
  <svg width="24" height="24" x="80" viewBox="0 0 24 24">
    <path fill="#b31b34" d="M21 3v11c-7.25 1.75-9-3.5-16.62.2V3.26C12.25-.74 13.75 6.5 21 3z"/>
    <path fill="#a8adb4" d="M3.88 1h.23c.5 0 .9.4.9.88v20.25c0 .48-.4.87-.9.87h-.2c-.5 0-.8-.4-.8-.88V1.88c0-.48.4-.88.9-.88z"/>
  </svg>
  <svg width="24" height="24" x="120" viewBox="0 0 24 24">
    <path fill="#ffc61e" d="M21 3v11c-7.25 1.75-9-3.5-16.62.2V3.26C12.25-.74 13.75 6.5 21 3z"/>
    <path fill="#a8adb4" d="M3.88 1h.23c.5 0 .9.4.9.88v20.25c0 .48-.4.87-.9.87h-.2c-.5 0-.8-.4-.8-.88V1.88c0-.48.4-.88.9-.88z"/>
  </svg>
  <svg width="24" height="24" x="160" viewBox="0 0 24 24">
    <path fill="#b31b34" d="M4 8l-3 8 3 8h19l-3-8 3-8-3-8H1z"/>
    <path fill="#fff" d="M18.75 2l2 5H5.5L3.75 2z"/>
    <path fill="#b31b34" d="M3.25 15L5.5 9h15.25l-2.25 6z"/>
    <path fill="#fff" d="M5.25 22l-2-5H18.5l1.75 5z"/>
  </svg>
  <svg width="24" height="24" x="200" viewBox="0 0 24 24">
    <path fill="#0d2c56" d="M22 11c.5 0 1 0 1-.47 0-.53-.5-.53-1-.53h-2V8h2c.5 0 1 0 1-.5s-.5-.5-1-.5h-2l.07-2L19 4h-2V2c0-.5 0-1-.5-1s-.5.5-.5 1v2h-2V2c0-.5 0-1-.5-1s-.5.5-.5 1v2h-2V2c0-.5 0-1-.5-1s-.5.5-.5 1v2H8V2c0-.5 0-1-.5-1S7 1.5 7 2v2H5L4 5v2H2c-.5 0-1 0-1 .5s.5.5 1 .5h2v2H2c-.5 0-1 0-1 .5s.5.5 1 .5h2v2H2c-.5 0-1 0-1 .47 0 .53.5.53 1 .53h2v2H2c-.5 0-1 0-1 .5s.5.5 1 .5h2v2l1 1h2v2c0 .46 0 1 .5 1s.5-.5.5-1v-2h2v2c0 .5 0 1 .5 1s.5-.5.5-1v-2h2v2c0 .5 0 1 .5 1s.5-.5.5-1v-2h2v2c0 .5 0 1 .5 1s.5-.5.5-1v-2h2l1-1v-2h2c.5 0 1 0 1-.5s-.5-.5-1-.5h-2v-2h2c.5 0 1 0 1-.5s-.5-.5-1-.5h-2v-2z"/>
    <path fill="#fff" d="M8 8h8v8H8V8z"/>
    <path fill="#b31b34" d="M9 9h6v6H9V9z"/>
  </svg>
  <svg width="24" height="24" x="240" viewBox="0 0 24 24">
    <path fill="#fff" d="M7.75 21.5h8.75L12 10z"/>
    <path fill="#7f8691" d="M8 1C5.5 5 5.5 11 8 15c-1-1-4-3-4-7s3-6 4-7zM4 0C1.25 5 1.25 11 4 16c-1-1-4-4-4-8s3-7 4-8zm16 16c2.75-5 2.75-11 0-16 1 1 4 4 4 8s-3 7-4 8zm-4-1c2.5-4 2.5-10 0-14 1 1 4 3 4 7s-3 6-4 7z"/>
    <path fill="#0d2c56" d="M10 10L6 24h2l.6-2h6.8l.6 2h2l-4-14zm2 1l1.23 4h-2.46zm-1.54 5h3.08l.6 2h-4.3zm-.92 3h4.92l.62 2H8.92z"/>
    <path fill="#b31b34" d="M14 4.54c1.2.7 2 2 2 3.46 0 .74-.2 1.43-.55 2.02V10c-.7 1.2-1.98 2-3.45 2-.74 0-1.43-.2-2.02-.55H10C8.8 10.75 8 9.48 8 8c0-.74.2-1.43.55-2.02V6c.7-1.2 1.98-2 3.45-2 .74 0 1.43.2 2.02.55H14z"/>
  </svg>
  <svg width="24" height="24" x="280" viewBox="0 0 24 24">
    <path fill="#0d2c56" d="M2 2h20c.55 0 1 .45 1 1v15c0 .55-.45 1-1 1H2c-.55 0-1-.45-1-1V3c0-.55.45-1 1-1z"/>
    <path fill="#fff" d="M2 3h20v14H2V3z"/>
    <path fill="#b31b34" d="M13 13.07v-.82c1.1-.62 2-2.17 2-3.72 0-2.48 0-4.5-3-4.5s-3 2.02-3 4.5c0 1.55.9 3.1 2 3.72v.82c-3.4.28-5 1.95-5 3.96L18.12 17c0-2.02-1.73-3.65-5.12-3.92z"/>
    <path fill="#0d2c56" d="M11 17.75v1.5c0 1-1.5 2-4 2v1h10v-1c-2.5 0-4-1-4-2v-1.5z"/>
  </svg>
  <svg width="24" height="24" x="320" viewBox="0 0 24 24">
    <path fill="#fff" d="M2 2.5h20.25v19H2v-19z"/>
    <path fill="#0d2c56" d="M24.08 4.94c0-.67-.24-1.4-1.36-2.36-.67-.56-1.58-1.05-2.72-1.46-2.14-.76-4.96-1.2-7.94-1.2s-5.8.44-7.94 1.2c-1.14.4-2.05.9-2.72 1.46C.27 3.53.08 4.28.08 4.94v14c0 .66.2 1.4 1.32 2.35.67.5 1.58 1 2.72 1.4 2.14.7 4.98 1.2 7.96 1.2s5.77-.5 7.92-1.2c1.13-.4 2.05-.9 2.72-1.5 1.12-1 1.36-1.7 1.36-2.4zm-18.6-1.1c1.78-.6 4.12-.9 6.58-.9s4.8.3 6.6.9c1.74.56 2.32.9 2.42 1.1-.1.18-.68 1.03-2.43 1.6-1.8.58-4.13.9-6.6.9s-4.8-.32-6.58-.9c-1.75-.56-2.3-1.42-2.4-1.6.1-.2.65-.54 2.4-1.1zm13.17 16.2c-1.8.58-4.13.9-6.6.9s-4.8-.32-6.58-.9c-1.75-.56-2.3-.92-2.4-1.1v-3.5c.34.15.67.42 1.05.56 2.14.77 4.96 1.2 7.94 1.2s5.8-.43 7.94-1.2c.38-.14.75-.4 1.08-.56v3.5c-.1.18-.68.53-2.43 1.1zm0-6.75c-1.8.5-4.13.9-6.6.9s-4.8-.4-6.58-.9c-1.75-.6-2.33-1.2-2.42-1.4l.03-3.3c.33.1.65.4 1.04.5 2.14.7 4.96 1.2 7.94 1.2s5.8-.4 7.94-1.2c.38-.2.74-.4 1.07-.6v3.2c-.1.2-.67.8-2.42 1.3z"/>
  </svg>
  <svg width="24" height="24" x="360" viewBox="0 0 24 24">
    <path fill="#fff" d="M3 3h17v18.75H3V3z"/>
    <path fill="#b31b34" d="M20 5v16H6c-1.5 0-2-.43-2-1.5S4.5 18 6 18h12V1H4.86C3.3 1 2 2.24 2 3.75V20c0 2 2 3 4 3h16V5z"/>
    <path fill="#0d2c56" d="M6 19c-.5 0-1 0-1 .5s.5.5 1 .5h12v-1z"/>
  </svg>
  <svg width="24" height="24" x="400" viewBox="0 0 24 24">
    <path fill="#fff" d="M1 12l2 2 6 9h6l6-9 2-2-11-9z"/>
    <path fill="#b31b34" d="M1 9.5v4L12 5l11 8.5v-4C19 6.33 11.93.94 12 1z"/>
    <path fill="#0d2c56" d="M3 22c0 .5.5 1 1.04 1H9v-6h6v6h5c.5 0 1-.5 1-1v-8l-9-7-9 7z"/>
  </svg>
  <svg width="24" height="24" x="440" viewBox="0 0 24 24">
    <path fill="#fff" d="M2.6 7h18.9l-.03 14.7L21 23H3l-.4-2z"/>
    <path fill="#0d2c56" d="M20 4h-1v.5c0 1-1 1.5-2 1.5s-2-.5-2-1.5V4H9v.5C9 5.5 8 6 7 6s-2-.5-2-1.5V4H4c-1.25 0-1.94.5-1.94 2v14c0 1.5.7 2 1.94 2h16c1.5 0 2-.5 2-2V6c0-1.5-.5-2-2-2zm1 17H3V7h18zM7 5c.5 0 1-.5 1-1V1c0-.5-.5-1-1-1S6 .5 6 1v3c0 .5.5 1 1 1zm10 0c.5 0 1-.5 1-1V1c0-.5-.5-1-1-1s-1 .5-1 1v3c0 .5.5 1 1 1zm3.04 17.95H4.02c-.78 0-1.42-1.2-1.42-1.95v.7c0 .74.64 2.36 1.42 2.36h16.02c.8 0 1.43-1.62 1.43-2.37V21c0 .76-.64 1.95-1.43 1.95z"/>
    <path fill="#fff" d="M10.64 14.86c.02 0 .04 0 .06-.02l-.27.2-.07.04.28-.22zm2.56-2.4l.07-.3.3-.13c0 .03 0 .07-.02.1 0 .06-.03.12-.04.18l-.3.2z"/>
    <path fill="#b31b34" d="M6 9v2h4v2H6v2h4v2H6v2h6V9zm8 0v2h2v8h2V9z"/>
  </svg>
  <svg width="24" height="24" x="480" viewBox="0 0 24 24">
    <path fill="#0d2c56" d="M11.25 1.14L.75 5.5c-.56.2-.75.4-.75.76V17.3c0 .5.2.94.75 1.13l10.5 4.37c.56.2.94.2 1.5 0l10.5-4.37c.56-.2.75-.57.75-1.14V6.2c0-.38-.2-.57-.74-.8l-10.5-4.3c-.57-.2-.95-.2-1.5 0z"/>
    <path fill="#fff" d="M2 7v9.75l9 3.6V10.5zm11 3.5v9.88l9-3.63V7zM4.25 6L12 2.63 19.75 6 12 9z"/>
    <path fill="#b31b34" d="M8 8.6L19.64 4 16.5 2.7 5 7.4v3.35L8 12z"/>
  </svg>
  <svg width="24" height="24" x="520" viewBox="0 0 24 24">
    <path fill="#b31b34" d="M9 0C5.14 0 5.14 3.22 5.14 6.96 5.14 9.3 6.58 12.06 8 13v1c-4.36.42-8 2.97-8 6h6.5c1.3-1.38 3.13-2.32 4.94-2.8.16-.13.94-.03.65-.3-.8-.86-1.3-1.82-1.6-2.84l-.4-1.18C9.7 11 9.8 9 10.1 7.13c.04-1.66 1.1-3.2 2.57-3.93C12.34 1.3 11.45 0 9 0z"/>
    <path fill="#0d2c56" d="M16 18v-1c1.42-.93 2.86-3.7 2.86-6.04 0-3.74 0-6.96-3.86-6.96s-3.86 3.22-3.86 6.96c0 2.33 1.44 5.1 2.86 6.04v1c-4.36.42-8 2.97-8 6h18c0-3.03-3.64-5.58-8-6z"/>
  </svg>
  <svg width="24" height="24" x="560" viewBox="0 0 24 24">
    <path fill="#b31b34" d="M13 18v-1c1.42-.93 2.86-3.7 2.86-6.04 0-3.74 0-6.96-3.86-6.96s-3.86 3.22-3.86 6.96c0 2.33 1.44 5.1 2.86 6.04v1c-4.36.42-8 2.97-8 6h18c0-3.03-3.64-5.58-8-6z"/>
  </svg>
  <svg width="24" height="24" x="600" viewBox="0 0 24 24">
    <path fill="#7f8691" d="M13 18v-1c1.42-.93 2.86-3.7 2.86-6.04 0-3.74 0-6.96-3.86-6.96s-3.86 3.22-3.86 6.96c0 2.33 1.44 5.1 2.86 6.04v1c-4.36.42-8 2.97-8 6h18c0-3.03-3.64-5.58-8-6z"/>
    <path fill="#b31b34" d="M7 4h10c.55 0 1 .45 1 1v1c0 .55-.45 1-1 1H7c-.55 0-1-.45-1-1V5c0-.55.45-1 1-1z"/>
    <path fill="#b31b34" d="M10 1h4c.55 0 1 .45 1 1v2c0 .55-.45 1-1 1h-4c-.55 0-1-.45-1-1V2c0-.55.45-1 1-1z"/>
  </svg>
  <svg width="24" height="24" y="40" viewBox="0 0 24 24">
    <path fill="#ffc61e" d="M10 4h12.97C23.5 4 24 4.5 24 5v16c0 .5-.5 1-1 1H1c-.5 0-1-.5-1-1V2c0-.5.5-1 1-1h6z"/>
    <path fill="#fdf9ae" d="M1 6h22v15H1V6z"/>
  </svg>
  <svg width="24" height="24" x="40" y="40" viewBox="0 0 24 24">
    <path fill="#ffc61e" d="M10 4h12.97C23.5 4 24 4.5 24 5v16c0 .5-.5 1-1 1H1c-.5 0-1-.5-1-1V2c0-.5.5-1 1-1h6z"/>
    <path fill="#fdf9ae" d="M1 6h22v15H1V6z"/>
    <path fill="#0d2c56" d="M10 16h8c.5 0 1-.5 1-1v-2c0-.5-.25-1-1-1h-8c-.5 0-1 .5-1 1H8v-2h6c.5 0 1-.5 1-1V8c0-.5-.5-1-1-1H6.07C5.5 7 5 7.5 5 8v2c0 .5.5 1 1 1h1v8h2v1c0 .5.54 1 1 1h8c.5 0 1-.5 1-1v-2c0-.5-.5-1-1-1h-8c-.5 0-1 .5-1 1H8v-4h1v1c0 .75.5 1 1 1z"/>
    <path fill="#fff" d="M6 8h2v2H6V8zm4 5h2v2h-2v-2zm0 5h2v2h-2v-2z"/>
  </svg>
  <svg width="24" height="24" x="80" y="40" viewBox="0 0 24 24">
    <path fill="#ffc61e" d="M10 4h12.97C23.5 4 24 4.5 24 5v16c0 .5-.5 1-1 1H1c-.5 0-1-.5-1-1V2c0-.5.5-1 1-1h6z"/>
    <path fill="#fdf9ae" d="M1 6h22v15H1V6z"/>
    <path fill="#0d2c56" d="M15.72 17.5c.03-.5.28-.75.76-.76.52 0 .77.26.76.76 0 .5-.24.75-.76.76-.48 0-.73-.26-.76-.76zm-4.7-3.2l5.4 5.4c.2.2.44.3.72.3.27 0 .5-.1.72-.3l.84-.85c.2-.2.3-.43.3-.7 0-.3-.1-.53-.3-.73l-5.4-5.4c-.2.53-.5 1-.9 1.4s-.86.7-1.38.9zM6 10.88c0 .2.06.48.18.84.25.72.7 1.3 1.3 1.73s1.3.66 2.05.66c.98 0 1.82-.3 2.5-1s1.05-1.5 1.05-2.5-.34-1.8-1.04-2.5S10.5 7 9.54 7c-.3 0-.63.05-.97.13s-.62.2-.85.37c-.1.06-.13.13-.13.22s0 .17.1.23l2.3 1.3V11l-1.5.9c-.1 0-.3-.14-.7-.38l-1.1-.64c-.3-.2-.5-.28-.6-.28-.1 0-.2.02-.2.07s-.1.12-.1.2z"/>
  </svg>
  <svg width="24" height="24" x="120" y="40" viewBox="0 0 24 24">
    <path fill="#ffc61e" d="M10 4h12.97C23.5 4 24 4.5 24 5v16c0 .5-.5 1-1 1H1c-.5 0-1-.5-1-1V2c0-.5.5-1 1-1h6z"/>
    <path fill="#fdf9ae" d="M1 6h22v15H1V6z"/>
    <path fill="#2197db" d="M5.06 8h13.88c.6 0 1.06.47 1.06 1.06v9.88c0 .6-.47 1.06-1.06 1.06H5.06C4.46 20 4 19.53 4 18.94V9.06C4 8.46 4.47 8 5.06 8z"/>
    <path fill="#fff" d="M5.06 8h13.88c.6 0 1.06.47 1.06 1.06v9.88c0 .6-.47 1.06-1.06 1.06H5.06C4.46 20 4 19.53 4 18.94V9.06C4 8.46 4.47 8 5.06 8z" opacity=".6"/>
    <path fill="#fdf9ae" d="M9 9.27c.6.35 1 1 1 1.73 0 .37-.1.7-.27 1-.35.6-1 1-1.73 1-.37 0-.7-.1-1-.27-.6-.35-1-1-1-1.73 0-.37.1-.7.27-1 .35-.6 1-1 1.73-1 .37 0 .7.1 1 .27z"/>
    <path fill="#0d2c56" d="M4 18v1c0 .5.5 1 1 1h14c.5 0 1-.5 1-1v-4l-4-4-5 5-3-2z"/>
  </svg>
  <svg width="24" height="24" x="160" y="40" viewBox="0 0 24 24">
    <path fill="#ffc61e" d="M10 4h12.97C23.5 4 24 4.5 24 5v16c0 .5-.5 1-1 1H1c-.5 0-1-.5-1-1V2c0-.5.5-1 1-1h6z"/>
    <path fill="#fdf9ae" d="M1 6h22v15H1V6z"/>
    <path fill="#0d2c56" d="M5 7v14c0 .5.5 1 1 1h12c.5 0 1-.5 1-1v-9l-6-6H6.08C5.5 6 5 6.5 5 7z"/>
    <path fill="#fff" d="M6 7v14h12V10.94L13.5 7z"/>
    <path fill="#0d2c56" d="M13 6v5c0 .5.5 1 1 1h5z"/>
    <path fill="#fff" d="M5 7v14c0 .5.5 1 1 1h12c.5 0 1-.5 1-1v-9l-6-6H6.08C5.5 6 5 6.5 5 7z" opacity=".4"/>
  </svg>
  <svg width="24" height="24" x="200" y="40" viewBox="0 0 24 24">
    <path fill="#ffc61e" d="M10 4h12.97C23.5 4 24 4.5 24 5v16c0 .5-.5 1-1 1H1c-.5 0-1-.5-1-1V2c0-.5.5-1 1-1h6z"/>
    <path fill="#fdf9ae" d="M1 6h22v15H1V6z"/>
    <path fill="#0d2c56" d="M13.5 17.35L15 19l5-5.5L15 8l-1.5 1.65L17 13.5zm-3-7.7L9 8l-5 5.5L9 19l1.5-1.65L7 13.5z"/>
  </svg>
  <svg width="24" height="24" x="240" y="40" viewBox="0 0 24 24">
    <path fill="#ffc61e" d="M10 4h12.97C23.5 4 24 4.5 24 5v16c0 .5-.5 1-1 1H1c-.5 0-1-.5-1-1V2c0-.5.5-1 1-1h6z"/>
    <path fill="#fdf9ae" d="M1 6h22v15H1V6z"/>
    <path fill="#0d2c56" d="M6 7h13c.55 0 1 .45 1 1v11c0 .55-.45 1-1 1H6c-.55 0-1-.45-1-1V8c0-.55.45-1 1-1z"/>
    <path fill="#fff" d="M6 8h6v3H6V8zm7 0h6v3h-6V8zm0 4h6v3h-6v-3zm-7 0h6v3H6v-3zm7 4h6v3h-6v-3zm-7 0h6v3H6v-3z"/>
  </svg>
  <svg width="24" height="24" x="280" y="40" viewBox="0 0 24 24">
    <path fill="#ffc61e" d="M10 4h12.97C23.5 4 24 4.5 24 5v16c0 .5-.5 1-1 1H1c-.5 0-1-.5-1-1V2c0-.5.5-1 1-1h6z"/>
    <path fill="#fdf9ae" d="M1 6h22v15H1V6z"/>
    <path fill="#fff" d="M8.04 8h4.92C14.64 8 16 9.36 16 11.04v4.92c0 1.68-1.36 3.04-3.04 3.04H8.04C6.36 19 5 17.64 5 15.96v-4.92C5 9.36 6.36 8 8.04 8z"/>
    <path fill="#0d2c56" d="M15.98 14.27v2.5q0 .93-.66 1.6t-1.6.65h-6.5q-.92 0-1.58-.66t-.66-1.6v-6.5q0-.92.66-1.58t1.6-.66h5.5q.1 0 .17.07t.1.1v.7H7.3q-.53 0-.9.3t-.36.8v6.5q0 .52.37.9t.9.35h6.5q.5 0 .9-.38t.4-.9V14q0-.1.1-.2t.2-.08h.5q.1 0 .2.03t.1.14zm3-6.75v4q0 .2-.15.36t-.35.14-.36-.14l-1.37-1.38-5.1 5.1q-.07.07-.17.07t-.18-.08l-.9-.9q-.07-.1-.07-.2t.07-.2l5.1-5.1-1.38-1.4q-.14-.2-.14-.4t.14-.4.36-.2h4q.2 0 .35.12t.15.34z"/>
  </svg>
  <svg width="24" height="24" x="320" y="40" viewBox="0 0 24 24">
    <path fill="#2197db" d="M10 4h12.97C23.5 4 24 4.5 24 5v16c0 .5-.5 1-1 1H1c-.5 0-1-.5-1-1V2c0-.5.5-1 1-1h6z"/>
    <path fill="#fff" d="M1 6h22v15H1V6z" opacity=".6"/>
  </svg>
  <svg width="24" height="24" x="360" y="40" viewBox="0 0 24 24">
    <path fill="#b31b34" d="M10 4h12.97C23.5 4 24 4.5 24 5v16c0 .5-.5 1-1 1H1c-.5 0-1-.5-1-1V2c0-.5.5-1 1-1h6z"/>
    <path fill="#fdf9ae" d="M1 6h22v15H1V6z" opacity=".6"/>
  </svg>
  <svg width="24" height="24" x="400" y="40" viewBox="0 0 24 24">
    <path fill="#0d2c56" d="M3 0h18c.55 0 1 .45 1 1v22c0 .55-.45 1-1 1H3c-.55 0-1-.45-1-1V1c0-.55.45-1 1-1z"/>
    <path fill="#fff" d="M3 1h18v22H3V1z"/>
    <path fill="#fff" d="M3 0h18c.55 0 1 .45 1 1v22c0 .55-.45 1-1 1H3c-.55 0-1-.45-1-1V1c0-.55.45-1 1-1z" opacity=".4"/>
    <path fill="#a8adb4" d="M6.5 9h11c.28 0 .5.22.5.5s-.22.5-.5.5h-11c-.28 0-.5-.22-.5-.5s.22-.5.5-.5zm0 2h11c.28 0 .5.22.5.5s-.22.5-.5.5h-11c-.28 0-.5-.22-.5-.5s.22-.5.5-.5zm0 2h11c.28 0 .5.22.5.5s-.22.5-.5.5h-11c-.28 0-.5-.22-.5-.5s.22-.5.5-.5zm0 2h11c.28 0 .5.22.5.5s-.22.5-.5.5h-11c-.28 0-.5-.22-.5-.5s.22-.5.5-.5zm0 2h11c.28 0 .5.22.5.5s-.22.5-.5.5h-11c-.28 0-.5-.22-.5-.5s.22-.5.5-.5zm0 2h11c.28 0 .5.22.5.5s-.22.5-.5.5h-11c-.28 0-.5-.22-.5-.5s.22-.5.5-.5zm0-12h11c.28 0 .5.22.5.5s-.22.5-.5.5h-11c-.28 0-.5-.22-.5-.5s.22-.5.5-.5zm0-2h11c.28 0 .5.22.5.5s-.22.5-.5.5h-11c-.28 0-.5-.22-.5-.5s.22-.5.5-.5z"/>
  </svg>
  <svg width="24" height="24" x="440" y="40" viewBox="0 0 24 24">
    <path fill="#0d2c56" d="M3 0h18c.55 0 1 .45 1 1v22c0 .55-.45 1-1 1H3c-.55 0-1-.45-1-1V1c0-.55.45-1 1-1z"/>
    <path fill="#fff" d="M3 1h18v22H3V1z"/>
    <path fill="#fff" d="M3 0h18c.55 0 1 .45 1 1v22c0 .55-.45 1-1 1H3c-.55 0-1-.45-1-1V1c0-.55.45-1 1-1z" opacity=".4"/>
    <path fill="#b31b34" d="M6 17h12v4H6v-4z"/>
    <path fill="#2197db" d="M6 4h12v4H6V4z"/>
    <path fill="#b31b34" d="M13 10h5v5h-5v-5z"/>
    <path fill="#2197db" d="M6 10h5v5H6v-5z"/>
  </svg>
  <svg width="24" height="24" x="480" y="40" viewBox="0 0 24 24">
    <path fill="#0d2c56" d="M3 0h18c.55 0 1 .45 1 1v22c0 .55-.45 1-1 1H3c-.55 0-1-.45-1-1V1c0-.55.45-1 1-1z"/>
    <path fill="#fff" d="M3 1h18v22H3V1z"/>
    <path fill="#fff" d="M3 0h18c.55 0 1 .45 1 1v22c0 .55-.45 1-1 1H3c-.55 0-1-.45-1-1V1c0-.55.45-1 1-1z" opacity=".4"/>
    <path fill="#b31b34" d="M6 17h12v4H6v-4z"/>
    <path fill="#a8adb4" d="M6 4h12v4H6V4z"/>
    <path fill="#b31b34" d="M13 10h5v5h-5v-5z"/>
    <path fill="#a8adb4" d="M6 10h5v5H6v-5z"/>
  </svg>
  <svg width="24" height="24" x="520" y="40" viewBox="0 0 24 24">
    <path fill="#b31b34" d="M3 0h18c.55 0 1 .45 1 1v22c0 .55-.45 1-1 1H3c-.55 0-1-.45-1-1V1c0-.55.45-1 1-1z"/>
    <path fill="#fff" d="M3 1h18v22H3V1z"/>
    <path fill="#fff" d="M3 0h18c.55 0 1 .45 1 1v22c0 .55-.45 1-1 1H3c-.55 0-1-.45-1-1V1c0-.55.45-1 1-1z" opacity=".4"/>
    <path fill="#b31b34" d="M3 1h18v22H3V1z" opacity=".1"/>
    <path fill="#b31b34" d="M6 17h12v4H6v-4z"/>
    <path fill="#2197db" d="M6 4h12v4H6V4z"/>
    <path fill="#b31b34" d="M13 10h5v5h-5v-5z"/>
    <path fill="#2197db" d="M6 10h5v5H6v-5z"/>
  </svg>
  <svg width="24" height="24" x="560" y="40" viewBox="0 0 24 24">
    <path fill="#0d2c56" d="M3 0h18c.55 0 1 .45 1 1v22c0 .55-.45 1-1 1H3c-.55 0-1-.45-1-1V1c0-.55.45-1 1-1z"/>
    <path fill="#fff" d="M3 1h18v22H3V1z"/>
    <path fill="#fff" d="M3 0h18c.55 0 1 .45 1 1v22c0 .55-.45 1-1 1H3c-.55 0-1-.45-1-1V1c0-.55.45-1 1-1z" opacity=".4"/>
    <path fill="#0d2c56" d="M14 21l3-1.5c-1-2-.5-3.5 2-3.5v-4c-2.5 0-3.34-1.5-2-3.5L14 7c-1 2.5-3 2.5-4 0L7 8.5c1 2 .5 3.5-2 3.5v4c2.5 0 3 1.5 2 3.5l3 1.5c1-2.5 3-2.5 4 0zm-5-7c0-1.75 1.5-3 3-3s3 1.25 3 3-1.25 3-3 3c-1.5 0-3-1.25-3-3z"/>
  </svg>
  <svg width="24" height="24" x="600" y="40" viewBox="0 0 24 24">
    <path fill="#0d2c56" d="M3 0h18c.55 0 1 .45 1 1v22c0 .55-.45 1-1 1H3c-.55 0-1-.45-1-1V1c0-.55.45-1 1-1z"/>
    <path fill="#fff" d="M3 1h18v22H3V1z"/>
    <path fill="#fff" d="M3 0h18c.55 0 1 .45 1 1v22c0 .55-.45 1-1 1H3c-.55 0-1-.45-1-1V1c0-.55.45-1 1-1z" opacity=".4"/>
    <path fill="#0d2c56" d="M0 12v4c0 .5.5 1 .96 1H6v4l7-7-7-7v4H1c-.5 0-1 .5-1 1z"/>
    <path fill="#2197db" d="M1 12v4h6v2.75L11.75 14 7 9.25V12z"/>
  </svg>
  <svg width="24" height="24" y="80" viewBox="0 0 24 24">
    <path fill="#0d2c56" d="M3 0h18c.55 0 1 .45 1 1v22c0 .55-.45 1-1 1H3c-.55 0-1-.45-1-1V1c0-.55.45-1 1-1z"/>
    <path fill="#fff" d="M3 1h18v22H3V1z"/>
    <path fill="#fff" d="M3 0h18c.55 0 1 .45 1 1v22c0 .55-.45 1-1 1H3c-.55 0-1-.45-1-1V1c0-.55.45-1 1-1z" opacity=".4"/>
    <path fill="#0d2c56" d="M7 4h3v1H7V4zM6 5v5h1V9h1V8H7V5zm4 0v1H9v1h1v3h1V5zm-3 5h3v1H7v-1zm1-3h1v1H8V7zm7-3v1h-1v1h1v4h-2v1h5v-1h-2V4zm-1 9h3v1h-3v-1zm-1 1v5h1v-1h1v-1h-1v-3zm4 0v1h-1v1h1v3h1v-5zm-3 5h3v1h-3v-1zm1-3h1v1h-1v-1zm-7-3v1H7v1h1v4H6v1h5v-1H9v-6z"/>
  </svg>
  <svg width="24" height="24" x="40" y="80" viewBox="0 0 24 24">
    <path fill="#0d2c56" d="M3 0h18c.55 0 1 .45 1 1v22c0 .55-.45 1-1 1H3c-.55 0-1-.45-1-1V1c0-.55.45-1 1-1z"/>
    <path fill="#fff" d="M3 1h18v22H3V1z"/>
    <path fill="#fff" d="M3 0h18c.55 0 1 .45 1 1v22c0 .55-.45 1-1 1H3c-.55 0-1-.45-1-1V1c0-.55.45-1 1-1z" opacity=".4"/>
    <path fill="#0d2c56" d="M17.03 15.1C18.5 14.28 19 13.5 19 12c0-2.14-2-4-4.5-4S10 9.5 9.98 11.45C6.5 11.5 5 13.25 5 14.98c0 1.77 1 2.77 2 3.02 0 1.52-1.53 1.78-1.93 1.97 1.28.03 2.74-.3 3.45-1.46 3.98.2 5.23-1.5 5.48-2.5.56.1.84.1 1.47 0 .83.8 2.03 1 3.53 1-.7-.3-1.8-1.1-1.97-1.8z"/>
    <path fill="#fff" d="M15.5 15c-.6.08-.98.1-1.5-.02-.13-1.27-.53-2.86-2.95-3.47C11 10.2 12.5 9 14.5 9s3.4 1.36 3.5 3c.05 1-.2 1.63-2 2.76.2.68.93 1.33 1.5 1.75-1.18-.4-1.66-.9-2-1.5z"/>
  </svg>
  <svg width="24" height="24" x="80" y="80" viewBox="0 0 24 24">
    <path fill="#b31b34" d="M3 0h18c.55 0 1 .45 1 1v22c0 .55-.45 1-1 1H3c-.55 0-1-.45-1-1V1c0-.55.45-1 1-1z"/>
    <path fill="#fff" d="M3 1h18v22H3V1z"/>
    <path fill="#fff" d="M3 0h18c.55 0 1 .45 1 1v22c0 .55-.45 1-1 1H3c-.55 0-1-.45-1-1V1c0-.55.45-1 1-1z" opacity=".4"/>
    <path fill="#b31b34" d="M3 1h18v22H3V1z" opacity=".1"/>
    <path fill="#0d2c56" d="M17.03 15.1C18.5 14.28 19 13.5 19 12c0-2.14-2-4-4.5-4S10 9.5 9.98 11.45C6.5 11.5 5 13.25 5 14.98c0 1.77 1 2.77 2 3.02 0 1.52-1.53 1.78-1.93 1.97 1.28.03 2.74-.3 3.45-1.46 3.98.2 5.23-1.5 5.48-2.5.56.1.84.1 1.47 0 .83.8 2.03 1 3.53 1-.7-.3-1.8-1.1-1.97-1.8z"/>
    <path fill="#fff" d="M15.5 15c-.6.08-.98.1-1.5-.02-.13-1.27-.53-2.86-2.95-3.47C11 10.2 12.5 9 14.5 9s3.4 1.36 3.5 3c.05 1-.2 1.63-2 2.76.2.68.93 1.33 1.5 1.75-1.18-.4-1.66-.9-2-1.5z"/>
  </svg>
  <svg width="24" height="24" x="120" y="80" viewBox="0 0 24 24">
    <path fill="#0d2c56" d="M3 0h18c.55 0 1 .45 1 1v22c0 .55-.45 1-1 1H3c-.55 0-1-.45-1-1V1c0-.55.45-1 1-1z"/>
    <path fill="#fff" d="M3 1h18v22H3V1z"/>
    <path fill="#fff" d="M3 0h18c.55 0 1 .45 1 1v22c0 .55-.45 1-1 1H3c-.55 0-1-.45-1-1V1c0-.55.45-1 1-1z" opacity=".4"/>
    <path fill="#0d2c56" d="M10.22 7C7.32 7 5 9.34 5 12.24s2.33 5.24 5.22 5.24c1.1 0 2.25-.2 3.4-1.2l.4.43c-.15.4-.07.8.48 1.3l2.46 2.5c.7.7 1.3.6 1.7.2.37-.4.55-.9-.18-1.6l-2.5-2.5c-.5-.5-.93-.6-1.28-.4l-.42-.4c1-1.1 1.17-2.3 1.17-3.4 0-2.9-2.34-5.2-5.23-5.2z"/>
    <path fill="#fff" d="M12.12 9c1.13.65 1.88 1.86 1.88 3.25 0 .7-.2 1.35-.52 1.9-.65 1.12-1.86 1.87-3.25 1.87-.7 0-1.34-.2-1.9-.52-1.12-.65-1.87-1.86-1.87-3.25 0-.7.2-1.34.52-1.9.65-1.12 1.87-1.87 3.25-1.87.7 0 1.35.2 1.9.52z"/>
  </svg>
  <svg width="24" height="24" x="160" y="80" viewBox="0 0 24 24">
    <path fill="#0d2c56" d="M3 0h18c.55 0 1 .45 1 1v22c0 .55-.45 1-1 1H3c-.55 0-1-.45-1-1V1c0-.55.45-1 1-1z"/>
    <path fill="#fff" d="M3 1h18v22H3V1z"/>
    <path fill="#fff" d="M3 0h18c.55 0 1 .45 1 1v22c0 .55-.45 1-1 1H3c-.55 0-1-.45-1-1V1c0-.55.45-1 1-1z" opacity=".4"/>
    <path fill="#0d2c56" d="M10 16h8c.5 0 1-.5 1-1v-2c0-.5-.25-1-1-1h-8c-.5 0-1 .5-1 1H8v-2h6c.5 0 1-.5 1-1V8c0-.5-.5-1-1-1H6.07C5.5 7 5 7.5 5 8v2c0 .5.5 1 1 1h1v8h2v1c0 .5.54 1 1 1h8c.5 0 1-.5 1-1v-2c0-.5-.5-1-1-1h-8c-.5 0-1 .5-1 1H8v-4h1v1c0 .75.5 1 1 1zm0-3h2v2h-2zm0 5h2v2h-2zm-4-8V8h2v2z"/>
  </svg>
  <svg width="24" height="24" x="200" y="80" viewBox="0 0 24 24">
    <path fill="#0d2c56" d="M3 0h18c.55 0 1 .45 1 1v22c0 .55-.45 1-1 1H3c-.55 0-1-.45-1-1V1c0-.55.45-1 1-1z"/>
    <path fill="#fff" d="M3 1h18v22H3V1z"/>
    <path fill="#fff" d="M3 0h18c.55 0 1 .45 1 1v22c0 .55-.45 1-1 1H3c-.55 0-1-.45-1-1V1c0-.55.45-1 1-1z" opacity=".4"/>
    <path fill="#0d2c56" d="M15.72 19.5c.03-.5.28-.75.76-.76.52 0 .77.26.76.76 0 .5-.24.75-.76.76-.48 0-.73-.26-.76-.76zm-4.7-3.2l5.4 5.4c.2.2.44.3.72.3.27 0 .5-.1.72-.3l.84-.85c.2-.2.3-.43.3-.7 0-.3-.1-.53-.3-.73l-5.4-5.4c-.2.53-.5 1-.9 1.4s-.86.7-1.38.9zM6 12.88c0 .2.06.48.18.84.25.72.7 1.3 1.3 1.73s1.3.66 2.05.66c.98 0 1.82-.3 2.5-1s1.05-1.5 1.05-2.5-.34-1.8-1.04-2.5S10.5 9 9.54 9c-.3 0-.63.05-.97.13s-.62.2-.85.37c-.1.06-.13.13-.13.22s0 .17.1.23l2.3 1.3V13l-1.5.9c-.1 0-.3-.14-.7-.38l-1.1-.64c-.3-.2-.5-.28-.6-.28-.1 0-.2.02-.2.07s-.1.12-.1.2z"/>
  </svg>
  <svg width="24" height="24" x="240" y="80" viewBox="0 0 24 24">
    <path fill="#0d2c56" d="M3 0h18c.55 0 1 .45 1 1v22c0 .55-.45 1-1 1H3c-.55 0-1-.45-1-1V1c0-.55.45-1 1-1z"/>
    <path fill="#fff" d="M3 1h18v22H3V1z"/>
    <path fill="#fff" d="M3 0h18c.55 0 1 .45 1 1v22c0 .55-.45 1-1 1H3c-.55 0-1-.45-1-1V1c0-.55.45-1 1-1z" opacity=".4"/>
    <path fill="#0d2c56" d="M14.5 19.2l1.27 1.8L20 15l-4.23-6-1.27 1.8 2.96 4.2zm-5-8.4L8.23 9 4 15l4.23 6 1.27-1.8L6.54 15zM11.77 9l1.98.25L12.23 21l-1.98-.25L11.77 9z"/>
  </svg>
  <svg width="24" height="24" x="280" y="80" viewBox="0 0 24 24">
    <path fill="#0d2c56" d="M3 0h18c.55 0 1 .45 1 1v22c0 .55-.45 1-1 1H3c-.55 0-1-.45-1-1V1c0-.55.45-1 1-1z"/>
    <path fill="#fff" d="M3 1h18v22H3V1z"/>
    <path fill="#fff" d="M3 0h18c.55 0 1 .45 1 1v22c0 .55-.45 1-1 1H3c-.55 0-1-.45-1-1V1c0-.55.45-1 1-1z" opacity=".4"/>
    <path fill="#fff" d="M7.33 10h6.34c1.3 0 2.33 1.04 2.33 2.33v6.34c0 1.3-1.04 2.33-2.33 2.33H7.33C6.03 21 5 19.96 5 18.67v-6.34C5 11.03 6.04 10 7.33 10z"/>
    <path fill="#0d2c56" d="M15.98 16.26v2.5q0 .92-.66 1.58t-1.58.66h-6.5q-.92 0-1.58-.66T5 18.74v-6.47q0-.93.66-1.6t1.6-.65h5.48q.1 0 .18.07t.07.1v.5q0 .1-.1.2t-.2 0H7.2q-.5 0-.86.3t-.37.9v6.4q0 .52.36.9t.88.36h6.5q.5 0 .9-.4t.4-.87V16q0-.1.1-.1t.2-.07h.5q.1 0 .2.06t.1.2zm3-6.74v4q0 .2-.15.34t-.35.15-.35-.1l-1.38-1.3-5.08 5.1q-.08.1-.18.1t-.2 0l-.9-.9q-.1-.02-.1-.12t.1-.16l5.1-5.1-1.4-1.4q-.1-.2-.1-.4t.1-.35.3-.15h3.9q.2 0 .3.1t.14.3z"/>
  </svg>
  <svg width="24" height="24" x="320" y="80" viewBox="0 0 24 24">
    <path fill="#b31b34" d="M3 0h18c.55 0 1 .45 1 1v22c0 .55-.45 1-1 1H3c-.55 0-1-.45-1-1V1c0-.55.45-1 1-1z"/>
    <path fill="#fff" d="M3 1h18v22H3V1z"/>
    <path fill="#fff" d="M3 0h18c.55 0 1 .45 1 1v22c0 .55-.45 1-1 1H3c-.55 0-1-.45-1-1V1c0-.55.45-1 1-1z" opacity=".4"/>
    <path fill="#b31b34" d="M3 1h18v22H3V1z" opacity=".1"/>
    <path fill="#0d2c56" d="M15.72 19.5c.03-.5.28-.75.76-.76.52 0 .77.26.76.76 0 .5-.24.75-.76.76-.48 0-.73-.26-.76-.76zm-4.7-3.2l5.4 5.4c.2.2.44.3.72.3.27 0 .5-.1.72-.3l.84-.85c.2-.2.3-.43.3-.7 0-.3-.1-.53-.3-.73l-5.4-5.4c-.2.53-.5 1-.9 1.4s-.86.7-1.38.9zM6 12.88c0 .2.06.48.18.84.25.72.7 1.3 1.3 1.73s1.3.66 2.05.66c.98 0 1.82-.3 2.5-1s1.05-1.5 1.05-2.5-.34-1.8-1.04-2.5S10.5 9 9.54 9c-.3 0-.63.05-.97.13s-.62.2-.85.37c-.1.06-.13.13-.13.22s0 .17.1.23l2.3 1.3V13l-1.5.9c-.1 0-.3-.14-.7-.38l-1.1-.64c-.3-.2-.5-.28-.6-.28-.1 0-.2.02-.2.07s-.1.12-.1.2z"/>
  </svg>
  <svg width="24" height="24" x="360" y="80" viewBox="0 0 24 24">
    <path fill="#b31b34" d="M3 0h18c.55 0 1 .45 1 1v22c0 .55-.45 1-1 1H3c-.55 0-1-.45-1-1V1c0-.55.45-1 1-1z"/>
    <path fill="#fff" d="M3 1h18v22H3V1z"/>
    <path fill="#fff" d="M3 0h18c.55 0 1 .45 1 1v22c0 .55-.45 1-1 1H3c-.55 0-1-.45-1-1V1c0-.55.45-1 1-1z" opacity=".4"/>
    <path fill="#b31b34" d="M3 1h18v22H3V1z" opacity=".1"/>
    <path fill="#b31b34" d="M1 8h22v9H1V8z"/>
    <path fill="#fff" d="M18 9c1 0 2 .5 2 2.04C20 12.5 19 13 18 13h-2v3h-1V9zm-2 1v2h2c.5 0 1-.25 1-1s-.5-1-1-1zm-2-1v1h-3.5c-.25 0-.5.25-.5.46v1.04c0 .32.25.5.5.5h2.25c.75 0 1.25.5 1.25 1.25v1.5c0 .66-.5 1.25-1.25 1.25H9v-1h3.5c.25 0 .5-.25.5-.5v-1c0-.25-.25-.5-.5-.5h-2.25C9.53 13 9 12.5 9 11.75v-1.5C9 9.45 9.5 9 10.25 9zM7 9h1v5.75C8 15.4 7.43 16 6.75 16h-1.5C4.5 16 4 15.5 4 14.75V14h1v.5c.03.37.25.5.5.5h1c.25 0 .5-.25.5-.5z"/>
  </svg>
  <svg width="24" height="24" x="400" y="80" viewBox="0 0 24 24">
    <path fill="#0d2c56" d="M3 0h18c.55 0 1 .45 1 1v22c0 .55-.45 1-1 1H3c-.55 0-1-.45-1-1V1c0-.55.45-1 1-1z"/>
    <path fill="#fff" d="M3 1h18v22H3V1z"/>
    <path fill="#fff" d="M3 0h18c.55 0 1 .45 1 1v22c0 .55-.45 1-1 1H3c-.55 0-1-.45-1-1V1c0-.55.45-1 1-1z" opacity=".4"/>
    <path fill="#0d2c56" d="M6.5 4h11c.28 0 .5.22.5.5v.98c0 .28-.22.5-.5.5h-11c-.28 0-.5-.22-.5-.5V4.5c0-.28.22-.5.5-.5z"/>
    <path fill="#a8adb4" d="M6.5 9h11c.28 0 .5.22.5.5s-.22.5-.5.5h-11c-.28 0-.5-.22-.5-.5s.22-.5.5-.5zm0 2h11c.28 0 .5.22.5.5s-.22.5-.5.5h-11c-.28 0-.5-.22-.5-.5s.22-.5.5-.5zm0 2h11c.28 0 .5.22.5.5s-.22.5-.5.5h-11c-.28 0-.5-.22-.5-.5s.22-.5.5-.5zm0 2h11c.28 0 .5.22.5.5s-.22.5-.5.5h-11c-.28 0-.5-.22-.5-.5s.22-.5.5-.5zm0 2h11c.28 0 .5.22.5.5s-.22.5-.5.5h-11c-.28 0-.5-.22-.5-.5s.22-.5.5-.5zm0 2h11c.28 0 .5.22.5.5s-.22.5-.5.5h-11c-.28 0-.5-.22-.5-.5s.22-.5.5-.5z"/>
  </svg>
  <svg width="24" height="24" x="440" y="80" viewBox="0 0 24 24">
    <path fill="#7f8691" d="M10 4h12.97C23.5 4 24 4.5 24 5v16c0 .5-.5 1-1 1H1c-.5 0-1-.5-1-1V2c0-.5.5-1 1-1h6z"/>
    <path fill="#fff" d="M1 6h22v15H1V6z" opacity=".6"/>
    <path fill="#b31b34" d="M9.93 16c-.02-.1-.07-.57-.05-.85.07-.88.25-1.77.57-2.57.3-.74.8-1.36 1.26-1.96.4-.45.9-.73 1.2-1.2.3-.5.6-1.18.6-1.68 0-.6-.2-1.06-.6-1.36-.4-.32-.8-.5-1.4-.5s-1.1.1-1.7.32c-.5.18-1.1.44-1.7.78l-1-2.6c.7-.43 1.4-.78 2.3-1.02S11 3 11.8 3c1.03 0 1.9.16 2.57.48.68.3 1.2.7 1.6 1.15s.64.98.78 1.54c.17.55.25 1.07.25 1.58 0 .58-.1 1.1-.33 1.6-.2.48-.47.93-.8 1.36-.3.5-.7.8-1 1.3-.58.8-1.23 1.6-1.6 2.5-.18.5-.27 1.2-.27 1.6zm2.57 1.5c.6.33 1 .93 1 1.62 0 .35-.1.67-.27.95-.35.56-1 .93-1.73.93-.37 0-.7-.1-1-.26-.6-.32-1-.93-1-1.62 0-.34.1-.66.27-.94.35-.56 1-.93 1.73-.93.37 0 .7.1 1 .26z"/>
  </svg>
  <svg width="24" height="24" x="480" y="80" viewBox="0 0 24 24">
    <path fill="#b31b34" d="M3 0h18c.55 0 1 .45 1 1v22c0 .55-.45 1-1 1H3c-.55 0-1-.45-1-1V1c0-.55.45-1 1-1z"/>
    <path fill="#fff" d="M3 1h18v22H3V1z"/>
    <path fill="#fff" d="M3 0h18c.55 0 1 .45 1 1v22c0 .55-.45 1-1 1H3c-.55 0-1-.45-1-1V1c0-.55.45-1 1-1z" opacity=".4"/>
    <path fill="#7f8691" d="M3 1h18v22H3V1z"/>
    <path fill="#fff" d="M3 1h18v22H3V1z" opacity=".6"/>
    <path fill="#b31b34" d="M9.93 16c-.02-.1-.07-.57-.05-.85.07-.88.25-1.77.57-2.57.3-.74.8-1.36 1.26-1.96.4-.45.9-.73 1.2-1.2.3-.5.6-1.18.6-1.68 0-.6-.2-1.06-.6-1.36-.4-.32-.8-.5-1.4-.5s-1.1.1-1.7.32c-.5.18-1.1.44-1.7.78l-1-2.6c.7-.43 1.4-.78 2.3-1.02S11 3 11.8 3c1.03 0 1.9.16 2.57.48.68.3 1.2.7 1.6 1.15s.64.98.78 1.54c.17.55.25 1.07.25 1.58 0 .58-.1 1.1-.33 1.6-.2.48-.47.93-.8 1.36-.3.5-.7.8-1 1.3-.58.8-1.23 1.6-1.6 2.5-.18.5-.27 1.2-.27 1.6zm2.57 1.5c.6.33 1 .93 1 1.62 0 .35-.1.67-.27.95-.35.56-1 .93-1.73.93-.37 0-.7-.1-1-.26-.6-.32-1-.93-1-1.62 0-.34.1-.66.27-.94.35-.56 1-.93 1.73-.93.37 0 .7.1 1 .26z"/>
  </svg>
  <svg width="24" height="24" x="520" y="80" viewBox="0 0 24 24">
    <path fill="#0d2c56" d="M2 1v22c0 .5.5 1 1 1h18c.5 0 1-.5 1-1V7l-7-7H3.08C2.5 0 2 .5 2 1z"/>
    <path fill="#fff" d="M3 1v22h18V6l-5-5z"/>
    <path fill="#0d2c56" d="M15 0v6c0 .5.5 1 1 1h6z"/>
    <path fill="#fff" d="M2 1v22c0 .5.5 1 1 1h18c.5 0 1-.5 1-1V7l-7-7H3.08C2.5 0 2 .5 2 1z" opacity=".4"/>
    <path fill="#b31b34" d="M8.33 13v-1c0-.72.3-1 .94-1H10V9h-.72c-1.5 0-2.72 1.37-2.72 3.06v.75c0 .8-.53 1.2-1.17 1.2H5v2h.4c.63 0 1.16.5 1.16 1.2v.8c0 1.7 1.24 2.9 2.72 3.1H10v-2h-.76c-.65 0-.9-.2-.9-1v-1c0-1.2-.2-1.5-1.12-2 .86-.5 1.1-.8 1.1-2zm7.34 4v1c0 .72-.3.9-.94 1H14v2h.72c1.5 0 2.72-1.37 2.72-3.06v-.75c0-.8.53-1.2 1.17-1.2h.4v-2h-.4c-.6 0-1.1-.5-1.1-1.2V12c0-1.7-1.2-3.06-2.7-3.06H14v2h.76c.65 0 .9.24.9 1v1c0 1.22.24 1.5 1.12 2-.88.5-1.1.75-1.1 2zM11 12h2v2h-2v-2zm0 4h2v2l-1.75 3h-.5v-1.25l1-1.75H11z"/>
  </svg>
  <svg width="24" height="24" x="560" y="80" viewBox="0 0 24 24">
    <path fill="#0d2c56" d="M2 1v22c0 .5.5 1 1 1h18c.5 0 1-.5 1-1V7l-7-7H3.08C2.5 0 2 .5 2 1z"/>
    <path fill="#fff" d="M3 1v22h18V6l-5-5z"/>
    <path fill="#0d2c56" d="M15 0v6c0 .5.5 1 1 1h6z"/>
    <path fill="#fff" d="M2 1v22c0 .5.5 1 1 1h18c.5 0 1-.5 1-1V7l-7-7H3.08C2.5 0 2 .5 2 1z" opacity=".4"/>
    <path fill="#0d2c56" d="M9.33 13v-1c0-.72.3-1 .94-1H11V9h-.72c-1.5 0-2.72 1.37-2.72 3.06v.75c0 .8-.53 1.2-1.17 1.2H6v2h.4c.63 0 1.16.5 1.16 1.2v.8c0 1.7 1.24 2.9 2.72 3.1H11v-2h-.76c-.65 0-.9-.2-.9-1v-1c0-1.2-.2-1.5-1.12-2 .86-.5 1.1-.8 1.1-2zm5.34 4v1c0 .72-.3.9-.94 1H13v2h.72c1.5 0 2.72-1.37 2.72-3.06v-.75c0-.8.53-1.2 1.17-1.2h.4v-2h-.4c-.6 0-1.1-.5-1.1-1.2V12c0-1.7-1.2-3.06-2.7-3.06H13v2h.76c.65 0 .9.24.9 1v1c0 1.22.24 1.5 1.12 2-.88.5-1.1.75-1.1 2z"/>
  </svg>
  <svg width="24" height="24" x="600" y="80" viewBox="0 0 24 24">
    <path fill="#0d2c56" d="M2 1v22c0 .5.5 1 1 1h18c.5 0 1-.5 1-1V7l-7-7H3.08C2.5 0 2 .5 2 1z"/>
    <path fill="#fff" d="M3 1v22h18V6l-5-5z"/>
    <path fill="#0d2c56" d="M15 0v6c0 .5.5 1 1 1h6z"/>
    <path fill="#fff" d="M2 1v22c0 .5.5 1 1 1h18c.5 0 1-.5 1-1V7l-7-7H3.08C2.5 0 2 .5 2 1z" opacity=".4"/>
    <path fill="#0d2c56" d="M13.5 19.2l1.27 1.8L19 15l-4.23-6-1.27 1.8 2.96 4.2zm-2.98-8.4L9.25 9l-4.23 6 4.23 6 1.27-1.8L7.56 15z"/>
  </svg>
  <svg width="24" height="24" y="120" viewBox="0 0 24 24">
    <path fill="#0d2c56" d="M2 1v22c0 .5.5 1 1 1h18c.5 0 1-.5 1-1V7l-7-7H3.08C2.5 0 2 .5 2 1z"/>
    <path fill="#fff" d="M3 1v22h18V6l-5-5z"/>
    <path fill="#0d2c56" d="M15 0v6c0 .5.5 1 1 1h6z"/>
    <path fill="#fff" d="M2 1v22c0 .5.5 1 1 1h18c.5 0 1-.5 1-1V7l-7-7H3.08C2.5 0 2 .5 2 1z" opacity=".4"/>
    <path fill="#0d2c56" d="M14.5 19.2l1.27 1.8L20 15l-4.23-6-1.27 1.8 2.96 4.2zm-5-8.4L8.23 9 4 15l4.23 6 1.27-1.8L6.54 15zM11.77 9l1.98.25L12.23 21l-1.98-.25L11.77 9z"/>
  </svg>
  <svg width="24" height="24" x="40" y="120" viewBox="0 0 24 24">
    <path fill="#0d2c56" d="M2 1v22c0 .5.5 1 1 1h18c.5 0 1-.5 1-1V7l-7-7H3.08C2.5 0 2 .5 2 1z"/>
    <path fill="#fff" d="M3 1v22h18V6l-5-5z"/>
    <path fill="#0d2c56" d="M15 0v6c0 .5.5 1 1 1h6z"/>
    <path fill="#fff" d="M2 1v22c0 .5.5 1 1 1h18c.5 0 1-.5 1-1V7l-7-7H3.08C2.5 0 2 .5 2 1z" opacity=".4"/>
    <path fill="#a8adb4" d="M6.5 8h9c.28 0 .5.22.5.5s-.22.5-.5.5h-9c-.28 0-.5-.22-.5-.5s.22-.5.5-.5zm0 2h11c.28 0 .5.22.5.5s-.22.5-.5.5h-11c-.28 0-.5-.22-.5-.5s.22-.5.5-.5zm0 2h9c.28 0 .5.22.5.5s-.22.5-.5.5h-9c-.28 0-.5-.22-.5-.5s.22-.5.5-.5zm0 2h7c.28 0 .5.22.5.5s-.22.5-.5.5h-7c-.28 0-.5-.22-.5-.5s.22-.5.5-.5zm0 2h9c.28 0 .5.22.5.5s-.22.5-.5.5h-9c-.28 0-.5-.22-.5-.5s.22-.5.5-.5zm0 2h11c.28 0 .5.22.5.5s-.22.5-.5.5h-11c-.28 0-.5-.22-.5-.5s.22-.5.5-.5zm0 2h9c.28 0 .5.22.5.5s-.22.5-.5.5h-9c-.28 0-.5-.22-.5-.5s.22-.5.5-.5z"/>
  </svg>
  <svg width="24" height="24" x="80" y="120" viewBox="0 0 24 24">
    <path fill="#0d2c56" d="M2 1v22c0 .5.5 1 1 1h18c.5 0 1-.5 1-1V7l-7-7H3.08C2.5 0 2 .5 2 1z"/>
    <path fill="#fff" d="M3 1v22h18V6l-5-5z"/>
    <path fill="#0d2c56" d="M15 0v6c0 .5.5 1 1 1h6z"/>
    <path fill="#fff" d="M2 1v22c0 .5.5 1 1 1h18c.5 0 1-.5 1-1V7l-7-7H3.08C2.5 0 2 .5 2 1z" opacity=".4"/>
    <path fill="#0d2c56" d="M7 0h3v1H7V0zm3 1h3v1h-3V1zM7 2h3v1H7V2zm3 1h3v1h-3V3zM7 4h3v1H7V4zm3 1h3v1h-3V5zM7 6h3v1H7V6zm3 1h3v1h-3V7zM7 8h3v1H7V8zm3 1h3v1h-3V9zm-3 1h3v1H7v-1zm3 1h3v1h-3v-1zm-3 1v1c.1 2.04-.22 4.04-1 6 2.63 1.33 5.3 1.35 8 0-.74-1.88-1.07-3.88-1-6h-3v-1zm3 4c1.1 0 2 .45 2 1s-.9 1-2 1-2-.45-2-1 .9-1 2-1z"/>
  </svg>
  <svg width="24" height="24" x="120" y="120" viewBox="0 0 24 24">
    <path fill="#0d2c56" d="M2 1v22c0 .5.5 1 1 1h18c.5 0 1-.5 1-1V7l-7-7H3.08C2.5 0 2 .5 2 1z"/>
    <path fill="#fff" d="M3 1v22h18V6l-5-5z"/>
    <path fill="#0d2c56" d="M15 0v6c0 .5.5 1 1 1h6z"/>
    <path fill="#fff" d="M2 1v22c0 .5.5 1 1 1h18c.5 0 1-.5 1-1V7l-7-7H3.08C2.5 0 2 .5 2 1z" opacity=".4"/>
    <path fill="#0d2c56" d="M4 8h16v14H4V8z"/>
    <path fill="#fff" d="M7.88 20L5 10h1.48l2.14 7.3L11 10h1.88l2.38 7.3L17.4 10h1.47L16 20h-1.5l-2.58-8.07L9.34 20z"/>
  </svg>
  <svg width="24" height="24" x="160" y="120" viewBox="0 0 24 24">
    <path fill="#0d2c56" d="M2 1v22c0 .5.5 1 1 1h18c.5 0 1-.5 1-1V7l-7-7H3.08C2.5 0 2 .5 2 1z"/>
    <path fill="#fff" d="M3 1v22h18V6l-5-5z"/>
    <path fill="#0d2c56" d="M15 0v6c0 .5.5 1 1 1h6z"/>
    <path fill="#fff" d="M2 1v22c0 .5.5 1 1 1h18c.5 0 1-.5 1-1V7l-7-7H3.08C2.5 0 2 .5 2 1z" opacity=".4"/>
    <path fill="#1bb39a" d="M4 8h16v14H4V8z"/>
    <path fill="#fff" d="M7 10h2l3 3.72L15 10h2l-3.75 4.75L17 20h-2l-2.98-4.25L9 20H7l3.83-5.25z"/>
  </svg>
  <svg width="24" height="24" x="200" y="120" viewBox="0 0 24 24">
    <path fill="#0d2c56" d="M2 1v22c0 .5.5 1 1 1h18c.5 0 1-.5 1-1V7l-7-7H3.08C2.5 0 2 .5 2 1z"/>
    <path fill="#fff" d="M3 1v22h18V6l-5-5z"/>
    <path fill="#0d2c56" d="M15 0v6c0 .5.5 1 1 1h6z"/>
    <path fill="#fff" d="M2 1v22c0 .5.5 1 1 1h18c.5 0 1-.5 1-1V7l-7-7H3.08C2.5 0 2 .5 2 1z" opacity=".4"/>
    <path fill="#b31b34" d="M4 8h16v14H4V8z"/>
    <path fill="#fff" d="M10.75 11.5l-.02 3h1.7c1.46.04 1.88-.5 1.88-1.5s-.6-1.5-1.8-1.5zM9 10h3.44c1.13 0 1.98.26 2.56.76.58.5 1 1.26 1 2.24 0 1-.42 1.72-1 2.22-.58.5-1.43.76-2.56.76h-1.7V20H9z"/>
  </svg>
  <svg width="24" height="24" x="240" y="120" viewBox="0 0 24 24">
    <path fill="#0d2c56" d="M2 1v22c0 .5.5 1 1 1h18c.5 0 1-.5 1-1V7l-7-7H3.08C2.5 0 2 .5 2 1z"/>
    <path fill="#fff" d="M3 1v22h18V6l-5-5z"/>
    <path fill="#0d2c56" d="M15 0v6c0 .5.5 1 1 1h6z"/>
    <path fill="#fff" d="M2 1v22c0 .5.5 1 1 1h18c.5 0 1-.5 1-1V7l-7-7H3.08C2.5 0 2 .5 2 1z" opacity=".4"/>
    <path fill="#0d2c56" d="M9.35 17.24s-.7.47.5.63c1.44.18 2.2.16 3.78-.2 0 0 .42.3 1 .57-3.57 1.77-8.1-.1-5.28-1zm-.44-2.3s-.7.67.5.8c1.6.2 2.8.2 4.9-.26 0 0 .3.34.8.53-4.3 1.5-9.1.2-6-1z"/>
    <path fill="#b31b34" d="M11.6 11.04c.88 1.17-.23 2.22-.23 2.22s2.24-1.33 1.2-3c-.95-1.54-1.7-2.3 2.3-4.97 0 0-6.27 1.8-3.28 5.7z"/>
    <path fill="#0d2c56" d="M17.34 18.94s.52.5-.57.87c-2.07.8-8.6 1-10.43.1-.65-.3.57-.8.96-.9.4-.1.63-.1.63-.1-.72-.6-4.7 1.2-2 1.7 7.3 1.4 13.3-.6 11.42-1.6zm-7.66-6.38s-3.32.9-1.18 1.23c.9.1 2.72.1 4.4-.1l2.77-.4s-.5.2-.84.5c-3.38 1-9.9.5-8.03-.5 1.6-.9 2.88-.8 2.88-.8zm5.97 3.82c3.44-2.04 1.85-4 .74-3.75-.3.07-.4.12-.4.12s.1-.18.3-.26c2.2-.9 3.8 2.6-.7 4v-.2z"/>
    <path fill="#b31b34" d="M12.58 1s1.9 2.18-1.8 5.54c-2.98 2.7-.68 4.23 0 5.98-1.74-1.8-3-3.37-2.16-4.85C9.88 5.52 13.35 4.47 12.6 1z"/>
    <path fill="#0d2c56" d="M10.02 21.93c3.3.25 8.36-.13 8.48-1.92 0 0-.23.7-2.73 1.3-2.82.6-6.28.6-8.34.2 0 0 .42.4 2.58.6z"/>
  </svg>
  <svg width="24" height="24" x="280" y="120" viewBox="0 0 24 24">
    <path fill="#0d2c56" d="M2 1v22c0 .5.5 1 1 1h18c.5 0 1-.5 1-1V7l-7-7H3.08C2.5 0 2 .5 2 1z"/>
    <path fill="#fff" d="M3 1v22h18V6l-5-5z"/>
    <path fill="#0d2c56" d="M15 0v6c0 .5.5 1 1 1h6z"/>
    <path fill="#fff" d="M2 1v22c0 .5.5 1 1 1h18c.5 0 1-.5 1-1V7l-7-7H3.08C2.5 0 2 .5 2 1z" opacity=".4"/>
    <path fill="#b31b34" d="M19.74 15.1c-.32-.37-1.03-.57-2.1-.58-.74 0-1.62.06-2.54.2-.42-.26-.84-.56-1.18-.92-.9-.97-1.65-2.3-2.12-3.8l.08-.37s.5-3.32.37-4.44l-.06-.4-.1-.2c-.1-.4-.4-.7-.8-.7H11c-.47 0-.86.2-.96.7-.35 1.3 0 3.2.55 5.7l-.2.4C10 11.9 9.5 13 9 14.1v.13c-.5 1.1-1 2-1.3 2.77l-.4.28c-.1 0-.8.4-.9.5-1.4 1-2.3 2.07-2.5 2.9-.1.3 0 .65.2.8l.4.25c.2.1.3.13.5.13 1 0 2.15-1.47 3.73-4.6 1.9-.7 3.9-1.3 5.8-1.6 1.4.9 3.1 1.5 4.16 1.5.2 0 .34 0 .5-.06.2-.1.4-.2.5-.4.2-.4.22-.9.2-1.4 0-.16-.1-.35-.27-.47zM4.97 21.13c.18-.57.9-1.7 1.95-2.7l.38-.4c-1.1 2.04-1.84 2.84-2.33 3.1zM11.22 4.6c.32 0 .5.9.5 1.77s-.15 1.47-.36 1.92c-.18-.7-.27-1.8-.27-2.4 0 0-.1-1.3.1-1.3zM9.36 16.37l.68-1.44c.58-1.25.94-2.23 1.2-3.03.55 1.13 1.2 2.1 2 2.85l.3.3c-1.6.35-2.97.8-4.18 1.33zm10.07-.1c-.1.07-.37.1-.55.1-.58 0-1.3-.3-2.3-.8.38-.02.74-.04 1.06-.04.58 0 .75 0 1.32.16s.57.5.47.5z"/>
  </svg>
  <svg width="24" height="24" x="320" y="120" viewBox="0 0 24 24">
    <path fill="#0d2c56" d="M2 1v22c0 .5.5 1 1 1h18c.5 0 1-.5 1-1V7l-7-7H3.08C2.5 0 2 .5 2 1z"/>
    <path fill="#fff" d="M3 1v22h18V6l-5-5z"/>
    <path fill="#0d2c56" d="M15 0v6c0 .5.5 1 1 1h6z"/>
    <path fill="#fff" d="M2 1v22c0 .5.5 1 1 1h18c.5 0 1-.5 1-1V7l-7-7H3.08C2.5 0 2 .5 2 1z" opacity=".4"/>
    <path fill="#0d2c56" d="M7.02 14l.02 5.12c0 .9-.2 1.27-1.06 1.36l-.48.03v.5h5v-.5h-.48c-.84-.1-1-.4-1-1.3L9 14h2v-.5H9v-2.16c.02-.62.15-.98.46-1.26.26-.23.54-.3.87-.3s.62.15.9.47c.27.3.54.45.9.45.45 0 .87-.32.87-.7 0-.54-.8-1-1.75-1-1.1 0-2.33.38-3.16.97C7.3 10.5 7 11.1 7 12.3v1.2H6v.5z"/>
    <path fill="#0d2c56" d="M16 13h-1c-1.17.18-1.98.44-3 .5v.5l.38.03c1 .1 1.62.27 1.62 1.25V19c0 .9-.17 1.4-1.02 1.48l-.48.03v.5h5v-.5h-.46c-.86-.1-1.04-.6-1.04-1.5zm-.5-2.8c.3.18.5.5.5.84 0 .18-.05.34-.14.5v-.02c-.17.3-.5.48-.86.48-.18 0-.36-.05-.5-.13-.3-.17-.5-.48-.5-.83 0-.18.05-.34.14-.48.17-.3.5-.48.86-.48.18 0 .36.05.5.13z"/>
  </svg>
  <svg width="24" height="24" x="360" y="120" viewBox="0 0 24 24">
    <path fill="#0d2c56" d="M2 1v22c0 .5.5 1 1 1h18c.5 0 1-.5 1-1V7l-7-7H3.08C2.5 0 2 .5 2 1z"/>
    <path fill="#fff" d="M3 1v22h18V6l-5-5z"/>
    <path fill="#0d2c56" d="M15 0v6c0 .5.5 1 1 1h6z"/>
    <path fill="#fff" d="M2 1v22c0 .5.5 1 1 1h18c.5 0 1-.5 1-1V7l-7-7H3.08C2.5 0 2 .5 2 1z" opacity=".4"/>
    <path fill="#0d2c56" d="M9 11h1v8.5H9V11zm6-1.24h1v7.75h-1V9.8z"/>
    <path fill="#0d2c56" d="M15 16.2c.6.27 1 .75 1 1.3 0 .28-.1.54-.27.76-.35.45-1 .74-1.73.74-.37 0-.7-.07-1-.2-.6-.26-1-.74-1-1.3 0-.27.1-.53.27-.75.35-.45 1-.75 1.73-.75.37 0 .7.08 1 .2zm-6 2c.6.27 1 .75 1 1.3 0 .28-.1.54-.27.76-.35.45-1 .74-1.73.74-.37 0-.7-.07-1-.2-.6-.26-1-.74-1-1.3 0-.27.1-.53.27-.75.35-.45 1-.75 1.73-.75.37 0 .7.08 1 .2zM9 11l7-2v2l-7 2z"/>
  </svg>
  <svg width="24" height="24" x="400" y="120" viewBox="0 0 24 24">
    <path fill="#0d2c56" d="M2 9h20v12H2V9z"/>
    <path fill="#fff" d="M9 11v8l6-4z"/>
    <path fill="#0d2c56" d="M1.18 5.1L20.75.96l.82 3.92L2 9l-.82-3.92z"/>
  </svg>
  <svg width="24" height="24" x="440" y="120" viewBox="0 0 24 24">
    <path fill="#0d2c56" d="M1 2h22c.55 0 1 .45 1 1v18c0 .55-.45 1-1 1H1c-.55 0-1-.45-1-1V3c0-.55.45-1 1-1z"/>
    <path fill="#2197db" d="M1 21V3h22v18z"/>
    <path fill="#fff" d="M1 3h22v18H1V3z" opacity=".6"/>
    <path fill="#fdf9ae" d="M7.5 5.4C8.4 5.93 9 6.9 9 8c0 .55-.15 1.07-.4 1.52V9.5C8.07 10.4 7.1 11 6 11c-.55 0-1.07-.15-1.52-.4h.02C3.6 10.07 3 9.1 3 8c0-.55.15-1.07.4-1.52v.02C3.93 5.6 4.9 5 6 5c.55 0 1.07.15 1.52.4H7.5z"/>
    <path fill="#0d2c56" d="M1 21h22v-6l-6-7-7 8-4-2-5 5z"/>
  </svg>
  <svg width="24" height="24" x="480" y="120" viewBox="0 0 24 24">
    <path fill="#fff" d="M2 1h20c.55 0 1 .45 1 1v20c0 .55-.45 1-1 1H2c-.55 0-1-.45-1-1V2c0-.55.45-1 1-1z"/>
    <path fill="#0d2c56" d="M1 2h1v2H1V2zm0 3h1v2H1V5zm0 3h1v2H1V8zm0 3h1v2H1v-2zm0 3h1v2H1v-2zm0 3h1v2H1v-2zm0 3h1v2H1v-2zM2 1h2v1H2V1zm3 0h2v1H5V1zm3 0h2v1H8V1zm3 0h2v1h-2V1zm3 0h2v1h-2V1zm3 0h2v1h-2V1zm3 0h2v1h-2V1zm2 1h1v2h-1V2zm0 3h1v2h-1V5zm0 3h1v2h-1V8zm0 3h1v2h-1v-2zm0 3h1v2h-1v-2zm0 3h1v2h-1v-2zm0 3h1v2h-1v-2zm-2 2h2v1h-2v-1zm-2.88 0h2v1h-2v-1zM14 22h2v1h-2v-1zm-3 0h2v1h-2v-1zm-3 0h2v1H8v-1zm-3 0h2v1H5v-1zm-3 0h2v1H2v-1z"/>
    <path fill="#b31b34" d="M4 13h7v7H4v-7z"/>
    <path fill="#a8adb4" d="M13 13h7v7h-7v-7z"/>
    <path fill="#b31b34" d="M13 4h7v7h-7V4z"/>
    <path fill="#a8adb4" d="M4 4h7v7H4V4z"/>
  </svg>
  <svg width="24" height="24" x="520" y="120" viewBox="0 0 24 24">
    <path fill="#fff" d="M2 1h20c.55 0 1 .45 1 1v20c0 .55-.45 1-1 1H2c-.55 0-1-.45-1-1V2c0-.55.45-1 1-1z"/>
    <path fill="#0d2c56" d="M1 2h1v2H1V2zm0 3h1v2H1V5zm0 3h1v2H1V8zm0 3h1v2H1v-2zm0 3h1v2H1v-2zm0 3h1v2H1v-2zm0 3h1v2H1v-2zM2 1h2v1H2V1zm3 0h2v1H5V1zm3 0h2v1H8V1zm3 0h2v1h-2V1zm3 0h2v1h-2V1zm3 0h2v1h-2V1zm3 0h2v1h-2V1zm2 1h1v2h-1V2zm0 3h1v2h-1V5zm0 3h1v2h-1V8zm0 3h1v2h-1v-2zm0 3h1v2h-1v-2zm0 3h1v2h-1v-2zm0 3h1v2h-1v-2zm-2 2h2v1h-2v-1zm-2.88 0h2v1h-2v-1zM14 22h2v1h-2v-1zm-3 0h2v1h-2v-1zm-3 0h2v1H8v-1zm-3 0h2v1H5v-1zm-3 0h2v1H2v-1z"/>
    <path fill="#a8adb4" d="M4 13h7v7H4v-7z"/>
    <path fill="#2197db" d="M13 13h7v7h-7v-7z"/>
    <path fill="#a8adb4" d="M13 4h7v7h-7V4z"/>
    <path fill="#2197db" d="M4 4h7v7H4V4z"/>
  </svg>
  <svg width="24" height="24" x="560" y="120" viewBox="0 0 24 24">
    <path fill="#fff" d="M2 1h20c.55 0 1 .45 1 1v20c0 .55-.45 1-1 1H2c-.55 0-1-.45-1-1V2c0-.55.45-1 1-1z"/>
    <path fill="#0d2c56" d="M1 2h1v2H1V2zm0 3h1v2H1V5zm0 3h1v2H1V8zm0 3h1v2H1v-2zm0 3h1v2H1v-2zm0 3h1v2H1v-2zm0 3h1v2H1v-2zM2 1h2v1H2V1zm3 0h2v1H5V1zm3 0h2v1H8V1zm3 0h2v1h-2V1zm3 0h2v1h-2V1zm3 0h2v1h-2V1zm3 0h2v1h-2V1zm2 1h1v2h-1V2zm0 3h1v2h-1V5zm0 3h1v2h-1V8zm0 3h1v2h-1v-2zm0 3h1v2h-1v-2zm0 3h1v2h-1v-2zm0 3h1v2h-1v-2zm-2 2h2v1h-2v-1zm-2.88 0h2v1h-2v-1zM14 22h2v1h-2v-1zm-3 0h2v1h-2v-1zm-3 0h2v1H8v-1zm-3 0h2v1H5v-1zm-3 0h2v1H2v-1z"/>
    <path fill="#b31b34" d="M4 13h7v7H4v-7z"/>
    <path fill="#2197db" d="M13 13h7v7h-7v-7z"/>
    <path fill="#b31b34" d="M13 4h7v7h-7V4z"/>
    <path fill="#2197db" d="M4 4h7v7H4V4z"/>
  </svg>
  <svg width="24" height="24" x="600" y="120" viewBox="0 0 24 24">
    <path fill="#fff" d="M2 1h20c.55 0 1 .45 1 1v20c0 .55-.45 1-1 1H2c-.55 0-1-.45-1-1V2c0-.55.45-1 1-1z"/>
    <path fill="#0d2c56" d="M1 2h1v2H1V2zm0 3h1v2H1V5zm0 3h1v2H1V8zm0 3h1v2H1v-2zm0 3h1v2H1v-2zm0 3h1v2H1v-2zm0 3h1v2H1v-2zM2 1h2v1H2V1zm3 0h2v1H5V1zm3 0h2v1H8V1zm3 0h2v1h-2V1zm3 0h2v1h-2V1zm3 0h2v1h-2V1zm3 0h2v1h-2V1zm2 1h1v2h-1V2zm0 3h1v2h-1V5zm0 3h1v2h-1V8zm0 3h1v2h-1v-2zm0 3h1v2h-1v-2zm0 3h1v2h-1v-2zm0 3h1v2h-1v-2zm-2 2h2v1h-2v-1zm-2.88 0h2v1h-2v-1zM14 22h2v1h-2v-1zm-3 0h2v1h-2v-1zm-3 0h2v1H8v-1zm-3 0h2v1H5v-1zm-3 0h2v1H2v-1z"/>
    <path fill="#b31b34" d="M4 13h7v7H4v-7z"/>
    <path fill="#ffc61e" d="M13 13h7v7h-7v-7zm0-9h7v7h-7V4z"/>
    <path fill="#2197db" d="M4 4h7v7H4V4z"/>
  </svg>
  <svg width="24" height="24" y="160" viewBox="0 0 24 24">
    <path fill="#ffc61e" d="M12.66 1.4L22.9 21.78c.13.26.13.56 0 .82-.13.25-.35.4-.62.4H1.8c-.26 0-.48-.15-.6-.4-.14-.27-.14-.57 0-.84L11.4 1.4c.14-.25.36-.4.63-.4s.5.15.62.4z"/>
    <path fill="#0d2c56" d="M12.75 17h-1.5L11 9h2zm-.25 1.67c.3.22.5.62.5 1.08 0 .23-.05.45-.14.63-.17.37-.5.62-.86.62-.18 0-.36-.06-.5-.17-.3-.22-.5-.62-.5-1.08 0-.23.05-.45.14-.63.17-.37.5-.62.86-.62.18 0 .36.06.5.17z"/>
  </svg>
  <svg width="24" height="24" x="40" y="160" viewBox="0 0 24 24">
    <path fill="#1bb39a" d="M17.6 2.35c3.33 1.97 5.54 5.55 5.54 9.65 0 2.06-.55 3.98-1.52 5.63l.03-.05c-1.96 3.35-5.54 5.56-9.64 5.56-2 0-3.9-.55-5.6-1.52l.1.02C3.1 19.68.9 16.1.9 12c0-2.06.56-3.98 1.53-5.63v.05C4.38 3.07 7.9.86 12 .86c2.07 0 4 .55 5.64 1.52l-.05-.03z"/>
    <path fill="#0d2c56" d="M12 0C5.37 0 0 5.37 0 12s5.37 12 12 12 12-5.37 12-12S18.63 0 12 0zM8 2v1L4.5 7H3c1.2-2.07 2.74-4.13 5-5zm4 13l-5.36 6.03-.64-.4V16l-3-2v-4c0-.5.25-1 1-1h2s2.25 3.25 6 4zm9.07-3.5c-.37-1.25-.7-1.37-2.32-1.92-.56-.18-1.08-.5-1.53-.93-1.46-1.46-1.72-3.9 0-5.3.1-.1.2-.2.3-.27 3 1.85 4.98 5.15 4.98 8.92 0 1.95-.83 4.44-1.75 6 .38-2.5.54-5.17.32-6.5z"/>
  </svg>
  <svg width="24" height="24" x="80" y="160" viewBox="0 0 24 24">
    <path fill="#b31b34" d="M18 1.6c3.62 2.13 6 6 6 10.4 0 2.2-.6 4.3-1.64 6.07l.03-.06c-2.2 3.7-6 6-10.4 6-2.2 0-4.3-.6-6.1-1.6v.1C2.3 20.3 0 16.4 0 12c0-2.2.6-4.28 1.64-6.06L1.6 6c2.13-3.6 6-6 10.4-6 2.2 0 4.28.6 6.06 1.64L18 1.6z"/>
    <path fill="#fff" d="M13 14h-2l-1-8h3.9zm-.25 2.2c.45.27.75.75.75 1.3 0 .28-.08.54-.2.76-.27.44-.75.74-1.3.74-.28 0-.54-.08-.76-.2-.44-.27-.74-.75-.74-1.3 0-.28.07-.54.2-.76.26-.44.75-.74 1.3-.74.27 0 .53.08.76.2z"/>
  </svg>
</svg>