<svg xmlns="http://www.w3.org/2000/svg" width="624" height="184" viewBox="0 0 624 184">
  <svg width="24" height="24" viewBox="0 0 24 24">
    <path fill="#b31b34" d="M24 12a12 12 0 1 1-24 0 12 12 0 0 1 24 0z"/>
    <path fill="#fff" d="M20 12a8 8 0 1 1-16 0 8 8 0 0 1 16 0z"/>
    <path fill="#0d2c56" d="M14 8.5a4 4 0 0 1 1.5 5.5 4 4 0 0 1-5.5 1.5A4 4 0 0 1 8.5 10 4 4 0 0 1 14 8.5z"/>
  </svg>
  <svg width="24" height="24" x="40" viewBox="0 0 24 24">
    <path fill="#fff" d="M17.5 2.5A11 11 0 0 1 23 12a11 11 0 0 1-11 11A11 11 0 0 1 1 12 11 11 0 0 1 12 1c2 0 4 .5 5.6 1.5z"/>
    <path fill="#b31b34" d="M12 1C7.8 1 4.1 3.4 2.3 7L0 6v8.8L7 9 5 8a8 8 0 0 1 7-4c4.3 0 8 3.7 8 8s-3.7 8-8 8a8 8 0 0 1-6.6-3.4l-2.2 2A11 11 0 1 0 12 1z"/>
    <path fill="#0d2c56" d="M12 6a1 1 0 0 0-1 1v5s0 .4.2.6c0 .3.3.6.3.7l3 2.8c.3.4 1 .4 1.3 0 .4-.3.4-1 0-1.3L13 12V7c0-.5-.5-1-1-1z"/>
  </svg>
  <svg width="24" height="24" x="80" viewBox="0 0 24 24">
    <path fill="#b31b34" d="M21 3v11c-7.3 1.8-9-3.5-16.6.2v-11c7.8-4 9.3 3.3 16.6-.2z"/>
    <path fill="#a8adb4" d="M3.9 1H4c.5 0 .9.4.9.9V22a.9.9 0 0 1-.9.9.9.9 0 0 1-.9-.9V2c0-.5.4-.9.9-.9z"/>
  </svg>
  <svg width="24" height="24" x="120" viewBox="0 0 24 24">
    <path fill="#ffc61e" d="M21 3v11c-7.3 1.8-9-3.5-16.6.2v-11c7.8-4 9.3 3.3 16.6-.2z"/>
    <path fill="#a8adb4" d="M3.9 1H4c.5 0 .9.4.9.9V22a.9.9 0 0 1-.9.9.9.9 0 0 1-.9-.9V2c0-.5.4-.9.9-.9z"/>
  </svg>
  <svg width="24" height="24" x="160" viewBox="0 0 24 24">
    <path fill="#b31b34" d="m4 8-3 8 3 8h19l-3-8 3-8-3-8H1z"/>
    <path fill="#fff" d="m18.8 2 2 5H5.4L3.7 2z"/>
    <path fill="#b31b34" d="m3.3 15 2.2-6h15.3l-2.3 6z"/>
    <path fill="#fff" d="m5.3 22-2-5h15.2l1.8 5z"/>
  </svg>
  <svg width="24" height="24" x="200" viewBox="0 0 24 24">
    <path fill="#0d2c56" d="M22 11c.5 0 1 0 1-.5s-.5-.5-1-.5h-2V8h2c.5 0 1 0 1-.5s-.5-.5-1-.5h-2V5l-1-1h-2V2c0-.5 0-1-.5-1s-.5.5-.5 1v2h-2V2c0-.5 0-1-.5-1s-.5.5-.5 1v2h-2V2c0-.5 0-1-.5-1s-.5.5-.5 1v2H8V2c0-.5 0-1-.5-1S7 1.5 7 2v2H5L4 5v2H2c-.5 0-1 0-1 .5s.5.5 1 .5h2v2H2c-.5 0-1 0-1 .5s.5.5 1 .5h2v2H2c-.5 0-1 0-1 .5s.5.5 1 .5h2v2H2c-.5 0-1 0-1 .5s.5.5 1 .5h2v2l1 1h2v2c0 .5 0 1 .5 1s.5-.5.5-1v-2h2v2c0 .5 0 1 .5 1s.5-.5.5-1v-2h2v2c0 .5 0 1 .5 1s.5-.5.5-1v-2h2v2c0 .5 0 1 .5 1s.5-.5.5-1v-2h2l1-1v-2h2c.5 0 1 0 1-.5s-.5-.5-1-.5h-2v-2h2c.5 0 1 0 1-.5s-.5-.5-1-.5h-2v-2z"/>
    <path fill="#fff" d="M8 8h8v8H8V8z"/>
    <path fill="#b31b34" d="M9 9h6v6H9V9z"/>
  </svg>
  <svg width="24" height="24" x="240" viewBox="0 0 24 24">
    <path fill="#fff" d="M7.8 21.5h8.7L12 10z"/>
    <path fill="#7f8691" d="M8 1a14 14 0 0 0 0 14c-1-1-4-3-4-7s3-6 4-7zM4 0C1.2 5 1.2 11 4 16c-1-1-4-4-4-8s3-7 4-8zm16 16c2.8-5 2.8-11 0-16 1 1 4 4 4 8s-3 7-4 8zm-4-1a14 14 0 0 0 0-14c1 1 4 3 4 7s-3 6-4 7z"/>
    <path fill="#0d2c56" d="M10 10 6 24h2l.6-2h6.8l.6 2h2l-4-14zm2 1 1.2 4h-2.4zm-1.5 5h3l.7 2H9.8zm-1 3h5l.6 2H8.9z"/>
    <path fill="#b31b34" d="M14 4.5a4 4 0 0 1 1.5 5.5 4 4 0 0 1-5.5 1.5A4 4 0 0 1 8.5 6 4 4 0 0 1 14 4.5z"/>
  </svg>
  <svg width="24" height="24" x="280" viewBox="0 0 24 24">
    <path fill="#0d2c56" d="M2 2h20a1 1 0 0 1 1 1v15a1 1 0 0 1-1 1H2a1 1 0 0 1-1-1V3a1 1 0 0 1 1-1z"/>
    <path fill="#fff" d="M2 3h20v14H2V3z"/>
    <path fill="#b31b34" d="M13 13v-.8c1.1-.6 2-2.1 2-3.7C15 6 15 4 12 4S9 6 9 8.5c0 1.6.9 3.1 2 3.7v.9c-3.4.3-5 2-5 4l12.1-.1c0-2-1.7-3.6-5.1-4z"/>
    <path fill="#0d2c56" d="M11 17.8v1.4c0 1-1.5 2-4 2v1h10v-1c-2.5 0-4-1-4-2v-1.4z"/>
  </svg>
  <svg width="24" height="24" x="320" viewBox="0 0 24 24">
    <path fill="#fff" d="M2 2.5h20.3v19H2v-19z"/>
    <path fill="#0d2c56" d="M24 5c0-.7-.2-1.5-1.3-2.4-.6-.6-1.6-1-2.7-1.5C17.9.4 15 0 12 0S6.4.4 4.2 1.1c-1.1.4-2 1-2.7 1.5C.3 3.6.1 4.3.1 4.9v14c0 .7.2 1.4 1.3 2.4.7.6 1.6 1 2.7 1.5 2.2.7 5 1.1 8 1.1s5.8-.4 7.9-1.1l2.7-1.5c1.1-1 1.4-1.7 1.4-2.4zM5.6 3.7c1.7-.4 4-.7 6.4-.7a20.6 20.6 0 0 1 9 2c-.1.2-.7 1-2.5 1.6a22 22 0 0 1-13.2 0C3.8 6 3.3 5.1 3.2 5c0-.1.6-.5 2.4-1zM18.7 20a22.6 22.6 0 0 1-13.2 0c-1.8-.5-2.3-.9-2.4-1v-3.6c.3.2.6.5 1 .6 2.2.8 5 1.2 8 1.2s5.8-.4 7.9-1.2c.4-.1.7-.4 1-.6V19c0 .2-.6.6-2.3 1.1zm0-6.7c-1.8.6-4.2.9-6.6.9s-4.8-.3-6.6-1C3.7 12.8 3 12.3 3 12V8.7c.4.1.7.4 1.1.6A27.1 27.1 0 0 0 20 9.2c.4 0 .7-.4 1-.5v3.2c0 .2-.6.8-2.3 1.4z"/>
  </svg>
  <svg width="24" height="24" x="360" viewBox="0 0 24 24">
    <path fill="#fff" d="M3 3h17v18.8H3V3z"/>
    <path fill="#b31b34" d="M20 5v16H6c-1.5 0-2-.4-2-1.5S4.5 18 6 18h12V1H4.9A2.8 2.8 0 0 0 2 3.8V20c0 2 2 3 4 3h16V5z"/>
    <path fill="#0d2c56" d="M6 19c-.5 0-1 0-1 .5s.5.5 1 .5h12v-1z"/>
  </svg>
  <svg width="24" height="24" x="400" viewBox="0 0 24 24">
    <path fill="#fff" d="m1 12 2 2 6 9h6l6-9 2-2-11-9z"/>
    <path fill="#b31b34" d="M1 9.5v4L12 5l11 8.5v-4L12 1z"/>
    <path fill="#0d2c56" d="M3 22c0 .5.5 1 1 1h5v-6h6v6h5c.5 0 1-.5 1-1v-8l-9-7-9 7z"/>
  </svg>
  <svg width="24" height="24" x="440" viewBox="0 0 24 24">
    <path fill="#fff" d="M2.6 7h18.9v14.7L21 23H3l-.4-2z"/>
    <path fill="#0d2c56" d="M20 4h-1v.5c0 1-1 1.5-2 1.5s-2-.5-2-1.5V4H9v.5C9 5.5 8 6 7 6s-2-.5-2-1.5V4H4c-1.3 0-2 .5-2 2v14c0 1.5.7 2 2 2h16c1.5 0 2-.5 2-2V6c0-1.5-.5-2-2-2zm1 17H3V7h18zM7 5c.5 0 1-.5 1-1V1c0-.5-.5-1-1-1S6 .5 6 1v3c0 .5.5 1 1 1zm10 0c.5 0 1-.5 1-1V1c0-.5-.5-1-1-1s-1 .5-1 1v3c0 .5.5 1 1 1zm3 18H4c-.8 0-1.4-1.2-1.4-2v.7c0 .7.6 2.4 1.4 2.4h16c.8 0 1.5-1.7 1.5-2.4V21c0 .8-.7 2-1.5 2z"/>
    <path fill="#fff" d="M10.6 14.9h.1l-.3.1.2-.1zm2.6-2.4v-.3l.4-.2v.3l-.4.2z"/>
    <path fill="#b31b34" d="M6 9v2h4v2H6v2h4v2H6v2h6V9zm8 0v2h2v8h2V9z"/>
  </svg>
  <svg width="24" height="24" x="480" viewBox="0 0 24 24">
    <path fill="#0d2c56" d="M11.3 1.1.7 5.5c-.5.2-.7.4-.7.8v11c0 .5.2 1 .8 1.1l10.4 4.4c.6.2 1 .2 1.6 0l10.4-4.4c.6-.2.8-.5.8-1.1v-11c0-.4-.2-.6-.7-.8L12.7 1a2 2 0 0 0-1.4 0z"/>
    <path fill="#fff" d="M2 7v9.8l9 3.6v-9.9zm11 3.5v9.9l9-3.7V7zM4.2 6 12 2.6 19.8 6 12 9z"/>
    <path fill="#b31b34" d="M8 8.6 19.6 4l-3.1-1.3L5 7.4v3.3L8 12z"/>
  </svg>
  <svg width="24" height="24" x="520" viewBox="0 0 24 24">
    <path fill="#2197db" d="M23 1c.5 0 1 .5 1 1v20c0 .5-.5 1-1 1H1a1 1 0 0 1-1-1V2c0-.5.5-1 1-1z"/>
    <path fill="#fff" d="M1 2h22v20H1V2z" opacity=".8"/>
    <path fill="#7f8691" d="M19 4c-3 0-3 2-3 4.6 0 1.5 1 3 2 3.6v.7a8 8 0 0 0-2.2.5c-.2 1-.6 2-1.3 2.7a5 5 0 0 1 2.2 1L23 17v-3.2a7.4 7.4 0 0 0-3-.9v-.7c1-.7 2-2.1 2-3.7C22 6 22 4 19 4zM5 4C2 4 2 6 2 8.6c0 1.5 1 3 2 3.5v.9c-1.2 0-2.2.4-3 .8V17h6.4a7.4 7.4 0 0 1 2-.8 5.3 5.3 0 0 1-1.2-2.8A8.4 8.4 0 0 0 6 13v-1c1-.6 2-2 2-3.6C8 6 8 4 5 4z"/>
    <path fill="#0d2c56" d="M13 17v-.8c1-.6 2-2.2 2-3.7C15 10 15 8 12 8s-3 2-3 4.5c0 1.6 1 3 2 3.7v.8c-3.4.3-5 2-5 4h12c0-2-1.6-3.7-5-4z"/>
  </svg>
  <svg width="24" height="24" x="560" viewBox="0 0 24 24">
    <path fill="#ffc61e" d="M23 1c.5 0 1 .5 1 1v20c0 .5-.5 1-1 1H1a1 1 0 0 1-1-1V2c0-.5.5-1 1-1z"/>
    <path fill="#fdf9ae" d="M1 2h22v20H1V2z"/>
    <path fill="#7f8691" d="M19 4c-3 0-3 2-3 4.6 0 1.5 1 3 2 3.6v.7a8 8 0 0 0-2.2.5c-.2 1-.6 2-1.3 2.7a5 5 0 0 1 2.2 1L23 17v-3.2a7.4 7.4 0 0 0-3-.9v-.7c1-.7 2-2.1 2-3.7C22 6 22 4 19 4zM5 4C2 4 2 6 2 8.6c0 1.5 1 3 2 3.5v.9c-1.2 0-2.2.4-3 .8V17h6.4a7.4 7.4 0 0 1 2-.8 5.3 5.3 0 0 1-1.2-2.8A8.4 8.4 0 0 0 6 13v-1c1-.6 2-2 2-3.6C8 6 8 4 5 4z"/>
    <path fill="#b31b34" d="M13 17v-.8c1-.6 2-2.2 2-3.7C15 10 15 8 12 8s-3 2-3 4.5c0 1.6 1 3 2 3.7v.8c-3.4.3-5 2-5 4h12c0-2-1.6-3.7-5-4z"/>
  </svg>
  <svg width="24" height="24" x="600" viewBox="0 0 24 24">
    <path fill="#b31b34" d="M9 0C5.1 0 5.1 3.2 5.1 7c0 2.3 1.5 5 2.9 6v1c-4.4.4-8 3-8 6h6.5c1.3-1.4 3.1-2.3 5-2.8.1-.1.9 0 .6-.3a8.8 8.8 0 0 1-1.6-2.8l-.3-1.2C9.8 11 9.8 9 10 7c0-1.6 1.1-3.2 2.6-3.9C12.3 1.3 11.4 0 9 0z"/>
    <path fill="#0d2c56" d="M16 18v-1c1.4-1 2.9-3.7 2.9-6 0-3.8 0-7-3.9-7s-3.9 3.2-3.9 7c0 2.3 1.5 5 2.9 6v1c-4.4.4-8 3-8 6h18c0-3-3.6-5.6-8-6z"/>
  </svg>
  <svg width="24" height="24" y="40" viewBox="0 0 24 24">
    <path fill="#b31b34" d="M13 18v-1c1.4-1 2.9-3.7 2.9-6 0-3.8 0-7-3.9-7s-3.9 3.2-3.9 7c0 2.3 1.5 5 2.9 6v1c-4.4.4-8 3-8 6h18c0-3-3.6-5.6-8-6z"/>
  </svg>
  <svg width="24" height="24" x="40" y="40" viewBox="0 0 24 24">
    <path fill="#7f8691" d="M13 18v-1c1.4-1 2.9-3.7 2.9-6 0-3.8 0-7-3.9-7s-3.9 3.2-3.9 7c0 2.3 1.5 5 2.9 6v1c-4.4.4-8 3-8 6h18c0-3-3.6-5.6-8-6z"/>
    <path fill="#ffc61e" d="M7 4h10a1 1 0 0 1 1 1v1a1 1 0 0 1-1 1H7a1 1 0 0 1-1-1V5a1 1 0 0 1 1-1z"/>
    <path fill="#ffc61e" d="M10 1h4a1 1 0 0 1 1 1v2a1 1 0 0 1-1 1h-4a1 1 0 0 1-1-1V2a1 1 0 0 1 1-1z"/>
  </svg>
  <svg width="24" height="24" x="80" y="40" viewBox="0 0 24 24">
    <path fill="#0d2c56" d="M12 4C9.2 4 8.4 5.7 8.2 8h.5c1 0 2 .2 3 .4h.7a12 12 0 0 1 3.4-.4c-.2-2.3-1-4-3.8-4zm-.1 5.4c-.7 0-.1 2.6-2.3 2.6-.7 0-1.1-.2-1.4-.6A8.2 8.2 0 0 0 11 17v1c-4.4.4-8 3-8 6h12.7a6 6 0 0 1-2.6-6H13v-1a8.2 8.2 0 0 0 2.8-5.6c-.3.4-.7.6-1.4.6-2.2 0-1.6-2.6-2.3-2.6H12z"/>
    <path fill="#b31b34" d="M19.8 22.1V21a.2.2 0 0 0-.2-.2h-1.2a.2.2 0 0 0-.2.2v1c0 .1 0 .2.2.2h1.2a.2.2 0 0 0 .2-.2zm1.7-4.4c0-1.1-1.3-2-2.4-2-1 0-1.8.4-2.4 1.4a.2.2 0 0 0 0 .2l1 .7a.2.2 0 0 0 .2 0l.6-.7.5-.1c.5 0 .8.3.8.5 0 .4-.1.5-.5.7-.5.2-1.1.8-1.1 1.4v.2c0 .2 0 .2.2.2h1.2a.2.2 0 0 0 .2-.2c0-.1.2-.4.5-.6.5-.3 1.2-.7 1.2-1.7zM24 19a5 5 0 1 1-10 0 5 5 0 0 1 10 0z"/>
  </svg>
  <svg width="24" height="24" x="120" y="40" viewBox="0 0 24 24">
    <path fill="#b31b34" d="m8.5 17 1-1.4-1-1-1.4.9a3.7 3.7 0 0 0-.8-.4L6 13.5H4.5l-.3 1.6-.8.4-1.3-1-1 1L2 17l-.4.8L0 18v1.5l1.6.3.4.8-1 1.3 1 1 1.4-.9.8.4.3 1.6H6l.3-1.6.8-.4 1.3 1 1-1-.9-1.4.4-.8 1.6-.3V18l-1.6-.3a3.7 3.7 0 0 0-.4-.8z"/>
    <path fill="#0d2c56" d="M24 9V7.5l-1.6-.3a6.5 6.5 0 0 0 0-.5l1.3-1-.6-1.3-1.6.3a7.2 7.2 0 0 0-.3-.4l1-1.4L21 2l-1.4.9a6.8 6.8 0 0 0-.4-.3l.3-1.6-1.4-.6-.9 1.4a6.8 6.8 0 0 0-.5-.1L16.5 0H15l-.3 1.6a6.5 6.5 0 0 0-.5 0l-1-1.3L12 1l.3 1.6a7.2 7.2 0 0 0-.4.3l-1.4-1-1 1.1.9 1.4-.3.4-1.6-.3-.6 1.4 1.4.9a6.8 6.8 0 0 0-.1.5l-1.6.3V9l1.6.3v.5l-1.3 1 .6 1.3 1.6-.3.3.4-1 1.4 1.1 1 1.4-.9.4.3-.3 1.6 1.4.6.9-1.4.5.1.3 1.6h1.5l.3-1.6h.5l1 1.3 1.3-.6-.3-1.6.4-.3 1.4 1 1-1.1-.9-1.4.3-.4 1.6.3.6-1.4-1.4-.9.1-.5z"/>
    <path fill="#fff" d="M5.3 20.3a1.5 1.5 0 1 1 0-3 1.5 1.5 0 0 1 0 3zm10.4-8.8a3.3 3.3 0 1 1 0-6.5 3.3 3.3 0 0 1 0 6.5z"/>
  </svg>
  <svg width="24" height="24" x="160" y="40" viewBox="0 0 24 24">
    <path fill="#b31b34" d="m23.3 19.3-5.5-5.6c-.2-.2-1.5-1.5-3 0L4 3l-.5-1.5L1 0 0 1l1.5 2.5L3 4l10.8 10.7c-1.5 1.5-.3 2.8 0 3l5.4 5.6c.3.2 1.6 1.4 3 0l1-1c1.6-1.6.3-2.8 0-3z"/>
    <path fill="#fff" d="M21.5 21.5a1 1 0 0 1-1.3 0L15.8 17c-.4-.4-.4-1 0-1.3s.9-.3 1.2 0l4.5 4.5a1 1 0 0 1 0 1.3z"/>
    <path fill="#0d2c56" d="M19.6 0h-.1a5.4 5.4 0 0 0-.2 0 4.5 4.5 0 0 0-3.7 2.2 4.5 4.5 0 0 0-.1 4.3l-9 9a4.4 4.4 0 0 0-2-.5 4.5 4.5 0 0 0-3.9 2.2 4.5 4.5 0 0 0-.4 3.6L3 18l3 3-2.8 2.8 1.3.2a4.5 4.5 0 0 0 3.9-2.2 4.5 4.5 0 0 0 .1-4.3l9-9a4.4 4.4 0 0 0 2 .5 4.5 4.5 0 0 0 3.9-2.2 4.4 4.4 0 0 0 .6-2.3 4.5 4.5 0 0 0-.2-1.3L21 6l-3-3L20.8.2a4.4 4.4 0 0 0-1.2-.2z"/>
  </svg>
  <svg width="24" height="24" x="200" y="40" viewBox="0 0 24 24">
    <path fill="#0d2c56" d="m23 19-6-6c-1-1-1.8-1.3-2.5-.5L10 8l7-7h-7L6.5 4.5 6 4H4.5v1.5L5 6l-5 5 3.5 3.5 5-5L13 14c-.8.8-.5 1.5.5 2.5l6 6c1 1 1.5 1.5 2.5.5l1.5-1.5c.8-.8.5-1.5-.5-2.5z"/>
  </svg>
  <svg width="24" height="24" x="240" y="40" viewBox="0 0 24 24">
    <path fill="#0d2c56" d="M16.5 0a7.5 7.5 0 0 0-7.4 8.9L0 18v4.5A1.5 1.5 0 0 0 1.5 24H3v-2h3v-3h3v-3h3l1.5-1.5c.8.3 2.1.5 3 .5a7.5 7.5 0 0 0 0-15z"/>
    <path fill="#fff" d="M18.5 8a2.5 2.5 0 1 1 0-5 2.5 2.5 0 0 1 0 5z"/>
  </svg>
  <svg width="24" height="24" x="280" y="40" viewBox="0 0 24 24">
    <path fill="#0d2c56" d="m20 9 3-3-3-3h-7V1.1C13 0 12.5 0 12 0s-1 0-1 1.1V3H3v6h8v15h2V9z"/>
    <path fill="#b31b34" d="M3 11h17v4H3l-2-2z"/>
  </svg>
  <svg width="24" height="24" x="320" y="40" viewBox="0 0 24 24">
    <path fill="#0d2c56" d="M1 2h22a1 1 0 0 1 1 1v18a1 1 0 0 1-1 1H1a1 1 0 0 1-1-1V3a1 1 0 0 1 1-1z"/>
    <path fill="#fff" d="M1.5 3h21a.5.5 0 0 1 .5.5v17a.5.5 0 0 1-.5.5h-21a.5.5 0 0 1-.5-.5v-17a.5.5 0 0 1 .5-.5z"/>
    <path fill="#b31b34" d="M3.4 6.8c-.3.3-.1 1 .3 1.5L7.5 12l-3.8 3.8c-.5.4-.5 1-.2 1.3.3.4.9.4 1.5-.1l4.4-4.5a.7.7 0 0 0 0-1.1L5 7c-.5-.5-1.2-.6-1.6-.3zM10.5 18h10a.5.5 0 0 1 0 1h-10a.5.5 0 0 1 0-1z"/>
  </svg>
  <svg width="24" height="24" x="360" y="40" viewBox="0 0 24 24">
    <path fill="#ffc61e" d="M10 4h13c.5 0 1 .5 1 1v16c0 .5-.5 1-1 1H1a1 1 0 0 1-1-1V2c0-.5.5-1 1-1h6z"/>
    <path fill="#fdf9ae" d="M1 6h22v15H1V6z"/>
  </svg>
  <svg width="24" height="24" x="400" y="40" viewBox="0 0 24 24">
    <path fill="#ffc61e" d="M10 4h13c.5 0 1 .5 1 1v16c0 .5-.5 1-1 1H1a1 1 0 0 1-1-1V2c0-.5.5-1 1-1h6z"/>
    <path fill="#fdf9ae" d="M1 6h22v15H1V6z"/>
    <path fill="#0d2c56" d="M10 16h8c.5 0 1-.5 1-1v-2c0-.5-.3-1-1-1h-8a1 1 0 0 0-1 1H8v-2h6c.5 0 1-.5 1-1V8c0-.5-.5-1-1-1H6a1 1 0 0 0-1 1v2c0 .5.5 1 1 1h1v8h2v1c0 .5.5 1 1 1h8c.5 0 1-.5 1-1v-2c0-.5-.5-1-1-1h-8a1 1 0 0 0-1 1H8v-4h1v1c0 .8.5 1 1 1z"/>
    <path fill="#fff" d="M6 8h2v2H6V8zm4 5h2v2h-2v-2zm0 5h2v2h-2v-2z"/>
  </svg>
  <svg width="24" height="24" x="440" y="40" viewBox="0 0 24 24">
    <path fill="#ffc61e" d="M10 4h13c.5 0 1 .5 1 1v16c0 .5-.5 1-1 1H1a1 1 0 0 1-1-1V2c0-.5.5-1 1-1h6z"/>
    <path fill="#fdf9ae" d="M1 6h22v15H1V6z"/>
    <path fill="#0d2c56" d="M15.7 17.5c0-.5.3-.8.8-.8s.7.3.7.8-.2.8-.7.8c-.5 0-.8-.3-.8-.8zM11 14.3l5.4 5.4a1 1 0 0 0 .7.3c.3 0 .6-.1.8-.3l.8-.8a1 1 0 0 0 .3-.8 1 1 0 0 0-.3-.7L13.3 12a4 4 0 0 1-2.3 2.3zM6 11c0 .2 0 .5.2.8.2.7.7 1.3 1.3 1.7s1.3.7 2 .7c1 0 1.8-.4 2.5-1s1-1.6 1-2.6-.3-1.8-1-2.5-1.5-1-2.5-1l-1 .1-.8.4-.1.2.1.2L10 9.3V11l-1.5.9-.6-.4a46.6 46.6 0 0 0-1.8-.8l-.1.2z"/>
  </svg>
  <svg width="24" height="24" x="480" y="40" viewBox="0 0 24 24">
    <path fill="#ffc61e" d="M10 4h13c.5 0 1 .5 1 1v16c0 .5-.5 1-1 1H1a1 1 0 0 1-1-1V2c0-.5.5-1 1-1h6z"/>
    <path fill="#fdf9ae" d="M1 6h22v15H1V6z"/>
    <path fill="#2197db" d="M5 8h14c.5 0 1 .5 1 1v10c0 .5-.5 1-1 1H5a1 1 0 0 1-1-1V9c0-.5.5-1 1-1z"/>
    <path fill="#fff" d="M5 8h14c.5 0 1 .5 1 1v10c0 .5-.5 1-1 1H5a1 1 0 0 1-1-1V9c0-.5.5-1 1-1z" opacity=".6"/>
    <path fill="#fdf9ae" d="M9 9.3a2 2 0 0 1 .7 2.7 2 2 0 0 1-2.7.7 2 2 0 0 1-.7-2.7A2 2 0 0 1 9 9.3z"/>
    <path fill="#0d2c56" d="M4 18v1c0 .5.5 1 1 1h14c.5 0 1-.5 1-1v-4l-4-4-5 5-3-2z"/>
  </svg>
  <svg width="24" height="24" x="520" y="40" viewBox="0 0 24 24">
    <path fill="#ffc61e" d="M10 4h13c.5 0 1 .5 1 1v16c0 .5-.5 1-1 1H1a1 1 0 0 1-1-1V2c0-.5.5-1 1-1h6z"/>
    <path fill="#fdf9ae" d="M1 6h22v15H1V6z"/>
    <path fill="#0d2c56" d="M5 7v14c0 .5.5 1 1 1h12c.5 0 1-.5 1-1v-9l-6-6H6a1 1 0 0 0-1 1z"/>
    <path fill="#fff" d="M6 7v14h12V11l-4.5-4z"/>
    <path fill="#0d2c56" d="M13 6v5c0 .5.5 1 1 1h5z"/>
    <path fill="#fff" d="M5 7v14c0 .5.5 1 1 1h12c.5 0 1-.5 1-1v-9l-6-6H6a1 1 0 0 0-1 1z" opacity=".4"/>
  </svg>
  <svg width="24" height="24" x="560" y="40" viewBox="0 0 24 24">
    <path fill="#ffc61e" d="M10 4h13c.5 0 1 .5 1 1v16c0 .5-.5 1-1 1H1a1 1 0 0 1-1-1V2c0-.5.5-1 1-1h6z"/>
    <path fill="#fdf9ae" d="M1 6h22v15H1V6z"/>
    <path fill="#0d2c56" d="M13.5 17.4 15 19l5-5.5L15 8l-1.5 1.6 3.5 3.9zm-3-7.7L9 8l-5 5.5L9 19l1.5-1.6L7 13.5z"/>
  </svg>
  <svg width="24" height="24" x="600" y="40" viewBox="0 0 24 24">
    <path fill="#ffc61e" d="M10 4h13c.5 0 1 .5 1 1v16c0 .5-.5 1-1 1H1a1 1 0 0 1-1-1V2c0-.5.5-1 1-1h6z"/>
    <path fill="#fdf9ae" d="M1 6h22v15H1V6z"/>
    <path fill="#0d2c56" d="M6 7h13a1 1 0 0 1 1 1v11a1 1 0 0 1-1 1H6a1 1 0 0 1-1-1V8a1 1 0 0 1 1-1z"/>
    <path fill="#fff" d="M6 8h6v3H6V8zm7 0h6v3h-6V8zm0 4h6v3h-6v-3zm-7 0h6v3H6v-3zm7 4h6v3h-6v-3zm-7 0h6v3H6v-3z"/>
  </svg>
  <svg width="24" height="24" y="80" viewBox="0 0 24 24">
    <path fill="#ffc61e" d="M10 4h13c.5 0 1 .5 1 1v16c0 .5-.5 1-1 1H1a1 1 0 0 1-1-1V2c0-.5.5-1 1-1h6z"/>
    <path fill="#fdf9ae" d="M1 6h22v15H1V6z"/>
    <path fill="#fff" d="M8 8h5a3 3 0 0 1 3 3v5a3 3 0 0 1-3 3H8a3 3 0 0 1-3-3v-5a3 3 0 0 1 3-3z"/>
    <path fill="#0d2c56" d="M16 14.3v2.5q0 .9-.7 1.6t-1.6.6H7.2q-.9 0-1.6-.6T5 16.8v-6.5q0-1 .6-1.6T7.2 8H13v1q0 .2-.2 0H7.2q-.5 0-.9.4t-.3.9v6.5q0 .5.3.9t1 .3h6.4q.5 0 1-.3t.3-1v-2.6q0-.1.2 0h.7q.1 0 0 .2zm3-6.8v4l-.2.4q-.2.2-.3.1t-.5 0l-1.4-1.4-5 5-.2.2-.2-.1-.9-.9v-.4l5.1-5L14 8l-.1-.4.1-.3.4-.2h4q.2 0 .3.2t.2.3z"/>
  </svg>
  <svg width="24" height="24" x="40" y="80" viewBox="0 0 24 24">
    <path fill="#2197db" d="M10 4h13c.5 0 1 .5 1 1v16c0 .5-.5 1-1 1H1a1 1 0 0 1-1-1V2c0-.5.5-1 1-1h6z"/>
    <path fill="#fff" d="M1 6h22v15H1V6z" opacity=".6"/>
  </svg>
  <svg width="24" height="24" x="80" y="80" viewBox="0 0 24 24">
    <path fill="#b31b34" d="M10 4h13c.5 0 1 .5 1 1v16c0 .5-.5 1-1 1H1a1 1 0 0 1-1-1V2c0-.5.5-1 1-1h6z"/>
    <path fill="#fdf9ae" d="M1 6h22v15H1V6z" opacity=".6"/>
  </svg>
  <svg width="24" height="24" x="120" y="80" viewBox="0 0 24 24">
    <path fill="#0d2c56" d="M3 0h18a1 1 0 0 1 1 1v22a1 1 0 0 1-1 1H3a1 1 0 0 1-1-1V1a1 1 0 0 1 1-1z"/>
    <path fill="#fff" d="M3 1h18v22H3V1z"/>
    <path fill="#fff" d="M3 0h18a1 1 0 0 1 1 1v22a1 1 0 0 1-1 1H3a1 1 0 0 1-1-1V1a1 1 0 0 1 1-1z" opacity=".4"/>
    <path fill="#a8adb4" d="M6.5 9h11a.5.5 0 0 1 0 1h-11a.5.5 0 0 1 0-1zm0 2h11a.5.5 0 0 1 0 1h-11a.5.5 0 0 1 0-1zm0 2h11a.5.5 0 0 1 0 1h-11a.5.5 0 0 1 0-1zm0 2h11a.5.5 0 0 1 0 1h-11a.5.5 0 0 1 0-1zm0 2h11a.5.5 0 0 1 0 1h-11a.5.5 0 0 1 0-1zm0 2h11a.5.5 0 0 1 0 1h-11a.5.5 0 0 1 0-1zm0-12h11a.5.5 0 0 1 0 1h-11a.5.5 0 0 1 0-1zm0-2h11a.5.5 0 0 1 0 1h-11a.5.5 0 0 1 0-1z"/>
  </svg>
  <svg width="24" height="24" x="160" y="80" viewBox="0 0 24 24">
    <path fill="#0d2c56" d="M3 0h18a1 1 0 0 1 1 1v22a1 1 0 0 1-1 1H3a1 1 0 0 1-1-1V1a1 1 0 0 1 1-1z"/>
    <path fill="#fff" d="M3 1h18v22H3V1z"/>
    <path fill="#fff" d="M3 0h18a1 1 0 0 1 1 1v22a1 1 0 0 1-1 1H3a1 1 0 0 1-1-1V1a1 1 0 0 1 1-1z" opacity=".4"/>
    <path fill="#b31b34" d="M6 17h12v4H6v-4z"/>
    <path fill="#2197db" d="M6 4h12v4H6V4z"/>
    <path fill="#b31b34" d="M13 10h5v5h-5v-5z"/>
    <path fill="#2197db" d="M6 10h5v5H6v-5z"/>
  </svg>
  <svg width="24" height="24" x="200" y="80" viewBox="0 0 24 24">
    <path fill="#0d2c56" d="M3 0h18a1 1 0 0 1 1 1v22a1 1 0 0 1-1 1H3a1 1 0 0 1-1-1V1a1 1 0 0 1 1-1z"/>
    <path fill="#fff" d="M3 1h18v22H3V1z"/>
    <path fill="#fff" d="M3 0h18a1 1 0 0 1 1 1v22a1 1 0 0 1-1 1H3a1 1 0 0 1-1-1V1a1 1 0 0 1 1-1z" opacity=".4"/>
    <path fill="#b31b34" d="M6 17h12v4H6v-4z"/>
    <path fill="#a8adb4" d="M6 4h12v4H6V4z"/>
    <path fill="#b31b34" d="M13 10h5v5h-5v-5z"/>
    <path fill="#a8adb4" d="M6 10h5v5H6v-5z"/>
  </svg>
  <svg width="24" height="24" x="240" y="80" viewBox="0 0 24 24">
    <path fill="#b31b34" d="M3 0h18a1 1 0 0 1 1 1v22a1 1 0 0 1-1 1H3a1 1 0 0 1-1-1V1a1 1 0 0 1 1-1z"/>
    <path fill="#fff" d="M3 1h18v22H3V1z"/>
    <path fill="#fff" d="M3 0h18a1 1 0 0 1 1 1v22a1 1 0 0 1-1 1H3a1 1 0 0 1-1-1V1a1 1 0 0 1 1-1z" opacity=".4"/>
    <path fill="#b31b34" d="M3 1h18v22H3V1z" opacity=".1"/>
    <path fill="#b31b34" d="M6 17h12v4H6v-4z"/>
    <path fill="#2197db" d="M6 4h12v4H6V4z"/>
    <path fill="#b31b34" d="M13 10h5v5h-5v-5z"/>
    <path fill="#2197db" d="M6 10h5v5H6v-5z"/>
  </svg>
  <svg width="24" height="24" x="280" y="80" viewBox="0 0 24 24">
    <path fill="#0d2c56" d="M3 0h18a1 1 0 0 1 1 1v22a1 1 0 0 1-1 1H3a1 1 0 0 1-1-1V1a1 1 0 0 1 1-1z"/>
    <path fill="#fff" d="M3 1h18v22H3V1z"/>
    <path fill="#fff" d="M3 0h18a1 1 0 0 1 1 1v22a1 1 0 0 1-1 1H3a1 1 0 0 1-1-1V1a1 1 0 0 1 1-1z" opacity=".4"/>
    <path fill="#0d2c56" d="m14 21 3-1.5c-1-2-.5-3.5 2-3.5v-4c-2.5 0-3.3-1.5-2-3.5L14 7c-1 2.5-3 2.5-4 0L7 8.5c1 2 .5 3.5-2 3.5v4c2.5 0 3 1.5 2 3.5l3 1.5c1-2.5 3-2.5 4 0zm-5-7c0-1.8 1.5-3 3-3s3 1.3 3 3-1.3 3-3 3a3 3 0 0 1-3-3z"/>
  </svg>
  <svg width="24" height="24" x="320" y="80" viewBox="0 0 24 24">
    <path fill="#0d2c56" d="M3 0h18a1 1 0 0 1 1 1v22a1 1 0 0 1-1 1H3a1 1 0 0 1-1-1V1a1 1 0 0 1 1-1z"/>
    <path fill="#fff" d="M3 1h18v22H3V1z"/>
    <path fill="#fff" d="M3 0h18a1 1 0 0 1 1 1v22a1 1 0 0 1-1 1H3a1 1 0 0 1-1-1V1a1 1 0 0 1 1-1z" opacity=".4"/>
    <path fill="#0d2c56" d="M0 12v4c0 .5.5 1 1 1h5v4l7-7-7-7v4H1a1 1 0 0 0-1 1z"/>
    <path fill="#2197db" d="M1 12v4h6v2.8l4.8-4.8L7 9.2V12z"/>
  </svg>
  <svg width="24" height="24" x="360" y="80" viewBox="0 0 24 24">
    <path fill="#0d2c56" d="M3 0h18a1 1 0 0 1 1 1v22a1 1 0 0 1-1 1H3a1 1 0 0 1-1-1V1a1 1 0 0 1 1-1z"/>
    <path fill="#fff" d="M3 1h18v22H3V1z"/>
    <path fill="#fff" d="M3 0h18a1 1 0 0 1 1 1v22a1 1 0 0 1-1 1H3a1 1 0 0 1-1-1V1a1 1 0 0 1 1-1z" opacity=".4"/>
    <path fill="#0d2c56" d="M7 4h3v1H7V4zM6 5v5h1V9h1V8H7V5zm4 0v1H9v1h1v3h1V5zm-3 5h3v1H7v-1zm1-3h1v1H8V7zm7-3v1h-1v1h1v4h-2v1h5v-1h-2V4zm-1 9h3v1h-3v-1zm-1 1v5h1v-1h1v-1h-1v-3zm4 0v1h-1v1h1v3h1v-5zm-3 5h3v1h-3v-1zm1-3h1v1h-1v-1zm-7-3v1H7v1h1v4H6v1h5v-1H9v-6z"/>
  </svg>
  <svg width="24" height="24" x="400" y="80" viewBox="0 0 24 24">
    <path fill="#0d2c56" d="M3 0h18a1 1 0 0 1 1 1v22a1 1 0 0 1-1 1H3a1 1 0 0 1-1-1V1a1 1 0 0 1 1-1z"/>
    <path fill="#fff" d="M3 1h18v22H3V1z"/>
    <path fill="#fff" d="M3 0h18a1 1 0 0 1 1 1v22a1 1 0 0 1-1 1H3a1 1 0 0 1-1-1V1a1 1 0 0 1 1-1z" opacity=".4"/>
    <path fill="#0d2c56" d="M17 15.1c1.5-.8 2-1.6 2-3.1 0-2.2-2-4-4.5-4S10 9.5 10 11.4c-3.5.1-5 1.8-5 3.6s1 2.8 2 3c0 1.5-1.5 1.8-2 2 1.3 0 2.8-.3 3.5-1.5 4 .2 5.3-1.5 5.5-2.5h1.5c.8.8 2 1 3.5 1-.7-.4-1.8-1.1-2-1.9z"/>
    <path fill="#fff" d="M15.5 15H14c-.1-1.3-.5-2.9-3-3.5 0-1.3 1.5-2.5 3.5-2.5s3.4 1.3 3.5 3c0 1-.2 1.6-2 2.8.2.6 1 1.3 1.5 1.7-1.2-.4-1.7-1-2-1.5z"/>
  </svg>
  <svg width="24" height="24" x="440" y="80" viewBox="0 0 24 24">
    <path fill="#b31b34" d="M3 0h18a1 1 0 0 1 1 1v22a1 1 0 0 1-1 1H3a1 1 0 0 1-1-1V1a1 1 0 0 1 1-1z"/>
    <path fill="#fff" d="M3 1h18v22H3V1z"/>
    <path fill="#fff" d="M3 0h18a1 1 0 0 1 1 1v22a1 1 0 0 1-1 1H3a1 1 0 0 1-1-1V1a1 1 0 0 1 1-1z" opacity=".4"/>
    <path fill="#b31b34" d="M3 1h18v22H3V1z" opacity=".1"/>
    <path fill="#0d2c56" d="M17 15.1c1.5-.8 2-1.6 2-3.1 0-2.2-2-4-4.5-4S10 9.5 10 11.4c-3.5.1-5 1.8-5 3.6s1 2.8 2 3c0 1.5-1.5 1.8-2 2 1.3 0 2.8-.3 3.5-1.5 4 .2 5.3-1.5 5.5-2.5h1.5c.8.8 2 1 3.5 1-.7-.4-1.8-1.1-2-1.9z"/>
    <path fill="#fff" d="M15.5 15H14c-.1-1.3-.5-2.9-3-3.5 0-1.3 1.5-2.5 3.5-2.5s3.4 1.3 3.5 3c0 1-.2 1.6-2 2.8.2.6 1 1.3 1.5 1.7-1.2-.4-1.7-1-2-1.5z"/>
  </svg>
  <svg width="24" height="24" x="480" y="80" viewBox="0 0 24 24">
    <path fill="#0d2c56" d="M3 0h18a1 1 0 0 1 1 1v22a1 1 0 0 1-1 1H3a1 1 0 0 1-1-1V1a1 1 0 0 1 1-1z"/>
    <path fill="#fff" d="M3 1h18v22H3V1z"/>
    <path fill="#fff" d="M3 0h18a1 1 0 0 1 1 1v22a1 1 0 0 1-1 1H3a1 1 0 0 1-1-1V1a1 1 0 0 1 1-1z" opacity=".4"/>
    <path fill="#0d2c56" d="M10.2 7C7.3 7 5 9.4 5 12.3s2.3 5.2 5.2 5.2c1.1 0 2.3-.2 3.4-1.2l.4.4c-.1.4 0 .8.5 1.3l2.5 2.5c.7.7 1.3.6 1.7.2.3-.4.5-1-.2-1.7L16 16.5c-.5-.5-1-.6-1.3-.4l-.4-.5c1-1.1 1.2-2.3 1.2-3.4C15.5 9.3 13 7 10.2 7z"/>
    <path fill="#fff" d="M12.1 9a3.8 3.8 0 0 1 1.4 5.2 3.8 3.8 0 0 1-5.2 1.3A3.8 3.8 0 0 1 7 10.3 3.8 3.8 0 0 1 12 9z"/>
  </svg>
  <svg width="24" height="24" x="520" y="80" viewBox="0 0 24 24">
    <path fill="#0d2c56" d="M3 0h18a1 1 0 0 1 1 1v22a1 1 0 0 1-1 1H3a1 1 0 0 1-1-1V1a1 1 0 0 1 1-1z"/>
    <path fill="#fff" d="M3 1h18v22H3V1z"/>
    <path fill="#fff" d="M3 0h18a1 1 0 0 1 1 1v22a1 1 0 0 1-1 1H3a1 1 0 0 1-1-1V1a1 1 0 0 1 1-1z" opacity=".4"/>
    <path fill="#0d2c56" d="M10 16h8c.5 0 1-.5 1-1v-2c0-.5-.3-1-1-1h-8a1 1 0 0 0-1 1H8v-2h6c.5 0 1-.5 1-1V8c0-.5-.5-1-1-1H6a1 1 0 0 0-1 1v2c0 .5.5 1 1 1h1v8h2v1c0 .5.5 1 1 1h8c.5 0 1-.5 1-1v-2c0-.5-.5-1-1-1h-8a1 1 0 0 0-1 1H8v-4h1v1c0 .8.5 1 1 1zm0-3h2v2h-2zm0 5h2v2h-2zm-4-8V8h2v2z"/>
  </svg>
  <svg width="24" height="24" x="560" y="80" viewBox="0 0 24 24">
    <path fill="#0d2c56" d="M3 0h18a1 1 0 0 1 1 1v22a1 1 0 0 1-1 1H3a1 1 0 0 1-1-1V1a1 1 0 0 1 1-1z"/>
    <path fill="#fff" d="M3 1h18v22H3V1z"/>
    <path fill="#fff" d="M3 0h18a1 1 0 0 1 1 1v22a1 1 0 0 1-1 1H3a1 1 0 0 1-1-1V1a1 1 0 0 1 1-1z" opacity=".4"/>
    <path fill="#0d2c56" d="M15.7 19.5c0-.5.3-.8.8-.8s.7.3.7.8-.2.8-.7.8c-.5 0-.8-.3-.8-.8zM11 16.3l5.4 5.4a1 1 0 0 0 .7.3c.3 0 .6-.1.8-.3l.8-.8a1 1 0 0 0 .3-.8 1 1 0 0 0-.3-.7L13.3 14a4 4 0 0 1-2.3 2.3zM6 13c0 .2 0 .5.2.8.2.7.7 1.3 1.3 1.7s1.3.7 2 .7c1 0 1.8-.4 2.5-1s1-1.6 1-2.6-.3-1.8-1-2.5-1.5-1-2.5-1l-1 .1-.8.4-.1.2.1.2 2.3 1.4V13l-1.5.9-.6-.4a46.6 46.6 0 0 0-1.8-.8l-.1.2z"/>
  </svg>
  <svg width="24" height="24" x="600" y="80" viewBox="0 0 24 24">
    <path fill="#0d2c56" d="M3 0h18a1 1 0 0 1 1 1v22a1 1 0 0 1-1 1H3a1 1 0 0 1-1-1V1a1 1 0 0 1 1-1z"/>
    <path fill="#fff" d="M3 1h18v22H3V1z"/>
    <path fill="#fff" d="M3 0h18a1 1 0 0 1 1 1v22a1 1 0 0 1-1 1H3a1 1 0 0 1-1-1V1a1 1 0 0 1 1-1z" opacity=".4"/>
    <path fill="#0d2c56" d="m14.5 19.2 1.3 1.8 4.2-6-4.2-6-1.3 1.8 3 4.2zm-5-8.4L8.2 9 4 15l4.2 6 1.3-1.8-3-4.2zM11.8 9l2 .2L12.2 21l-2-.2L11.8 9z"/>
  </svg>
  <svg width="24" height="24" y="120" viewBox="0 0 24 24">
    <path fill="#0d2c56" d="M3 0h18a1 1 0 0 1 1 1v22a1 1 0 0 1-1 1H3a1 1 0 0 1-1-1V1a1 1 0 0 1 1-1z"/>
    <path fill="#fff" d="M3 1h18v22H3V1z"/>
    <path fill="#fff" d="M3 0h18a1 1 0 0 1 1 1v22a1 1 0 0 1-1 1H3a1 1 0 0 1-1-1V1a1 1 0 0 1 1-1z" opacity=".4"/>
    <path fill="#fff" d="M7.3 10h6.4a2.3 2.3 0 0 1 2.3 2.3v6.4a2.3 2.3 0 0 1-2.3 2.3H7.3A2.3 2.3 0 0 1 5 18.7v-6.4A2.3 2.3 0 0 1 7.3 10z"/>
    <path fill="#0d2c56" d="M16 16.3v2.5q0 .9-.7 1.5t-1.6.7H7.2q-.9 0-1.5-.7T5 18.8v-6.5q0-1 .7-1.6t1.5-.7H13v.9l-.2.1H7.2q-.5 0-.8.4t-.4.9v6.5q0 .5.4.8t.8.4h6.5q.6 0 1-.4t.3-.8V16h1q.1 0 0 .2zm3-6.8v4l-.2.4q-.2.2-.3.1t-.5 0l-1.3-1.4-5.1 5-.2.2-.2-.1-.9-1v-.3l5.1-5L14 10l-.1-.4.1-.3.4-.2h4q.2 0 .3.2t.2.3z"/>
  </svg>
  <svg width="24" height="24" x="40" y="120" viewBox="0 0 24 24">
    <path fill="#b31b34" d="M3 0h18a1 1 0 0 1 1 1v22a1 1 0 0 1-1 1H3a1 1 0 0 1-1-1V1a1 1 0 0 1 1-1z"/>
    <path fill="#fff" d="M3 1h18v22H3V1z"/>
    <path fill="#fff" d="M3 0h18a1 1 0 0 1 1 1v22a1 1 0 0 1-1 1H3a1 1 0 0 1-1-1V1a1 1 0 0 1 1-1z" opacity=".4"/>
    <path fill="#b31b34" d="M3 1h18v22H3V1z" opacity=".1"/>
    <path fill="#0d2c56" d="M15.7 19.5c0-.5.3-.8.8-.8s.7.3.7.8-.2.8-.7.8c-.5 0-.8-.3-.8-.8zM11 16.3l5.4 5.4a1 1 0 0 0 .7.3c.3 0 .6-.1.8-.3l.8-.8a1 1 0 0 0 .3-.8 1 1 0 0 0-.3-.7L13.3 14a4 4 0 0 1-2.3 2.3zM6 13c0 .2 0 .5.2.8.2.7.7 1.3 1.3 1.7s1.3.7 2 .7c1 0 1.8-.4 2.5-1s1-1.6 1-2.6-.3-1.8-1-2.5-1.5-1-2.5-1l-1 .1-.8.4-.1.2.1.2 2.3 1.4V13l-1.5.9-.6-.4a46.6 46.6 0 0 0-1.8-.8l-.1.2z"/>
  </svg>
  <svg width="24" height="24" x="80" y="120" viewBox="0 0 24 24">
    <path fill="#b31b34" d="M3 0h18a1 1 0 0 1 1 1v22a1 1 0 0 1-1 1H3a1 1 0 0 1-1-1V1a1 1 0 0 1 1-1z"/>
    <path fill="#fff" d="M3 1h18v22H3V1z"/>
    <path fill="#fff" d="M3 0h18a1 1 0 0 1 1 1v22a1 1 0 0 1-1 1H3a1 1 0 0 1-1-1V1a1 1 0 0 1 1-1z" opacity=".4"/>
    <path fill="#b31b34" d="M3 1h18v22H3V1z" opacity=".1"/>
    <path fill="#b31b34" d="M1 8h22v9H1V8z"/>
    <path fill="#fff" d="M18 9c1 0 2 .5 2 2s-1 2-2 2h-2v3h-1V9zm-2 1v2h2c.5 0 1-.3 1-1s-.5-1-1-1zm-2-1v1h-3.5c-.3 0-.5.3-.5.5v1c0 .3.3.5.5.5h2.3c.7 0 1.2.5 1.2 1.3v1.4c0 .7-.5 1.3-1.3 1.3H9v-1h3.5c.3 0 .5-.3.5-.5v-1c0-.3-.3-.5-.5-.5h-2.3c-.7 0-1.2-.5-1.2-1.3v-1.4c0-.9.5-1.3 1.3-1.3zM7 9h1v5.8c0 .6-.6 1.2-1.3 1.2H5.3c-.7 0-1.2-.5-1.2-1.3V14h1v.5c0 .4.3.5.5.5h1c.3 0 .5-.3.5-.5z"/>
  </svg>
  <svg width="24" height="24" x="120" y="120" viewBox="0 0 24 24">
    <path fill="#0d2c56" d="M3 0h18a1 1 0 0 1 1 1v22a1 1 0 0 1-1 1H3a1 1 0 0 1-1-1V1a1 1 0 0 1 1-1z"/>
    <path fill="#fff" d="M3 1h18v22H3V1z"/>
    <path fill="#fff" d="M3 0h18a1 1 0 0 1 1 1v22a1 1 0 0 1-1 1H3a1 1 0 0 1-1-1V1a1 1 0 0 1 1-1z" opacity=".4"/>
    <path fill="#0d2c56" d="M6.5 4h11a.5.5 0 0 1 .5.5v1a.5.5 0 0 1-.5.5h-11a.5.5 0 0 1-.5-.5v-1a.5.5 0 0 1 .5-.5z"/>
    <path fill="#a8adb4" d="M6.5 9h11a.5.5 0 0 1 0 1h-11a.5.5 0 0 1 0-1zm0 2h11a.5.5 0 0 1 0 1h-11a.5.5 0 0 1 0-1zm0 2h11a.5.5 0 0 1 0 1h-11a.5.5 0 0 1 0-1zm0 2h11a.5.5 0 0 1 0 1h-11a.5.5 0 0 1 0-1zm0 2h11a.5.5 0 0 1 0 1h-11a.5.5 0 0 1 0-1zm0 2h11a.5.5 0 0 1 0 1h-11a.5.5 0 0 1 0-1z"/>
  </svg>
  <svg width="24" height="24" x="160" y="120" viewBox="0 0 24 24">
    <path fill="#7f8691" d="M10 4h13c.5 0 1 .5 1 1v16c0 .5-.5 1-1 1H1a1 1 0 0 1-1-1V2c0-.5.5-1 1-1h6z"/>
    <path fill="#fff" d="M1 6h22v15H1V6z" opacity=".6"/>
    <path fill="#b31b34" d="M10 16a4.5 4.5 0 0 1-.1-.8c0-1 .2-1.8.6-2.6.3-.8.7-1.4 1.2-2 .4-.4.9-.7 1.2-1.2.3-.5.5-1.2.5-1.7 0-.6-.2-1-.5-1.3-.4-.3-1-.5-1.5-.5s-1.1 0-1.7.3L8 7 7 4.4c.6-.5 1.4-.8 2.2-1S11 3 11.8 3c1 0 1.9.2 2.6.5.6.3 1.2.7 1.6 1.1s.6 1 .8 1.6l.2 1.5c0 .6-.1 1.2-.3 1.6a5.9 5.9 0 0 1-.8 1.4l-1 1.2c-.6.8-1.3 1.6-1.6 2.5A5 5 0 0 0 13 16zm2.5 1.5c.6.3 1 1 1 1.6 0 .4-.1.7-.3 1a2.1 2.1 0 0 1-2.7.7 2 2 0 0 1-1-1.7l.3-1a2.1 2.1 0 0 1 2.7-.7v.1z"/>
  </svg>
  <svg width="24" height="24" x="200" y="120" viewBox="0 0 24 24">
    <path fill="#b31b34" d="M3 0h18a1 1 0 0 1 1 1v22a1 1 0 0 1-1 1H3a1 1 0 0 1-1-1V1a1 1 0 0 1 1-1z"/>
    <path fill="#fff" d="M3 1h18v22H3V1z"/>
    <path fill="#fff" d="M3 0h18a1 1 0 0 1 1 1v22a1 1 0 0 1-1 1H3a1 1 0 0 1-1-1V1a1 1 0 0 1 1-1z" opacity=".4"/>
    <path fill="#7f8691" d="M3 1h18v22H3V1z"/>
    <path fill="#fff" d="M3 1h18v22H3V1z" opacity=".6"/>
    <path fill="#b31b34" d="M10 16a4.5 4.5 0 0 1-.1-.8c0-1 .2-1.8.6-2.6.3-.8.7-1.4 1.2-2 .4-.4.9-.7 1.2-1.2.3-.5.5-1.2.5-1.7 0-.6-.2-1-.5-1.3-.4-.3-1-.5-1.5-.5s-1.1 0-1.7.3L8 7 7 4.4c.6-.5 1.4-.8 2.2-1S11 3 11.8 3c1 0 1.9.2 2.6.5.6.3 1.2.7 1.6 1.1s.6 1 .8 1.6l.2 1.5c0 .6-.1 1.2-.3 1.6a5.9 5.9 0 0 1-.8 1.4l-1 1.2c-.6.8-1.3 1.6-1.6 2.5A5 5 0 0 0 13 16zm2.5 1.5c.6.3 1 1 1 1.6 0 .4-.1.7-.3 1a2.1 2.1 0 0 1-2.7.7 2 2 0 0 1-1-1.7l.3-1a2.1 2.1 0 0 1 2.7-.7v.1z"/>
  </svg>
  <svg width="24" height="24" x="240" y="120" viewBox="0 0 24 24">
    <path fill="#0d2c56" d="M2 1v22c0 .5.5 1 1 1h18c.5 0 1-.5 1-1V7l-7-7H3a1 1 0 0 0-1 1z"/>
    <path fill="#fff" d="M3 1v22h18V6l-5-5z"/>
    <path fill="#0d2c56" d="M15 0v6c0 .5.5 1 1 1h6z"/>
    <path fill="#fff" d="M2 1v22c0 .5.5 1 1 1h18c.5 0 1-.5 1-1V7l-7-7H3a1 1 0 0 0-1 1z" opacity=".4"/>
    <path fill="#b31b34" d="M8.3 13v-1c0-.7.3-1 1-1h.7V9h-.7c-1.5 0-2.7 1.4-2.7 3v.8c0 .7-.6 1.2-1.2 1.2H5v2h.4c.6 0 1.2.5 1.2 1.2v.7A3 3 0 0 0 9.3 21h.7v-2h-.8c-.6 0-.9-.2-.9-1v-1c0-1.2-.2-1.5-1-2 .8-.5 1-.8 1-2zm7.4 4v1c0 .7-.3.9-1 1H14v2h.7c1.5 0 2.7-1.4 2.7-3v-.8c0-.7.6-1.2 1.2-1.2h.4v-2h-.4c-.6 0-1.2-.5-1.2-1.2v-.7c0-1.7-1.2-3.1-2.7-3.1H14v2h.8c.6 0 .9.2.9 1v1c0 1.2.2 1.5 1 2-.8.5-1 .8-1 2zM11 12h2v2h-2v-2zm0 4h2v2l-1.8 3h-.4v-1.3l1-1.7H11z"/>
  </svg>
  <svg width="24" height="24" x="280" y="120" viewBox="0 0 24 24">
    <path fill="#0d2c56" d="M2 1v22c0 .5.5 1 1 1h18c.5 0 1-.5 1-1V7l-7-7H3a1 1 0 0 0-1 1z"/>
    <path fill="#fff" d="M3 1v22h18V6l-5-5z"/>
    <path fill="#0d2c56" d="M15 0v6c0 .5.5 1 1 1h6z"/>
    <path fill="#fff" d="M2 1v22c0 .5.5 1 1 1h18c.5 0 1-.5 1-1V7l-7-7H3a1 1 0 0 0-1 1z" opacity=".4"/>
    <path fill="#0d2c56" d="M9.3 13v-1c0-.7.3-1 1-1h.7V9h-.7c-1.5 0-2.7 1.4-2.7 3v.8c0 .7-.6 1.2-1.2 1.2H6v2h.4c.6 0 1.2.5 1.2 1.2v.7a3 3 0 0 0 2.7 3.1h.7v-2h-.8c-.6 0-.9-.2-.9-1v-1c0-1.2-.2-1.5-1-2 .8-.5 1-.8 1-2zm5.4 4v1c0 .7-.3.9-1 1H13v2h.7c1.5 0 2.7-1.4 2.7-3v-.8c0-.7.6-1.2 1.2-1.2h.4v-2h-.4c-.6 0-1.2-.5-1.2-1.2v-.7c0-1.7-1.2-3.1-2.7-3.1H13v2h.8c.6 0 .9.2.9 1v1c0 1.2.2 1.5 1 2-.8.5-1 .8-1 2z"/>
  </svg>
  <svg width="24" height="24" x="320" y="120" viewBox="0 0 24 24">
    <path fill="#0d2c56" d="M2 1v22c0 .5.5 1 1 1h18c.5 0 1-.5 1-1V7l-7-7H3a1 1 0 0 0-1 1z"/>
    <path fill="#fff" d="M3 1v22h18V6l-5-5z"/>
    <path fill="#0d2c56" d="M15 0v6c0 .5.5 1 1 1h6z"/>
    <path fill="#fff" d="M2 1v22c0 .5.5 1 1 1h18c.5 0 1-.5 1-1V7l-7-7H3a1 1 0 0 0-1 1z" opacity=".4"/>
    <path fill="#0d2c56" d="m13.5 19.2 1.3 1.8 4.2-6-4.2-6-1.3 1.8 3 4.2zm-3-8.4L9.2 9 5 15l4.3 6 1.2-1.8-3-4.2z"/>
  </svg>
  <svg width="24" height="24" x="360" y="120" viewBox="0 0 24 24">
    <path fill="#0d2c56" d="M2 1v22c0 .5.5 1 1 1h18c.5 0 1-.5 1-1V7l-7-7H3a1 1 0 0 0-1 1z"/>
    <path fill="#fff" d="M3 1v22h18V6l-5-5z"/>
    <path fill="#0d2c56" d="M15 0v6c0 .5.5 1 1 1h6z"/>
    <path fill="#fff" d="M2 1v22c0 .5.5 1 1 1h18c.5 0 1-.5 1-1V7l-7-7H3a1 1 0 0 0-1 1z" opacity=".4"/>
    <path fill="#0d2c56" d="m14.5 19.2 1.3 1.8 4.2-6-4.2-6-1.3 1.8 3 4.2zm-5-8.4L8.2 9 4 15l4.2 6 1.3-1.8-3-4.2zM11.8 9l2 .2L12.2 21l-2-.2L11.8 9z"/>
  </svg>
  <svg width="24" height="24" x="400" y="120" viewBox="0 0 24 24">
    <path fill="#0d2c56" d="M2 1v22c0 .5.5 1 1 1h18c.5 0 1-.5 1-1V7l-7-7H3a1 1 0 0 0-1 1z"/>
    <path fill="#fff" d="M3 1v22h18V6l-5-5z"/>
    <path fill="#0d2c56" d="M15 0v6c0 .5.5 1 1 1h6z"/>
    <path fill="#fff" d="M2 1v22c0 .5.5 1 1 1h18c.5 0 1-.5 1-1V7l-7-7H3a1 1 0 0 0-1 1z" opacity=".4"/>
    <path fill="#a8adb4" d="M6.5 8h9a.5.5 0 0 1 0 1h-9a.5.5 0 0 1 0-1zm0 2h11a.5.5 0 0 1 0 1h-11a.5.5 0 0 1 0-1zm0 2h9a.5.5 0 0 1 0 1h-9a.5.5 0 0 1 0-1zm0 2h7a.5.5 0 0 1 0 1h-7a.5.5 0 0 1 0-1zm0 2h9a.5.5 0 0 1 0 1h-9a.5.5 0 0 1 0-1zm0 2h11a.5.5 0 0 1 0 1h-11a.5.5 0 0 1 0-1zm0 2h9a.5.5 0 0 1 0 1h-9a.5.5 0 0 1 0-1z"/>
  </svg>
  <svg width="24" height="24" x="440" y="120" viewBox="0 0 24 24">
    <path fill="#0d2c56" d="M2 1v22c0 .5.5 1 1 1h18c.5 0 1-.5 1-1V7l-7-7H3a1 1 0 0 0-1 1z"/>
    <path fill="#fff" d="M3 1v22h18V6l-5-5z"/>
    <path fill="#0d2c56" d="M15 0v6c0 .5.5 1 1 1h6z"/>
    <path fill="#fff" d="M2 1v22c0 .5.5 1 1 1h18c.5 0 1-.5 1-1V7l-7-7H3a1 1 0 0 0-1 1z" opacity=".4"/>
    <path fill="#0d2c56" d="M7 0h3v1H7V0zm3 1h3v1h-3V1zM7 2h3v1H7V2zm3 1h3v1h-3V3zM7 4h3v1H7V4zm3 1h3v1h-3V5zM7 6h3v1H7V6zm3 1h3v1h-3V7zM7 8h3v1H7V8zm3 1h3v1h-3V9zm-3 1h3v1H7v-1zm3 1h3v1h-3v-1zm-3 1v1c.1 2-.2 4-1 6a8.5 8.5 0 0 0 8 0c-.7-1.9-1-3.9-1-6h-3v-1zm3 4c1.1 0 2 .4 2 1s-.9 1-2 1-2-.4-2-1 .9-1 2-1z"/>
  </svg>
  <svg width="24" height="24" x="480" y="120" viewBox="0 0 24 24">
    <path fill="#0d2c56" d="M2 1v22c0 .5.5 1 1 1h18c.5 0 1-.5 1-1V7l-7-7H3a1 1 0 0 0-1 1z"/>
    <path fill="#fff" d="M3 1v22h18V6l-5-5z"/>
    <path fill="#0d2c56" d="M15 0v6c0 .5.5 1 1 1h6z"/>
    <path fill="#fff" d="M2 1v22c0 .5.5 1 1 1h18c.5 0 1-.5 1-1V7l-7-7H3a1 1 0 0 0-1 1z" opacity=".4"/>
    <path fill="#0d2c56" d="M4 8h16v14H4V8z"/>
    <path fill="#fff" d="M7.9 20 5 10h1.5l2.1 7.3L11 10h1.9l2.4 7.3 2.1-7.3h1.5l-3 10h-1.4L12 12l-2.5 8z"/>
  </svg>
  <svg width="24" height="24" x="520" y="120" viewBox="0 0 24 24">
    <path fill="#0d2c56" d="M2 1v22c0 .5.5 1 1 1h18c.5 0 1-.5 1-1V7l-7-7H3a1 1 0 0 0-1 1z"/>
    <path fill="#fff" d="M3 1v22h18V6l-5-5z"/>
    <path fill="#0d2c56" d="M15 0v6c0 .5.5 1 1 1h6z"/>
    <path fill="#fff" d="M2 1v22c0 .5.5 1 1 1h18c.5 0 1-.5 1-1V7l-7-7H3a1 1 0 0 0-1 1z" opacity=".4"/>
    <path fill="#1bb39a" d="M4 8h16v14H4V8z"/>
    <path fill="#fff" d="M7 10h2l3 3.7 3-3.7h2l-3.8 4.8L17 20h-2l-3-4.3L9 20H7l3.8-5.3z"/>
  </svg>
  <svg width="24" height="24" x="560" y="120" viewBox="0 0 24 24">
    <path fill="#0d2c56" d="M2 1v22c0 .5.5 1 1 1h18c.5 0 1-.5 1-1V7l-7-7H3a1 1 0 0 0-1 1z"/>
    <path fill="#fff" d="M3 1v22h18V6l-5-5z"/>
    <path fill="#0d2c56" d="M15 0v6c0 .5.5 1 1 1h6z"/>
    <path fill="#fff" d="M2 1v22c0 .5.5 1 1 1h18c.5 0 1-.5 1-1V7l-7-7H3a1 1 0 0 0-1 1z" opacity=".4"/>
    <path fill="#b31b34" d="M4 8h16v14H4V8z"/>
    <path fill="#fff" d="M10.8 11.5v3h1.6c1.5 0 2-.5 2-1.5s-.7-1.5-2-1.5zM9 10h3.4c1.2 0 2 .3 2.6.8a2.9 2.9 0 0 1 1 2.2c0 1-.4 1.7-1 2.2-.6.5-1.4.8-2.6.8h-1.7v4H9z"/>
  </svg>
  <svg width="24" height="24" x="600" y="120" viewBox="0 0 24 24">
    <path fill="#0d2c56" d="M2 1v22c0 .5.5 1 1 1h18c.5 0 1-.5 1-1V7l-7-7H3a1 1 0 0 0-1 1z"/>
    <path fill="#fff" d="M3 1v22h18V6l-5-5z"/>
    <path fill="#0d2c56" d="M15 0v6c0 .5.5 1 1 1h6z"/>
    <path fill="#fff" d="M2 1v22c0 .5.5 1 1 1h18c.5 0 1-.5 1-1V7l-7-7H3a1 1 0 0 0-1 1z" opacity=".4"/>
    <path fill="#0d2c56" d="M9.3 17.2s-.7.5.5.7c1.5.2 2.2.1 3.8-.2l1 .5c-3.5 1.8-8 0-5.3-1zM9 15s-.8.7.4.8c1.6.2 2.8.2 5-.2 0 0 .2.3.7.5-4.4 1.5-9.2.1-6-1z"/>
    <path fill="#b31b34" d="M11.6 11c.9 1.2-.2 2.3-.2 2.3s2.2-1.4 1.2-3c-1-1.6-1.7-2.4 2.3-5 0 0-6.3 1.8-3.3 5.7z"/>
    <path fill="#0d2c56" d="M17.3 19s.6.4-.5.8a22 22 0 0 1-10.5 0c-.6-.3.6-.7 1-.8l.6-.1c-.7-.6-4.7 1.1-2 1.6C13.2 22 19.2 20 17.3 19zm-7.6-6.4s-3.3.9-1.2 1.2h4.4l2.8-.5-.9.5c-3.4 1-9.9.6-8-.5 1.6-.8 2.9-.7 2.9-.7zm6 3.8c3.4-2 1.8-4 .7-3.8l-.4.2.3-.3c2.2-.9 3.9 2.6-.7 4v-.1z"/>
    <path fill="#b31b34" d="M12.6 1s1.9 2.2-1.8 5.5c-3 2.7-.7 4.3 0 6-1.8-1.8-3-3.4-2.2-4.8 1.3-2.2 4.8-3.2 4-6.7z"/>
    <path fill="#0d2c56" d="M10 22c3.3.2 8.4-.2 8.5-2 0 0-.2.7-2.7 1.2a24 24 0 0 1-8.4.2s.4.4 2.6.5z"/>
  </svg>
  <svg width="24" height="24" y="160" viewBox="0 0 24 24">
    <path fill="#0d2c56" d="M2 1v22c0 .5.5 1 1 1h18c.5 0 1-.5 1-1V7l-7-7H3a1 1 0 0 0-1 1z"/>
    <path fill="#fff" d="M3 1v22h18V6l-5-5z"/>
    <path fill="#0d2c56" d="M15 0v6c0 .5.5 1 1 1h6z"/>
    <path fill="#fff" d="M2 1v22c0 .5.5 1 1 1h18c.5 0 1-.5 1-1V7l-7-7H3a1 1 0 0 0-1 1z" opacity=".4"/>
    <path fill="#b31b34" d="M19.7 15c-.3-.3-1-.5-2-.5-.8 0-1.7 0-2.6.2l-1.2-.9c-.9-1-1.6-2.3-2.1-3.8v-.4s.6-3.3.5-4.4a1.5 1.5 0 0 0-.1-.3v-.2c-.2-.3-.5-.7-.9-.7h-.2c-.5 0-1 .3-1 .7-.3 1.3 0 3.3.6 5.8l-.2.4-1.4 3.3v.2A59.1 59.1 0 0 1 7.8 17l-.4.3-1 .5c-1.3 1-2.2 2-2.4 3 0 .2 0 .6.3.7l.3.3.6.1c1 0 2.1-1.4 3.7-4.6a33 33 0 0 1 5.7-1.6 9 9 0 0 0 4.2 1.6h.5a.8.8 0 0 0 .5-.5c.2-.3.2-.8.2-1.3a1 1 0 0 0-.3-.5zM5 21.2c.1-.5.9-1.7 2-2.6l.3-.4c-1.1 2-1.8 2.8-2.3 3zm6.2-16.5c.3 0 .5 1 .5 1.8s-.1 1.4-.3 1.9c-.2-.7-.3-1.7-.3-2.4l.1-1.3zM9.4 16.4l.6-1.5a29.6 29.6 0 0 0 1.2-3 9.9 9.9 0 0 0 2.4 3.1c-1.6.4-3 .8-4.2 1.4zm10-.1H19a6 6 0 0 1-2.3-.7h1l1.4.1c.6.1.5.5.4.6z"/>
  </svg>
  <svg width="24" height="24" x="40" y="160" viewBox="0 0 24 24">
    <path fill="#0d2c56" d="M2 1v22c0 .5.5 1 1 1h18c.5 0 1-.5 1-1V7l-7-7H3a1 1 0 0 0-1 1z"/>
    <path fill="#fff" d="M3 1v22h18V6l-5-5z"/>
    <path fill="#0d2c56" d="M15 0v6c0 .5.5 1 1 1h6z"/>
    <path fill="#fff" d="M2 1v22c0 .5.5 1 1 1h18c.5 0 1-.5 1-1V7l-7-7H3a1 1 0 0 0-1 1z" opacity=".4"/>
    <path fill="#0d2c56" d="M7 14v5.1c0 1-.2 1.3-1 1.4h-.5v.5h5v-.5H10c-.8-.1-1-.5-1-1.4V14h2v-.5H9v-2.2c0-.6.1-1 .5-1.2.2-.2.5-.3.8-.3s.6.1 1 .4c.2.4.5.5.8.5.5 0 .9-.3.9-.7 0-.5-.8-1-1.8-1s-2.3.4-3.1 1c-.8.5-1 1.1-1 2.3v1.2H6v.5z"/>
    <path fill="#0d2c56" d="M16 13h-1l-3 .5v.5h.4c1 .1 1.6.3 1.6 1.3V19c0 .9-.2 1.4-1 1.5h-.5v.5h5v-.5H17c-.8-.1-1-.6-1-1.5zm-.5-2.8a1 1 0 0 1 .5.8l-.1.5a1 1 0 0 1-1.4.4 1 1 0 0 1-.5-.9l.1-.4a1 1 0 0 1 1.4-.4z"/>
  </svg>
  <svg width="24" height="24" x="80" y="160" viewBox="0 0 24 24">
    <path fill="#0d2c56" d="M2 1v22c0 .5.5 1 1 1h18c.5 0 1-.5 1-1V7l-7-7H3a1 1 0 0 0-1 1z"/>
    <path fill="#fff" d="M3 1v22h18V6l-5-5z"/>
    <path fill="#0d2c56" d="M15 0v6c0 .5.5 1 1 1h6z"/>
    <path fill="#fff" d="M2 1v22c0 .5.5 1 1 1h18c.5 0 1-.5 1-1V7l-7-7H3a1 1 0 0 0-1 1z" opacity=".4"/>
    <path fill="#0d2c56" d="M9 11h1v8.5H9V11zm6-1.2h1v7.7h-1V9.8z"/>
    <path fill="#0d2c56" d="M15 16.2c.6.3 1 .8 1 1.3 0 .3-.1.5-.3.8-.3.4-1 .7-1.7.7-.4 0-.7 0-1-.2-.6-.3-1-.7-1-1.3 0-.3.1-.5.3-.8.3-.4 1-.7 1.7-.7.4 0 .7 0 1 .2zm-6 2c.6.3 1 .8 1 1.3 0 .3-.1.5-.3.8-.3.4-1 .7-1.7.7-.4 0-.7 0-1-.2-.6-.3-1-.7-1-1.3 0-.3.1-.5.3-.8.3-.4 1-.7 1.7-.7.4 0 .7 0 1 .2zM9 11l7-2v2l-7 2z"/>
  </svg>
  <svg width="24" height="24" x="120" y="160" viewBox="0 0 24 24">
    <path fill="#0d2c56" d="M2 9h20v12H2V9z"/>
    <path fill="#fff" d="M9 11v8l6-4z"/>
    <path fill="#0d2c56" d="m1.2 5 19.6-4 .8 3.9L2 9l-.8-4z"/>
  </svg>
  <svg width="24" height="24" x="160" y="160" viewBox="0 0 24 24">
    <path fill="#0d2c56" d="M1 2h22a1 1 0 0 1 1 1v18a1 1 0 0 1-1 1H1a1 1 0 0 1-1-1V3a1 1 0 0 1 1-1z"/>
    <path fill="#2197db" d="M1 21V3h22v18z"/>
    <path fill="#fff" d="M1 3h22v18H1V3z" opacity=".6"/>
    <path fill="#fdf9ae" d="M7.5 5.4a3 3 0 0 1 1 4.1h.1a3 3 0 0 1-4.1 1v.1a3 3 0 0 1-1-4.1h-.1a3 3 0 0 1 4.1-1v-.1z"/>
    <path fill="#0d2c56" d="M1 21h22v-6l-6-7-7 8-4-2-5 5z"/>
  </svg>
  <svg width="24" height="24" x="200" y="160" viewBox="0 0 24 24">
    <path fill="#fff" d="M2 1h20a1 1 0 0 1 1 1v20a1 1 0 0 1-1 1H2a1 1 0 0 1-1-1V2a1 1 0 0 1 1-1z"/>
    <path fill="#0d2c56" d="M1 2h1v2H1V2zm0 3h1v2H1V5zm0 3h1v2H1V8zm0 3h1v2H1v-2zm0 3h1v2H1v-2zm0 3h1v2H1v-2zm0 3h1v2H1v-2zM2 1h2v1H2V1zm3 0h2v1H5V1zm3 0h2v1H8V1zm3 0h2v1h-2V1zm3 0h2v1h-2V1zm3 0h2v1h-2V1zm3 0h2v1h-2V1zm2 1h1v2h-1V2zm0 3h1v2h-1V5zm0 3h1v2h-1V8zm0 3h1v2h-1v-2zm0 3h1v2h-1v-2zm0 3h1v2h-1v-2zm0 3h1v2h-1v-2zm-2 2h2v1h-2v-1zm-2.9 0h2v1h-2v-1zM14 22h2v1h-2v-1zm-3 0h2v1h-2v-1zm-3 0h2v1H8v-1zm-3 0h2v1H5v-1zm-3 0h2v1H2v-1z"/>
    <path fill="#b31b34" d="M4 13h7v7H4v-7z"/>
    <path fill="#a8adb4" d="M13 13h7v7h-7v-7z"/>
    <path fill="#b31b34" d="M13 4h7v7h-7V4z"/>
    <path fill="#a8adb4" d="M4 4h7v7H4V4z"/>
  </svg>
  <svg width="24" height="24" x="240" y="160" viewBox="0 0 24 24">
    <path fill="#fff" d="M2 1h20a1 1 0 0 1 1 1v20a1 1 0 0 1-1 1H2a1 1 0 0 1-1-1V2a1 1 0 0 1 1-1z"/>
    <path fill="#0d2c56" d="M1 2h1v2H1V2zm0 3h1v2H1V5zm0 3h1v2H1V8zm0 3h1v2H1v-2zm0 3h1v2H1v-2zm0 3h1v2H1v-2zm0 3h1v2H1v-2zM2 1h2v1H2V1zm3 0h2v1H5V1zm3 0h2v1H8V1zm3 0h2v1h-2V1zm3 0h2v1h-2V1zm3 0h2v1h-2V1zm3 0h2v1h-2V1zm2 1h1v2h-1V2zm0 3h1v2h-1V5zm0 3h1v2h-1V8zm0 3h1v2h-1v-2zm0 3h1v2h-1v-2zm0 3h1v2h-1v-2zm0 3h1v2h-1v-2zm-2 2h2v1h-2v-1zm-2.9 0h2v1h-2v-1zM14 22h2v1h-2v-1zm-3 0h2v1h-2v-1zm-3 0h2v1H8v-1zm-3 0h2v1H5v-1zm-3 0h2v1H2v-1z"/>
    <path fill="#a8adb4" d="M4 13h7v7H4v-7z"/>
    <path fill="#2197db" d="M13 13h7v7h-7v-7z"/>
    <path fill="#a8adb4" d="M13 4h7v7h-7V4z"/>
    <path fill="#2197db" d="M4 4h7v7H4V4z"/>
  </svg>
  <svg width="24" height="24" x="280" y="160" viewBox="0 0 24 24">
    <path fill="#fff" d="M2 1h20a1 1 0 0 1 1 1v20a1 1 0 0 1-1 1H2a1 1 0 0 1-1-1V2a1 1 0 0 1 1-1z"/>
    <path fill="#0d2c56" d="M1 2h1v2H1V2zm0 3h1v2H1V5zm0 3h1v2H1V8zm0 3h1v2H1v-2zm0 3h1v2H1v-2zm0 3h1v2H1v-2zm0 3h1v2H1v-2zM2 1h2v1H2V1zm3 0h2v1H5V1zm3 0h2v1H8V1zm3 0h2v1h-2V1zm3 0h2v1h-2V1zm3 0h2v1h-2V1zm3 0h2v1h-2V1zm2 1h1v2h-1V2zm0 3h1v2h-1V5zm0 3h1v2h-1V8zm0 3h1v2h-1v-2zm0 3h1v2h-1v-2zm0 3h1v2h-1v-2zm0 3h1v2h-1v-2zm-2 2h2v1h-2v-1zm-2.9 0h2v1h-2v-1zM14 22h2v1h-2v-1zm-3 0h2v1h-2v-1zm-3 0h2v1H8v-1zm-3 0h2v1H5v-1zm-3 0h2v1H2v-1z"/>
    <path fill="#b31b34" d="M4 13h7v7H4v-7z"/>
    <path fill="#2197db" d="M13 13h7v7h-7v-7z"/>
    <path fill="#b31b34" d="M13 4h7v7h-7V4z"/>
    <path fill="#2197db" d="M4 4h7v7H4V4z"/>
  </svg>
  <svg width="24" height="24" x="320" y="160" viewBox="0 0 24 24">
    <path fill="#fff" d="M2 1h20a1 1 0 0 1 1 1v20a1 1 0 0 1-1 1H2a1 1 0 0 1-1-1V2a1 1 0 0 1 1-1z"/>
    <path fill="#0d2c56" d="M1 2h1v2H1V2zm0 3h1v2H1V5zm0 3h1v2H1V8zm0 3h1v2H1v-2zm0 3h1v2H1v-2zm0 3h1v2H1v-2zm0 3h1v2H1v-2zM2 1h2v1H2V1zm3 0h2v1H5V1zm3 0h2v1H8V1zm3 0h2v1h-2V1zm3 0h2v1h-2V1zm3 0h2v1h-2V1zm3 0h2v1h-2V1zm2 1h1v2h-1V2zm0 3h1v2h-1V5zm0 3h1v2h-1V8zm0 3h1v2h-1v-2zm0 3h1v2h-1v-2zm0 3h1v2h-1v-2zm0 3h1v2h-1v-2zm-2 2h2v1h-2v-1zm-2.9 0h2v1h-2v-1zM14 22h2v1h-2v-1zm-3 0h2v1h-2v-1zm-3 0h2v1H8v-1zm-3 0h2v1H5v-1zm-3 0h2v1H2v-1z"/>
    <path fill="#b31b34" d="M4 13h7v7H4v-7z"/>
    <path fill="#ffc61e" d="M13 13h7v7h-7v-7zm0-9h7v7h-7V4z"/>
    <path fill="#2197db" d="M4 4h7v7H4V4z"/>
  </svg>
  <svg width="24" height="24" x="360" y="160" viewBox="0 0 24 24">
    <path fill="#ffc61e" d="m12.7 1.4 10.2 20.4a1 1 0 0 1 0 .8c-.1.3-.4.4-.6.4H1.8c-.3 0-.5-.1-.6-.4a1 1 0 0 1 0-.8L11.4 1.4c.2-.2.4-.4.6-.4l.7.4z"/>
    <path fill="#0d2c56" d="M12.8 17h-1.6L11 9h2zm-.3 1.7c.3.2.5.6.5 1l-.1.7c-.2.4-.5.6-.9.6a.8.8 0 0 1-.5-.2c-.3-.2-.5-.6-.5-1l.1-.7c.2-.4.5-.6.9-.6.2 0 .4 0 .5.2z"/>
  </svg>
  <svg width="24" height="24" x="400" y="160" viewBox="0 0 24 24">
    <path fill="#1bb39a" d="M17.6 2.4a11.2 11.2 0 0 1 4 15.2 11.1 11.1 0 0 1-15.2 4 11.2 11.2 0 0 1-4-15.2 11.1 11.1 0 0 1 15.2-4z"/>
    <path fill="#0d2c56" d="M12 0a12 12 0 1 0 0 24 12 12 0 0 0 0-24zM8 2v1L4.5 7H3c1.2-2 2.7-4.1 5-5zm4 13-5.4 6-.6-.4V16l-3-2v-4c0-.5.3-1 1-1h2s2.3 3.3 6 4zm9-3.5c-.3-1.2-.6-1.4-2.3-2a3.7 3.7 0 0 1-1.5-.8c-1.4-1.5-1.7-4 0-5.4l.3-.2a10.5 10.5 0 0 1 5 8.9c0 2-.8 4.4-1.8 6 .4-2.5.6-5.2.4-6.5z"/>
  </svg>
  <svg width="24" height="24" x="440" y="160" viewBox="0 0 24 24">
    <path fill="#b31b34" d="M18 1.6a12 12 0 0 1 4.4 16.5 12 12 0 0 1-16.5 4.3A12 12 0 0 1 1.7 5.9a12 12 0 0 1 16.5-4.3H18z"/>
    <path fill="#fff" d="M13 14h-2l-1-8h3.9zm-.3 2.2a1.5 1.5 0 0 1 .6 2 1.5 1.5 0 0 1-2 .6 1.5 1.5 0 0 1-.6-2 1.5 1.5 0 0 1 2-.6z"/>
  </svg>
</svg>
