<svg xmlns="http://www.w3.org/2000/svg" width="752" height="80" xmlns:xlink="http://www.w3.org/1999/xlink" viewBox="0 0 752 80">
  <svg width="32" height="32" viewBox="0 0 32 32">
    <path fill="#b31b34" d="M32 16c0 8.84-7.16 16-16 16S0 24.84 0 16 7.16 0 16 0s16 7.16 16 16z"/>
    <path fill="#fff" d="M26.5 16c0 5.8-4.7 10.5-10.5 10.5S5.5 21.8 5.5 16 10.2 5.5 16 5.5 26.5 10.2 26.5 16z"/>
    <path fill="#144382" d="M18.5 11.67c1.5.88 2.5 2.5 2.5 4.33 0 .92-.25 1.8-.7 2.53l.03-.03C19.45 20 17.83 21 16 21c-.92 0-1.8-.25-2.53-.7l.03.03C12 19.45 11 17.83 11 16c0-.92.25-1.8.68-2.53v.03C12.54 12 14.15 11 16 11c.92 0 1.78.25 2.53.68h-.03z"/>
  </svg>
  <svg width="32" height="32" x="48" viewBox="0 0 32 32">
    <path fill="#b31b34" d="M14 6h16c1 0 2 1 2 2v20c0 1-1 2-2 2H2c-1 0-2-1-2-2V4c0-1 1-2 2-2h8z"/>
    <path fill="#fdf9ae" d="M3 9h26v18H3V9z"/>
  </svg>
  <svg width="32" height="32" x="96" viewBox="0 0 32 32">
    <path fill="#0d2c56" d="M29.75 20.04c.75 0 1.25-.54 1.25-1.3V13.5c0-1-.5-1.5-1.5-1.5h-19c-1 0-1.5.5-1.5 1.5V15H6V9h15.5c.92 0 1.53-.5 1.53-1.5v-5c0-1-.53-1.5-1.53-1.5h-19C1.5 1 1 1.5 1 2.5v5C1 8.5 1.5 9 2.5 9H4v19h5v1.5c0 1 .5 1.5 1.5 1.5h19c1 0 1.5-.5 1.5-1.5v-5c0-1-.5-1.5-1.5-1.5h-19c-1 0-1.5.5-1.5 1.5V26H6v-9h3v1.5c0 1 .5 1.5 1.5 1.5z"/>
    <path fill="#fff" d="M3 3h4v4H3V3zm8 11h4v4h-4v-4zm0 11h4v4h-4v-4z"/>
  </svg>
  <svg width="32" height="32" x="144" viewBox="0 0 32 32">
    <path fill="#b31b34" d="M6 11L2 21l4 11h24l-4-11 4-10-3.95-11H2z"/>
    <path fill="#fff" d="M24.75 2l2.75 8H7.75l-3-8zm-17 28L4.5 22h20l3 8z"/>
  </svg>
  <svg width="32" height="32" x="192" viewBox="0 0 32 32">
    <path fill="#fff" d="M3.42 2H28v28.18H3.42V2z"/>
    <path fill="#b31b34" d="M28 4v26H8c-2 0-3-1.44-3-3s1-3 3-3h18V0H6.1C3.86 0 2 1.8 2 4v23c0 2.9 3.12 5 6 5h22.04V4z"/>
    <path fill="#0d2c56" d="M8.5 26c-1.25 0-1.5.5-1.5 1s.25 1 1.5 1H26v-2z"/>
  </svg>
  <svg width="32" height="32" x="240" viewBox="0 0 32 32">
    <path fill="#fff" d="M31 8l-9 9h-3l-2 2-1 4-8 8-7-7 8-8 4-1 2-2 1-4.6L24 1l7 7z"/>
    <path fill="#0d2c56" d="M10 22c.55.55 1.48.52 2.06-.06l9.88-9.88c.58-.58.6-1.5.06-2.06s-1.48-.52-2.06.06l-9.88 9.88c-.58.58-.6 1.5-.06 2.06zm4.9-.9c.15.28.22.6.22.92 0 .56-.2 1.07-.6 1.45l-5.1 5.1c-.38.4-.9.6-1.45.6s-1.06-.2-1.44-.6l-3.1-3.1c-.4-.38-.6-.9-.6-1.44s.2-1.07.6-1.45l5.1-5.1c.38-.4.9-.6 1.44-.6.33 0 .65.07.93.22l2.04-2.05c-.87-.67-1.92-1-2.97-1-1.25 0-2.5.47-3.44 1.42l-5.1 5.1c-1.9 1.9-1.9 5 0 6.9l3.1 3.1c.94.95 2.2 1.43 3.44 1.43s2.5-.48 3.45-1.42l5.1-5.1c1.75-1.75 1.9-4.52.42-6.43zM30.58 4.53l-3.1-3.1C26.5.46 25.28 0 24.02 0s-2.5.47-3.45 1.42l-5.1 5.1c-1.75 1.75-1.9 4.52-.42 6.42l2.04-2.04c-.2-.28-.3-.6-.3-.93 0-.55.2-1.06.6-1.44l5.1-5.1c.4-.4.9-.6 1.4-.6s1 .2 1.4.6l3.1 3.1c.4.38.6.9.6 1.44s-.2 1.07-.6 1.45l-5.1 5.1c-.4.4-.9.6-1.48.6-.3 0-.63-.07-.9-.22l-2 2.05c.87.66 1.92 1 2.97 1 1.25 0 2.5-.47 3.45-1.42l5.1-5.1c1.9-1.9 1.9-5 0-6.9z"/>
  </svg>
  <svg width="32" height="32" x="288" viewBox="0 0 32 32">
    <path fill="#0d2c56" d="M6.3 5.64c-1.98 4-1.8 9.02-1.3 13.3l-3.57 3c-.5.6-1.44 1-1.43 1.87l1.87 6.6c.26.6.36 1.5 1.13 1.6h1c.5 0 .9-.7 1-1l2-5h8l2 5c.14.3.5 1 1 1h1c.35 0 .65-.1.83-.4l1.73-6.1c.12-.7.72-1.6.28-2.3L17 19c.23-2.7.54-5.9.1-8.6-.5-3.95-2.74-7.5-5.68-10.2-.16-.2-.44-.2-.65-.1C9 1.63 7.27 3.8 6.3 5.63z"/>
    <path fill="#fff" d="M12.5 5.4c.9.53 1.5 1.5 1.5 2.6 0 .55-.15 1.07-.4 1.52V9.5c-.53.9-1.5 1.5-2.6 1.5-.55 0-1.07-.15-1.52-.4h.02C8.6 10.07 8 9.1 8 8c0-.55.15-1.07.4-1.52v.02C8.93 5.6 9.9 5 11 5c.55 0 1.07.15 1.52.4h-.02z"/>
    <path fill="#7f8691" d="M18 7.98l2 2 4-4 2 2s-1 1 1 3l5 4.97V9.97l-2-2c-2-2-3-1-3-1L25 5l5-5h-6l-7 6.98z"/>
  </svg>
  <svg width="32" height="32" x="336" viewBox="0 0 32 32">
    <path fill="#fff" d="M10.33 28.67H22l-6-15.34z"/>
    <path fill="#7f8691" d="M10 2c-3.44 6-3.44 10 0 16-1.67-1.14-5-3.43-5-8s3.33-6.86 5-8z"/>
    <path fill="#7f8691" d="M7 0C.87 8 .87 12 7 20c-2.33-1-7-5-7-10S4.67 1 7 0z"/>
    <path fill="#0d2c56" d="M14 13L8 32h2.67l.58-2h9.5l.58 2H24l-6-19zm2 1.67L17.64 20h-3.28zM13.75 22h4.5l.62 2h-5.74zm-1.25 4h7l.6 2h-8.2z"/>
    <path fill="#b31b34" d="M18.5 5.67C20 6.55 21 8.17 21 10c0 .92-.25 1.8-.7 2.53l.03-.03C19.45 14 17.83 15 16 15c-.92 0-1.8-.25-2.53-.7l.03.03C12 13.45 11 11.83 11 10c0-.92.25-1.8.68-2.53v.03C12.54 6 14.15 5 16 5c.92 0 1.78.25 2.53.68h-.03z"/>
    <path fill="#7f8691" d="M22 18c3.44-6 3.44-10 0-16 1.67 1.14 5 3.43 5 8s-3.33 6.86-5 8z"/>
    <path fill="#7f8691" d="M25 20c6.13-8 6.13-12 0-20 2.33 1 7 5 7 10s-4.67 9-7 10z"/>
  </svg>
  <svg width="32" height="32" x="384" viewBox="0 0 32 32">
    <path fill="#0d2c56" d="M30.5 15c2 0 2-2 0-2H28v-1.88h2.5c2 .03 2-2.12 0-2.12H28V5l-1-1h-4V1.5c0-2-2-2-2 0V4h-2V1.5c0-2-2-2-2 0V4h-2V1.5c0-2-2-2-2 0V4h-2V1.5c0-2-2-2-1.98 0V4H5L4 5v4H1.5c-2 0-2 2 0 2H4v2H1.5c-2 0-2 2.1 0 2.1H4V17H1.5c-2 0-2 2.13 0 2.13H4V21H1.5c-2 0-2 2 0 2l2.5.1V27l1 1h4v2.5c0 2 2 2 2 0V28h2v2.5c0 2 2 2 2 0V28h2v2.5c0 2 2 2 2 0V28h2v2.5c0 2 2 2 2 0V28h4l1-1v-4h2.5c2 0 2-1.93 0-2H28v-1.9h2.5c2 .03 2-2.1 0-2.1H28v-2z"/>
    <path fill="#fff" d="M10 10h12v12H10V10z"/>
    <path fill="#b31b34" d="M12 12h8v8h-8v-8z"/>
  </svg>
  <svg width="32" height="32" x="432" viewBox="0 0 32 32">
    <path fill="#fff" d="M2.63 3.4h26.94v25.3H2.64V3.4z"/>
    <path fill="#0d2c56" d="M32 6.65c0-.88-.3-1.87-1.8-3.13-.9-.75-2.1-1.4-3.62-1.94C23.73.56 19.98 0 16 0S8.3.56 5.46 1.58c-1.5.54-2.73 1.2-3.62 1.94C.34 4.78.08 5.77.08 6.65v18.63c0 .9.26 1.88 1.75 3.14.9.75 2.1 1.4 3.62 1.94 2.85 1.02 6.63 1.58 10.6 1.58s7.67-.56 10.53-1.58c1.5-.54 2.72-1.2 3.6-1.94 1.5-1.26 1.82-2.25 1.82-3.14zM7.24 5.18c2.4-.76 5.5-1.2 8.77-1.2s6.4.43 8.8 1.2c2.4.76 3.1 1.23 3.3 1.47-.1.25-.9 1.4-3.2 2.14-2.3.7-5.5 1.1-8.7 1.1s-6.4-.4-8.8-1.2C5 8 4.3 6.8 4.18 6.6c.12-.24.85-.7 3.17-1.47zm17.54 21.57c-2.38.77-5.5 1.2-8.77 1.2s-6.3-.43-8.7-1.2c-2.3-.75-3-1.23-3.2-1.47v-5.66c.5.2.9.57 1.4.76 2.9 1 6.6 1.57 10.6 1.57s7.8-.56 10.6-1.57c.5-.18 1-.55 1.5-.75v5.65c-.1.24-.9.72-3.22 1.47zm0-8.98c-2.38.77-5.5 1.2-8.77 1.2s-6.3-.43-8.7-1.2c-2.3-.75-3.1-1.56-3.2-1.8l.1-5.33c.5.2.9.57 1.4.75 2.9 1 6.6 1.5 10.6 1.5s7.7-.6 10.6-1.6c.5-.2 1-.6 1.4-.8v5.3c-.1.2-.83 1-3.2 1.8z"/>
  </svg>
  <svg width="32" height="32" x="480" viewBox="0 0 32 32">
    <path fill="#fff" d="M4 7.25h24V11H4V7.25z"/>
    <path fill="#0d2c56" d="M4 10h24v16c0 1-1 2-2 2H6c-1 0-2-1-2-2z"/>
    <path fill="#b31b34" d="M2 6c0-1 1-2 2-2h24c1 0 2 1 2 2v2H2z"/>
    <path fill="#fff" d="M11.97 13.03h8.06c.54 0 .97.43.97.97v1.1c0 .55-.43 1-.97 1h-8.06c-.53-.02-.97-.45-.97-1V14c0-.54.44-.97.97-.97z"/>
  </svg>
  <svg width="32" height="32" x="528" viewBox="0 0 32 32">
    <path fill="#fff" d="M4 19l4 11h17l3-11 2-1L16 4 2 18z"/>
    <path fill="#b31b34" d="M2 13v5L16 7l14 11v-5L16 2z"/>
    <path fill="#0d2c56" d="M4 29c0 .5.5 1 1 1h7v-8h8v8h7c.5 0 1-.5 1-1V19l-12-9-12 9z"/>
  </svg>
  <svg width="32" height="32" x="576" viewBox="0 0 32 32">
    <path fill="#b31b34" d="M18.5 19.75l1.6 1.68c-.33.67-.17 1.47.93 2.53l4.93 5c1.43 1.4 2.63 1.13 3.4.33.74-.8 1.1-1.9-.35-3.4L24 21c-1.03-1.06-1.86-1.2-2.57-.9l-1.6-1.68z"/>
    <path fill="#0d2c56" d="M17.76 3.4C20.9 5.27 23 8.65 23 12.5c0 1.94-.52 3.75-1.44 5.3l.03-.04C19.7 20.9 16.3 23 12.5 23c-1.94 0-3.75-.52-5.3-1.44l.04.03C4.1 19.7 2 16.3 2 12.5c0-1.94.52-3.75 1.44-5.3l-.03.04C5.3 4.1 8.7 2 12.5 2c1.93 0 3.75.52 5.3 1.44l-.05-.03z"/>
    <path fill="#fff" d="M16.26 6C18.5 7.34 20 9.75 20 12.5c0 1.38-.37 2.68-1.03 3.8l.02-.04C17.6 18.5 15.2 20 12.5 20c-1.38 0-2.68-.37-3.8-1.03l.04.02C6.5 17.6 5 15.2 5 12.5c0-1.38.37-2.68 1.03-3.8L6 8.75C7.34 6.5 9.75 5 12.5 5c1.38 0 2.68.37 3.8 1.03L16.24 6z"/>
  </svg>
  <svg width="32" height="32" x="624" viewBox="0 0 32 32">
    <path fill="#fff" d="M3 9h26l-.4 19-1.6 2.52H5L3.4 28z"/>
    <path fill="#0d2c56" d="M28 4h-3v1c0 1.5-1 2-2 2s-2-.5-2-2V4H11v1c0 1.5-1.22 2-2.06 2C8.1 7 7 6.5 7 5V4H4C3 4 2 5 2 6v21c0 1 1 2 2 2h24c1 0 2-1 2-2V6c0-1.1-1-2-2-2zm0 23H4V9h24zM9 6c.7 0 1-.33 1-1V1c0-.5-.3-1-1-1S8 .5 8 1v4c0 .67.3 1 1 1zm14 0c.7 0 1-.33 1-1V1c0-.67-.32-1-1.02-1S22 .33 22 1v4c0 .5.3 1 1 1zm4 24H5c-1 0-1-1-2-2 0 1 .5 4 2 4h21.88c1 0 2.12-2 2.12-4-1 1-1 2-2 2z"/>
    <path fill="#b31b34" d="M8 11v2h7v4H8v2h7v4H8v2h9V11zm11.97 0l.03 2h2v12h2V11z"/>
  </svg>
  <svg width="32" height="32" x="672" viewBox="0 0 32 32">
    <path fill="#0d2c56" d="M2.18 3h27.64c1.2 0 2.18.98 2.18 2.18v18.64c0 1.2-.98 2.18-2.18 2.18H2.18C.98 26 0 25.02 0 23.82V5.18C0 3.98.98 3 2.18 3z"/>
    <path fill="#fff" d="M2 5h28v18H2V5z"/>
    <path fill="#b31b34" d="M17 18v-2c1.57-.66 2-2.5 2-3v-2c0-1.6-.6-3-3-3-2.42 0-3 1.38-3 3v2c0 .5.43 2.34 2 3v2c-5 0-6 1.93-6 4.07h14c0-2.14-1-4.07-6-4.07z"/>
    <path fill="#0d2c56" d="M14 25v2c0 1.2-1 2-4 2v1h12v-1c-3 0-4-.8-4-2v-1.78z"/>
  </svg>
  <svg width="32" height="32" x="720" viewBox="0 0 32 32">
    <path fill="#0d2c56" d="M31.4 14.57L17.43.6c-.8-.8-2.1-.8-2.92 0L.6 14.5c-.8.82-.8 2.12 0 2.92L14.58 31.4c.8.8 2.1.8 2.9 0L31.4 17.5c.8-.8.8-2.12 0-2.92z"/>
    <path fill="#fff" d="M11.26 3.85L13.7 6.3c.4-.2.84-.3 1.3-.3 1.66 0 3 1.34 3 3 0 .46-.1.9-.3 1.3l4 4c.4-.2.84-.3 1.3-.3 1.66 0 3 1.34 3 3s-1.34 3-3 3-3-1.34-3-3c0-.46.1-.9.3-1.3l-4-4c-.1.05-.2.1-.3.13v8.34c1.17.4 2 1.52 2 2.83 0 1.66-1.34 3-3 3s-3-1.34-3-3c0-1.3.83-2.42 2-2.83v-8.34c-1.17-.4-2-1.52-2-2.83 0-.46.1-.9.3-1.3L9.84 5.27z"/>
  </svg>
  <svg width="32" height="32" y="48" viewBox="0 0 32 32">
    <path fill="#0d2c56" d="M15 2.25L1 8c-.75.25-1 .5-1 1v14.5c0 .67.25 1.25 1 1.5l14 5.75c.75.25 1.25.25 2 0L31 25c.75-.25 1-.75 1-1.5V9c0-.5-.25-.75-.98-1.04L17 2.26c-.75-.26-1.25-.26-2 0z"/>
    <path fill="#fff" d="M3 10v13l11.5 4.5v-13zm14.5 4.5v13L29 23V9.96zm-11.75-6L16 4.5l10.25 4-10.25 4z"/>
    <path fill="#b31b34" d="M11 12l15.2-6L22 4.3 7 10.24v5L11 17z"/>
  </svg>
  <svg width="32" height="32" x="48" y="48" viewBox="0 0 32 32">
    <path fill="#fff" d="M12 3v19l-4 4h11L17.77 7l-.17-2.34L12 3z"/>
    <path fill="#b31b34" d="M12.44 0C7.1 0 7.1 4.03 7.1 9c0 3.1 1.6 6.2 3.57 7.43v1.65C4.64 18.64 0 21.98 0 26h8.82c2-1.7 4.6-2.72 7.17-3.15-1.3-1.27-2.2-2.8-2.7-4.48-.7-2.92-.7-6-.1-8.94.2-2.35 2.1-4.18 4.3-4.76C17.2 1.9 16.1 0 12.4 0z"/>
    <path fill="#0d2c56" d="M21.33 24.08v-1.65C23.3 21.2 24.9 18.1 24.9 15c0-4.97 0-9-5.34-9s-5.34 4.03-5.34 9c0 3.1 1.6 6.2 3.56 7.43v1.65C11.75 24.64 7.1 27.98 7.1 32H32c0-4.03-4.64-7.36-10.67-7.92z"/>
  </svg>
  <svg width="32" height="32" x="96" y="48" viewBox="0 0 32 32">
    <path fill="#0d2c56" d="M28.77 2.02c-2.02 0-4.06.28-6 .9C18.7 4.4 15.64 7.7 13 11H8.25c-.75.1-1.66-.25-2.25.35l-3.32 5.82c-.2.55-.95 1.12-.5 1.7.53.4.9 1.3 1.66 1.1C5.6 19.04 7.28 18 9 17l6 6-2.3 4.05c-.24.6-1.04 1.2-.46 1.8.5.4.82 1.34 1.57 1.1l5.4-3.1c.7-.46 1.6-.62 1.8-1.44v-6.2c2.1-1.7 4.1-3.5 5.7-5.7 2.4-3.1 3.4-7 3.3-10.9 0-.2-.1-.4-.3-.5h-.8z"/>
    <path fill="#b31b34" d="M8 20l4 4-10 6.02z"/>
    <path fill="#fff" d="M25.75 5.34C26.5 5.78 27 6.58 27 7.5c0 .46-.13.9-.34 1.26-.44.74-1.24 1.24-2.16 1.24-.46 0-.9-.13-1.26-.34C22.5 9.22 22 8.42 22 7.5c0-.46.13-.9.34-1.26C22.78 5.5 23.58 5 24.5 5c.46 0 .9.13 1.26.34z"/>
  </svg>
  <svg width="32" height="32" x="144" y="48" viewBox="0 0 32 32">
    <path fill="#b31b34" d="M23 3.88c4.22 2.47 7 6.97 7 12.12 0 2.58-.7 5-1.92 7.08C25.65 27.22 21.15 30 16 30c-2.58 0-5-.7-7.08-1.92C4.78 25.65 2 21.15 2 16c0-2.58.7-5 1.92-7.08C6.35 4.78 10.85 2 16 2c2.58 0 5 .7 7.07 1.92z"/>
  </svg>
  <svg width="32" height="32" x="192" y="48" viewBox="0 0 32 32">
    <path d="M4 2h26v26H4V2z"/>
    <path fill="#fff" d="M6 4h22v22H6V4z"/>
    <path d="M13 6v3h8L8 22l2 2 13-13v8h3V6z"/>
  </svg>
  <svg width="32" height="32" x="240" y="48" viewBox="0 0 32 32">
    <path fill="#fff" d="M23.03 3.88c4.12 2.47 6.85 6.97 6.85 12.12 0 2.58-.68 5-1.88 7.08C25.62 27.2 21.2 30 16.15 30c-2.53 0-4.9-.7-6.94-1.92-4-2.43-6.7-6.93-6.7-12.08 0-2.58.7-5 1.9-7.08C6.7 4.78 11.1 2 16.2 2c2.52 0 4.9.7 6.93 1.92z"/>
    <path fill="#b31b34" d="M15.96 2C10.6 2 6.18 5.03 3.88 9.56L1 8.26l.03 11.28 9.35-7.07-2.73-1.23C9.3 8.16 12.25 6 15.95 6 21.35 6 26 10.53 26 16s-4.65 10-10.04 10c-3.37 0-6.1-1.85-7.85-4.48l-3 2.83C7.6 27.77 11.5 30 16 30c7.6 0 14-6.26 14-14S23.6 2 15.96 2zM16 9c-.54 0-1 .45-1 1l.04 5.93c0 .13.04.48.12.7.1.24.3.56.4.65l3.65 3.53c.4.4 1 .5 1.4.1.4-.3.4-1 0-1.3L17 16v-6c0-.55-.46-1-1-1z"/>
  </svg>
  <svg width="32" height="32" x="288" y="48" viewBox="0 0 32 32">
    <path d="M11 2C7.68 2 5 4.68 5 8v6H2v11c0 2.77 2.23 5 5 5h10c2.77 0 5-2.23 5-5V14h-3V8c0-3.32-2.68-6-6-6h-2zm0 3h2c1.66 0 3 1.34 3 3v6H8V8c0-1.66 1.34-3 3-3z"/>
    <path fill="#fff" d="M11.86 17c-1.05.05-1.95.64-2.45 1.48-.2.45-.4.97-.4 1.52 0 1.1.6 2.07 1.5 2.6l.5.22V26c0 .55.5 1 1 1s1-.45 1-1v-3.17c.7-.25 1.3-.72 1.6-1.3.3-.46.4-.98.4-1.53 0-1.1-.6-2.07-1.4-2.6-.4-.25-.9-.4-1.5-.4H12z"/>
  </svg>
  <svg width="32" height="32" x="336" y="48" viewBox="0 0 32 32">
    <path d="M22 2c-3.32 0-6 2.68-6 6v6H2v11c0 2.77 2.23 5 5 5h10c2.77 0 5-2.23 5-5V14h-3V8c0-1.66 1.34-3 3-3h2c1.66 0 3 1.34 3 3v6h3V8c0-3.32-2.68-6-6-6h-2z"/>
    <path fill="#fff" d="M11.86 17c-1.05.05-1.95.64-2.45 1.48-.2.45-.4.97-.4 1.52 0 1.1.6 2.07 1.5 2.6l.5.22V26c0 .55.5 1 1 1s1-.45 1-1v-3.17c.7-.25 1.3-.72 1.6-1.3.3-.46.4-.98.4-1.53 0-1.1-.6-2.07-1.4-2.6-.4-.25-.9-.4-1.5-.4H12z"/>
  </svg>
  <svg width="32" height="32" x="384" y="48" viewBox="0 0 32 32">
    <path d="M22 2c-3.32 0-6 2.68-6 6v6H2v11c0 2.77 2.23 5 5 5h10c2.77 0 5-2.23 5-5V14h-3V8c0-1.66 1.34-3 3-3h2c1.66 0 3 1.34 3 3v6h3V8c0-3.32-2.68-6-6-6h-2z"/>
    <path fill="#fff" d="M4.46 16h15.1c.24 0 .44.2.44.46v1.08c0 .26-.2.46-.46.46H4.47c-.26 0-.46-.2-.46-.46v-1.1c0-.24.2-.44.5-.44zm0 4h15.1c.24 0 .44.2.44.46v1.08c0 .26-.2.46-.46.46H4.47c-.26 0-.46-.2-.46-.46v-1.1c0-.24.2-.44.5-.44zm0 4h15.1c.24 0 .44.2.44.46v1.08c0 .26-.2.46-.46.46H4.47c-.26 0-.46-.2-.46-.46v-1.1c0-.24.2-.44.5-.44z"/>
  </svg>
</svg>