<svg xmlns="http://www.w3.org/2000/svg" width="496" height="144" viewBox="0 0 496 144">
  <svg width="16" height="16" viewBox="0 0 16 16">
    <path fill="#b31b34" d="M15.5 8a7.5 7.5 0 1 1-15 0 7.5 7.5 0 0 1 15 0z"/>
    <path fill="#fff" d="M13 8A5 5 0 1 1 3 8a5 5 0 0 1 10 0z"/>
    <path fill="#0d2c56" d="M9.3 5.8a2.5 2.5 0 0 1 .9 3.5 2.5 2.5 0 0 1-3.5.9 2.5 2.5 0 0 1-.9-3.5 2.5 2.5 0 0 1 3.5-.9z"/>
  </svg>
  <svg width="16" height="16" x="32" viewBox="0 0 16 16">
    <path fill="#fff" d="M12.2 1A7.5 7.5 0 0 1 16 7.5a7.4 7.4 0 0 1-1 3.8A7.7 7.7 0 0 1 8.3 15a7.7 7.7 0 0 1-3.8-1A7.5 7.5 0 0 1 1.7 3.7 7.7 7.7 0 0 1 12.2 1z"/>
    <path fill="#b31b34" d="M8.5 0a8 8 0 0 0-7 4L0 3.5v6l4.9-4-1.4-.6a6 6 0 0 1 5-2.8c3 0 5.5 2.6 5.5 5.5a5.6 5.6 0 0 1-10.2 3.2L2.3 12c1.3 1.8 3.7 3 6.2 3 4.2 0 7.5-3.3 7.5-7.5S12.7 0 8.5 0z"/>
    <path fill="#0d2c56" d="M8 4.5v3l.1.7L10 10c.6.5 1.3 0 .7-.7L9 7.7V4.5c0-.8-1-.8-1 0z"/>
  </svg>
  <svg width="16" height="16" x="64" viewBox="0 0 16 16">
    <path fill="#b31b34" d="M14 1.5v7C9 10.5 8 6 3 9V2c5-3 6 2 11-.5z"/>
    <path fill="#a8adb4" d="M2.6 1h-.2c.3 0 .6.2.6.6v12.8a.6.6 0 0 1-.6.6h.2a.6.6 0 0 1-.6-.6V1.6c0-.4.2-.6.6-.6z"/>
  </svg>
  <svg width="16" height="16" x="96" viewBox="0 0 16 16">
    <path fill="#ffc61e" d="M14 1.5v7C9 10.5 8 6 3 9V2c5-3 6 2 11-.5z"/>
    <path fill="#a8adb4" d="M2.6 1h-.2c.3 0 .6.2.6.6v12.8a.6.6 0 0 1-.6.6h.2a.6.6 0 0 1-.6-.6V1.6c0-.4.2-.6.6-.6z"/>
  </svg>
  <svg width="16" height="16" x="128" viewBox="0 0 16 16">
    <path fill="#b31b34" d="m3 5.5-2 5L3 16h12l-2-5.5 2-5L13 0H1z"/>
    <path fill="#fff" d="m12.4 1 1.3 4H4L2.4 1zM3.9 15l-1.6-4h10l1.4 4z"/>
  </svg>
  <svg width="16" height="16" x="160" viewBox="0 0 16 16">
    <path fill="#0d2c56" d="M15.3 7c1 0 1-1 0-1H14V5h1.3c1 0 1-1 0-1H14V3l-1-1h-1V.7c0-1-1-1-1 0V2h-1V.7c0-1-1-1-1 0V2H8V.7c0-1-1-1-1 0V2H6V.7c0-1-1-1-1 0V2H4L3 3v1H1.7c-1 0-1 1 0 1H3v1H1.7c-1 0-1 1 0 1H3v1H1.7c-1 0-1 1 0 1H3v1H1.7c-1 0-1 1 0 1H3v1l1 1h1v1.3c0 1 1 1 1 0V13h1v1.3c0 1 1 1 1 0V13h1v1.3c0 1 1 1 1 0V13h1v1.3c0 1 1 1 1 0V13h1l1-1v-1h1.3c1 0 1-1 0-1H14V9h1.3c1 0 1-1 0-1H14V7z"/>
    <path fill="#fff" d="M6 5h5v5H6V5z"/>
    <path fill="#b31b34" d="M7 6h3v3H7V6z"/>
  </svg>
  <svg width="16" height="16" x="192" viewBox="0 0 16 16">
    <path fill="#fff" d="M5.2 14.3H11L8 6.7z"/>
    <path fill="#7f8691" d="M5 1C3.6 4 3.6 6 5 9c-.7-.6-2-1.7-2-4s1.3-3.4 2-4zM3 0C.4 4 .4 6 3 10c-1-.5-3-2.5-3-5S2 .5 3 0z"/>
    <path fill="#0d2c56" d="M6.8 6.6 4 16h1.3l.3-1h4.8l.3 1H12L9.2 6.6zm1.2.7.8 2.7H7.2zM6.9 11H9l.3 1H6.6zm-.7 2h3.5l.4 1H5.9z"/>
    <path fill="#b31b34" d="M9.3 2.8a2.5 2.5 0 0 1 .9 3.5 2.5 2.5 0 0 1-3.5.9 2.5 2.5 0 0 1-.9-3.5 2.5 2.5 0 0 1 3.5-.9z"/>
    <path fill="#7f8691" d="M11 9c1.4-3 1.4-5 0-8 .7.6 2 1.7 2 4s-1.3 3.4-2 4zm2 1c2.6-4 2.6-6 0-10 1 .5 3 2.5 3 5s-2 4.5-3 5z"/>
  </svg>
  <svg width="16" height="16" x="224" viewBox="0 0 16 16">
    <path fill="#0d2c56" d="M1 2h14c.5 0 1 .5 1 1v9c0 .5-.5 1-1 1H1a1 1 0 0 1-1-1V3c0-.5.5-1 1-1z"/>
    <path fill="#fff" d="M1 3h14v9H1V3z"/>
    <path fill="#b31b34" d="M8.5 9V8c.8-.3 1-1 1-1.9 0-1 0-2.1-1.5-2.1S6.5 5.1 6.5 6.1c0 .8.2 1.6 1 1.9v1C4.5 9 4 11 4 12h8c0-1-.5-3-3.5-3z"/>
    <path fill="#0d2c56" d="M7 12.5v1c0 .6-.5 1-2 1v.5h6v-.5c-1.5 0-2-.4-2-1v-.9z"/>
  </svg>
  <svg width="16" height="16" x="256" viewBox="0 0 16 16">
    <path fill="#fff" d="M1.3 1.7h13.5v12.6H1.3V1.7z"/>
    <path fill="#0d2c56" d="M16 3.3c0-.4-.2-1-.9-1.5a5 5 0 0 0-1.8-1C11.9.3 10 0 8 0S4.2.3 2.7.8c-.7.3-1.3.6-1.8 1-.7.6-.9 1-.9 1.5v9.3c0 .5.2 1 1 1.6.4.4 1 .7 1.7 1 1.4.5 3.3.8 5.3.8s3.9-.3 5.3-.8c.7-.3 1.4-.6 1.8-1 .7-.6.9-1.1.9-1.6zM3.6 2.6C4.8 2.2 6.4 2 8 2s3.2.2 4.4.6c1.2.4 1.5.6 1.6.7 0 .1-.4.7-1.6 1a15 15 0 0 1-8.8 0C2.5 4 2.1 3.5 2 3.4l1.6-.7zm8.8 10.8c-1.2.4-2.8.6-4.4.6s-3.2-.2-4.4-.6c-1.1-.4-1.5-.6-1.6-.8v-2.3l.7.4c1.5.5 3.3.8 5.3.8s3.9-.3 5.3-.8l.7-.4v2.3c0 .2-.4.4-1.6.8zm0-4.5c-1.2.4-2.8.6-4.4.6s-3.2-.2-4.4-.6C2.5 8.5 2.1 8 2 7.9V6c.3 0 .5.2.7.3C4.2 6.7 6 7 8 7s3.9-.3 5.3-.8l.7-.4V8c0 .1-.4.5-1.6.9z"/>
  </svg>
  <svg width="16" height="16" x="288" viewBox="0 0 16 16">
    <path fill="#fff" d="M1.7 1H14v14H1.7V1z"/>
    <path fill="#b31b34" d="M14 3v12H4c-1 0-1.5-.7-1.5-1.5S3 12 4 12h8V0H3a2 2 0 0 0-2 2v11.5C1 15 2.6 16 4 16h11V3z"/>
    <path fill="#0d2c56" d="M4.8 13c-.7 0-.8.3-.8.5s.1.5.8.5H12v-1z"/>
  </svg>
  <svg width="16" height="16" x="320" viewBox="0 0 16 16">
    <path fill="#fff" d="M2 9.5 6 15h4l4-5.5 1-1-7-6-7 6z"/>
    <path fill="#b31b34" d="M1 6.5V9l7-5.5L15 9V6.5L8 1.1z"/>
    <path fill="#0d2c56" d="M2 14c0 .5.5 1 1 1h3v-4h4v4h3c.5 0 1-.5 1-1V9.5L8 5 2 9.5z"/>
  </svg>
  <svg width="16" height="16" x="352" viewBox="0 0 16 16">
    <path fill="#fff" d="M1.4 4.7H14v9.7l-.4 1h-12L1.5 14z"/>
    <path fill="#0d2c56" d="M14 3h-1c0 .9-.6 1-1.5 1S10 3.9 10 3H6c0 .9-.6 1-1.5 1S3 3.9 3 3H2a1 1 0 0 0-1 1v9c0 .5.5 1 1 1h12c.5 0 1-.5 1-1V4c0-.5-.5-1-1-1zm0 10H2V5.1h12zM4.5 3.5c.4 0 .5-.2.5-.5V.5c0-.3-.1-.5-.5-.5S4 .3 4 .5V3c0 .3.1.5.5.5zm7 0c.4 0 .5-.2.5-.5V.5c0-.3-.2-.5-.5-.5s-.5.2-.5.5V3c0 .3.1.5.5.5zm2 11.5H2.2c-.5 0-.8-1-.8-1.5v.4c0 .6.4 2.1 1 2.1h11.2c.6 0 1-1.5 1-2v-.5c0 .5-.5 1.5-1.1 1.5z"/>
    <path fill="#fff" d="m6.7 9.9-.1.1.1-.1zm1.7-1.6v-.2h.3v.1l-.2.1z"/>
    <path fill="#b31b34" d="M4 6v1h3v1.5H4v1h3V11H4v1h4V6zm6 0v1h1v5h1V6z"/>
  </svg>
  <svg width="16" height="16" x="384" viewBox="0 0 16 16">
    <path fill="#0d2c56" d="M7.5 1.1.5 4c-.4.1-.5.3-.5.5v7.3c0 .3.1.6.5.7l7 2.9h1l7-2.9c.4-.1.5-.4.5-.8V4.5c0-.3-.1-.4-.5-.5l-7-3h-1z"/>
    <path fill="#fff" d="M1.5 5v6.5l5.8 2.3V7.2zm7.3 2.3v6.5l5.7-2.3V5zm-6-3 5.2-2 5.1 2-5.1 2z"/>
    <path fill="#b31b34" d="m5.5 6 7.6-3-2.1-.9-7.5 3v2.5l2 .9z"/>
  </svg>
  <svg width="16" height="16" x="416" viewBox="0 0 16 16">
    <path fill="#fff" d="M6 1.5V11l-2 2h5.5l-.6-9.5-.1-1.2L6 1.5z"/>
    <path fill="#b31b34" d="M6.2 0C3.6 0 3.6 2 3.6 4.5c0 1.5.8 3.1 1.7 3.7V9c-3 .3-5.3 2-5.3 4h4.4A7 7 0 0 1 8 11.4a5.7 5.7 0 0 1-1.3-2.2c-.4-1.5-.4-3 0-4.5 0-1.2 1-2 2.1-2.4C8.6 1 8 0 6.2 0z"/>
    <path fill="#0d2c56" d="M10.7 12v-.8c1-.6 1.7-2.2 1.7-3.7 0-2.5 0-4.5-2.6-4.5S7 5 7 7.5c0 1.5.8 3.1 1.8 3.7v.8c-3 .3-5.3 2-5.3 4H16c0-2-2.3-3.7-5.3-4z"/>
  </svg>
  <svg width="16" height="16" x="448" viewBox="0 0 16 16">
    <path fill="#b31b34" d="M9 12v-1c.9-.6 1.5-2 1.5-3.5C10.5 5 10.4 3 8 3S5.5 5 5.5 7.5c0 1.5.6 2.9 1.5 3.5v1c-2.7.3-4.5 2-4.5 4h11c0-2-1.8-3.7-4.5-4z"/>
  </svg>
  <svg width="16" height="16" x="480" viewBox="0 0 16 16">
    <path fill="#7f8691" d="M9 12v-1c.9-.6 1.5-2 1.5-3.5C10.5 5 10.4 3 8 3S5.5 5 5.5 7.5c0 1.5.6 2.9 1.5 3.5v1c-2.7.3-4.5 2-4.5 4h11c0-2-1.8-3.7-4.5-4z"/>
    <path fill="#ffc61e" d="M4.6 3h6.8c.3 0 .6.3.6.6v.8a.6.6 0 0 1-.6.6H4.6a.6.6 0 0 1-.6-.6v-.8c0-.3.3-.6.6-.6z"/>
    <path fill="#ffc61e" d="M6.6 1h2.8a.6.6 0 0 1 .6.6v1.8a.6.6 0 0 1-.6.6H6.6a.6.6 0 0 1-.6-.6V1.6a.6.6 0 0 1 .6-.6z"/>
  </svg>
  <svg width="16" height="16" y="32" viewBox="0 0 16 16">
    <path fill="#0d2c56" d="M8 3C6.3 3 5.8 4 5.6 5.5H6c.6 0 1.2 0 1.8.2h.4l1.8-.2a4 4 0 0 1 .4 0C10.2 4 9.7 3 8 3zm0 3.5C7.4 6.5 7.8 8 6.4 8c-.5 0-.8-.2-1-.5V8c0 1.6.6 2.4 1.5 3v1c-2.7.3-4.5 2-4.5 4h8.7a3.5 3.5 0 0 1-1.7-3l.1-.9A7 7 0 0 0 9 12v-1c.9-.6 1.5-1.4 1.5-3v-.5c-.2.3-.5.5-1 .5C8 8 8.5 6.5 8 6.5z"/>
    <path fill="#b31b34" d="M13.5 14.9V14a.1.1 0 0 0-.1-.1h-.8a.1.1 0 0 0-.1.1v.8l.1.1h.8l.1-.1zm1-2.7c0-.7-.8-1.2-1.4-1.2-.7 0-1.1.3-1.5.8a.1.1 0 0 0 0 .2l.6.4a.1.1 0 0 0 .1 0l.4-.4a.6.6 0 0 1 .3 0c.3 0 .5 0 .5.2s-.1.3-.3.5c-.3 0-.7.4-.7.8v.1l.1.2h.8l.1-.2.3-.4c.3-.1.7-.4.7-1zm1.5.8a3 3 0 0 1-6 0 3 3 0 0 1 6 0z"/>
  </svg>
  <svg width="16" height="16" x="32" y="32" viewBox="0 0 16 16">
    <path fill="#b31b34" d="m5.7 11.3.6-1-.7-.6-.9.6a2.5 2.5 0 0 0-.5-.2L4 9H3l-.2 1a2.4 2.4 0 0 0-.5.3l-1-.6-.6.7.6.9a2.5 2.5 0 0 0-.2.5L0 12v1l1 .2.3.5-.6 1 .7.6.9-.6.5.2L3 16h1l.2-1 .5-.3 1 .6.6-.7-.6-.9.2-.5L7 13v-1l-1-.2a2.4 2.4 0 0 0-.3-.5z"/>
    <path fill="#0d2c56" d="M16 6V5l-1-.2a4.1 4.1 0 0 0-.1-.4l.9-.5-.4-1-1 .3a4.4 4.4 0 0 0-.3-.4l.6-.8-.7-.7-.8.6a4.8 4.8 0 0 0-.4-.2l.3-1-1-.5-.5 1a4.5 4.5 0 0 0-.4-.1L11 0h-1l-.2 1-.4.1L9 .2 8 .6l.3 1a4.4 4.4 0 0 0-.4.3L7 1.3l-.7.7.6.8a4.8 4.8 0 0 0-.2.4l-1-.3-.5 1 1 .5a4.5 4.5 0 0 0-.2.4L5 5v1l1 .2.1.4-.9.5.4 1 1-.3.3.4-.6.8.7.7.8-.6a4.8 4.8 0 0 0 .4.2l-.3 1 1 .5.5-1 .4.1.2 1.1h1l.2-1 .4-.1.5.9 1-.4-.3-1 .4-.3.8.6.7-.7-.6-.8a4.8 4.8 0 0 0 .2-.4l1 .3.5-1-1-.5a4.5 4.5 0 0 0 .1-.4z"/>
    <path fill="#fff" d="M3.5 13.5a1 1 0 1 1 0-2 1 1 0 0 1 0 2zm7-5.8a2.2 2.2 0 1 1 0-4.4 2.2 2.2 0 0 1 0 4.4z"/>
  </svg>
  <svg width="16" height="16" x="64" y="32" viewBox="0 0 16 16">
    <path fill="#b31b34" d="m15.8 12.8-4-4c-.3-.3-1-.6-2 .3L3 2.1 2.5 1 .9 0 0 .9l1 1.6 1.2.5 7 6.9c-1 .8-.7 1.6-.4 1.8l4 4c.2.3 1 .6 1.8-.3l.8-.8c.8-.8.6-1.6.3-1.8z"/>
    <path fill="#fff" d="M14 14c-.3.2-.7.2-.9 0l-2.6-2.6c-.2-.3-.2-.7 0-.9s.6-.2.9 0l2.6 2.6a.6.6 0 0 1 0 .9z"/>
    <path fill="#0d2c56" d="M13.9.1 12 2l2 2 1.9-1.9A3 3 0 0 1 13 6c-.3 0-1 0-1.3-.3l-6 6.2c.3.3.3.8.3 1.1-.1 1.7-1.3 3-3 3a3 3 0 0 1-.9-.1L4 14l-2-2-1.9 1.9A3 3 0 0 1 3 10c.3 0 .8 0 1.2.3l6.1-6c-.3-.4-.3-1-.3-1.3A3 3 0 0 1 13.9.1z"/>
  </svg>
  <svg width="16" height="16" x="96" y="32" viewBox="0 0 16 16">
    <path fill="#0d2c56" d="M15.8 13 11 8.2a.8.8 0 0 0-1 0l-.4.4-3-2.9 5-4.7h-5L4.3 3.2 4 3H3v1l.2.3L0 7.5 2.5 10l3.2-3.2 2.9 2.9-.4.3a.8.8 0 0 0 0 1l4.8 4.8a.8.8 0 0 0 1 0l1.8-1.8a.8.8 0 0 0 0-1z"/>
  </svg>
  <svg width="16" height="16" x="128" y="32" viewBox="0 0 16 16">
    <path fill="#0d2c56" d="M11 0a5 5 0 0 0-5 6l-6 6v3a1 1 0 0 0 1 1h1v-1h2v-2h2v-2h2l1.3-1.3A5 5 0 1 0 11 0z"/>
    <path fill="#fff" d="M12.5 5a1.5 1.5 0 1 1 0-3 1.5 1.5 0 0 1 0 3z"/>
  </svg>
  <svg width="16" height="16" x="160" y="32" viewBox="0 0 16 16">
    <path fill="#0d2c56" d="m13 6 2-2-2-2H9V.7a.8.8 0 0 0-.8-.7h-.4a.8.8 0 0 0-.8.8V2H2v4h5v10h2V6z"/>
    <path fill="#b31b34" d="M2 7h11v3H2L.5 8.5z"/>
  </svg>
  <svg width="16" height="16" x="192" y="32" viewBox="0 0 16 16">
    <path fill="#0d2c56" d="M1.4 1h13.2c.8 0 1.4.6 1.4 1.4v10.2c0 .8-.6 1.4-1.4 1.4H1.4A1.4 1.4 0 0 1 0 12.6V2.4C0 1.6.6 1 1.4 1z"/>
    <path fill="#fff" d="M1.5 2h13c.3 0 .5.2.5.5v10a.5.5 0 0 1-.5.5h-13a.5.5 0 0 1-.5-.5v-10c0-.3.2-.5.5-.5z"/>
    <path fill="#b31b34" d="M2.4 4.6c-.2.2-.1.7.1.9l2 2-2 2c-.3.3-.4.6-.3.9.3.2.7.2 1-.2l2.5-2.4a.4.4 0 0 0 0-.6L3.2 4.8c-.2-.3-.6-.4-.8-.2zM7.5 11h5a.5.5 0 1 1 0 1h-5a.5.5 0 1 1 0-1z"/>
  </svg>
  <svg width="16" height="16" x="224" y="32" viewBox="0 0 16 16">
    <path fill="#ffc61e" d="M7 3h8.5c.3 0 .5.3.5.5v11c0 .3-.3.5-.5.5H.5c-.3 0-.5-.3-.5-.6V1.5c0-.3.3-.5.5-.5H5z"/>
    <path fill="#fdf9ae" d="M1 4h14v10H1V4z"/>
  </svg>
  <svg width="16" height="16" x="256" y="32" viewBox="0 0 16 16">
    <path fill="#ffc61e" d="M7 3h8.5c.3 0 .5.3.5.5v11c0 .3-.3.5-.5.5H.5c-.3 0-.5-.3-.5-.6V1.5c0-.3.3-.5.5-.5H5z"/>
    <path fill="#fdf9ae" d="M1 4h14v10H1V4z"/>
    <path fill="#0d2c56" d="M3.5 4c-.3 0-.5.2-.5.5v2c0 .3.3.5.6.5H4v6.5c0 .3.3.5.5.5H6v.5s0 .5.5.5h6c.3 0 .5-.2.5-.5v-2c0-.3-.2-.5-.5-.5h-6c-.5 0-.5.5-.5.5v.5H5v-3h1v.5s0 .5.5.5h6c.3 0 .5-.2.5-.5v-2c0-.3-.2-.5-.5-.5h-6c-.5 0-.5.5-.5.5V9H5V7h4.5c.3 0 .5-.2.5-.5v-2c0-.3-.2-.5-.5-.5z"/>
    <path fill="#fff" d="M3.5 4.5h2v2h-2v-2zm3 8h2v2h-2v-2zm0-4h2v2h-2v-2z"/>
  </svg>
  <svg width="16" height="16" x="288" y="32" viewBox="0 0 16 16">
    <path fill="#ffc61e" d="M7 3h8.5c.3 0 .5.3.5.5v11c0 .3-.3.5-.5.5H.5c-.3 0-.5-.3-.5-.6V1.5c0-.3.3-.5.5-.5H5z"/>
    <path fill="#fdf9ae" d="M1 4h14v10H1V4z"/>
    <path fill="#0d2c56" d="M11 12.5c0-.4.1-.5.5-.5s.6.1.6.5-.2.6-.6.6c-.4 0-.6-.2-.6-.6zM6.8 9.8l4.1 4 .6.2a.8.8 0 0 0 .5-.2l.7-.6a.7.7 0 0 0 .2-.6.7.7 0 0 0-.2-.5l-4.2-4c-.1.5-.4.8-.7 1l-1 .7zM3 7.3l.1.6a2.8 2.8 0 0 0 2.6 1.8c.8 0 1.4-.3 2-.8s.7-1.1.7-1.8-.2-1.3-.8-1.8a2.8 2.8 0 0 0-3.3-.4v.3l1.8 1v1.2l-1.2.7-.5-.3a34 34 0 0 0-.8-.5 2 2 0 0 0-.4-.2H3v.2z"/>
  </svg>
  <svg width="16" height="16" x="320" y="32" viewBox="0 0 16 16">
    <path fill="#ffc61e" d="M7 3h8.5c.3 0 .5.3.5.5v11c0 .3-.3.5-.5.5H.5c-.3 0-.5-.3-.5-.6V1.5c0-.3.3-.5.5-.5H5z"/>
    <path fill="#fdf9ae" d="M1 4h14v10H1V4z"/>
    <path fill="#2197db" d="M2.5 5h11c.3 0 .5.2.5.5v7a.5.5 0 0 1-.5.5h-11a.5.5 0 0 1-.5-.5v-7c0-.3.2-.5.5-.5z"/>
    <path fill="#fff" d="M2.5 5h11c.3 0 .5.2.5.5v7a.5.5 0 0 1-.5.5h-11a.5.5 0 0 1-.5-.5v-7c0-.3.2-.5.5-.5z" opacity=".6"/>
    <path fill="#fdf9ae" d="M5.3 6.2a1.5 1.5 0 0 1 .5 2 1.5 1.5 0 0 1-2 .6 1.5 1.5 0 0 1-.6-2 1.5 1.5 0 0 1 2-.6z"/>
    <path fill="#0d2c56" d="M2 12v.5c0 .3.3.5.5.5h11c.2 0 .5-.3.5-.5v-2L11 7l-4 4.5-2.5-2z"/>
  </svg>
  <svg width="16" height="16" x="352" y="32" viewBox="0 0 16 16">
    <path fill="#ffc61e" d="M7 3h8.5c.3 0 .5.3.5.5v11c0 .3-.3.5-.5.5H.5c-.3 0-.5-.3-.5-.6V1.5c0-.3.3-.5.5-.5H5z"/>
    <path fill="#fdf9ae" d="M1 4h14v10H1V4z"/>
    <path fill="#0d2c56" d="M3.5 4h6L13 7.5v7a.5.5 0 0 1-.5.5h-9a.5.5 0 0 1-.5-.5v-10c0-.3.2-.5.5-.5z"/>
    <path fill="#fff" d="M4 5h6l2 2v7H4z"/>
    <path fill="#0d2c56" d="M9.5 4v3.5H13z"/>
    <path fill="#fff" d="M3.5 4h6L13 7.5v7a.5.5 0 0 1-.5.5h-9a.5.5 0 0 1-.5-.5v-10c0-.3.2-.5.5-.5z" opacity=".4"/>
  </svg>
  <svg width="16" height="16" x="384" y="32" viewBox="0 0 16 16">
    <path fill="#ffc61e" d="M7 3h8.5c.3 0 .5.3.5.5v11c0 .3-.3.5-.5.5H.5c-.3 0-.5-.3-.5-.6V1.5c0-.3.3-.5.5-.5H5z"/>
    <path fill="#fdf9ae" d="M1 4h14v10H1V4z"/>
    <path fill="#0d2c56" d="m9 11.8 1 1.2 3.5-4L10 5 9 6.2 11.3 9zM7 6.2 6 5 2.5 9 6 13l1-1.2L4.7 9z"/>
  </svg>
  <svg width="16" height="16" x="416" y="32" viewBox="0 0 16 16">
    <path fill="#ffc61e" d="M7 3h8.5c.3 0 .5.3.5.5v11c0 .3-.3.5-.5.5H.5c-.3 0-.5-.3-.5-.6V1.5c0-.3.3-.5.5-.5H5z"/>
    <path fill="#fdf9ae" d="M1 4h14v10H1V4z"/>
    <path fill="#0d2c56" d="M2.8 4h10.4c.5 0 .8.3.8.8v8.4a.8.8 0 0 1-.8.8H2.8a.8.8 0 0 1-.8-.8V4.8c0-.5.3-.8.8-.8z"/>
    <path fill="#fff" d="M3 5h4.5v2H3V5zm5.5 0H13v2H8.5V5zm0 3H13v2H8.5V8zM3 8h4.5v2H3V8zm5.5 3H13v2H8.5v-2zM3 11h4.5v2H3v-2z"/>
  </svg>
  <svg width="16" height="16" x="448" y="32" viewBox="0 0 16 16">
    <path fill="#ffc61e" d="M7 3h8.5c.3 0 .5.3.5.5v11c0 .3-.3.5-.5.5H.5c-.3 0-.5-.3-.5-.6V1.5c0-.3.3-.5.5-.5H5z"/>
    <path fill="#fdf9ae" d="M1 4h14v10H1V4z"/>
    <path fill="#fff" d="M5 5h5a2 2 0 0 1 2 2v5a2 2 0 0 1-2 2H5a2 2 0 0 1-2-2V7c0-1.1.9-2 2-2z"/>
    <path fill="#0d2c56" d="M12 10.2v2c0 .5-.1.9-.5 1.3s-.8.5-1.3.5H4.8c-.5 0-.9-.2-1.3-.5s-.5-.8-.5-1.3V6.8c0-.5.2-1 .5-1.3S4.3 5 4.8 5h4l.1.2v.5c0 .1-.1 0-.2 0H4.8l-.7.4a1 1 0 0 0-.3.7v5.4c0 .2.1.5.3.7s.5.3.7.3h5.4c.3 0 .5-.1.7-.3s.3-.5.3-.7V10c0-.1.2 0 .2 0h.6v.1zm2-5.6v3.2l-.1.3-.3.2a.4.4 0 0 1-.3-.2L12.2 7 8 11.2a.2.2 0 0 1-.3 0l-.7-.7a.2.2 0 0 1 0-.3L11 6l-1-1.2c-.2 0-.2-.1-.2-.2l.1-.3a.4.4 0 0 1 .3-.2h3.3c.1 0 .2 0 .3.2l.1.3z"/>
  </svg>
  <svg width="16" height="16" x="480" y="32" viewBox="0 0 16 16">
    <path fill="#2197db" d="M7 3h8.5c.3 0 .5.3.5.5v11c0 .3-.3.5-.5.5H.5c-.3 0-.5-.3-.5-.6V1.5c0-.3.3-.5.5-.5H5z"/>
    <path fill="#fff" d="M1 4h14v10H1V4z" opacity=".6"/>
  </svg>
  <svg width="16" height="16" y="64" viewBox="0 0 16 16">
    <path fill="#b31b34" d="M7 3h8.5c.3 0 .5.3.5.5v11c0 .3-.3.5-.5.5H.5c-.3 0-.5-.3-.5-.6V1.5c0-.3.3-.5.5-.5H5z"/>
    <path fill="#fdf9ae" d="M1 4h14v10H1V4z" opacity=".6"/>
  </svg>
  <svg width="16" height="16" x="32" y="64" viewBox="0 0 16 16">
    <path fill="#0d2c56" d="M1.7 0h12.6c.4 0 .7.3.7.7v14.6a.7.7 0 0 1-.7.7H1.7a.7.7 0 0 1-.7-.7V.7c0-.4.3-.7.7-.7z"/>
    <path fill="#fff" d="M2 1h12v14H2V1z"/>
    <path fill="#fff" d="M1.7 0h12.6c.4 0 .7.3.7.7v14.6a.7.7 0 0 1-.7.7H1.7a.7.7 0 0 1-.7-.7V.7c0-.4.3-.7.7-.7z" opacity=".4"/>
    <path fill="#a8adb4" d="M4.3 12h7.4c.2 0 .3.1.3.3v.4a.3.3 0 0 1-.3.3H4.3a.3.3 0 0 1-.3-.3v-.4c0-.2.1-.3.3-.3zm0-2h7.4c.2 0 .3.1.3.3v.4a.3.3 0 0 1-.3.3H4.3a.3.3 0 0 1-.3-.3v-.4c0-.2.1-.3.3-.3zm0-2h7.4c.2 0 .3.1.3.3v.4a.3.3 0 0 1-.3.3H4.3a.3.3 0 0 1-.3-.3v-.4c0-.2.1-.3.3-.3zm0-2h7.4c.2 0 .3.1.3.3v.4a.3.3 0 0 1-.3.3H4.3a.3.3 0 0 1-.3-.3v-.4c0-.2.1-.3.3-.3zm0-2h7.4c.2 0 .3.1.3.3v.4a.3.3 0 0 1-.3.3H4.3a.3.3 0 0 1-.3-.3v-.4c0-.2.1-.3.3-.3z"/>
  </svg>
  <svg width="16" height="16" x="64" y="64" viewBox="0 0 16 16">
    <path fill="#0d2c56" d="M1.7 0h12.6c.4 0 .7.3.7.7v14.6a.7.7 0 0 1-.7.7H1.7a.7.7 0 0 1-.7-.7V.7c0-.4.3-.7.7-.7z"/>
    <path fill="#fff" d="M2 1h12v14H2V1z"/>
    <path fill="#fff" d="M1.7 0h12.6c.4 0 .7.3.7.7v14.6a.7.7 0 0 1-.7.7H1.7a.7.7 0 0 1-.7-.7V.7c0-.4.3-.7.7-.7z" opacity=".4"/>
    <path fill="#b31b34" d="M3 11h10v3H3v-3z"/>
    <path fill="#2197db" d="M3 2h10v3H3V2z"/>
    <path fill="#b31b34" d="M9 6h4v4H9V6z"/>
    <path fill="#2197db" d="M3 6h4v4H3V6z"/>
  </svg>
  <svg width="16" height="16" x="96" y="64" viewBox="0 0 16 16">
    <path fill="#0d2c56" d="M1.7 0h12.6c.4 0 .7.3.7.7v14.6a.7.7 0 0 1-.7.7H1.7a.7.7 0 0 1-.7-.7V.7c0-.4.3-.7.7-.7z"/>
    <path fill="#fff" d="M2 1h12v14H2V1z"/>
    <path fill="#fff" d="M1.7 0h12.6c.4 0 .7.3.7.7v14.6a.7.7 0 0 1-.7.7H1.7a.7.7 0 0 1-.7-.7V.7c0-.4.3-.7.7-.7z" opacity=".4"/>
    <path fill="#b31b34" d="M3 11h10v3H3v-3z"/>
    <path fill="#a8adb4" d="M3 2h10v3H3V2z"/>
    <path fill="#b31b34" d="M9 6h4v4H9V6z"/>
    <path fill="#a8adb4" d="M3 6h4v4H3V6z"/>
  </svg>
  <svg width="16" height="16" x="128" y="64" viewBox="0 0 16 16">
    <path fill="#b31b34" d="M1.7 0h12.6c.4 0 .7.3.7.7v14.6a.7.7 0 0 1-.7.7H1.7a.7.7 0 0 1-.7-.7V.7c0-.4.3-.7.7-.7z"/>
    <path fill="#fff" d="M2 1h12v14H2V1z"/>
    <path fill="#fff" d="M1.7 0h12.6c.4 0 .7.3.7.7v14.6a.7.7 0 0 1-.7.7H1.7a.7.7 0 0 1-.7-.7V.7c0-.4.3-.7.7-.7z" opacity=".4"/>
    <path fill="#b31b34" d="M2 1h12v14H2V1z" opacity=".1"/>
    <path fill="#b31b34" d="M3 11h10v3H3v-3z"/>
    <path fill="#2197db" d="M3 2h10v3H3V2z"/>
    <path fill="#b31b34" d="M9 6h4v4H9V6z"/>
    <path fill="#2197db" d="M3 6h4v4H3V6z"/>
  </svg>
  <svg width="16" height="16" x="160" y="64" viewBox="0 0 16 16">
    <path fill="#0d2c56" d="M1.7 0h12.6c.4 0 .7.3.7.7v14.6a.7.7 0 0 1-.7.7H1.7a.7.7 0 0 1-.7-.7V.7c0-.4.3-.7.7-.7z"/>
    <path fill="#fff" d="M2 1h12v14H2V1z"/>
    <path fill="#fff" d="M1.7 0h12.6c.4 0 .7.3.7.7v14.6a.7.7 0 0 1-.7.7H1.7a.7.7 0 0 1-.7-.7V.7c0-.4.3-.7.7-.7z" opacity=".4"/>
    <path fill="#0d2c56" d="m9.4 14 2.2-1c-.7-1.5-.4-2.6 1.4-2.6V7.6c-1.8 0-2.4-1.1-1.4-2.5L9.4 4c-.7 1.8-2.1 1.8-2.8 0L4.4 5c.7 1.5.4 2.6-1.4 2.6v2.8c1.8 0 2.1 1.1 1.4 2.5L6.6 14c.7-1.8 2.1-1.8 2.8 0zM6 9c0-1.3 1-2.1 2.1-2.1s2.1.8 2.1 2.1A2 2 0 0 1 8 11.1c-1 0-2.1-.8-2.1-2.1z"/>
  </svg>
  <svg width="16" height="16" x="192" y="64" viewBox="0 0 16 16">
    <path fill="#0d2c56" d="M1.7 0h12.6c.4 0 .7.3.7.7v14.6a.7.7 0 0 1-.7.7H1.7a.7.7 0 0 1-.7-.7V.7c0-.4.3-.7.7-.7z"/>
    <path fill="#fff" d="M2 1h12v14H2V1z"/>
    <path fill="#fff" d="M1.7 0h12.6c.4 0 .7.3.7.7v14.6a.7.7 0 0 1-.7.7H1.7a.7.7 0 0 1-.7-.7V.7c0-.4.3-.7.7-.7z" opacity=".4"/>
    <path fill="#0d2c56" d="M0 7.5v3c0 .3.3.5.5.5H4v3l5-5-5-5v3H.5c-.3 0-.5.3-.5.5z"/>
    <path fill="#2197db" d="M1 8v2h4v1.7L7.6 9 5 6.4V8z"/>
  </svg>
  <svg width="16" height="16" x="224" y="64" viewBox="0 0 16 16">
    <path fill="#0d2c56" d="M1.7 0h12.6c.4 0 .7.3.7.7v14.6a.7.7 0 0 1-.7.7H1.7a.7.7 0 0 1-.7-.7V.7c0-.4.3-.7.7-.7z"/>
    <path fill="#fff" d="M2 1h12v14H2V1z"/>
    <path fill="#fff" d="M1.7 0h12.6c.4 0 .7.3.7.7v14.6a.7.7 0 0 1-.7.7H1.7a.7.7 0 0 1-.7-.7V.7c0-.4.3-.7.7-.7z" opacity=".4"/>
    <path fill="#0d2c56" d="M5 9v1H4v1h1v2H4v1h3v-1H6V9zm5-7v1H9v1h1v2H9v1h3V6h-1V2zM9 9h2v1H9V9zm-1 1v3h1v-.4h.5V12H9v-2zm3 0v.5h-.5v.5h.5v2h1v-3zm-2 3h2v1H9v-1zm.5-1.5h.5v.5h-.5v-.5zm.5-.5h.5v.5H10V11zM5 2h2v1H5V2zM4 3v3h1v-.4h.5V5H5V3zm3 0v.5h-.5V4H7v2h1V3zM5 6h2v1H5V6zm.5-1.5H6V5h-.5v-.5zM6 4h.5v.5H6V4z"/>
  </svg>
  <svg width="16" height="16" x="256" y="64" viewBox="0 0 16 16">
    <path fill="#0d2c56" d="M1.7 0h12.6c.4 0 .7.3.7.7v14.6a.7.7 0 0 1-.7.7H1.7a.7.7 0 0 1-.7-.7V.7c0-.4.3-.7.7-.7z"/>
    <path fill="#fff" d="M2 1h12v14H2V1z"/>
    <path fill="#fff" d="M1.7 0h12.6c.4 0 .7.3.7.7v14.6a.7.7 0 0 1-.7.7H1.7a.7.7 0 0 1-.7-.7V.7c0-.4.3-.7.7-.7z" opacity=".4"/>
    <path fill="#0d2c56" d="M11.6 10.8c1-.6 1.4-1.1 1.4-2.1C13 7.2 11.6 6 9.8 6S6.6 7 6.6 8.3C4 8.3 3 9.5 3 10.7s.7 1.8 1.4 2c0 1-1 1.2-1.3 1.3.9 0 1.9-.2 2.4-1 2.9.1 3.7-1 4-1.7h1c.6.6 1.4.7 2.5.7-.5-.2-1.3-.7-1.4-1.2z"/>
    <path fill="#fff" d="M10.5 10.7h-1c-.2-.9-.5-2-2.2-2.4 0-.9 1-1.6 2.5-1.6s2.4.9 2.5 2c0 .6-.2 1-1.5 1.8.2.5.7.9 1.1 1.2-.8-.3-1.2-.7-1.4-1z"/>
  </svg>
  <svg width="16" height="16" x="288" y="64" viewBox="0 0 16 16">
    <path fill="#b31b34" d="M1.7 0h12.6c.4 0 .7.3.7.7v14.6a.7.7 0 0 1-.7.7H1.7a.7.7 0 0 1-.7-.7V.7c0-.4.3-.7.7-.7z"/>
    <path fill="#fff" d="M2 1h12v14H2V1z"/>
    <path fill="#fff" d="M1.7 0h12.6c.4 0 .7.3.7.7v14.6a.7.7 0 0 1-.7.7H1.7a.7.7 0 0 1-.7-.7V.7c0-.4.3-.7.7-.7z" opacity=".4"/>
    <path fill="#b31b34" d="M2 1h12v14H2V1z" opacity=".1"/>
    <path fill="#0d2c56" d="M11.6 10.8c1-.6 1.4-1.1 1.4-2.1C13 7.2 11.6 6 9.8 6S6.6 7 6.6 8.3C4 8.3 3 9.5 3 10.7s.7 1.8 1.4 2c0 1-1 1.2-1.3 1.3.9 0 1.9-.2 2.4-1 2.9.1 3.7-1 4-1.7h1c.6.6 1.4.7 2.5.7-.5-.2-1.3-.7-1.4-1.2z"/>
    <path fill="#fff" d="M10.5 10.7h-1c-.2-.9-.5-2-2.2-2.4 0-.9 1-1.6 2.5-1.6s2.4.9 2.5 2c0 .6-.2 1-1.5 1.8.2.5.7.9 1.1 1.2-.8-.3-1.2-.7-1.4-1z"/>
  </svg>
  <svg width="16" height="16" x="320" y="64" viewBox="0 0 16 16">
    <path fill="#0d2c56" d="M1.7 0h12.6c.4 0 .7.3.7.7v14.6a.7.7 0 0 1-.7.7H1.7a.7.7 0 0 1-.7-.7V.7c0-.4.3-.7.7-.7z"/>
    <path fill="#fff" d="M2 1h12v14H2V1z"/>
    <path fill="#fff" d="M1.7 0h12.6c.4 0 .7.3.7.7v14.6a.7.7 0 0 1-.7.7H1.7a.7.7 0 0 1-.7-.7V.7c0-.4.3-.7.7-.7z" opacity=".4"/>
    <path fill="#0d2c56" d="M6.7 4a3.7 3.7 0 0 0 0 7.5c.8 0 1.6-.1 2.5-.9l.3.4c-.1.2 0 .5.3.9l1.8 1.7c.5.5.9.4 1.2.2.2-.3.4-.7-.2-1.2L11 10.8c-.4-.4-.7-.4-1-.3l-.3-.3c.8-.9.9-1.7.9-2.5A3.7 3.7 0 0 0 6.7 4zm0 1c1.5 0 2.7 1.3 2.7 2.8a2.7 2.7 0 1 1-5.3 0A2.7 2.7 0 0 1 6.8 5z"/>
  </svg>
  <svg width="16" height="16" x="352" y="64" viewBox="0 0 16 16">
    <path fill="#0d2c56" d="M1.7 0h12.6c.4 0 .7.3.7.7v14.6a.7.7 0 0 1-.7.7H1.7a.7.7 0 0 1-.7-.7V.7c0-.4.3-.7.7-.7z"/>
    <path fill="#fff" d="M2 1h12v14H2V1z"/>
    <path fill="#fff" d="M1.7 0h12.6c.4 0 .7.3.7.7v14.6a.7.7 0 0 1-.7.7H1.7a.7.7 0 0 1-.7-.7V.7c0-.4.3-.7.7-.7z" opacity=".4"/>
    <path fill="#0d2c56" d="M3.5 3c-.3 0-.5.2-.5.5v2c0 .3.3.5.6.5H4v6.5c0 .3.3.5.5.5H6v.5s0 .5.5.5h6c.3 0 .5-.2.5-.5v-2c0-.3-.2-.5-.5-.5h-6c-.5 0-.5.5-.5.5v.5H5V9h1v.5s0 .5.5.5h6c.3 0 .5-.2.5-.5v-2c0-.3-.2-.5-.5-.5h-6c-.5 0-.5.5-.5.5V8H5V6h4.5c.3 0 .5-.2.5-.5v-2c0-.3-.2-.5-.5-.5z"/>
    <path fill="#fff" d="M3.5 3.5h2v2h-2v-2zm3 8h2v2h-2v-2zm0-4h2v2h-2v-2z"/>
  </svg>
  <svg width="16" height="16" x="384" y="64" viewBox="0 0 16 16">
    <path fill="#0d2c56" d="M1.7 0h12.6c.4 0 .7.3.7.7v14.6a.7.7 0 0 1-.7.7H1.7a.7.7 0 0 1-.7-.7V.7c0-.4.3-.7.7-.7z"/>
    <path fill="#fff" d="M2 1h12v14H2V1z"/>
    <path fill="#fff" d="M1.7 0h12.6c.4 0 .7.3.7.7v14.6a.7.7 0 0 1-.7.7H1.7a.7.7 0 0 1-.7-.7V.7c0-.4.3-.7.7-.7z" opacity=".4"/>
    <path fill="#0d2c56" d="M10.9 12.5c0-.4.2-.6.6-.6.4 0 .6.2.6.6 0 .3-.2.5-.6.5-.4 0-.6-.2-.6-.5zm-4-2.7 4.1 4 .6.2a.8.8 0 0 0 .5-.3l.7-.6a.7.7 0 0 0 .2-.5.7.7 0 0 0-.2-.5L8.6 8c-.2.4-.4.8-.7 1l-1 .7zm-4-2.5.2.6c.2.5.5 1 1 1.3s1 .4 1.6.4c.7 0 1.4-.2 2-.7s.7-1.1.7-1.8c0-.8-.2-1.4-.8-1.9a2.8 2.8 0 0 0-3.3-.4l-.1.2.1.2 1.8 1v1.2L4.9 8l-.5-.2a34 34 0 0 0-.8-.5 2 2 0 0 0-.4-.2H3v.2z"/>
  </svg>
  <svg width="16" height="16" x="416" y="64" viewBox="0 0 16 16">
    <path fill="#0d2c56" d="M1.7 0h12.6c.4 0 .7.3.7.7v14.6a.7.7 0 0 1-.7.7H1.7a.7.7 0 0 1-.7-.7V.7c0-.4.3-.7.7-.7z"/>
    <path fill="#fff" d="M2 1h12v14H2V1z"/>
    <path fill="#fff" d="M1.7 0h12.6c.4 0 .7.3.7.7v14.6a.7.7 0 0 1-.7.7H1.7a.7.7 0 0 1-.7-.7V.7c0-.4.3-.7.7-.7z" opacity=".4"/>
    <path fill="#0d2c56" d="m9.6 12.8.8 1.2 2.6-4-2.6-4-.8 1.2 1.8 2.8zM6.4 7.2 5.6 6 3 10l2.6 4 .8-1.2L4.6 10zM7.8 6l1.2.1-.8 7.9-1.2-.1.8-7.9z"/>
  </svg>
  <svg width="16" height="16" x="448" y="64" viewBox="0 0 16 16">
    <path fill="#0d2c56" d="M1.7 0h12.6c.4 0 .7.3.7.7v14.6a.7.7 0 0 1-.7.7H1.7a.7.7 0 0 1-.7-.7V.7c0-.4.3-.7.7-.7z"/>
    <path fill="#fff" d="M2 1h12v14H2V1z"/>
    <path fill="#fff" d="M1.7 0h12.6c.4 0 .7.3.7.7v14.6a.7.7 0 0 1-.7.7H1.7a.7.7 0 0 1-.7-.7V.7c0-.4.3-.7.7-.7z" opacity=".4"/>
    <path fill="#0d2c56" d="M12 10.3v1.9c0 .5-.1 1-.5 1.3s-.8.5-1.3.5H5c-.5 0-1-.1-1.3-.5s-.6-.8-.6-1.3V6.9c0-.5.2-1 .6-1.3S4.4 5 4.9 5h3c.1 0 0 .2 0 .2v.6H4.8l-.6.3a1 1 0 0 0-.3.8v5.3c0 .3 0 .5.3.7s.4.3.7.3h5.3c.3 0 .6 0 .8-.3s.3-.4.3-.7v-2l.2-.1h.5c.1 0 0 .1 0 .2zm1-5.7v3.6l-.4.1a.4.4 0 0 1-.3-.1l-1-1.2L7 11.2a.2.2 0 0 1-.3 0l-.7-.7a.2.2 0 0 1 0-.3L10.2 6 9 5l-.2-.3c0-.1 0-.2.2-.3a.4.4 0 0 1 .2-.1h3.3l.3.1.1.3z"/>
  </svg>
  <svg width="16" height="16" x="480" y="64" viewBox="0 0 16 16">
    <path fill="#b31b34" d="M1.7 0h12.6c.4 0 .7.3.7.7v14.6a.7.7 0 0 1-.7.7H1.7a.7.7 0 0 1-.7-.7V.7c0-.4.3-.7.7-.7z"/>
    <path fill="#fff" d="M2 1h12v14H2V1z"/>
    <path fill="#fff" d="M1.7 0h12.6c.4 0 .7.3.7.7v14.6a.7.7 0 0 1-.7.7H1.7a.7.7 0 0 1-.7-.7V.7c0-.4.3-.7.7-.7z" opacity=".4"/>
    <path fill="#b31b34" d="M2 1h12v14H2V1z" opacity=".1"/>
    <path fill="#0d2c56" d="M10.9 12.5c0-.4.2-.6.6-.6.4 0 .6.2.6.6 0 .3-.2.5-.6.5-.4 0-.6-.2-.6-.5zm-4-2.7 4.1 4 .6.2a.8.8 0 0 0 .5-.3l.7-.6a.7.7 0 0 0 .2-.5.7.7 0 0 0-.2-.5L8.6 8c-.2.4-.4.8-.7 1l-1 .7zm-4-2.5.2.6c.2.5.5 1 1 1.3s1 .4 1.6.4c.7 0 1.4-.2 2-.7s.7-1.1.7-1.8c0-.8-.2-1.4-.8-1.9a2.8 2.8 0 0 0-3.3-.4l-.1.2.1.2 1.8 1v1.2L4.9 8l-.5-.2a34 34 0 0 0-.8-.5 2 2 0 0 0-.4-.2H3v.2z"/>
  </svg>
  <svg width="16" height="16" y="96" viewBox="0 0 16 16">
    <path fill="#b31b34" d="M1.7 0h12.6c.4 0 .7.3.7.7v14.6a.7.7 0 0 1-.7.7H1.7a.7.7 0 0 1-.7-.7V.7c0-.4.3-.7.7-.7z"/>
    <path fill="#fff" d="M2 1h12v14H2V1z"/>
    <path fill="#fff" d="M1.7 0h12.6c.4 0 .7.3.7.7v14.6a.7.7 0 0 1-.7.7H1.7a.7.7 0 0 1-.7-.7V.7c0-.4.3-.7.7-.7z" opacity=".4"/>
    <path fill="#b31b34" d="M2 1h12v14H2V1z" opacity=".1"/>
    <path fill="#b31b34" d="M0 5h16v7H0V5z"/>
    <path fill="#fff" d="M12.5 6c1 0 1.5.5 1.5 1.5S13.5 9 12.5 9H12v2h-1V6zM12 7v1c.5 0 1 0 1-.5s-.5-.5-1-.5zm-2-1v1H7.5c-.3 0-.5.2-.5.5s.3.5.5.5h1c1 0 1.5.4 1.5 1v1c0 .5-.5 1-1 1H6v-1h2.5c.3 0 .5-.2.5-.5S8.8 9 8.5 9H7a1 1 0 0 1-1-1V7c0-.5.5-1 1-1zM4 6h1v3.8c0 .7-.5 1.2-1.3 1.2h-.4C2.5 11 2 10.5 2 9.7v-.2h1c0 .3.2.5.5.5s.5-.3.5-.5z"/>
  </svg>
  <svg width="16" height="16" x="32" y="96" viewBox="0 0 16 16">
    <path fill="#0d2c56" d="M1.7 0h12.6c.4 0 .7.3.7.7v14.6a.7.7 0 0 1-.7.7H1.7a.7.7 0 0 1-.7-.7V.7c0-.4.3-.7.7-.7z"/>
    <path fill="#fff" d="M2 1h12v14H2V1z"/>
    <path fill="#fff" d="M1.7 0h12.6c.4 0 .7.3.7.7v14.6a.7.7 0 0 1-.7.7H1.7a.7.7 0 0 1-.7-.7V.7c0-.4.3-.7.7-.7z" opacity=".4"/>
    <path fill="#0d2c56" d="M4.3 4h7.4c.2 0 .3.1.3.3v.4c0 .2-.1.3-.3.3H4.3a.3.3 0 0 1-.3-.3v-.4c0-.2.1-.3.3-.3z"/>
    <path fill="#a8adb4" d="M4.3 12h7.4c.2 0 .3.1.3.3v.4a.3.3 0 0 1-.3.3H4.3a.3.3 0 0 1-.3-.3v-.4c0-.2.1-.3.3-.3zm0-2h7.4c.2 0 .3.1.3.3v.4a.3.3 0 0 1-.3.3H4.3a.3.3 0 0 1-.3-.3v-.4c0-.2.1-.3.3-.3zm0-2h7.4c.2 0 .3.1.3.3v.4a.3.3 0 0 1-.3.3H4.3a.3.3 0 0 1-.3-.3v-.4c0-.2.1-.3.3-.3z"/>
  </svg>
  <svg width="16" height="16" x="64" y="96" viewBox="0 0 16 16">
    <path fill="#7f8691" d="M7 3h8.5c.3 0 .5.3.5.5v11c0 .3-.3.5-.5.5H.5c-.3 0-.5-.3-.5-.6V1.5c0-.3.3-.5.5-.5H5z"/>
    <path fill="#fff" d="M1 4h14v10H1V4z" opacity=".6"/>
    <path fill="#b31b34" d="M7 11v-1c.2-.9.4-1.2 1-1.9.3-.4 1-1 1-1.5 0-.9-1.5-.8-2.2-.6-.4 0-.6.2-1 .5L5 5a2 2 0 0 1 1-.5c.6-.3 1.4-.5 1.9-.5a4 4 0 0 1 1.5.3c.4.1.7.3 1 .6l.5.8.1.9c0 .3 0 .6-.2.8l-.5.8A6 6 0 0 0 9 10v1zm1.5 1.1a1 1 0 0 1 .4 1.4 1 1 0 0 1-1.4.4 1 1 0 0 1-.4-1.4 1 1 0 0 1 1.4-.4z"/>
  </svg>
  <svg width="16" height="16" x="96" y="96" viewBox="0 0 16 16">
    <path fill="#b31b34" d="M1.7 0h12.6c.4 0 .7.3.7.7v14.6a.7.7 0 0 1-.7.7H1.7a.7.7 0 0 1-.7-.7V.7c0-.4.3-.7.7-.7z"/>
    <path fill="#fff" d="M2 1h12v14H2V1z"/>
    <path fill="#fff" d="M1.7 0h12.6c.4 0 .7.3.7.7v14.6a.7.7 0 0 1-.7.7H1.7a.7.7 0 0 1-.7-.7V.7c0-.4.3-.7.7-.7z" opacity=".4"/>
    <path fill="#7f8691" d="M2 1h12v14H2V1z"/>
    <path fill="#fff" d="M2 1h12v14H2V1z" opacity=".5"/>
    <path fill="#b31b34" d="M7 10V9c.2-.9.4-1.2 1-1.9.3-.4 1-1 1-1.5 0-.9-1.5-.8-2.2-.6-.4 0-.6.2-1 .5L5 4a2 2 0 0 1 1-.5c.6-.3 1.4-.5 1.9-.5a4 4 0 0 1 1.5.3c.4.1.7.3 1 .6l.5.8.1.9c0 .3 0 .6-.2.8l-.5.8A6 6 0 0 0 9 9v1zm1.5 1.1a1 1 0 0 1 .4 1.4 1 1 0 0 1-1.4.4 1 1 0 0 1-.4-1.4 1 1 0 0 1 1.4-.4z"/>
  </svg>
  <svg width="16" height="16" x="128" y="96" viewBox="0 0 16 16">
    <path fill="#0d2c56" d="M1 .5v15c0 .3.3.5.5.5h13c.3 0 .5-.3.5-.5V5l-5-5H1.5c-.3 0-.5.3-.5.5z"/>
    <path fill="#fff" d="M2 1v14h12V4l-3.3-3z"/>
    <path fill="#0d2c56" d="M10 0v4.5c0 .3.3.5.5.5H15z"/>
    <path fill="#fff" d="M1 .5v15c0 .3.3.5.5.5h13c.3 0 .5-.3.5-.5V5l-5-5H1.5c-.3 0-.5.3-.5.5z" opacity=".4"/>
    <path fill="#b31b34" d="M5 8.7V8c0-.5.2-1 .6-1H6V6h-.4C4.6 6 4 7 4 8v.6c0 .5-.4.9-.8.9H3v1h.2c.4 0 .8.5.8 1v.5a2 2 0 0 0 1.6 2H6v-1h-.5c-.3 0-.5-.5-.5-1v-.7c0-.8-.1-1-.7-1.3.5-.3.7-.5.7-1.3zm6 2.5v.7c0 .5-.2 1-.6 1l-.4.1v1h.4c1 0 1.6-.9 1.6-2v-.6c0-.4.4-.9.8-.9h.2v-1h-.2c-.4 0-.8-.5-.8-1v-.6c0-1.1-.6-1.9-1.6-1.9H10v1h.5c.4 0 .5.4.5 1v.6c0 .8.2 1 .7 1.3-.5.4-.7.5-.7 1.3zM7 9h2v1H7V9zm0 2h2v1l-1.5 2H7v-.5L8.2 12H7z"/>
  </svg>
  <svg width="16" height="16" x="160" y="96" viewBox="0 0 16 16">
    <path fill="#0d2c56" d="M1 .5v15c0 .3.3.5.5.5h13c.3 0 .5-.3.5-.5V5l-5-5H1.5c-.3 0-.5.3-.5.5z"/>
    <path fill="#fff" d="M2 1v14h12V4l-3.3-3z"/>
    <path fill="#0d2c56" d="M10 0v4.5c0 .3.3.5.5.5H15z"/>
    <path fill="#fff" d="M1 .5v15c0 .3.3.5.5.5h13c.3 0 .5-.3.5-.5V5l-5-5H1.5c-.3 0-.5.3-.5.5z" opacity=".4"/>
    <path fill="#0d2c56" d="M6 8.7V8c0-.5.2-1 .6-1H7V6h-.4C5.6 6 5 7 5 8v.6c0 .5-.4.9-.8.9H4v1h.2c.4 0 .8.5.8 1v.5a2 2 0 0 0 1.6 2H7v-1h-.5c-.3 0-.5-.5-.5-1v-.7c0-.8-.1-1-.7-1.3.5-.3.7-.5.7-1.3zm4 2.5v.7c0 .5-.2 1-.6 1L9 13v1h.4c1 0 1.6-.9 1.6-2v-.6c0-.4.4-.9.8-.9h.2v-1h-.2c-.4 0-.8-.5-.8-1v-.6C11 6.8 10.4 6 9.4 6H9v1h.5c.4 0 .5.4.5 1v.6c0 .8.2 1 .7 1.3-.5.4-.7.5-.7 1.3z"/>
  </svg>
  <svg width="16" height="16" x="192" y="96" viewBox="0 0 16 16">
    <path fill="#0d2c56" d="M1 .5v15c0 .3.3.5.5.5h13c.3 0 .5-.3.5-.5V5l-5-5H1.5c-.3 0-.5.3-.5.5z"/>
    <path fill="#fff" d="M2 1v14h12V4l-3.3-3z"/>
    <path fill="#0d2c56" d="M10 0v4.5c0 .3.3.5.5.5H15z"/>
    <path fill="#fff" d="M1 .5v15c0 .3.3.5.5.5h13c.3 0 .5-.3.5-.5V5l-5-5H1.5c-.3 0-.5.3-.5.5z" opacity=".4"/>
    <path fill="#0d2c56" d="m8.6 12.8.8 1.2 2.6-4-2.6-4-.8 1.2 1.8 2.8zM7.4 7.2 6.6 6 4 10l2.6 4 .8-1.2L5.6 10z"/>
  </svg>
  <svg width="16" height="16" x="224" y="96" viewBox="0 0 16 16">
    <path fill="#0d2c56" d="M1 .5v15c0 .3.3.5.5.5h13c.3 0 .5-.3.5-.5V5l-5-5H1.5c-.3 0-.5.3-.5.5z"/>
    <path fill="#fff" d="M2 1v14h12V4l-3.3-3z"/>
    <path fill="#0d2c56" d="M10 0v4.5c0 .3.3.5.5.5H15z"/>
    <path fill="#fff" d="M1 .5v15c0 .3.3.5.5.5h13c.3 0 .5-.3.5-.5V5l-5-5H1.5c-.3 0-.5.3-.5.5z" opacity=".4"/>
    <path fill="#0d2c56" d="m9.6 12.8.8 1.2 2.6-4-2.6-4-.8 1.2 1.8 2.8zM6.4 7.2 5.6 6 3 10l2.6 4 .8-1.2L4.6 10zM7.8 6l1.2.1-.8 7.9-1.2-.1.8-7.9z"/>
  </svg>
  <svg width="16" height="16" x="256" y="96" viewBox="0 0 16 16">
    <path fill="#0d2c56" d="M1 .5v15c0 .3.3.5.5.5h13c.3 0 .5-.3.5-.5V5l-5-5H1.5c-.3 0-.5.3-.5.5z"/>
    <path fill="#fff" d="M2 1v14h12V4l-3.3-3z"/>
    <path fill="#0d2c56" d="M10 0v4.5c0 .3.3.5.5.5H15z"/>
    <path fill="#fff" d="M1 .5v15c0 .3.3.5.5.5h13c.3 0 .5-.3.5-.5V5l-5-5H1.5c-.3 0-.5.3-.5.5z" opacity=".4"/>
    <path fill="#a8adb4" d="M3.5 6h9a.5.5 0 0 1 0 1h-9a.5.5 0 0 1 0-1zm0 2h7a.5.5 0 0 1 0 1h-7a.5.5 0 0 1 0-1zm0 2h5a.5.5 0 0 1 0 1h-5a.5.5 0 0 1 0-1zm0 2h7a.5.5 0 0 1 0 1h-7a.5.5 0 0 1 0-1z"/>
  </svg>
  <svg width="16" height="16" x="288" y="96" viewBox="0 0 16 16">
    <path fill="#0d2c56" d="M1 .5v15c0 .3.3.5.5.5h13c.3 0 .5-.3.5-.5V5l-5-5H1.5c-.3 0-.5.3-.5.5z"/>
    <path fill="#fff" d="M2 1v14h12V4l-3.3-3z"/>
    <path fill="#0d2c56" d="M10 0v4.5c0 .3.3.5.5.5H15z"/>
    <path fill="#fff" d="M1 .5v15c0 .3.3.5.5.5h13c.3 0 .5-.3.5-.5V5l-5-5H1.5c-.3 0-.5.3-.5.5z" opacity=".4"/>
    <path fill="#0d2c56" d="M7 1h2v1H7V1zM5 8v4h4V9H7V8zm2 1.9c1 0 1.1.3 1.1.6s-.1.6-1.1.6-1.1-.3-1.1-.6.1-.6 1.1-.6zM5 2h2v1H5V2zm2 1h2v1H7V3zM5 4h2v1H5V4zm2 1h2v1H7V5zM5 6h2v1H5V6zm2 1h2v1H7V7zM5 0h2v1H5V0z"/>
  </svg>
  <svg width="16" height="16" x="320" y="96" viewBox="0 0 16 16">
    <path fill="#0d2c56" d="M1 .5v15c0 .3.3.5.5.5h13c.3 0 .5-.3.5-.5V5l-5-5H1.5c-.3 0-.5.3-.5.5z"/>
    <path fill="#fff" d="M2 1v14h12V4l-3.3-3z"/>
    <path fill="#0d2c56" d="M10 0v4.5c0 .3.3.5.5.5H15z"/>
    <path fill="#fff" d="M1 .5v15c0 .3.3.5.5.5h13c.3 0 .5-.3.5-.5V5l-5-5H1.5c-.3 0-.5.3-.5.5z" opacity=".4"/>
    <path fill="#0d2c56" d="M3 6h10v8H3V6z"/>
    <path fill="#fff" d="M5 13 3.5 7h1l1.1 4.5L7.5 7h1l1.9 4.5L11.5 7h1L11 13h-1L8 8.1 6 13z"/>
  </svg>
  <svg width="16" height="16" x="352" y="96" viewBox="0 0 16 16">
    <path fill="#0d2c56" d="M1 .5v15c0 .3.3.5.5.5h13c.3 0 .5-.3.5-.5V5l-5-5H1.5c-.3 0-.5.3-.5.5z"/>
    <path fill="#fff" d="M2 1v14h12V4l-3.3-3z"/>
    <path fill="#0d2c56" d="M10 0v4.5c0 .3.3.5.5.5H15z"/>
    <path fill="#fff" d="M1 .5v15c0 .3.3.5.5.5h13c.3 0 .5-.3.5-.5V5l-5-5H1.5c-.3 0-.5.3-.5.5z" opacity=".4"/>
    <path fill="#1bb39a" d="M3 6h10v8H3V6z"/>
    <path fill="#fff" d="M5 7h1l2 2.4L10 7h1l-2.5 3 2.5 3h-1l-2-2.4L6 13H5l2.5-3z"/>
  </svg>
  <svg width="16" height="16" x="384" y="96" viewBox="0 0 16 16">
    <path fill="#0d2c56" d="M1 .5v15c0 .3.3.5.5.5h13c.3 0 .5-.3.5-.5V5l-5-5H1.5c-.3 0-.5.3-.5.5z"/>
    <path fill="#fff" d="M2 1v14h12V4l-3.3-3z"/>
    <path fill="#0d2c56" d="M10 0v4.5c0 .3.3.5.5.5H15z"/>
    <path fill="#fff" d="M1 .5v15c0 .3.3.5.5.5h13c.3 0 .5-.3.5-.5V5l-5-5H1.5c-.3 0-.5.3-.5.5z" opacity=".4"/>
    <path fill="#b31b34" d="M3 6h10v8H3V6z"/>
    <path fill="#fff" d="M7 8v2h1c.5 0 1-.4 1-1s-.5-1-1-1zM6 7h2c1 0 2 .6 2 2s-1 2-2 2H7v2H6z"/>
  </svg>
  <svg width="16" height="16" x="416" y="96" viewBox="0 0 16 16">
    <path fill="#0d2c56" d="M1 .5v15c0 .3.3.5.5.5h13c.3 0 .5-.3.5-.5V5l-5-5H1.5c-.3 0-.5.3-.5.5z"/>
    <path fill="#fff" d="M2 1v14h12V4l-3.3-3z"/>
    <path fill="#0d2c56" d="M10 0v4.5c0 .3.3.5.5.5H15z"/>
    <path fill="#fff" d="M1 .5v15c0 .3.3.5.5.5h13c.3 0 .5-.3.5-.5V5l-5-5H1.5c-.3 0-.5.3-.5.5z" opacity=".4"/>
    <path fill="#0d2c56" d="M6.6 11s-.4.3.3.4c.8.2 1.3.1 2.2 0l.6.3c-2.1 1-4.8 0-3.1-.6zm-.3-1.4s-.5.4.3.5c.9.1 1.6.2 2.8-.1l.5.3c-2.6.9-5.4 0-3.6-.7z"/>
    <path fill="#b31b34" d="M7.9 7.2c.5.7-.1 1.4-.1 1.4s1.3-.8.7-1.9c-.6-1-1-1.4 1.3-3 0 0-3.7 1-1.9 3.5z"/>
    <path fill="#0d2c56" d="M11.3 12.1s.3.3-.3.5c-1.3.5-5.1.6-6.2 0-.4-.1.3-.4.6-.5h.3c-.4-.4-2.7.7-1.2 1 4.4.8 8-.4 6.8-1zm-4.5-4s-2 .6-.7.8h2.6l1.6-.3-.5.3c-2 .7-5.8.4-4.7-.3.9-.5 1.7-.4 1.7-.4zm3.5 2.4c2-1.2 1-2.5.4-2.3h-.2.2c1.3-.6 2.3 1.5-.4 2.4z"/>
    <path fill="#b31b34" d="M8.5 1s1.1 1.4-1 3.4C5.6 6.1 7 7 7.4 8.1c-1.1-1-1.9-2-1.4-3 1-1.3 3-2 2.5-4.1z"/>
    <path fill="#0d2c56" d="M7 14c2 .1 5-.1 5-1.2 0 0-.2.4-1.6.7-1.7.4-3.7.4-5 .1 0 0 .3.3 1.6.4z"/>
  </svg>
  <svg width="16" height="16" x="448" y="96" viewBox="0 0 16 16">
    <path fill="#0d2c56" d="M1 .5v15c0 .3.3.5.5.5h13c.3 0 .5-.3.5-.5V5l-5-5H1.5c-.3 0-.5.3-.5.5z"/>
    <path fill="#fff" d="M2 1v14h12V4l-3.3-3z"/>
    <path fill="#0d2c56" d="M10 0v4.5c0 .3.3.5.5.5H15z"/>
    <path fill="#fff" d="M1 .5v15c0 .3.3.5.5.5h13c.3 0 .5-.3.5-.5V5l-5-5H1.5c-.3 0-.5.3-.5.5z" opacity=".4"/>
    <path fill="#b31b34" d="M12.8 9.6c-.2-.2-.6-.3-1.3-.3a9.5 9.5 0 0 0-1.6.1 4 4 0 0 1-.7-.6c-.6-.6-1-1.4-1.3-2.3v-.3l.3-2.8a1 1 0 0 0 0-.2H8c-.1-.3-.3-.5-.5-.5h-.2c-.3 0-.5.2-.6.4-.2.8 0 2 .4 3.7L7 7a38 38 0 0 1-1.7 4H5l-.5.4C3.6 12 3 12.7 3 13.2c0 .2 0 .4.2.5l.2.2a.7.7 0 0 0 .3 0c.7 0 1.4-.8 2.4-2.8a20.6 20.6 0 0 1 3.5-1c1 .6 2 1 2.7 1h.3a.5.5 0 0 0 .3-.3v-.9a.6.6 0 0 0 0-.3zm-9.2 3.8c.1-.3.6-1 1.2-1.6l.3-.3a5.5 5.5 0 0 1-1.5 2zm4-10.3.2 1c0 .6 0 1-.2 1.3l-.2-1.5.1-.8zm-1.3 7.4a18.6 18.6 0 0 0 1.2-2.8 6.2 6.2 0 0 0 1.3 1.7l.2.2c-1 .2-1.9.5-2.7.9zm6.3-.1h-.3a3 3 0 0 1-1.4-.4h1.4c.3 0 .4.3.3.4z"/>
  </svg>
  <svg width="16" height="16" x="480" y="96" viewBox="0 0 16 16">
    <path fill="#0d2c56" d="M1 .5v15c0 .3.3.5.5.5h13c.3 0 .5-.3.5-.5V5l-5-5H1.5c-.3 0-.5.3-.5.5z"/>
    <path fill="#fff" d="M2 1v14h12V4l-3.3-3z"/>
    <path fill="#0d2c56" d="M10 0v4.5c0 .3.3.5.5.5H15z"/>
    <path fill="#fff" d="M1 .5v15c0 .3.3.5.5.5h13c.3 0 .5-.3.5-.5V5l-5-5H1.5c-.3 0-.5.3-.5.5z" opacity=".4"/>
    <path fill="#0d2c56" d="M5 9.3v3.4c0 .6-.1.9-.7 1H4v.3h3.3v-.3H7c-.6-.1-.7-.4-.7-1V9.3h1.4V9H6.3V7.6c0-.5.1-.7.3-.9l.6-.2.6.3.6.3c.3 0 .6-.2.6-.4 0-.4-.5-.7-1.2-.7s-1.5.3-2 .6c-.6.4-.8.8-.8 1.6V9h-.7v.3z"/>
    <path fill="#0d2c56" d="M11 8.7h-.7c-.7 0-1.3.3-2 .3v.3h.3c.7.1 1 .2 1 .9v2.5c0 .6 0 .9-.6 1h-.3v.3H12v-.3h-.3c-.6-.1-.7-.4-.7-1zm-.3-1.9c.2.1.3.3.3.6a.6.6 0 0 1 0 .3.7.7 0 0 1-.7.3.7.7 0 0 1-.3 0 .6.6 0 0 1-.3-.6V7a.7.7 0 0 1 .6-.3l.4.1z"/>
  </svg>
  <svg width="16" height="16" y="128" viewBox="0 0 16 16">
    <path fill="#0d2c56" d="M1 .5v15c0 .3.3.5.5.5h13c.3 0 .5-.3.5-.5V5l-5-5H1.5c-.3 0-.5.3-.5.5z"/>
    <path fill="#fff" d="M2 1v14h12V4l-3.3-3z"/>
    <path fill="#0d2c56" d="M10 0v4.5c0 .3.3.5.5.5H15z"/>
    <path fill="#fff" d="M1 .5v15c0 .3.3.5.5.5h13c.3 0 .5-.3.5-.5V5l-5-5H1.5c-.3 0-.5.3-.5.5z" opacity=".4"/>
    <path fill="#0d2c56" d="M6 8.4h1V13H6V8.4zM10 7h1v4h-1V7z"/>
    <path fill="#0d2c56" d="M10.3 10.1c.4.2.7.5.7.9a.8.8 0 0 1-.2.5c-.3.3-.7.5-1.3.5a2 2 0 0 1-.8-.1c-.4-.2-.7-.5-.7-.9 0-.2 0-.4.2-.5.3-.3.7-.5 1.3-.5l.8.1zM6 7.5 11 6v1.5L6 9zm.3 4.6c.4.2.7.5.7.9a.8.8 0 0 1-.2.5c-.3.3-.7.5-1.3.5a2 2 0 0 1-.8-.1c-.4-.2-.7-.5-.7-.9 0-.2 0-.4.2-.5.3-.3.7-.5 1.3-.5l.8.1z"/>
  </svg>
  <svg width="16" height="16" x="32" y="128" viewBox="0 0 16 16">
    <path fill="#0d2c56" d="M1 6h14v8H1V6z"/>
    <path fill="#fff" d="M6 7.5v5l4-2.5z"/>
    <path fill="#0d2c56" d="m.6 3 13.8-2 .5 3L1 6 .6 3z"/>
  </svg>
  <svg width="16" height="16" x="64" y="128" viewBox="0 0 16 16">
    <path fill="#0d2c56" d="M.6 2h14.8a.6.6 0 0 1 .6.6v10.8a.6.6 0 0 1-.6.6H.6a.6.6 0 0 1-.6-.6V2.6A.6.6 0 0 1 .6 2z"/>
    <path fill="#2197db" d="M1 3h14v10H1V3z"/>
    <path fill="#fff" d="M1 3h14v10H1V3z" opacity=".6"/>
    <path fill="#0d2c56" d="M1 13h14V9l-4-4-5 5.5L4 9l-3 3z"/>
    <path fill="#fdf9ae" d="M5 4.3A2 2 0 0 1 5.7 7a2 2 0 0 1-2.7.7A2 2 0 0 1 2.3 5 2 2 0 0 1 5 4.3z"/>
  </svg>
  <svg width="16" height="16" x="96" y="128" viewBox="0 0 16 16">
    <path fill="#fff" d="M2 0h13a1 1 0 0 1 1 1v13a1 1 0 0 1-1 1H2a1 1 0 0 1-1-1V1a1 1 0 0 1 1-1z"/>
    <path fill="#0d2c56" d="M2 0h1v1H2V0zm4 0h1v1H6V0zm9 1h1v1h-1V1zM4 0h1v1H4V0zm4 0h1v1H8V0zm2 0h1v1h-1V0zm2 0h1v1h-1V0zm2 0h1v1h-1V0zm1 3h1v1h-1V3zm0 2h1v1h-1V5zm0 2h1v1h-1V7zm0 2h1v1h-1V9zm0 2h1v1h-1v-1zm0 2h1v1h-1v-1zm-1 1h1v1h-1v-1zm-2 0h1v1h-1v-1zm-2 0h1v1h-1v-1zm-2 0h1v1H8v-1zm-2 0h1v1H6v-1zm-2 0h1v1H4v-1zm-2 0h1v1H2v-1zm-1-1h1v1H1v-1zm0-2h1v1H1v-1zm0-2h1v1H1V9zm0-2h1v1H1V7zm0-2h1v1H1V5zm0-2h1v1H1V3zm0-2h1v1H1V1z"/>
    <path fill="#b31b34" d="M3 8h5v5H3V8z"/>
    <path fill="#a8adb4" d="M9 8h5v5H9V8z"/>
    <path fill="#b31b34" d="M9 2h5v5H9V2z"/>
    <path fill="#a8adb4" d="M3 2h5v5H3V2z"/>
  </svg>
  <svg width="16" height="16" x="128" y="128" viewBox="0 0 16 16">
    <path fill="#fff" d="M2 0h13a1 1 0 0 1 1 1v13a1 1 0 0 1-1 1H2a1 1 0 0 1-1-1V1a1 1 0 0 1 1-1z"/>
    <path fill="#0d2c56" d="M2 0h1v1H2V0zm4 0h1v1H6V0zm9 1h1v1h-1V1zM4 0h1v1H4V0zm4 0h1v1H8V0zm2 0h1v1h-1V0zm2 0h1v1h-1V0zm2 0h1v1h-1V0zm1 3h1v1h-1V3zm0 2h1v1h-1V5zm0 2h1v1h-1V7zm0 2h1v1h-1V9zm0 2h1v1h-1v-1zm0 2h1v1h-1v-1zm-1 1h1v1h-1v-1zm-2 0h1v1h-1v-1zm-2 0h1v1h-1v-1zm-2 0h1v1H8v-1zm-2 0h1v1H6v-1zm-2 0h1v1H4v-1zm-2 0h1v1H2v-1zm-1-1h1v1H1v-1zm0-2h1v1H1v-1zm0-2h1v1H1V9zm0-2h1v1H1V7zm0-2h1v1H1V5zm0-2h1v1H1V3zm0-2h1v1H1V1z"/>
    <path fill="#a8adb4" d="M3 8h5v5H3V8z"/>
    <path fill="#2197db" d="M9 8h5v5H9V8z"/>
    <path fill="#a8adb4" d="M9 2h5v5H9V2z"/>
    <path fill="#2197db" d="M3 2h5v5H3V2z"/>
  </svg>
  <svg width="16" height="16" x="160" y="128" viewBox="0 0 16 16">
    <path fill="#fff" d="M2 0h13a1 1 0 0 1 1 1v13a1 1 0 0 1-1 1H2a1 1 0 0 1-1-1V1a1 1 0 0 1 1-1z"/>
    <path fill="#0d2c56" d="M2 0h1v1H2V0zm4 0h1v1H6V0zm9 1h1v1h-1V1zM4 0h1v1H4V0zm4 0h1v1H8V0zm2 0h1v1h-1V0zm2 0h1v1h-1V0zm2 0h1v1h-1V0zm1 3h1v1h-1V3zm0 2h1v1h-1V5zm0 2h1v1h-1V7zm0 2h1v1h-1V9zm0 2h1v1h-1v-1zm0 2h1v1h-1v-1zm-1 1h1v1h-1v-1zm-2 0h1v1h-1v-1zm-2 0h1v1h-1v-1zm-2 0h1v1H8v-1zm-2 0h1v1H6v-1zm-2 0h1v1H4v-1zm-2 0h1v1H2v-1zm-1-1h1v1H1v-1zm0-2h1v1H1v-1zm0-2h1v1H1V9zm0-2h1v1H1V7zm0-2h1v1H1V5zm0-2h1v1H1V3zm0-2h1v1H1V1z"/>
    <path fill="#b31b34" d="M3 8h5v5H3V8z"/>
    <path fill="#2197db" d="M9 8h5v5H9V8z"/>
    <path fill="#b31b34" d="M9 2h5v5H9V2z"/>
    <path fill="#2197db" d="M3 2h5v5H3V2z"/>
  </svg>
  <svg width="16" height="16" x="192" y="128" viewBox="0 0 16 16">
    <path fill="#fff" d="M2 0h13a1 1 0 0 1 1 1v13a1 1 0 0 1-1 1H2a1 1 0 0 1-1-1V1a1 1 0 0 1 1-1z"/>
    <path fill="#0d2c56" d="M2 0h1v1H2V0zm4 0h1v1H6V0zm9 1h1v1h-1V1zM4 0h1v1H4V0zm4 0h1v1H8V0zm2 0h1v1h-1V0zm2 0h1v1h-1V0zm2 0h1v1h-1V0zm1 3h1v1h-1V3zm0 2h1v1h-1V5zm0 2h1v1h-1V7zm0 2h1v1h-1V9zm0 2h1v1h-1v-1zm0 2h1v1h-1v-1zm-1 1h1v1h-1v-1zm-2 0h1v1h-1v-1zm-2 0h1v1h-1v-1zm-2 0h1v1H8v-1zm-2 0h1v1H6v-1zm-2 0h1v1H4v-1zm-2 0h1v1H2v-1zm-1-1h1v1H1v-1zm0-2h1v1H1v-1zm0-2h1v1H1V9zm0-2h1v1H1V7zm0-2h1v1H1V5zm0-2h1v1H1V3zm0-2h1v1H1V1z"/>
    <path fill="#b31b34" d="M3 8h5v5H3V8z"/>
    <path fill="#ffc61e" d="M9 8h5v5H9V8zm0-6h5v5H9V2z"/>
    <path fill="#2197db" d="M3 2h5v5H3V2z"/>
  </svg>
  <svg width="16" height="16" x="224" y="128" viewBox="0 0 16 16">
    <path fill="#ffc61e" d="m8.4 1.3 6.5 13a.6.6 0 0 1 0 .4c0 .2-.2.3-.4.3h-13c-.2 0-.4 0-.4-.3a.6.6 0 0 1 0-.5l6.5-13L8 1c.2 0 .3 0 .4.3z"/>
    <path fill="#0d2c56" d="M8.5 11h-1L7 6h2zm0 1.1a1 1 0 0 1 .4 1.4 1 1 0 0 1-1.4.4 1 1 0 0 1-.4-1.4 1 1 0 0 1 1.4-.4z"/>
  </svg>
  <svg width="16" height="16" x="256" y="128" viewBox="0 0 16 16">
    <path fill="#1bb39a" d="M11.7 1.6A7.4 7.4 0 0 1 15.4 8 7.4 7.4 0 0 1 8 15.4 7.4 7.4 0 0 1 .6 8 7.4 7.4 0 0 1 8 .6a7.4 7.4 0 0 1 3.8 1z"/>
    <path fill="#0d2c56" d="M8 0a8 8 0 1 0 0 16A8 8 0 0 0 8 0zM5.5 1.5V2L3 4.5H2a7 7 0 0 1 3.5-3zM8 10l-3.5 4-.5-.3v-3.2L2 9V6.5a.5.5 0 0 1 .5-.5H4s1.5 2 4 2.5zm6-2.3c-.2-.9-.4-1-1.5-1.3a2.5 2.5 0 0 1-.8-4.4 7 7 0 0 1 2.3 9.6c.3-1.7.2-3 0-4z"/>
  </svg>
  <svg width="16" height="16" x="288" y="128" viewBox="0 0 16 16">
    <path fill="#b31b34" d="M12 1a8 8 0 0 1 4 7 8 8 0 0 1-8 8A8 8 0 0 1 1.1 4 8 8 0 0 1 8 0a8 8 0 0 1 4 1z"/>
    <path fill="#fff" d="M9 9H7l-.5-5h3zm-.2 1.2a1.5 1.5 0 0 1 .5 2 1.5 1.5 0 0 1-2 .6 1.5 1.5 0 0 1-.6-2 1.5 1.5 0 0 1 2-.6z"/>
  </svg>
  <svg width="16" height="16" x="320" y="128" viewBox="0 0 16 16">
    <path fill="#b31b34" d="M11.5 2A7 7 0 0 1 15 8a7 7 0 0 1-7 7 7 7 0 0 1-7-7 7 7 0 0 1 7-7 7 7 0 0 1 3.5 1z"/>
  </svg>
  <svg width="16" height="16" x="352" y="128" viewBox="0 0 16 16">
    <path d="M2 1h13v13H2V1z"/>
    <path fill="#fff" d="M3 2h11v11H3V2z"/>
    <path d="M6.5 3v1.5h4L4 11l1 1 6.5-6.5v4H13V3z"/>
  </svg>
  <svg width="16" height="16" x="384" y="128" viewBox="0 0 16 16">
    <path fill="#fff" d="M11.5 2a7 7 0 0 1 2.5 9.6A6.8 6.8 0 0 1 8 15a6.7 6.7 0 0 1-3.4-1 7 7 0 0 1-2.5-9.6A6.8 6.8 0 0 1 11.5 2z"/>
    <path fill="#b31b34" d="M8 1a6.7 6.7 0 0 0-6 3.8L.4 4v5.7l4.7-3.6-1.4-.6A4.7 4.7 0 0 1 8 3c2.7 0 5 2.3 5 5s-2.3 5-5 5c-1.7 0-3-1-4-2.2l-1.5 1.4A6.7 6.7 0 0 0 8 15c3.8 0 7-3.1 7-7s-3.2-7-7-7zm0 3.5a.5.5 0 0 0-.5.5v3.3l.3.3 1.8 1.8c.2.2.5.2.7 0s.2-.4 0-.6L8.5 8V5c0-.3-.2-.5-.5-.5z"/>
  </svg>
  <svg width="16" height="16" x="416" y="128" viewBox="0 0 16 16">
    <path d="M5.5 1a3 3 0 0 0-3 3v3H1v5.5C1 13.9 2.1 15 3.5 15h5c1.4 0 2.5-1.1 2.5-2.5V7H9.5V4a3 3 0 0 0-3-3h-1zm0 1.5h1C7.3 2.5 8 3.2 8 4v3H4V4c0-.8.7-1.5 1.5-1.5z"/>
    <path fill="#fff" d="M6 8.5a1.5 1.5 0 0 0-.5 3V13a.5.5 0 1 0 1 0v-1.6c.3-.1.6-.3.8-.6a1.5 1.5 0 0 0-.5-2v-.1a1.5 1.5 0 0 0-.9-.2z"/>
  </svg>
  <svg width="16" height="16" x="448" y="128" viewBox="0 0 16 16">
    <path d="M11 1a3 3 0 0 0-3 3v3H1v5.5C1 13.9 2.1 15 3.5 15h5c1.4 0 2.5-1.1 2.5-2.5V7H9.5V4c0-.8.7-1.5 1.5-1.5h1c.8 0 1.5.7 1.5 1.5v3H15V4a3 3 0 0 0-3-3h-1z"/>
    <path fill="#fff" d="M6 8.5a1.5 1.5 0 0 0-.5 3V13a.5.5 0 1 0 1 0v-1.6c.3-.1.6-.3.8-.6a1.5 1.5 0 0 0-.5-2v-.1a1.5 1.5 0 0 0-.9-.2z"/>
  </svg>
  <svg width="16" height="16" x="480" y="128" viewBox="0 0 16 16">
    <path d="M11 1a3 3 0 0 0-3 3v3H1v5.5C1 13.9 2.1 15 3.5 15h5c1.4 0 2.5-1.1 2.5-2.5V7H9.5V4c0-.8.7-1.5 1.5-1.5h1c.8 0 1.5.7 1.5 1.5v3H15V4a3 3 0 0 0-3-3h-1z"/>
    <path fill="#fff" d="M2.2 8h7.6l.2.2v.6a.2.2 0 0 1-.2.2H2.2a.2.2 0 0 1-.2-.2v-.6l.2-.2zm0 2h7.6l.2.2v.6a.2.2 0 0 1-.2.2H2.2a.2.2 0 0 1-.2-.2v-.6l.2-.2zm0 2h7.6l.2.2v.6a.2.2 0 0 1-.2.2H2.2a.2.2 0 0 1-.2-.2v-.6l.2-.2z"/>
  </svg>
</svg>
