<svg xmlns="http://www.w3.org/2000/svg" width="496" height="176" xmlns:xlink="http://www.w3.org/1999/xlink" viewBox="0 0 496 176">
  <svg width="16" height="16" viewBox="0 0 16 16">
    <path fill="#b31b34" d="M15.5 8c0 4.14-3.36 7.5-7.5 7.5S.5 12.14.5 8C.5 3.86 3.86.5 8 .5s7.5 3.36 7.5 7.5z"/>
    <path fill="#fff" d="M13 8c0 2.76-2.24 5-5 5s-5-2.24-5-5 2.24-5 5-5 5 2.24 5 5z"/>
    <path fill="#144382" d="M9.25 5.84C10 6.28 10.5 7.08 10.5 8c0 .46-.13.9-.34 1.26C9.72 10 8.92 10.5 8 10.5c-.46 0-.9-.13-1.26-.34C6 9.72 5.5 8.92 5.5 8c0-.46.12-.9.34-1.26C6.28 6 7.08 5.5 8 5.5c.46 0 .9.13 1.26.34z"/>
  </svg>
  <svg width="16" height="16" x="32" viewBox="0 0 16 16">
    <path fill="#fff" d="M12.18 1C14.48 2.35 16 4.76 16 7.53c0 1.4-.38 2.7-1.05 3.8l.02-.03c-1.35 2.25-3.8 3.74-6.62 3.74-1.4 0-2.73-.38-3.87-1.03l.04.1C2.22 12.7.7 10.3.7 7.6c0-1.4.38-2.7 1.05-3.8h-.02C3.08 1.5 5.53 0 8.35 0c1.4 0 2.73.38 3.86 1.03V1z"/>
    <path fill="#b31b34" d="M8.5 0C5.55 0 2.86 1.63 1.6 4.06L0 3.36l.02 6.06 4.85-3.95L3.5 4.8C4.4 3.13 6.46 2 8.5 2 11.47 2 14 4.56 14 7.5S11.47 13 8.5 13c-1.85 0-3.77-.93-4.74-2.34L2.26 12c1.4 1.84 3.74 3 6.24 3 4.2 0 7.5-3.32 7.5-7.48S12.7 0 8.5 0z"/>
    <path fill="#0d2c56" d="M8 4.5v3c0 .5 0 .63.1.74L10 10c.63.5 1.3-.1.67-.7L9 7.75V4.5c0-.76-1-.76-1 0z"/>
  </svg>
  <svg width="16" height="16" x="64" viewBox="0 0 16 16">
    <path fill="#b31b34" d="M14 1.5v7C9 10.5 8 6 3 9V2c5-3 6 2 11-.5z"/>
    <path fill="#a8adb4" d="M2.56 1h-.12c.3 0 .55.25.55.56v12.88c0 .3-.3.56-.6.56h.1c-.3 0-.6-.25-.6-.56V1.56c0-.3.2-.56.5-.56z"/>
  </svg>
  <svg width="16" height="16" x="96" viewBox="0 0 16 16">
    <path fill="#ffc61e" d="M14 1.5v7C9 10.5 8 6 3 9V2c5-3 6 2 11-.5z"/>
    <path fill="#a8adb4" d="M2.56 1h-.12c.3 0 .55.25.55.56v12.88c0 .3-.3.56-.6.56h.1c-.3 0-.6-.25-.6-.56V1.56c0-.3.2-.56.5-.56z"/>
  </svg>
  <svg width="16" height="16" x="128" viewBox="0 0 16 16">
    <path fill="#b31b34" d="M3 5.5l-2 5L3 16h12l-2-5.5 2-5L13.02 0H1z"/>
    <path fill="#fff" d="M12.38 1l1.37 4H3.87l-1.5-4zm-8.5 14l-1.63-4h10l1.5 4z"/>
  </svg>
  <svg width="16" height="16" x="160" viewBox="0 0 16 16">
    <path fill="#0d2c56" d="M15.25 7c1 0 1-1 0-1H14v-.94h1.25c1 .02 1-1.06 0-1.06H14V3l-1-1h-1V.75c0-1-1-1-1 0V2h-1V.75c0-1-1-1-1 0V2H8V.75c0-1-1-1-1 0V2H6V.75c0-1-1-1-1 0V2H4L3 3v1H1.75c-1 0-1 1 0 1H3v1H1.75c-1 0-1 1.05 0 1.05H3V8H1.75c-1 0-1 1.06 0 1.07H3V10H1.75c-1 0-1 1 0 1l1.25.05V12l1 1h1v1.25c0 1 1 1 1 0V13h1v1.25c0 1 1 1 1 0V13h1v1.25c0 1 1 1 1 0V13h1v1.25c0 1 1 1 1 0V13h1l1-1v-1h1.25c1 0 1-.96 0-1H14v-.94h1.25c1 0 1-1.06 0-1.06H14V7z"/>
    <path fill="#fff" d="M6 5h5v5H6V5z"/>
    <path fill="#b31b34" d="M7 6h3v3H7V6z"/>
  </svg>
  <svg width="16" height="16" x="192" viewBox="0 0 16 16">
    <path fill="#fff" d="M5.17 14.33H11L8 6.67z"/>
    <path fill="#0d2c56" d="M5 1C3.62 4 3.62 6 5 9c-.67-.57-2-1.7-2-4s1.33-3.43 2-4z"/>
    <path fill="#0d2c56" d="M4 0C1.37 4 1.37 6 4 10c-1-.5-3-2.5-3-5S3 .5 4 0zm2.75 6.63L4 16h1.33l.3-1h4.75l.3 1H12L9.25 6.62zm1.25.7L8.82 10H7.18zM6.87 11h2.25l.32 1H6.56zm-.62 2h3.5l.3 1h-4.1z"/>
    <path fill="#b31b34" d="M9.5 2.4c.9.53 1.5 1.5 1.5 2.6 0 .55-.15 1.07-.4 1.52V6.5C10.07 7.4 9.1 8 8 8c-.55 0-1.07-.15-1.52-.4h.02C5.6 7.07 5 6.1 5 5c0-.55.15-1.07.4-1.52v.02C5.93 2.6 6.9 2 8 2c.55 0 1.07.15 1.52.4H9.5z"/>
    <path fill="#0d2c56" d="M11 9c1.38-3 1.38-5 0-8 .67.57 2 1.7 2 4s-1.33 3.43-2 4z"/>
    <path fill="#0d2c56" d="M12 10c2.63-4 2.63-6 0-10 1 .5 3 2.5 3 5s-2 4.5-3 5z"/>
  </svg>
  <svg width="16" height="16" x="224" viewBox="0 0 16 16">
    <path fill="#0d2c56" d="M1.1 2h13.8c.6 0 1.1.5 1.1 1.1v8.8c0 .6-.5 1.1-1.1 1.1H1.1C.5 13 0 12.5 0 11.9V3.1C0 2.5.5 2 1.1 2z"/>
    <path fill="#fff" d="M1 3h14v9H1V3z"/>
    <path fill="#b31b34" d="M8.5 9V8c.8-.33 1-1.05 1-1.88C9.5 5.12 9.5 4 8 4S6.5 5.13 6.5 6.13c0 .82.2 1.54 1 1.87v1C4.5 9 4 10.96 4 12.03h8C12 10.96 11.5 9 8.5 9z"/>
    <path fill="#0d2c56" d="M7 12.5v1c0 .6-.5 1-2 1v.5h6v-.5c-1.5 0-2-.4-2-1v-.9z"/>
  </svg>
  <svg width="16" height="16" x="256" viewBox="0 0 16 16">
    <path fill="#fff" d="M1.32 1.7h13.46v12.65H1.32V1.7z"/>
    <path fill="#0d2c56" d="M16 3.33c0-.45-.16-.94-.9-1.57-.45-.37-1.06-.7-1.8-.97C11.85.2 10 0 8 0S4.16.28 2.73.8c-.75.26-1.36.6-1.8.96-.76.64-.9 1.12-.9 1.57v9.3c0 .45.14.95.9 1.58.43.4 1.04.7 1.8 1 1.42.5 3.3.8 5.3.8s3.83-.3 5.26-.8c.7-.2 1.3-.6 1.8-.9.7-.6.9-1.1.9-1.5zM3.62 2.6c1.2-.4 2.75-.6 4.4-.6s3.18.2 4.37.6c1.1.37 1.5.6 1.6.73-.1.12-.5.7-1.6 1.06-1.2.3-2.8.6-4.4.6s-3.2-.3-4.4-.6C2.4 4 2.1 3.4 2 3.3c.07-.12.44-.36 1.6-.74zm8.77 10.78c-1.2.38-2.8.6-4.4.6s-3.2-.22-4.4-.6c-1.2-.38-1.5-.62-1.6-.74V10.3c.2.1.4.3.7.4 1.4.5 3.3.78 5.3.78s3.8-.28 5.2-.8c.2-.08.5-.27.7-.37v2.4c-.1.1-.5.4-1.6.8zm0-4.5c-1.2.4-2.8.6-4.4.6s-3.2-.2-4.4-.6C2.4 8.5 2 8.1 2 7.98V5.82c.24.1.46.3.7.38C4.15 6.7 6 7 8 7s3.85-.3 5.28-.8c.24-.1.48-.28.7-.38v2.16c-.06.12-.44.53-1.6.9z"/>
  </svg>
  <svg width="16" height="16" x="288" viewBox="0 0 16 16">
    <path fill="#fff" d="M1.7 1H14v14.1H1.7V1z"/>
    <path fill="#b31b34" d="M14 3v12H4c-1 0-1.5-.72-1.5-1.5S3 12 4 12h8V0H3.06C1.92 0 1 .9 1 2v11.5C1 14.96 2.56 16 4 16h11.02V3z"/>
    <path fill="#0d2c56" d="M4.75 13c-.63 0-.75.25-.75.5s.13.5.75.5H12v-1z"/>
  </svg>
  <svg width="16" height="16" x="320" viewBox="0 0 16 16">
    <path fill="#fff" d="M4 11v4h8.5v-4L8.25 9z"/>
    <path fill="#b31b34" d="M1 6.5V9l7-5.5L15 9V6.5L8 1.12z"/>
    <path fill="#0d2c56" d="M2 14c0 .5.5 1 1 1h3v-4h4v4h3c.5 0 1-.5 1-1V9.5L8 5 2 9.5z"/>
  </svg>
  <svg width="16" height="16" x="352" viewBox="0 0 16 16">
    <path fill="#fff" d="M1.4 4.66h12.58l-.02 9.8-.3.86h-12L1.4 14z"/>
    <path fill="#0d2c56" d="M14 3h-1c0 .88-.65 1-1.5 1S10 3.87 10 3H6c0 .88-.63 1-1.53 1S3 3.87 3 3H2c-.5 0-1 .5-1 1v9c0 .5.5 1 1 1h12c.5 0 1-.5 1-1V4c0-.55-.5-1-1-1zm0 10H2V5.1h12zM4.5 3.5c.35 0 .5-.17.5-.5V.5c0-.25-.15-.5-.5-.5S4 .25 4 .5V3c0 .33.15.5.5.5zm7 0c.35 0 .5-.17.5-.5V.5c0-.34-.16-.5-.5-.5s-.5.17-.5.5V3c0 .25.15.5.5.5zm2 11.5H2.25c-.55 0-.88-1-.88-1.5v.45c0 .5.45 2.08 1 2.08h11.25c.56 0 1-1.58 1-2.08v-.46c0 .5-.57 1.5-1.12 1.5z"/>
    <path fill="#fff" d="M6.74 9.9h.04l-.18.13-.04.02.18-.15zm1.7-1.6c0-.06.04-.12.06-.2l.2-.1v.08c-.02.04-.04.08-.04.12l-.2.1z"/>
    <path fill="#b31b34" d="M4 6v1h3v1.5H4v1h3V11H4v1h4V6zm5.98 0L10 7h1v5h1V6z"/>
  </svg>
  <svg width="16" height="16" x="384" viewBox="0 0 16 16">
    <path fill="#ffc61e" d="M7 3h8.5c.25 0 .5.25.5.5v11c0 .25-.25.5-.5.5H.5c-.25 0-.5-.25-.5-.57V1.5c0-.25.25-.5.5-.5H5z"/>
    <path fill="#fdf9ae" d="M0 4h16v10.5c0 .25-.2.5-.5.5H.5c-.24 0-.5-.25-.5-.5z"/>
  </svg>
  <svg width="16" height="16" x="416" viewBox="0 0 16 16">
    <path fill="#ffc61e" d="M7 3h8.5c.25 0 .5.25.5.5v11c0 .25-.25.5-.5.5H.5c-.25 0-.5-.25-.5-.57V1.5c0-.25.25-.5.5-.5H5z"/>
    <path fill="#fdf9ae" d="M0 4h16v10.5c0 .25-.2.5-.5.5H.5c-.24 0-.5-.25-.5-.5z"/>
    <path fill="#0d2c56" d="M3.5 4c-.33 0-.5.22-.5.5v2c0 .28.28.5.62.5H4v6.5c0 .25.25.5.5.5H6v.5s0 .5.5.5h6c.34 0 .5-.22.5-.5v-2c0-.28-.16-.5-.5-.5h-6c-.5 0-.5.5-.5.5v.5H5v-3h1v.5s0 .5.5.5h6c.34 0 .5-.22.5-.5v-2c0-.28-.16-.5-.5-.5h-6c-.5 0-.5.5-.5.5V9H5V7h4.5c.34 0 .5-.22.5-.5v-2c0-.28-.16-.5-.5-.5z"/>
    <path fill="#fff" d="M3.5 4.5h2v2h-2v-2zm3 8h2v2h-2v-2zm0-4h2v2h-2v-2z"/>
  </svg>
  <svg width="16" height="16" x="448" viewBox="0 0 16 16">
    <path fill="#ffc61e" d="M7 3h8.5c.25 0 .5.25.5.5v11c0 .25-.25.5-.5.5H.5c-.25 0-.5-.25-.5-.57V1.5c0-.25.25-.5.5-.5H5z"/>
    <path fill="#fdf9ae" d="M0 4h16v10.5c0 .25-.2.5-.5.5H.5c-.24 0-.5-.25-.5-.5z"/>
    <path fill="#0d2c56" d="M10.9 12.5c.03-.36.22-.54.6-.55.4 0 .58.2.58.56 0 .4-.2.6-.6.6-.36 0-.55-.2-.57-.5zM6.87 9.85l4.16 3.95c.15.13.33.2.55.2.2 0 .4-.07.55-.2l.65-.64c.15-.14.23-.3.23-.52 0-.2 0-.38-.2-.52L8.6 8.18c-.16.38-.4.7-.7 1s-.66.5-1.06.66zM3 7.35c0 .13.04.33.14.6.2.5.52.93 1 1.25s1 .48 1.58.48c.75 0 1.4-.25 1.92-.76s.8-1.12.8-1.83c0-.8-.26-1.4-.8-1.9s-1.17-.7-1.92-.7c-.24 0-.5 0-.75.1s-.47.1-.65.2c-.07 0-.1.1-.1.1s.03.1.1.1l1.75.9v1.3L4.93 8c-.02 0-.18-.1-.48-.28l-.83-.5c-.25-.14-.4-.2-.43-.2-.1 0-.2 0-.2.05v.15z"/>
  </svg>
  <svg width="16" height="16" x="480" viewBox="0 0 16 16">
    <path fill="#ffc61e" d="M7 3h8.5c.25 0 .5.25.5.5v11c0 .25-.25.5-.5.5H.5c-.25 0-.5-.25-.5-.57V1.5c0-.25.25-.5.5-.5H5z"/>
    <path fill="#fdf9ae" d="M0 4h16v10.5c0 .25-.2.5-.5.5H.5c-.24 0-.5-.25-.5-.5z"/>
    <path fill="#2197db" d="M2.55 6h10.9c.3 0 .55.24.55.55v6.9c0 .3-.25.55-.55.55H2.55c-.3 0-.55-.25-.55-.55v-6.9c0-.3.25-.55.55-.55z"/>
    <path fill="#fdf9ae" d="M5.25 7.2c.45.27.75.75.75 1.3 0 .28-.07.54-.2.76-.27.44-.75.74-1.3.74-.28 0-.54-.07-.76-.2C3.3 9.53 3 9.05 3 8.5c0-.28.08-.54.2-.76.27-.44.75-.74 1.3-.74.28 0 .54.08.76.2z"/>
    <path fill="#0d2c56" d="M2 13v.5c0 .25.25.5.5.5h11c.25 0 .5-.25.5-.5v-2L11 8l-4 4.5-2.5-2z"/>
  </svg>
  <svg width="16" height="16" y="32" viewBox="0 0 16 16">
    <path fill="#ffc61e" d="M7 3h8.5c.25 0 .5.25.5.5v11c0 .25-.25.5-.5.5H.5c-.25 0-.5-.25-.5-.57V1.5c0-.25.25-.5.5-.5H5z"/>
    <path fill="#fdf9ae" d="M0 4h16v10.5c0 .25-.2.5-.5.5H.5c-.24 0-.5-.25-.5-.5z"/>
    <path fill="#fff" d="M3.5 4.5h6l3 3v7h-9z"/>
    <path fill="#0d2c56" d="M3.5 4c-.25 0-.5.25-.5.5v10c0 .38.23.5.5.5h9c.25 0 .5-.25.5-.5v-7L12 7v7H4V5h6l-.5-1z"/>
    <path fill="#0d2c56" d="M9.5 4v3.5H13z"/>
  </svg>
  <svg width="16" height="16" x="32" y="32" viewBox="0 0 16 16">
    <path fill="#ffc61e" d="M7 3h8.5c.25 0 .5.25.5.5v11c0 .25-.25.5-.5.5H.5c-.25 0-.5-.25-.5-.57V1.5c0-.25.25-.5.5-.5H5z"/>
    <path fill="#fdf9ae" d="M0 4h16v10.5c0 .25-.2.5-.5.5H.5c-.24 0-.5-.25-.5-.5z"/>
    <path fill="#0d2c56" d="M8.95 11.95L10 13l3.5-3.5L10 6 8.95 7.05 11.4 9.5zm-1.9-4.9L6 6 2.5 9.5 6 13l1.05-1.05L4.6 9.5z"/>
  </svg>
  <svg width="16" height="16" x="64" y="32" viewBox="0 0 16 16">
    <path fill="#ffc61e" d="M7 3h8.5c.25 0 .5.25.5.5v11c0 .25-.25.5-.5.5H.5c-.25 0-.5-.25-.5-.57V1.5c0-.25.25-.5.5-.5H5z"/>
    <path fill="#fdf9ae" d="M0 4h16v10.5c0 .25-.2.5-.5.5H.5c-.24 0-.5-.25-.5-.5z"/>
    <path fill="#0d2c56" d="M2.77 4h10.46c.43 0 .77.34.77.77v8.46c0 .43-.34.77-.77.77H2.77c-.43 0-.77-.34-.77-.77V4.77c0-.43.34-.77.77-.77z"/>
    <path fill="#fff" d="M3 5h4.5v2H3V5zm5.5 0H13v2H8.5V5zm0 3H13v2H8.5V8zM3 8h4.5v2H3V8zm5.5 3H13v2H8.5v-2zM3 11h4.5v2H3v-2z"/>
  </svg>
  <svg width="16" height="16" x="96" y="32" viewBox="0 0 16 16">
    <path fill="#ffc61e" d="M7 3h8.5c.25 0 .5.25.5.5v11c0 .25-.25.5-.5.5H.5c-.25 0-.5-.25-.5-.57V1.5c0-.25.25-.5.5-.5H5z"/>
    <path fill="#fdf9ae" d="M0 4h16v10.5c0 .25-.2.5-.5.5H.5c-.24 0-.5-.25-.5-.5z"/>
    <path fill="#fff" d="M4.9 5h5.2c1.05 0 1.9.85 1.9 1.9v5.2c0 1.04-.85 1.9-1.9 1.9H4.9C3.86 14 3 13.14 3 12.1V6.9C3 5.86 3.85 5 4.9 5z"/>
    <path fill="#0d2c56" d="M12.04 10.22v1.93c0 .5-.18.95-.55 1.3s-.8.55-1.3.55H4.8c-.5 0-.95-.18-1.3-.54s-.55-.8-.55-1.3V6.8c0-.5.17-.93.53-1.3s.8-.53 1.3-.53h3.9c.07 0 .1 0 .16.05s.05.1.05.15v.4c0 .07 0 .12-.1.16s-.1.06-.2.06H4.8c-.26 0-.5.1-.7.3s-.3.4-.3.7v5.3c0 .3.1.5.3.7s.44.3.72.3h5.34c.27 0 .5-.1.7-.3s.3-.5.3-.8v-1.9c0-.1.03-.1.07-.2s.1-.1.15-.1h.4c.07 0 .12 0 .16.1l.06.1zM14 4.55v3.3c0 .1-.04.2-.12.28s-.18.12-.3.12c-.1 0-.2-.04-.28-.12L12.17 7 8 11.18c-.06.05-.1.07-.16.07s-.1-.02-.15-.07l-.8-.73c-.1-.04-.1-.1-.1-.15v-.14l4.2-4.2-1.1-1.1c-.1-.1-.1-.18-.1-.3s0-.2.1-.28c.1-.1.2-.13.3-.13h3.3c.1 0 .2.04.2.13s.1.17.1.28z"/>
  </svg>
  <svg width="16" height="16" x="128" y="32" viewBox="0 0 16 16">
    <path fill="#2197db" d="M7 3h8.5c.25 0 .5.25.5.5v11c0 .25-.25.5-.5.5H.5c-.25 0-.5-.25-.5-.57V1.5c0-.25.25-.5.5-.5H5z"/>
    <path fill="#fff" d="M0 4h16v10.5c0 .25-.2.5-.5.5H.5c-.25 0-.5-.25-.5-.5z" opacity=".6"/>
  </svg>
  <svg width="16" height="16" x="160" y="32" viewBox="0 0 16 16">
    <path fill="#b31b34" d="M7 3h8.5c.25 0 .5.25.5.5v11c0 .25-.25.5-.5.5H.5c-.25 0-.5-.25-.5-.57V1.5c0-.25.25-.5.5-.5H5z"/>
    <path fill="#fff" d="M0 4h16v10.5c0 .25-.2.5-.5.5H.5c-.25 0-.5-.25-.5-.5z" opacity=".6"/>
  </svg>
  <svg width="16" height="16" x="192" y="32" viewBox="0 0 16 16">
    <path fill="#0d2c56" d="M1.67 0h12.66c.37 0 .67.3.67.67v14.66c0 .37-.3.67-.67.67H1.67c-.37 0-.67-.3-.67-.67V.67C1 .3 1.3 0 1.67 0z"/>
    <path fill="#fff" d="M2 1h12v14H2V1z"/>
    <path fill="#a8adb4" d="M4.28 12h7.44c.16 0 .28.12.28.28v.44c0 .16-.12.28-.28.28H4.28c-.16 0-.28-.12-.28-.28v-.44c0-.16.12-.28.28-.28zm0-2h7.44c.16 0 .28.12.28.28v.44c0 .16-.12.28-.28.28H4.28c-.16 0-.28-.12-.28-.28v-.44c0-.16.12-.28.28-.28zm0-2h7.44c.16 0 .28.12.28.28v.44c0 .16-.12.28-.28.28H4.28C4.12 9 4 8.88 4 8.72v-.44c0-.16.12-.28.28-.28zm0-2h7.44c.16 0 .28.12.28.28v.44c0 .16-.12.28-.28.28H4.28C4.12 7 4 6.88 4 6.72v-.44c0-.16.12-.28.28-.28zm0-2h7.44c.16 0 .28.12.28.28v.44c0 .16-.12.28-.28.28H4.28C4.12 5 4 4.88 4 4.72v-.44c0-.16.12-.28.28-.28z"/>
  </svg>
  <svg width="16" height="16" x="224" y="32" viewBox="0 0 16 16">
    <path fill="#0d2c56" d="M1.67 0h12.66c.37 0 .67.3.67.67v14.66c0 .37-.3.67-.67.67H1.67c-.37 0-.67-.3-.67-.67V.67C1 .3 1.3 0 1.67 0z"/>
    <path fill="#fff" d="M2 1h12v14H2V1z"/>
    <path fill="#b31b34" d="M3 11h10v3H3v-3z"/>
    <path fill="#2197db" d="M3 2h10v3.03H3V2z"/>
    <path fill="#b31b34" d="M9 6h4v4H9V6z"/>
    <path fill="#2197db" d="M3 6h4v4H3V6z"/>
  </svg>
  <svg width="16" height="16" x="256" y="32" viewBox="0 0 16 16">
    <path fill="#0d2c56" d="M1.67 0h12.66c.37 0 .67.3.67.67v14.66c0 .37-.3.67-.67.67H1.67c-.37 0-.67-.3-.67-.67V.67C1 .3 1.3 0 1.67 0z"/>
    <path fill="#fff" d="M2 1h12v14H2V1z"/>
    <path fill="#b31b34" d="M3 11h10v3H3v-3z"/>
    <path fill="#a8adb4" d="M3 2h10v3.03H3V2z"/>
    <path fill="#b31b34" d="M9 6h4v4H9V6z"/>
    <path fill="#a8adb4" d="M3 6h4v4H3V6z"/>
  </svg>
  <svg width="16" height="16" x="288" y="32" viewBox="0 0 16 16">
    <path fill="#b31b34" d="M1.67 0h12.66c.37 0 .67.3.67.67v14.66c0 .37-.3.67-.67.67H1.67c-.37 0-.67-.3-.67-.67V.67C1 .3 1.3 0 1.67 0z"/>
    <path fill="#fff" d="M2 1h12v14H2V1z"/>
    <path fill="#b31b34" d="M2 1h12v14H2V1z" opacity=".1"/>
    <path fill="#b31b34" d="M3 11h10v3H3v-3z"/>
    <path fill="#2197db" d="M3 2h10v3.03H3V2z"/>
    <path fill="#b31b34" d="M9 6h4v4H9V6z"/>
    <path fill="#2197db" d="M3 6h4v4H3V6z"/>
  </svg>
  <svg width="16" height="16" x="320" y="32" viewBox="0 0 16 16">
    <path fill="#0d2c56" d="M1.67 0h12.66c.37 0 .67.3.67.67v14.66c0 .37-.3.67-.67.67H1.67c-.37 0-.67-.3-.67-.67V.67C1 .3 1.3 0 1.67 0z"/>
    <path fill="#fff" d="M2 1h12v14H2V1z"/>
    <path fill="#0d2c56" d="M9.43 14l2.14-1.07c-.7-1.43-.36-2.5 1.43-2.5V7.57c-1.8 0-2.4-1.07-1.43-2.5L9.43 4C8.7 5.8 7.3 5.8 6.57 4L4.43 5.07c.7 1.43.36 2.5-1.43 2.5v2.86c1.8 0 2.14 1.07 1.43 2.5L6.57 14c.72-1.8 2.14-1.8 2.86 0zM5.86 9c0-1.25 1.07-2.14 2.14-2.14s2.14.9 2.14 2.14c0 1.25-.9 2.14-2.14 2.14-1.07 0-2.14-.9-2.14-2.14z"/>
  </svg>
  <svg width="16" height="16" x="352" y="32" viewBox="0 0 16 16">
    <path fill="#0d2c56" d="M1.67 0h12.66c.37 0 .67.3.67.67v14.66c0 .37-.3.67-.67.67H1.67c-.37 0-.67-.3-.67-.67V.67C1 .3 1.3 0 1.67 0z"/>
    <path fill="#fff" d="M2 1h12v14H2V1z"/>
    <path fill="#0d2c56" d="M0 7.5v3c0 .25.25.5.48.5H4v3l5-5-5-5v3H.5c-.25 0-.5.25-.5.5z"/>
    <path fill="#2197db" d="M1 8v2h4v1.66L7.63 9 5 6.37V8z"/>
  </svg>
  <svg width="16" height="16" x="384" y="32" viewBox="0 0 16 16">
    <path fill="#0d2c56" d="M1.67 0h12.66c.37 0 .67.3.67.67v14.66c0 .37-.3.67-.67.67H1.67c-.37 0-.67-.3-.67-.67V.67C1 .3 1.3 0 1.67 0z"/>
    <path fill="#fff" d="M2 1h12v14H2V1z"/>
    <path fill="#0d2c56" d="M5 9v1H4v1h1v2H4v1h3v-1H6V9zm5-7v1H9v1h1v2H9v1h3V6h-1V2zM9 9h2v1H9V9zm-1 1v3h1v-.43h.5V12H9v-2zm3 0v.5h-.5v.5h.5v2h1v-3zm-2 3h2v1H9v-1zm.5-1.5h.5v.5h-.5v-.5zm.5-.5h.5v.5H10V11zM5 2h2v1H5V2zM4 3v3h1v-.43h.5V5H5V3zm3 0v.5h-.5V4H7v2h1V3zM5 6h2v1H5V6zm.5-1.5H6V5h-.5v-.5zM6 4h.5v.5H6V4z"/>
  </svg>
  <svg width="16" height="16" x="416" y="32" viewBox="0 0 16 16">
    <path fill="#0d2c56" d="M1.67 0h12.66c.37 0 .67.3.67.67v14.66c0 .37-.3.67-.67.67H1.67c-.37 0-.67-.3-.67-.67V.67C1 .3 1.3 0 1.67 0z"/>
    <path fill="#fff" d="M2 1h12v14H2V1z"/>
    <path fill="#0d2c56" d="M11.58 10.74c1.06-.56 1.4-1.1 1.4-2.08C13 7.32 11.58 6 9.8 6S6.55 7 6.54 8.3C4.42 8.3 3 9.3 3 10.64c0 .8.47 1.85 1.42 2.02 0 1-1.1 1.18-1.38 1.3.9.02 1.95-.2 2.46-.97 2.85.1 3.55-.9 3.92-1.7h1.04c.6.5 1.46.6 2.53.6-.6-.3-1.3-.8-1.5-1.3zm-1.1-.1c-.42.06-.7.1-1.06 0-.1-.85-.38-1.9-2.1-2.3-.05-.9 1.03-1.68 2.45-1.68s2.5 1.15 2.5 2c0 .8-.13 1.07-1.42 1.82.14.45.66.9 1.07 1.17-.85-.26-1.2-.63-1.43-1z"/>
  </svg>
  <svg width="16" height="16" x="448" y="32" viewBox="0 0 16 16">
    <path fill="#b31b34" d="M1.67 0h12.66c.37 0 .67.3.67.67v14.66c0 .37-.3.67-.67.67H1.67c-.37 0-.67-.3-.67-.67V.67C1 .3 1.3 0 1.67 0z"/>
    <path fill="#fff" d="M2 1h12v14H2V1z"/>
    <path fill="#b31b34" d="M2 1h12v14H2V1z" opacity=".1"/>
    <path fill="#0d2c56" d="M11.58 10.74c1.06-.56 1.4-1.1 1.4-2.08C13 7.32 11.58 6 9.8 6S6.55 7 6.54 8.3C4.42 8.3 3 9.3 3 10.64c0 .8.47 1.85 1.42 2.02 0 1-1.1 1.18-1.38 1.3.9.02 1.95-.2 2.46-.97 2.85.1 3.55-.9 3.92-1.7h1.04c.6.5 1.46.6 2.53.6-.6-.3-1.3-.8-1.5-1.3zm-1.1-.1c-.42.06-.7.1-1.06 0-.1-.85-.38-1.9-2.1-2.3-.05-.9 1.03-1.68 2.45-1.68s2.5 1.15 2.5 2c0 .8-.13 1.07-1.42 1.82.14.45.66.9 1.07 1.17-.85-.26-1.2-.63-1.43-1z"/>
  </svg>
  <svg width="16" height="16" x="480" y="32" viewBox="0 0 16 16">
    <path fill="#0d2c56" d="M1.67 0h12.66c.37 0 .67.3.67.67v14.66c0 .37-.3.67-.67.67H1.67c-.37 0-.67-.3-.67-.67V.67C1 .3 1.3 0 1.67 0z"/>
    <path fill="#fff" d="M2 1h12v14H2V1z"/>
    <path fill="#0d2c56" d="M6.74 4C4.68 4 3 5.68 3 7.75s1.68 3.75 3.74 3.75c.78 0 1.6-.14 2.43-.85l.3.3c-.12.25-.06.53.33.9l1.76 1.8c.5.5.93.4 1.2.1.27-.26.4-.65-.12-1.17l-1.78-1.78c-.37-.38-.66-.43-.92-.3l-.3-.33c.72-.83.84-1.65.84-2.42C10.48 5.68 8.8 4 6.74 4zm0 1.07c1.5 0 2.7 1.2 2.7 2.7s-1.2 2.68-2.7 2.68-2.68-1.2-2.68-2.7c0-1.48 1.2-2.68 2.7-2.68z"/>
  </svg>
  <svg width="16" height="16" y="64" viewBox="0 0 16 16">
    <path fill="#0d2c56" d="M1.67 0h12.66c.37 0 .67.3.67.67v14.66c0 .37-.3.67-.67.67H1.67c-.37 0-.67-.3-.67-.67V.67C1 .3 1.3 0 1.67 0z"/>
    <path fill="#fff" d="M2 1h12v14H2V1z"/>
    <path fill="#0d2c56" d="M3.5 3c-.33 0-.5.22-.5.5v2c0 .28.28.5.62.5H4v6.5c0 .25.25.5.5.5H6v.5s0 .5.5.5h6c.34 0 .5-.22.5-.5v-2c0-.28-.16-.5-.5-.5h-6c-.5 0-.5.5-.5.5v.5H5V9h1v.5s0 .5.5.5h6c.34 0 .5-.22.5-.5v-2c0-.28-.16-.5-.5-.5h-6c-.5 0-.5.5-.5.5V8H5V6h4.5c.34 0 .5-.22.5-.5v-2c0-.28-.16-.5-.5-.5z"/>
    <path fill="#fff" d="M3.5 3.5h2v2h-2v-2zm3 8h2v2h-2v-2zm0-4h2v2h-2v-2z"/>
  </svg>
  <svg width="16" height="16" x="32" y="64" viewBox="0 0 16 16">
    <path fill="#0d2c56" d="M1.67 0h12.66c.37 0 .67.3.67.67v14.66c0 .37-.3.67-.67.67H1.67c-.37 0-.67-.3-.67-.67V.67C1 .3 1.3 0 1.67 0z"/>
    <path fill="#fff" d="M2 1h12v14H2V1z"/>
    <path fill="#fff" d="M7 5.5h2.5V8H7V5.5z"/>
    <path fill="#0d2c56" d="M10.88 12.5c0-.37.2-.55.58-.55.4 0 .6.18.58.55 0 .36-.18.55-.58.55-.37 0-.57-.18-.6-.55zM6.83 9.84l4.15 3.94c.15.14.34.2.55.2.2 0 .4-.06.56-.2l.6-.62c.1-.14.2-.32.2-.53 0-.2-.1-.38-.3-.52l-4-3.9c-.2.4-.4.7-.7 1s-.7.6-1.1.7zM2.96 7.32c0 .15.05.36.14.6.2.53.53.95 1 1.27s1 .4 1.58.4c.75 0 1.4-.3 1.93-.8s.8-1.1.8-1.9-.2-1.4-.8-1.9-1.1-.7-1.9-.7c-.2 0-.4 0-.7.1s-.5.1-.6.2c0 0-.1.1-.1.12s.1.12.1.16l1.8 1v1.3L5 8s-.2-.1-.5-.3l-.8-.5c-.2-.13-.4-.2-.4-.2-.04 0-.1 0-.12.06l-.1.2z"/>
    <path fill="#0d2c56" d="M8 2h5v5H8V2z"/>
    <path fill="#fff" d="M9 3h3v3H9V3z"/>
    <path fill="#b31b34" d="M10 2h1v2h-1V2z"/>
  </svg>
  <svg width="16" height="16" x="64" y="64" viewBox="0 0 16 16">
    <path fill="#0d2c56" d="M1.67 0h12.66c.37 0 .67.3.67.67v14.66c0 .37-.3.67-.67.67H1.67c-.37 0-.67-.3-.67-.67V.67C1 .3 1.3 0 1.67 0z"/>
    <path fill="#fff" d="M2 1h12v14H2V1z"/>
    <path fill="#0d2c56" d="M9.56 12.95l.8 1.05L13 10.5 10.36 7l-.8 1.05 1.85 2.45zm-3.12-4.9L5.64 7 3 10.5 5.64 14l.8-1.05L4.6 10.5zm1.32-1.8L9 6.38l-.76 8.12L7 14.36l.76-8.1z"/>
  </svg>
  <svg width="16" height="16" x="96" y="64" viewBox="0 0 16 16">
    <path fill="#0d2c56" d="M1.67 0h12.66c.37 0 .67.3.67.67v14.66c0 .37-.3.67-.67.67H1.67c-.37 0-.67-.3-.67-.67V.67C1 .3 1.3 0 1.67 0z"/>
    <path fill="#fff" d="M2 1h12v14H2V1z"/>
    <path fill="#0d2c56" d="M12.08 10.27v1.93c0 .5-.18.95-.55 1.3s-.8.55-1.3.55H4.9c-.52 0-.95-.18-1.32-.54s-.54-.8-.54-1.3V6.9c0-.5.18-.94.54-1.3s.8-.6 1.3-.6h2.9c.06 0 .1.03.15.07s.06.1.06.15v.4c0 .07-.1.12-.1.16s-.1.06-.2.06H4.8c-.26 0-.5.1-.7.3s-.3.44-.3.72v5.34c0 .3.1.53.3.73s.45.3.73.3h5.33c.3 0 .52-.1.72-.3s.3-.45.3-.73v-1.93c0-.06 0-.1.04-.14s.1-.06.14-.06h.4c.06 0 .1.02.15.06s.1.08.1.14zm.96-5.67v3.3c0 .1-.04.2-.12.28s-.18.12-.3.12c-.1 0-.2-.04-.28-.12L11.2 7.05l-4.17 4.18c-.05.04-.1.07-.15.07s-.1-.03-.15-.07L6 10.5c-.04-.04-.06-.1-.06-.15s.02-.1.06-.15l4.18-4.18L9.05 4.9c-.08-.1-.12-.2-.12-.3s.04-.2.12-.3c.08-.07.18-.1.3-.1h3.28c.1 0 .2.03.3.1s.1.2.1.3z"/>
  </svg>
  <svg width="16" height="16" x="128" y="64" viewBox="0 0 16 16">
    <path fill="#0d2c56" d="M1.67 0h12.66c.37 0 .67.3.67.67v14.66c0 .37-.3.67-.67.67H1.67c-.37 0-.67-.3-.67-.67V.67C1 .3 1.3 0 1.67 0z"/>
    <path fill="#fff" d="M2 1h12v14H2V1z"/>
    <path fill="#0d2c56" d="M10.9 12.47c0-.37.2-.55.57-.55.4 0 .6.18.6.55 0 .36-.2.55-.6.55-.37 0-.56-.18-.58-.55zM6.83 9.8L11 13.76c.15.14.33.2.55.2.2 0 .4-.06.56-.2l.7-.63c.2-.13.3-.3.3-.52 0-.2 0-.3-.2-.5L8.6 8.2c-.16.38-.4.7-.7 1s-.66.52-1.06.67zM2.98 7.3c0 .14.05.35.14.6.2.52.52.94 1 1.26s1 .48 1.58.48c.75 0 1.4-.25 1.93-.76s.8-1.1.8-1.83c0-.7-.27-1.32-.8-1.83s-1.18-.76-1.93-.76c-.24 0-.5.04-.74.1s-.48.15-.66.27c-.06.04-.1.1-.1.16s.04.1.1.1l1.76.9v1.3L4.9 8l-.44-.27-.83-.46c-.24-.15-.4-.2-.42-.2 0 0-.1 0-.1.04s-.1.2-.1.2z"/>
  </svg>
  <svg width="16" height="16" x="160" y="64" viewBox="0 0 16 16">
    <path fill="#b31b34" d="M1.67 0h12.66c.37 0 .67.3.67.67v14.66c0 .37-.3.67-.67.67H1.67c-.37 0-.67-.3-.67-.67V.67C1 .3 1.3 0 1.67 0z"/>
    <path fill="#fff" d="M2 1h12v14H2V1z"/>
    <path fill="#b31b34" d="M2 1h12v14H2V1z" opacity=".1"/>
    <path fill="#0d2c56" d="M10.9 12.47c0-.37.2-.55.57-.55.4 0 .6.18.6.55 0 .36-.2.55-.6.55-.37 0-.56-.18-.58-.55zM6.83 9.8L11 13.76c.15.14.33.2.55.2.2 0 .4-.06.56-.2l.7-.63c.2-.13.3-.3.3-.52 0-.2 0-.3-.2-.5L8.6 8.2c-.16.38-.4.7-.7 1s-.66.52-1.06.67zM2.98 7.3c0 .14.05.35.14.6.2.52.52.94 1 1.26s1 .48 1.58.48c.75 0 1.4-.25 1.93-.76s.8-1.1.8-1.83c0-.7-.27-1.32-.8-1.83s-1.18-.76-1.93-.76c-.24 0-.5.04-.74.1s-.48.15-.66.27c-.06.04-.1.1-.1.16s.04.1.1.1l1.76.9v1.3L4.9 8l-.44-.27-.83-.46c-.24-.15-.4-.2-.42-.2 0 0-.1 0-.1.04s-.1.2-.1.2z"/>
  </svg>
  <svg width="16" height="16" x="192" y="64" viewBox="0 0 16 16">
    <path fill="#b31b34" d="M1.67 0h12.66c.37 0 .67.3.67.67v14.66c0 .37-.3.67-.67.67H1.67c-.37 0-.67-.3-.67-.67V.67C1 .3 1.3 0 1.67 0z"/>
    <path fill="#fff" d="M2 1h12v14H2V1z"/>
    <path fill="#b31b34" d="M2 1h12v14H2V1z" opacity=".1"/>
    <path fill="#b31b34" d="M0 5h16v7H0V5z"/>
    <path fill="#fff" d="M12.5 6c1 0 1.5.5 1.5 1.5S13.5 9 12.5 9H12v2h-1V6zM12 7v1c.5 0 1 0 1-.5s-.5-.5-1-.5zm-2-1v1H7.5c-.3 0-.5.23-.5.5s.25.5.5.5h1c1 0 1.5.42 1.5 1v1c0 .52-.46 1-1 1H6v-1h2.5c.26 0 .5-.2.5-.5S8.8 9 8.5 9H7c-.5 0-1-.5-1-1V7c0-.5.5-1 1-1zM4 6h1v3.76C5 10.5 4.5 11 3.72 11h-.44C2.5 11 2 10.5 2 9.75V9.5h1c.02.3.18.5.5.5s.5-.3.5-.5z"/>
  </svg>
  <svg width="16" height="16" x="224" y="64" viewBox="0 0 16 16">
    <path fill="#0d2c56" d="M1.67 0h12.66c.37 0 .67.3.67.67v14.66c0 .37-.3.67-.67.67H1.67c-.37 0-.67-.3-.67-.67V.67C1 .3 1.3 0 1.67 0z"/>
    <path fill="#fff" d="M2 1h12v14H2V1z"/>
    <path fill="#0d2c56" d="M4.33 3.97h7.34c.2 0 .33.15.33.33v.38c0 .18-.15.32-.33.32H4.34C4.14 5 4 4.85 4 4.68V4.3c0-.18.15-.33.33-.33z"/>
    <path fill="#a8adb4" d="M4.28 12h7.44c.16 0 .28.12.28.28v.44c0 .16-.12.28-.28.28H4.28c-.16 0-.28-.12-.28-.28v-.44c0-.16.12-.28.28-.28zm0-2h7.44c.16 0 .28.12.28.28v.44c0 .16-.12.28-.28.28H4.28c-.16 0-.28-.12-.28-.28v-.44c0-.16.12-.28.28-.28zm0-2h7.44c.16 0 .28.12.28.28v.44c0 .16-.12.28-.28.28H4.28C4.12 9 4 8.88 4 8.72v-.44c0-.16.12-.28.28-.28z"/>
  </svg>
  <svg width="16" height="16" x="256" y="64" viewBox="0 0 16 16">
    <path fill="#7f8691" d="M7 3h8.5c.25 0 .5.25.5.5v11c0 .25-.25.5-.5.5H.5c-.25 0-.5-.25-.5-.57V1.5c0-.25.25-.5.5-.5H5z"/>
    <path fill="#fff" d="M0 4h16v10.5c0 .25-.2.5-.5.5H.5c-.25 0-.5-.25-.5-.5z" opacity=".6"/>
    <path fill="#b31b34" d="M7 11v-1c.23-.9.44-1.2.95-1.9C8.3 7.7 8.97 7.07 9 6.55c0-.84-1.5-.8-2.25-.58-.33.1-.56.27-.94.55L5 5c.35-.28.65-.38 1-.54C6.58 4.2 7.37 4 7.88 4c.62 0 1.14.1 1.54.26.4.16.72.37.95.62s.4.52.48.83c.1.3.15.6.15.9 0 .3-.07.6-.2.9-.12.3-.3.5-.48.8C9.75 8.8 9.2 9.5 9 10l-.03 1zm1.5 1.13c.3.18.5.5.5.87 0 .18-.05.36-.14.5-.17.3-.5.5-.86.5-.18 0-.36-.05-.5-.14-.3-.17-.5-.5-.5-.86 0-.18.05-.36.14-.5.17-.3.5-.5.86-.5.18 0 .36.05.5.14z"/>
  </svg>
  <svg width="16" height="16" x="288" y="64" viewBox="0 0 16 16">
    <path fill="#b31b34" d="M1.67 0h12.66c.37 0 .67.3.67.67v14.66c0 .37-.3.67-.67.67H1.67c-.37 0-.67-.3-.67-.67V.67C1 .3 1.3 0 1.67 0z"/>
    <path fill="#fff" d="M2 1h12v14H2V1z"/>
    <path fill="#7f8691" d="M2 1h12v14H2V1z"/>
    <path fill="#fff" d="M2 1h12v14H2V1z" opacity=".5"/>
    <path fill="#b31b34" d="M7 10V9c.23-.9.44-1.2.95-1.9C8.3 6.7 8.97 6.07 9 5.55c0-.84-1.5-.8-2.25-.58-.33.1-.56.27-.94.55L5 4c.35-.27.65-.38 1-.54C6.58 3.2 7.37 3 7.88 3c.62 0 1.14.1 1.54.26.4.16.72.37.95.62s.4.52.48.83c.1.3.15.6.15.9 0 .3-.07.6-.2.9-.12.3-.3.5-.48.8C9.75 7.8 9.2 8.5 9 9l-.03 1zm1.5 1.13c.3.18.5.5.5.87 0 .18-.05.36-.14.5-.17.3-.5.5-.86.5-.18 0-.36-.05-.5-.14-.3-.17-.5-.5-.5-.86 0-.18.05-.36.14-.5.17-.3.5-.5.86-.5.18 0 .36.05.5.14z"/>
  </svg>
  <svg width="16" height="16" x="320" y="64" viewBox="0 0 16 16">
    <path fill="#0d2c56" d="M1 .5v15c0 .25.25.5.5.5h13c.25 0 .5-.25.5-.5V5l-5-5H1.5c-.28 0-.5.28-.5.5z"/>
    <path fill="#fff" d="M2 1v14h12V4l-3.25-3z"/>
    <path fill="#0d2c56" d="M10 0v4.5c0 .32.25.5.5.5H15z"/>
    <path fill="#b31b34" d="M5 8.67V8c0-.48.15-.94.56-.95L6 7V6h-.43C4.67 6 4 6.94 4 8.07v.5c0 .48-.38.93-.77.93H3v1h.23c.4 0 .77.52.77 1v.5c0 1.13.68 1.84 1.57 2H6v-1l-.46-.05C5.16 12.9 5 12.5 5 12v-.67c0-.82-.12-1-.67-1.33.52-.33.67-.54.67-1.33zm6 2.56v.68c0 .5-.17 1-.55 1.1H10v1h.44c.9 0 1.56-.9 1.56-2v-.5c0-.5.37-.9.76-.9H13v-1h-.24c-.4 0-.76-.5-.76-1V8c0-1.2-.65-2-1.56-2H10v1h.46c.4 0 .54.4.54.92v.7c0 .83.15.96.7 1.3-.55.34-.7.47-.7 1.3zM7 9h2v1H7V9zm0 2h2v1l-1.5 2H7v-.5L8.17 12H7z"/>
  </svg>
  <svg width="16" height="16" x="352" y="64" viewBox="0 0 16 16">
    <path fill="#0d2c56" d="M1 .5v15c0 .25.25.5.5.5h13c.25 0 .5-.25.5-.5V5l-5-5H1.5c-.28 0-.5.28-.5.5z"/>
    <path fill="#fff" d="M2 1v14h12V4l-3.25-3z"/>
    <path fill="#0d2c56" d="M10 0v4.5c0 .32.25.5.5.5H15zM6 8.67V8c0-.48.15-.94.56-.95L7 7V6h-.43C5.67 6 5 6.94 5 8.07v.5c0 .48-.38.93-.77.93H4v1h.23c.4 0 .77.52.77 1v.5c0 1.13.68 1.84 1.57 2H7v-1l-.46-.05C6.16 12.9 6 12.5 6 12v-.67c0-.82-.12-1-.67-1.33.52-.33.67-.54.67-1.33zm4 2.56v.68c0 .5-.17 1-.55 1.1H9v1h.44c.9 0 1.56-.9 1.56-2v-.5c0-.5.37-.9.76-.9H12v-1h-.24c-.4 0-.76-.5-.76-1V8c0-1.2-.65-2-1.56-2H9v1h.46c.4 0 .54.4.54.92v.7c0 .83.15.96.7 1.3-.55.34-.7.47-.7 1.3z"/>
  </svg>
  <svg width="16" height="16" x="384" y="64" viewBox="0 0 16 16">
    <path fill="#0d2c56" d="M1 .5v15c0 .25.25.5.5.5h13c.25 0 .5-.25.5-.5V5l-5-5H1.5c-.28 0-.5.28-.5.5z"/>
    <path fill="#fff" d="M2 1v14h12V4l-3.25-3z"/>
    <path fill="#0d2c56" d="M10 0v4.5c0 .32.25.5.5.5H15zM8.56 12.8l.8 1.2L12 10 9.36 6l-.8 1.2L10.4 10zM7.44 7.2L6.64 6 4 10l2.64 4 .8-1.2L5.6 10z"/>
  </svg>
  <svg width="16" height="16" x="416" y="64" viewBox="0 0 16 16">
    <path fill="#0d2c56" d="M1 .5v15c0 .25.25.5.5.5h13c.25 0 .5-.25.5-.5V5l-5-5H1.5c-.28 0-.5.28-.5.5z"/>
    <path fill="#fff" d="M2 1v14h12V4l-3.25-3z"/>
    <path fill="#0d2c56" d="M10 0v4.5c0 .32.25.5.5.5H15zm-.44 12.8l.8 1.2L13 10l-2.64-4-.8 1.2L11.4 10zM6.44 7.2L5.64 6 3 10l2.64 4 .8-1.2L4.6 10zM7.76 6L9 6.13 8.24 14 7 13.87 7.76 6z"/>
  </svg>
  <svg width="16" height="16" x="448" y="64" viewBox="0 0 16 16">
    <path fill="#0d2c56" d="M1 .5v15c0 .25.25.5.5.5h13c.25 0 .5-.25.5-.5V5l-5-5H1.5c-.28 0-.5.28-.5.5z"/>
    <path fill="#fff" d="M2 1v14h12V4l-3.25-3z"/>
    <path fill="#0d2c56" d="M10 0v4.5c0 .32.25.5.5.5H15z"/>
    <path fill="#a8adb4" d="M3.5 6h9c.28 0 .5.22.5.5s-.22.5-.5.5h-9c-.28 0-.5-.22-.5-.5s.22-.5.5-.5zm0 2h7c.28 0 .5.22.5.5s-.22.5-.5.5h-7c-.28 0-.5-.22-.5-.5s.22-.5.5-.5zm0 2h5c.28 0 .5.22.5.5s-.22.5-.5.5h-5c-.28 0-.5-.22-.5-.5s.22-.5.5-.5zm0 2h7c.28 0 .5.22.5.5s-.22.5-.5.5h-7c-.28 0-.5-.22-.5-.5s.22-.5.5-.5z"/>
  </svg>
  <svg width="16" height="16" x="480" y="64" viewBox="0 0 16 16">
    <path fill="#0d2c56" d="M1 .5v15c0 .25.25.5.5.5h13c.25 0 .5-.25.5-.5V5l-5-5H1.5c-.28 0-.5.28-.5.5z"/>
    <path fill="#fff" d="M2 1v14h12V4l-3.25-3z"/>
    <path fill="#0d2c56" d="M10 0v4.5c0 .32.25.5.5.5H15zM7 1h2v1H7V1zM5 8v4h4V9H7V8zm2 1.88c1 0 1.13.34 1.13.62s-.13.63-1.13.63c-1 0-1.13-.35-1.13-.63S6 9.87 7 9.87zM5 2h2v1H5V2zm2 1h2v1H7V3zM5 4h2v1H5V4zm2 1h2v1H7V5zM5 6h2v1H5V6zm2 1h2v1H7V7z"/>
  </svg>
  <svg width="16" height="16" y="96" viewBox="0 0 16 16">
    <path fill="#0d2c56" d="M1 .5v15c0 .25.25.5.5.5h13c.25 0 .5-.25.5-.5V5l-5-5H1.5c-.28 0-.5.28-.5.5z"/>
    <path fill="#fff" d="M2 1v14h12V4l-3.25-3z"/>
    <path fill="#0d2c56" d="M10 0v4.5c0 .32.25.5.5.5H15zM3 6h10v8H3V6z"/>
    <path fill="#fff" d="M5 12.98L3.5 7h1l1.13 4.5L7.5 7h1l1.88 4.5L11.5 7h1L11 13h-1L8 8.12l-2.03 4.86z"/>
  </svg>
  <svg width="16" height="16" x="32" y="96" viewBox="0 0 16 16">
    <path fill="#0d2c56" d="M1 .5v15c0 .25.25.5.5.5h13c.25 0 .5-.25.5-.5V5l-5-5H1.5c-.28 0-.5.28-.5.5z"/>
    <path fill="#fff" d="M2 1v14h12V4l-3.25-3z"/>
    <path fill="#0d2c56" d="M10 0v4.5c0 .32.25.5.5.5H15z"/>
    <path fill="#1bb39a" d="M3 6h10v8H3V6z"/>
    <path fill="#fff" d="M5 7h1l2 2.38L10 7h1l-2.5 3 2.5 3h-1l-2-2.38L6 13H5l2.5-3z"/>
  </svg>
  <svg width="16" height="16" x="64" y="96" viewBox="0 0 16 16">
    <path fill="#0d2c56" d="M1 .5v15c0 .25.25.5.5.5h13c.25 0 .5-.25.5-.5V5l-5-5H1.5c-.28 0-.5.28-.5.5z"/>
    <path fill="#fff" d="M2 1v14h12V4l-3.25-3z"/>
    <path fill="#0d2c56" d="M10 0v4.5c0 .32.25.5.5.5H15z"/>
    <path fill="#b31b34" d="M3 6h10v8H3V6z"/>
    <path fill="#fff" d="M7 8v2h1c.5 0 1-.38 1-1s-.5-1-1-1zM6 7h2c1 0 2 .63 2 2s-1 2-2 2H7v2H6z"/>
  </svg>
  <svg width="16" height="16" x="96" y="96" viewBox="0 0 16 16">
    <path fill="#0d2c56" d="M1 .5v15c0 .25.25.5.5.5h13c.25 0 .5-.25.5-.5V5l-5-5H1.5c-.28 0-.5.28-.5.5z"/>
    <path fill="#fff" d="M2 1v14h12V4l-3.25-3z"/>
    <path fill="#0d2c56" d="M10 0v4.5c0 .32.25.5.5.5H15zM6.57 11.05s-.4.3.3.4c.85.1 1.3.1 2.24-.12l.6.35c-2.1 1.1-4.8-.07-3.1-.63zM6.3 9.63s-.45.4.26.5c.9.1 1.64.12 2.9-.17 0 0 .16.2.43.33-2.6.9-5.5 0-3.6-.7z"/>
    <path fill="#b31b34" d="M7.9 7.22c.52.72-.14 1.37-.14 1.37s1.33-.9.72-1.9c-.57-1-1-1.5 1.36-3.1 0 0-3.7 1.1-1.94 3.5z"/>
    <path fill="#0d2c56" d="M11.3 12.1s.3.3-.34.54c-1.22.45-5.1.58-6.17.02-.4-.2.3-.48.5-.54.2-.06.3-.05.3-.05-.5-.36-2.8.7-1.2 1.02 4.3.8 7.9-.4 6.7-1zM6.77 8.16s-1.97.57-.7.77c.54.1 1.6.07 2.6-.03.82-.1 1.64-.27 1.64-.27l-.5.32c-2 .63-5.8.33-4.7-.3 1-.56 1.7-.5 1.7-.5zm3.53 2.37c2.03-1.26 1.1-2.48.44-2.32l-.23.1s.1-.1.2-.1c1.3-.5 2.3 1.6-.4 2.5h.1z"/>
    <path fill="#b31b34" d="M8.48 1S9.6 2.35 7.4 4.43c-1.74 1.67-.4 2.62 0 3.7-1-1.1-1.76-2.1-1.26-3C6.88 3.8 8.94 3.15 8.48 1z"/>
    <path fill="#0d2c56" d="M6.97 13.96c1.95.15 4.94-.08 5-1.2 0 0-.13.43-1.6.76-1.67.38-3.72.33-4.93.1 0 0 .24.24 1.52.34z"/>
  </svg>
  <svg width="16" height="16" x="128" y="96" viewBox="0 0 16 16">
    <path fill="#0d2c56" d="M1 .5v15c0 .25.25.5.5.5h13c.25 0 .5-.25.5-.5V5l-5-5H1.5c-.28 0-.5.28-.5.5z"/>
    <path fill="#fff" d="M2 1v14h12V4l-3.25-3z"/>
    <path fill="#0d2c56" d="M10 0v4.5c0 .32.25.5.5.5H15z"/>
    <path fill="#b31b34" d="M12.84 9.64c-.2-.23-.65-.35-1.32-.36-.46 0-1 .04-1.58.14-.26-.18-.53-.36-.74-.6-.56-.6-1.03-1.44-1.33-2.36l.06-.24s.3-2.08.23-2.78c0-.1-.02-.13-.04-.2l-.03-.1c-.1-.22-.3-.46-.6-.44h-.1c-.3 0-.6.16-.6.42-.2.82 0 2.05.3 3.63L7 7c-.24.8-.56 1.5-.84 2.1l-.04.1c-.3.7-.57 1.3-.82 1.8l-.24.2-.5.35c-.87.6-1.44 1.28-1.54 1.8-.02.2 0 .4.16.5l.24.15c.1.03.22.1.34.1.6 0 1.35-.9 2.3-2.9 1.17-.44 2.47-.8 3.6-1 .87.56 1.94.95 2.6.95.13 0 .24 0 .3-.03.1-.03.2-.1.3-.23.1-.3.15-.6.1-.9 0-.1-.1-.2-.14-.3zm-9.23 3.8c.2-.36.6-1.07 1.3-1.7l.3-.24c-.7 1.27-1.1 1.77-1.4 1.93zm3.9-10.4c.2 0 .4.58.4 1.13s-.1.92-.2 1.2c-.1-.42-.1-1.07-.1-1.5 0 0 0-.82.1-.82zm-1.1 7.4l.5-.9c.4-.8.6-1.4.8-1.9.4.7.8 1.3 1.3 1.8l.2.16c-1 .24-1.9.5-2.6.85zm6.3-.06c0 .03-.2.05-.3.05-.3 0-.8-.2-1.4-.5l.7-.03c.4 0 .5 0 .9.1s.4.32.3.37z"/>
  </svg>
  <svg width="16" height="16" x="160" y="96" viewBox="0 0 16 16">
    <path fill="#0d2c56" d="M1 .5v15c0 .25.25.5.5.5h13c.25 0 .5-.25.5-.5V5l-5-5H1.5c-.28 0-.5.28-.5.5z"/>
    <path fill="#fff" d="M2 1v14h12V4l-3.25-3z"/>
    <path fill="#0d2c56" d="M10 0v4.5c0 .32.25.5.5.5H15zM5.02 9.33v3.42c0 .6-.14.85-.7.9l-.32.02V14h3.33v-.33L7 13.65c-.55-.05-.65-.3-.66-.9V9.33h1.33V9H6.33V7.56c0-.4.1-.65.3-.84.2-.15.37-.2.6-.2s.4.1.6.3c.17.22.35.32.58.32.4 0 .6-.22.6-.47C9 6.3 8.5 6 7.9 6c-.74 0-1.55.25-2.1.64-.53.36-.7.77-.7 1.56V9h-.7v.33z"/>
    <path fill="#0d2c56" d="M11 8.67h-.67c-.78.12-1.32.3-2 .34v.4l.26.1c.6.1 1 .2 1 .9v2.5c0 .6-.1 1-.7 1h-.3v.3H12v-.3h-.3c-.58 0-.7-.4-.7-1zm-.33-1.87c.2.12.33.33.33.56 0 .12-.03.23-.1.32-.1.2-.32.32-.57.32-.12 0-.23-.03-.33-.1v.02c-.2-.12-.33-.32-.33-.56 0-.1.03-.22.1-.32.1-.2.32-.32.56-.32.13 0 .24.04.34.1z"/>
  </svg>
  <svg width="16" height="16" x="192" y="96" viewBox="0 0 16 16">
    <path fill="#0d2c56" d="M1 .5v15c0 .25.25.5.5.5h13c.25 0 .5-.25.5-.5V5l-5-5H1.5c-.28 0-.5.28-.5.5z"/>
    <path fill="#fff" d="M2 1v14h12V4l-3.25-3z"/>
    <path fill="#0d2c56" d="M10 0v4.5c0 .32.25.5.5.5H15zM6 8.38h1.02V13H6V8.37zM10 7h1v4h-1V7z"/>
    <path fill="#0d2c56" d="M10.25 10.13c.45.18.75.5.75.87 0 .18-.07.36-.2.5-.27.3-.75.5-1.3.5-.28 0-.54-.05-.76-.14C8.3 11.7 8 11.36 8 11c0-.18.08-.36.2-.5.27-.3.75-.5 1.3-.5.28 0 .53.05.76.14zM6 7.5L11 6v1.5L6 9zm.25 4.63c.45.18.75.5.75.87 0 .18-.07.36-.2.5-.27.3-.75.5-1.3.5-.28 0-.54-.05-.76-.14C4.3 13.7 4 13.36 4 13c0-.18.08-.36.2-.5.27-.3.75-.5 1.3-.5.28 0 .54.05.76.14z"/>
  </svg>
  <svg width="16" height="16" x="224" y="96" viewBox="0 0 16 16">
    <path fill="#0d2c56" d="M1 6h14v8H1V6z"/>
    <path fill="#fff" d="M6 7.5v5l4-2.5z"/>
    <path fill="#0d2c56" d="M.56 3.03L14.42 1l.43 2.97L1 6 .57 3.03z"/>
  </svg>
  <svg width="16" height="16" x="256" y="96" viewBox="0 0 16 16">
    <path fill="#0d2c56" d="M.6 2h14.8c.33 0 .6.27.6.6v10.8c0 .33-.27.6-.6.6H.6c-.33 0-.6-.27-.6-.6V2.6c0-.33.27-.6.6-.6z"/>
    <path fill="#2197db" d="M1 3h14v10H1V3z"/>
    <path fill="#0d2c56" d="M1 13h14V9l-4-4-5 5.5L4 9l-3 3z"/>
    <path fill="#fdf9ae" d="M5 4.27c.6.35 1 1 1 1.73 0 .37-.1.7-.27 1-.35.6-1 1-1.73 1-.37 0-.7-.1-1-.27-.6-.35-1-1-1-1.73 0-.37.1-.7.27-1 .35-.6 1-1 1.73-1 .37 0 .7.1 1 .27z"/>
  </svg>
  <svg width="16" height="16" x="288" y="96" viewBox="0 0 16 16">
    <path fill="#fff" d="M1 1l1-1h13l1 1v13l-1 1H1.98L1 14z"/>
    <path fill="#0d2c56" d="M2 0h1v1H2V0zm4 0h1v1H6V0zm9 1.04h1V2h-1v-.96zM4 0h1v1H4V0zm4 0h1v1H8V0zm2 0h1v1h-1V0zm2 0h1v1h-1V0zm2 0h1v1h-1V0zm1 3h1v1h-1V3zm0 2h1v1h-1V5zm0 2h1v1h-1V7zm0 2h1v1h-1V9zm0 2h1v1h-1v-1zm0 2h1v1h-1v-1zm-1 1h1v1h-1v-1zm-2 0h1v1h-1v-1zm-2 0h1v1h-1v-1zm-2 0h1v1H8v-1zm-2 0h1v1H6v-1zm-2 0h1v1H4v-1zm-2 0h1v1H2v-1zm-1-1h1v1H1v-1zm0-2h1v1H1v-1zm0-2h1v1H1V9zm0-2h1v1H1V7zm0-2h1v1H1V5zm0-2h1v1H1V3zm0-2h1v1H1V1z"/>
    <path fill="#b31b34" d="M3 8h5v5H3V8z"/>
    <path fill="#a8adb4" d="M9 8h5v5H9V8z"/>
    <path fill="#b31b34" d="M9 2h5v5H9V2z"/>
    <path fill="#a8adb4" d="M3 2h5v5H3V2z"/>
  </svg>
  <svg width="16" height="16" x="320" y="96" viewBox="0 0 16 16">
    <path fill="#fff" d="M1 1l1-1h13l1 1v13l-1 1H1.98L1 14z"/>
    <path fill="#0d2c56" d="M2 0h1v1H2V0zm4 0h1v1H6V0zm9 1.04h1V2h-1v-.96zM4 0h1v1H4V0zm4 0h1v1H8V0zm2 0h1v1h-1V0zm2 0h1v1h-1V0zm2 0h1v1h-1V0zm1 3h1v1h-1V3zm0 2h1v1h-1V5zm0 2h1v1h-1V7zm0 2h1v1h-1V9zm0 2h1v1h-1v-1zm0 2h1v1h-1v-1zm-1 1h1v1h-1v-1zm-2 0h1v1h-1v-1zm-2 0h1v1h-1v-1zm-2 0h1v1H8v-1zm-2 0h1v1H6v-1zm-2 0h1v1H4v-1zm-2 0h1v1H2v-1zm-1-1h1v1H1v-1zm0-2h1v1H1v-1zm0-2h1v1H1V9zm0-2h1v1H1V7zm0-2h1v1H1V5zm0-2h1v1H1V3zm0-2h1v1H1V1z"/>
    <path fill="#a8adb4" d="M3 8h5v5H3V8z"/>
    <path fill="#2197db" d="M9 8h5v5H9V8z"/>
    <path fill="#a8adb4" d="M9 2h5v5H9V2z"/>
    <path fill="#2197db" d="M3 2h5v5H3V2z"/>
  </svg>
  <svg width="16" height="16" x="352" y="96" viewBox="0 0 16 16">
    <path fill="#fff" d="M1 1l1-1h13l1 1v13l-1 1H1.98L1 14z"/>
    <path fill="#0d2c56" d="M2 0h1v1H2V0zm4 0h1v1H6V0zm9 1.04h1V2h-1v-.96zM4 0h1v1H4V0zm4 0h1v1H8V0zm2 0h1v1h-1V0zm2 0h1v1h-1V0zm2 0h1v1h-1V0zm1 3h1v1h-1V3zm0 2h1v1h-1V5zm0 2h1v1h-1V7zm0 2h1v1h-1V9zm0 2h1v1h-1v-1zm0 2h1v1h-1v-1zm-1 1h1v1h-1v-1zm-2 0h1v1h-1v-1zm-2 0h1v1h-1v-1zm-2 0h1v1H8v-1zm-2 0h1v1H6v-1zm-2 0h1v1H4v-1zm-2 0h1v1H2v-1zm-1-1h1v1H1v-1zm0-2h1v1H1v-1zm0-2h1v1H1V9zm0-2h1v1H1V7zm0-2h1v1H1V5zm0-2h1v1H1V3zm0-2h1v1H1V1z"/>
    <path fill="#b31b34" d="M3 8h5v5H3V8z"/>
    <path fill="#2197db" d="M9 8h5v5H9V8z"/>
    <path fill="#b31b34" d="M9 2h5v5H9V2z"/>
    <path fill="#2197db" d="M3 2h5v5H3V2z"/>
  </svg>
  <svg width="16" height="16" x="384" y="96" viewBox="0 0 16 16">
    <path fill="#fff" d="M1 1l1-1h13l1 1v13l-1 1H1.98L1 14z"/>
    <path fill="#0d2c56" d="M2 0h1v1H2V0zm4 0h1v1H6V0zm9 1.04h1V2h-1v-.96zM4 0h1v1H4V0zm4 0h1v1H8V0zm2 0h1v1h-1V0zm2 0h1v1h-1V0zm2 0h1v1h-1V0zm1 3h1v1h-1V3zm0 2h1v1h-1V5zm0 2h1v1h-1V7zm0 2h1v1h-1V9zm0 2h1v1h-1v-1zm0 2h1v1h-1v-1zm-1 1h1v1h-1v-1zm-2 0h1v1h-1v-1zm-2 0h1v1h-1v-1zm-2 0h1v1H8v-1zm-2 0h1v1H6v-1zm-2 0h1v1H4v-1zm-2 0h1v1H2v-1zm-1-1h1v1H1v-1zm0-2h1v1H1v-1zm0-2h1v1H1V9zm0-2h1v1H1V7zm0-2h1v1H1V5zm0-2h1v1H1V3zm0-2h1v1H1V1z"/>
    <path fill="#b31b34" d="M3 8h5v5H3V8z"/>
    <path fill="#ffc61e" d="M9 8h5v5H9V8zm0-6h5v5H9V2z"/>
    <path fill="#2197db" d="M3 2h5v5H3V2z"/>
  </svg>
  <svg width="16" height="16" x="416" y="96" viewBox="0 0 16 16">
    <path fill="#ffc61e" d="M8.4 1.26l6.54 12.95c.08.2.08.4 0 .6-.1.2-.23.3-.4.3H1.46c-.17 0-.3-.1-.4-.2-.08-.1-.08-.3 0-.5l6.54-13c.1-.2.23-.3.4-.3s.3.1.4.3z"/>
    <path fill="#0d2c56" d="M8.5 11h-1L7 6h2zm0 1.13c.3.18.5.5.5.87 0 .18-.05.36-.14.5-.17.3-.5.5-.86.5-.18 0-.36-.05-.5-.14-.3-.17-.5-.5-.5-.86 0-.18.05-.36.14-.5.17-.3.5-.5.86-.5.18 0 .36.05.5.14z"/>
  </svg>
  <svg width="16" height="16" x="448" y="96" viewBox="0 0 16 16">
    <path fill="#1bb39a" d="M1 0h14c.55 0 1 .45 1 1v14c0 .55-.45 1-1 1H1c-.55 0-1-.45-1-1V1c0-.55.45-1 1-1z"/>
    <path fill="#fff" d="M3.48 5.03h9.05c.26 0 .47.2.47.47 0 .27-.2.5-.47.5H3.47C3.2 6 3 5.76 3 5.5s.2-.47.47-.47zM3.25 7.5h4.5c.14 0 .25.1.25.25S7.9 8 7.75 8h-4.5C3.1 8 3 7.9 3 7.78c0-.15.1-.26.25-.26zm0 1h4.5c.14 0 .25.1.25.25S7.9 9 7.75 9h-4.5C3.1 9 3 8.9 3 8.78c0-.15.1-.26.25-.26zm0 1h4.5c.14 0 .25.1.25.26s-.1.25-.26.25H3.26C3.1 10 3 9.9 3 9.8s.1-.26.26-.26z"/>
    <path fill="#0d2c56" d="M13 9.5V11H9v-.97L10 9l.7.5L12 8z"/>
    <path fill="#fff" d="M9.75 7.07c.15.08.25.25.25.43 0 .1-.03.18-.07.25-.08.15-.25.25-.43.25-.1 0-.18-.02-.25-.07C9.1 7.85 9 7.7 9 7.5c0-.1.02-.18.07-.25.08-.15.25-.25.43-.25.1 0 .18.03.25.07zm-6.5 3.43h4.5c.14 0 .25.1.25.26s-.1.25-.26.25H3.26c-.16 0-.26-.1-.26-.2s.1-.2.26-.2z"/>
    <path fill="#fff" d="M1.56 3c-.3 0-.56.25-.56.56v8.88c0 .3.25.56.56.56h12.88c.3 0 .56-.25.56-.55v-8.9c0-.3-.25-.55-.55-.55zM2 4h12v8H2z"/>
  </svg>
  <svg width="16" height="16" x="480" y="96" viewBox="0 0 16 16">
    <path fill="#2197db" d="M1 0h14c.55 0 1 .45 1 1v14c0 .55-.45 1-1 1H1c-.55 0-1-.45-1-1V1c0-.55.45-1 1-1z"/>
    <path fill="#a8adb4" d="M2.43 2h11.14c.24 0 .43.2.43.43v4.14c0 .24-.2.43-.43.43H2.43C2.2 7 2 6.8 2 6.57V2.43c0-.24.2-.43.43-.43z"/>
    <path fill="#fff" d="M4.5 2.5c.3.18.5.5.5.87 0 .2-.05.36-.14.5-.17.3-.5.5-.86.5-.18 0-.36-.05-.5-.13-.3-.18-.5-.5-.5-.87 0-.18.05-.35.14-.5.17-.3.5-.5.86-.5.18 0 .36.05.5.14z"/>
    <path fill="#0d2c56" d="M2 6.53c0 .3.2.47.56.47h10.88c.43 0 .56-.23.56-.47V4.5L11 3 7 6 4 5 2 6.5z"/>
    <path fill="#fff" d="M2.23 9h11.54c.13 0 .23.1.23.23v.5c0 .12-.1.23-.23.23H2.23c-.13 0-.23-.1-.23-.23v-.5c0-.13.1-.23.23-.23zm0 3h8.53c.13 0 .24.1.24.24v.02c0 .13-.1.24-.24.24H2.24c-.13 0-.24-.1-.24-.24v-.02c0-.13.1-.24.24-.24zm.02 1h8.5c.14 0 .25.1.25.25s-.1.25-.25.25h-8.5c-.14 0-.25-.1-.25-.25s.1-.25.25-.25zm0 1h8.5c.14 0 .25.1.25.25s-.1.25-.25.25h-8.5c-.14 0-.25-.1-.25-.25s.1-.25.25-.25z"/>
  </svg>
  <svg width="16" height="16" y="128" viewBox="0 0 16 16">
    <path fill="#b31b34" d="M1 0h14c.55 0 1 .45 1 1v14c0 .55-.45 1-1 1H1c-.55 0-1-.45-1-1V1c0-.55.45-1 1-1z"/>
    <path fill="#fff" d="M14 11.56q0 .22-.12.6t-.22.56q-.2.42-1.12.88-.85.4-1.66.4-.24 0-.46-.04t-.5-.1-.4-.14-.48-.18-.43-.16q-.8-.3-1.4-.72-1.1-.68-2.2-1.86T3.2 8.6q-.4-.6-.64-1.5l-.13-.4-.16-.4-.1-.4L2 5.3v-.44q.04-.78.53-1.56.54-.84 1-1 .22-.1.6-.18t.63-.07q.12 0 .18.03.16.05.43.64.1.16.24.46t.3.54.3.45l.2.22.2.3.1.2q0 .1-.2.4t-.5.4-.56.4-.3.4q0 .1.05.2t.04.2.1.2.1.1q.6 1.1 1.4 2t2 1.5l.2.1.2.1h.4q.13 0 .4-.26t.5-.5.5-.5.44-.2q.14 0 .26.1t.3.2.2.12l.44.26.54.3.44.26q.6.3.67.43v.2z"/>
  </svg>
  <svg width="16" height="16" x="32" y="128" viewBox="0 0 16 16">
    <path fill="#b31b34" d="M1 0h14c.55 0 1 .45 1 1v14c0 .55-.45 1-1 1H1c-.55 0-1-.45-1-1V1c0-.55.45-1 1-1z"/>
    <path fill="#0d2c56" d="M10.8 3.18c1.67.98 2.77 2.77 2.77 4.82 0 1.03-.28 2-.76 2.82l.1-.03c-1 1.6-2.7 2.7-4.8 2.7-1 0-2-.3-2.8-.8h.1c-1.7-1-2.8-2.8-2.8-4.8 0-1.1.3-2 .8-2.8.9-1.6 2.7-2.7 4.8-2.7 1.1 0 2 .2 2.9.7H11z"/>
    <path fill="#fff" d="M8 2C4.7 2 2 4.7 2 8s2.7 6 6 6 6-2.7 6-6-2.7-6-6-6zM6.12 3.1v.4L4.25 5.38h-.8C4.05 4.33 5 3.52 6.12 3.1zM8 9.5l-2.68 3.02-.32-.2V9.87L3.5 8.75V6.87c0-.2.17-.37.38-.37H5S6.13 8 8 8.38zm4.54-1.75c-.2-.62-.35-.68-1.16-.96-.28-.1-.55-.3-.77-.5-.7-.8-.7-1.9 0-2.7l.2-.2c1.5.9 2.5 2.6 2.5 4.4 0 .9-.2 1.8-.7 2.6.2-1.3.1-2.3 0-2.9z"/>
  </svg>
  <svg width="16" height="16" x="64" y="128" viewBox="0 0 16 16">
    <path fill="#144382" d="M1 0h14c.55 0 1 .45 1 1v14c0 .55-.45 1-1 1H1c-.55 0-1-.45-1-1V1c0-.55.45-1 1-1z"/>
    <path fill="#fff" d="M3 3h10v2H3V3z"/>
    <path fill="#a8adb4" d="M3 11h10v2H3v-2z"/>
    <path fill="#fff" d="M3 6h4v4H3V6z"/>
    <path fill="#a8adb4" d="M9 6h4v4H9V6z"/>
    <path fill="#fff" d="M1.5 1c-.25 0-.5.25-.5.5v12.72c0 .25.25.78.5.78h13c.25 0 .5-.25.5-.5V1.78c0-.25-.25-.78-.5-.78zM14 2v12H2V2z"/>
  </svg>
  <svg width="16" height="16" x="96" y="128" viewBox="0 0 16 16">
    <path fill="#7f8691" d="M.97 0h14.06c.54 0 .97.43.97.97v14.06c0 .54-.43.97-.97.97H.97c-.54 0-.97-.43-.97-.97V.97C0 .43.43 0 .97 0z"/>
    <path fill="#fff" d="M5 4.38V2.63c0-.04 0-.07-.03-.1s-.05-.03-.1-.03h-.74c-.03 0-.06 0-.1.04S4 2.6 4 2.64v1.73c0 .04.03.07.05.1s.05.03.1.03h.74l.1-.04v-.1zm7 0V2.63c0-.04 0-.07-.04-.1s-.05-.03-.1-.03h-.74c-.03 0-.06 0-.1.04s-.02.05-.02.1v1.73c0 .04 0 .07.03.1s.06.03.1.03h.74c.04 0 .07 0 .1-.04s.03-.05.03-.1zm2-.88v10c0 .14-.06.25-.15.35s-.22.15-.35.15h-11c-.13 0-.24-.05-.34-.15S2 13.65 2 13.5v-10c0-.14.06-.25.16-.35s.2-.13.35-.15h1v-.38c0-.17.1-.3.2-.44S4 2 4.2 2h.75c.17 0 .3.06.44.18s.2.27.2.45V3h5v-.38c0-.17 0-.3.1-.44S11 2 11.1 2h.8c.15 0 .3.06.4.18s.2.27.2.45V3h1c.15 0 .26.05.36.15s.14.2.14.35z"/>
    <path fill="#a8adb4" d="M3 6h10v7H3V6z"/>
  </svg>
  <svg width="16" height="16" x="128" y="128" viewBox="0 0 16 16">
    <path fill="#ffc61e" d="M1 0h14c.55 0 1 .45 1 1v14c0 .55-.45 1-1 1H1c-.55 0-1-.45-1-1V1c0-.55.45-1 1-1z"/>
    <path fill="#fff" d="M7 10V9c.23-.9.44-1.2.95-1.9C8.3 6.7 8.97 6.07 9 5.55c0-.84-1.5-.8-2.25-.58-.33.1-.56.27-.94.55L5 4c.35-.27.65-.38 1-.54C6.58 3.2 7.37 3 7.88 3c.62 0 1.14.1 1.54.26.4.16.72.37.95.62s.4.52.48.83c.1.3.15.6.15.9 0 .3-.07.6-.2.9-.12.3-.3.5-.48.8C9.75 7.8 9.2 8.5 9 9l-.03 1zm1.5 1.13c.3.18.5.5.5.87 0 .18-.05.36-.14.5-.17.3-.5.5-.86.5-.18 0-.36-.05-.5-.14-.3-.17-.5-.5-.5-.86 0-.18.05-.36.14-.5.17-.3.5-.5.86-.5.18 0 .36.05.5.14z"/>
  </svg>
  <svg width="16" height="16" x="160" y="128" viewBox="0 0 16 16">
    <path fill="#ffc61e" d="M1 0h14c.55 0 1 .45 1 1v14c0 .55-.45 1-1 1H1c-.55 0-1-.45-1-1V1c0-.55.45-1 1-1z"/>
    <path fill="#fff" d="M3 5h10c.55 0 1 .45 1 1v6c0 .55-.45 1-1 1H3c-.55 0-1-.45-1-1V6c0-.55.45-1 1-1z"/>
    <path fill="#a8adb4" d="M3 5h1v8H3V5zm8.98 0H13v8.03h-1.02V5z"/>
    <path fill="#fff" d="M5 5V3.5c0-.25.25-.5.5-.5h5.03c.22 0 .46.3.47.5V5h-1V4H6v1z"/>
  </svg>
  <svg width="16" height="16" x="192" y="128" viewBox="0 0 16 16">
    <path fill="#7f8691" d="M.97 0h14.06c.54 0 .97.43.97.97v14.06c0 .54-.43.97-.97.97H.97c-.54 0-.97-.43-.97-.97V.97C0 .43.43 0 .97 0z"/>
    <path fill="#fff" d="M5.75 10.25c.2.2.55.2.77-.02l3.7-3.7c.23-.23.24-.57.03-.78s-.55-.2-.77.02l-3.7 3.7c-.23.23-.24.57-.03.78zM7.6 9.9c.04.12.07.24.07.36 0 .2-.08.4-.22.54l-1.92 1.92c-.14.14-.33.22-.54.22s-.4-.08-.6-.22l-1.2-1.17c-.1-.15-.2-.33-.2-.55s.1-.4.2-.5l2-1.93c.1-.14.3-.22.5-.22.1 0 .2.03.3.08l.7-.73c-.3-.26-.7-.38-1.1-.38-.5 0-1 .16-1.3.5l-1.9 1.9c-.7.7-.7 1.88 0 2.6l1.2 1.2c.3.34.8.52 1.3.52s.9-.18 1.2-.53L8 11.6c.65-.6.7-1.7.15-2.4zm5.87-6.2L12.3 2.53C11.95 2.18 11.48 2 11 2s-.93.18-1.28.53L7.8 4.45c-.65.65-.7 1.7-.15 2.4l.76-.76v-.4c0-.2.1-.4.2-.6l1.9-2c.2-.2.4-.2.6-.2s.4.1.6.2l1.2 1.2c.2.1.2.3.2.5s0 .4-.2.5l-1.9 2c-.1.1-.3.2-.5.2-.1 0-.22 0-.33-.1l-.7.7c.3.2.7.3 1.1.3.5 0 .97-.16 1.3-.5l1.9-1.9c.7-.7.7-1.86 0-2.57z"/>
  </svg>
  <svg width="16" height="16" x="224" y="128" viewBox="0 0 16 16">
    <path fill="#7f8691" d="M.97 0h14.06c.54 0 .97.43.97.97v14.06c0 .54-.43.97-.97.97H.97c-.54 0-.97-.43-.97-.97V.97C0 .43.43 0 .97 0z"/>
    <path fill="#fff" d="M1.55 2h12.9c.3 0 .55.25.55.55v9.9c0 .3-.25.55-.55.55H1.55c-.3 0-.55-.25-.55-.55v-9.9c0-.3.25-.55.55-.55z"/>
    <path fill="#a8adb4" d="M2 3h12v9H2V3z"/>
    <path fill="#fff" d="M5.24 4.2c.46.27.76.75.76 1.3 0 .28-.08.54-.2.76-.27.44-.76.74-1.33.74-.28 0-.54-.07-.77-.2-.45-.27-.76-.75-.76-1.3 0-.28.08-.54.2-.76C3.42 4.3 3.9 4 4.47 4c.3 0 .55.08.78.2z"/>
    <path fill="#0d2c56" d="M2 10.5V12h12V9l-3-3-4 4.13L4.5 8z"/>
  </svg>
  <svg width="16" height="16" x="256" y="128" viewBox="0 0 16 16">
    <path fill="#b31b34" d="M1 0h14c.55 0 1 .45 1 1v14c0 .55-.45 1-1 1H1c-.55 0-1-.45-1-1V1c0-.55.45-1 1-1z"/>
    <path d="M1.5 5.5h1v1h-1v-1z"/>
    <path fill="#fff" d="M1 3h14v10H1V3z"/>
    <path fill="#a8adb4" d="M3.5 11.5h1v1h-1v-1zm8 0h1v1h-1v-1zm-6 0h1v1h-1v-1zM2 4h12v7H2V4zm5.5 7.5h1v1h-1v-1zm2 0h1v1h-1v-1z"/>
    <path fill="#0d2c56" d="M13 7.5L10 5v5.05zM3 7.47L6 5v5z"/>
  </svg>
  <svg width="16" height="16" x="288" y="128" viewBox="0 0 16 16">
    <path fill="#144382" d="M1 0h14c.55 0 1 .45 1 1v14c0 .55-.45 1-1 1H1c-.55 0-1-.45-1-1V1c0-.55.45-1 1-1z"/>
    <path d="M1.5 5.5h1v1h-1v-1z"/>
    <path fill="#fff" d="M1 3h14v10H1V3z"/>
    <path fill="#a8adb4" d="M3.5 11.5h1v1h-1v-1zm8 0h1v1h-1v-1zm-6 0h1v1h-1v-1zM2 4h12v7H2V4zm5.5 7.5h1v1h-1v-1zm2 0h1v1h-1v-1z"/>
    <path fill="#0d2c56" d="M13 7.5L10 5v5.05zM3 7.47L6 5v5z"/>
  </svg>
  <svg width="16" height="16" x="320" y="128" viewBox="0 0 16 16">
    <path fill="#144382" d="M1 0h14c.55 0 1 .45 1 1v14c0 .55-.45 1-1 1H1c-.55 0-1-.45-1-1V1c0-.55.45-1 1-1z"/>
    <path fill="#fff" d="M10 11.75L11 13l4-5-4-5-1 1.25L13.13 8zm-4-7.5L5 3 1 8l4 5 1-1.25L2.87 8zM7.98 2l1.52.34L8 14l-1.54-.33L7.98 2z"/>
  </svg>
  <svg width="16" height="16" x="352" y="128" viewBox="0 0 16 16">
    <path fill="#1bb39a" d="M1 0h14c.55 0 1 .45 1 1v14c0 .55-.45 1-1 1H1c-.55 0-1-.45-1-1V1c0-.55.45-1 1-1z"/>
    <path fill="#fff" d="M1.5 4c-.25 0-.5.25-.5.5V12h14V7H5V4.54c0-.3-.25-.54-.5-.54z"/>
    <path fill="#fff" d="M6.5 4c-.25 0-.5.25-.5.5V6h4V4.5c.04-.25-.25-.5-.5-.5zm4.5.5V6h4V4.5c0-.25-.25-.5-.5-.5h-3c-.25 0-.5.25-.5.5z"/>
  </svg>
  <svg width="16" height="16" x="384" y="128" viewBox="0 0 16 16">
    <path fill="#7f8691" d="M.97 0h14.06c.54 0 .97.43.97.97v14.06c0 .54-.43.97-.97.97H.97c-.54 0-.97-.43-.97-.97V.97C0 .43.43 0 .97 0z"/>
    <path fill="#fff" d="M2.5 3c-.32 0-.5.22-.5.5v2c0 .28.28.5.62.5H3v7h2v.5s0 .5.5.5h7c.34 0 .5-.22.5-.5v-2c0-.28-.16-.5-.5-.5h-7c-.5 0-.5.5-.5.5v.5H4V9h1v.5s0 .5.5.5h7c.34 0 .5-.22.5-.5v-2c0-.28-.16-.5-.5-.5h-7c-.5 0-.5.5-.5.5V8H4V6h6.5c.34 0 .5-.22.5-.5v-2c0-.28-.16-.5-.5-.5zm.5.5h2v2H3zm3 4h2v2H6zm0 4h2v2H6z"/>
  </svg>
  <svg width="16" height="16" x="416" y="128" viewBox="0 0 16 16">
    <path fill="#7f8691" d="M.97 0h14.06c.54 0 .97.43.97.97v14.06c0 .54-.43.97-.97.97H.97c-.54 0-.97-.43-.97-.97V.97C0 .43.43 0 .97 0z"/>
    <path fill="#fff" d="M7.75 2h1.5c.4 0 .75.34.75.75v1.5c0 .4-.34.75-.75.75h-1.5C7.35 5 7 4.66 7 4.25v-1.5c0-.4.34-.75.75-.75zM2.6 10h1.8c.33 0 .6.27.6.6v1.8c0 .33-.27.6-.6.6H2.6c-.33 0-.6-.27-.6-.6v-1.8c0-.33.27-.6.6-.6z"/>
    <path fill="#fff" d="M8 4.63V7H4c-.5 0-1 .5-1 1v2.63h1V8h4v2.63h1V8h4v2.63h1V8c0-.5-.5-1-1-1H9V4.62z"/>
    <path fill="#fff" d="M7.6 10h1.8c.33 0 .6.27.6.6v1.8c0 .33-.27.6-.6.6H7.6c-.33 0-.6-.27-.6-.6v-1.8c0-.33.27-.6.6-.6zm5 0h1.8c.33 0 .6.27.6.6v1.8c0 .33-.27.6-.6.6h-1.8c-.33 0-.6-.27-.6-.6v-1.8c0-.33.27-.6.6-.6z"/>
  </svg>
  <svg width="16" height="16" x="448" y="128" viewBox="0 0 16 16">
    <path fill="#7f8691" d="M.97 0h14.06c.54 0 .97.43.97.97v14.06c0 .54-.43.97-.97.97H.97c-.54 0-.97-.43-.97-.97V.97C0 .43.43 0 .97 0z"/>
    <path fill="#fff" d="M11.3 13.28l-3.32-2.65-3.32 2.65L6 9.3 2.66 6.65h3.98l1.33-4 1.33 4h4L9.96 9.3z"/>
    <path fill="#fff" d="M9.18 3.33c0 .73-.56 1.32-1.27 1.32s-1.2-.6-1.2-1.32C6.7 2.6 7.2 2 7.9 2s1.28.6 1.28 1.33zm4.52 3.65c0 .73-.56 1.32-1.26 1.32s-1.27-.6-1.27-1.32c0-.74.57-1.33 1.27-1.33s1.27.6 1.27 1.33zm-1.92 5.64c0 .73-.57 1.33-1.27 1.33s-1.2-.6-1.2-1.33c0-.73.6-1.33 1.3-1.33s1.3.6 1.3 1.3zm-5.25 0c0 .73-.57 1.33-1.27 1.33S4 13.35 4 12.62c0-.73.56-1.33 1.26-1.33s1.27.6 1.27 1.3zm-2-5.64c0 .73-.56 1.32-1.26 1.32S2 7.7 2 6.98c0-.74.57-1.33 1.27-1.33s1.27.6 1.27 1.33z"/>
  </svg>
  <svg width="16" height="16" x="480" y="128" viewBox="0 0 16 16">
    <path fill="#144382" d="M1 0h14c.55 0 1 .45 1 1v14c0 .55-.45 1-1 1H1c-.55 0-1-.45-1-1V1c0-.55.45-1 1-1z"/>
    <path fill="#fff" d="M5.5 7.1v5.08c0 .13-.04.25-.12.35s-.17.14-.28.14H3.44c-.1 0-.2-.05-.28-.14s-.12-.22-.12-.35v-5.1c0-.13.04-.24.12-.34s.17-.15.28-.15H5.1c.1 0 .2 0 .28.1s.12.2.12.3zm7.5.32c0 .44-.33.75-.56 1.07.06.2.28.6.28.8 0 .4-.23.7-.42 1 .07.3.25.6.18.9-.06.3-.44.7-.6.9.04.6.2.9-.04 1.2-.26.4-.67.6-1.23.6h-.8c-.2 0-.5-.1-.9-.2s-.5-.2-.7-.2l-.7-.3c-.5-.3-.8-.7-1-.7-.1 0-.2-.1-.3-.2s-.1-.2-.1-.4V7c0-.12 0-.23.1-.33s.2-.17.3-.18c.1 0 .3-.2.5-.5s.5-.3.7-.6c.3-.5.5-.8.7-.9.1-.1.2-.2.2-.4l.1-.4.1-.5.1-.5.1-.4V2c.1-.06.2-.1.3-.1.2 0 .4 0 .5.06s.3.13.4.2c.1.1.2.2.27.3s.1.27.2.37c.1.1.1.23.1.4l.1.34v.3c0 .2 0 .4-.1.6l-.1.5-.1.45c0 .03-.05.07-.08.14l-.08.14-.02.25H12c.24 0 .6.14.82.43s.34.6.34 1z"/>
  </svg>
  <svg width="16" height="16" y="160" viewBox="0 0 16 16">
    <path fill="#1bb39a" d="M1 0h14c.55 0 1 .45 1 1v14c0 .55-.45 1-1 1H1c-.55 0-1-.45-1-1V1c0-.55.45-1 1-1z"/>
    <path fill="#fff" d="M1.55 2h12.9c.3 0 .55.25.55.55v9.9c0 .3-.25.55-.55.55H1.55c-.3 0-.55-.25-.55-.55v-9.9c0-.3.25-.55.55-.55z"/>
    <path fill="#a8adb4" d="M2 3h12v9H2V3z"/>
    <path fill="#fff" d="M5.24 4.2c.46.27.76.75.76 1.3 0 .28-.08.54-.2.76-.27.44-.76.74-1.33.74-.28 0-.54-.07-.77-.2-.45-.27-.76-.75-.76-1.3 0-.28.08-.54.2-.76C3.42 4.3 3.9 4 4.47 4c.3 0 .55.08.78.2z"/>
    <path fill="#0d2c56" d="M2 10.5V12h12V9l-3-3-4 4.13L4.5 8z"/>
  </svg>
  <svg width="16" height="16" x="32" y="160" viewBox="0 0 16 16">
    <path fill="#1bb39a" d="M1 0h14c.55 0 1 .45 1 1v14c0 .55-.45 1-1 1H1c-.55 0-1-.45-1-1V1c0-.55.45-1 1-1z"/>
    <path fill="#a8adb4" d="M2.5 3.5h11v9h-11v-9z"/>
    <path fill="#fff" d="M13.5 3.02h-11c-.28 0-.5.22-.5.5v9c0 .27.23.5.5.5h11c.28 0 .5-.23.5-.5v-9c0-.28-.23-.5-.5-.5zm-.5 1V5L8 6.77 3 5v-.98zm-10 8V6l5 1.76L13 6v6.02z"/>
  </svg>
</svg>