<svg xmlns="http://www.w3.org/2000/svg" width="1024" height="1024" viewBox="0 0 1024 1024">
<path fill="rgb(255, 255, 255)" d="M736.841 124.23c132.076 78.945 219.36 222.948 219.36 387.732 0 82.607-21.935 159.991-60.19 226.431-76.319 132.545-217.594 221.533-379.259 221.533-81.024 0-156.927-22.353-222.098-61.339-130.042-77.793-217.352-221.815-217.352-386.624 0-82.582 21.921-159.944 60.156-226.371 76.311-132.578 217.605-221.592 379.294-221.592 81 0 156.882 22.339 222.039 61.304z"></path>
<path fill="rgb(179, 27, 52)" d="M510.666 64c-171.353 0-312.851 97.090-386.478 241.865l-92.189-41.249 0.975 360.543 299.159-226.238-87.493-39.137c53.072-98.628 147.611-167.784 266.026-167.784 172.461 0 321.334 145.031 321.334 320 0 174.924-148.873 320-321.334 320-107.649 0-194.702-59.236-251.008-143.396l-97.106 90.45c80.848 109.592 203.119 180.946 348.114 180.946 244.315 0 449.334-200.195 449.334-448 0-247.851-205.018-448-449.334-448zM512 288c-17.277 0-32.127 14.477-32 32l1.382 189.771c0.030 4.134 1.165 15.369 3.805 22.503 2.786 7.528 9.541 17.757 12.421 20.633l116.991 113.181c12.183 12.357 31.624 15.386 43.851 3.028 12.183-12.402 11.169-32.171-1.059-44.618l-113.393-112.499v-192c0-17.479-14.722-32-31.999-32z"></path>
</svg>
