<svg xmlns="http://www.w3.org/2000/svg" width="1024" height="1024" viewBox="0 0 1024 1024">
<path fill="rgb(0, 0, 0)" d="M704 64c-106.368 0-192 85.632-192 192v192h-448v352c0 88.64 71.36 160 160 160h320c88.64 0 160-71.36 160-160v-352h-96v-192c0-53.184 42.816-96 96-96h64c53.184 0 96 42.816 96 96v192h96v-192c0-106.368-85.632-192-192-192h-64z"></path>
<path fill="rgb(255, 255, 255)" d="M142.561 512h482.877c8.042 0 14.561 6.519 14.561 14.561v34.877c0 8.042-6.519 14.561-14.561 14.561h-482.877c-8.042 0-14.561-6.519-14.561-14.561v-34.877c0-8.042 6.519-14.561 14.561-14.561z"></path>
<path fill="rgb(255, 255, 255)" d="M142.561 640h482.877c8.042 0 14.561 6.519 14.561 14.561v34.877c0 8.042-6.519 14.561-14.561 14.561h-482.877c-8.042 0-14.561-6.519-14.561-14.561v-34.877c0-8.042 6.519-14.561 14.561-14.561z"></path>
<path fill="rgb(255, 255, 255)" d="M142.561 768h482.877c8.042 0 14.561 6.519 14.561 14.561v34.877c0 8.042-6.519 14.561-14.561 14.561h-482.877c-8.042 0-14.561-6.519-14.561-14.561v-34.877c0-8.042 6.519-14.561 14.561-14.561z"></path>
</svg>
