<svg xmlns="http://www.w3.org/2000/svg" width="1024" height="1024" viewBox="0 0 1024 1024">
<path fill="rgb(0, 0, 0)" d="M352 64c-106.368 0-192 85.632-192 192v192h-96v352c0 88.64 71.36 160 160 160h320c88.64 0 160-71.36 160-160v-352h-96v-192c0-106.368-85.632-192-192-192h-64zM352 160h64c53.184 0 96 42.816 96 96v192h-256v-192c0-53.184 42.816-96 96-96z"></path>
<path fill="rgb(255, 255, 255)" d="M379.539 544.102c-33.574 1.61-62.466 20.235-78.396 47.384-8.354 14.237-13.145 30.818-13.145 48.517 0 35.318 19.072 66.182 47.479 82.853 5.009 2.918 10.313 5.396 15.852 7.379l0.67 101.764c0 17.728 14.272 32 32 32s32-14.272 32-32v-101.523c21.862-7.875 39.587-22.788 50.849-41.955 8.357-14.237 13.148-30.821 13.148-48.523 0-35.313-19.067-66.173-47.468-82.847l-0.475-0.261c-13.782-8.105-30.359-12.893-48.054-12.893-1.569 0-3.13 0.038-4.68 0.112z"></path>
</svg>
