<svg xmlns="http://www.w3.org/2000/svg" width="170" height="42" viewBox="0 0 170 42">
    <path fill="#b31b34" d="M29.86.494c-4.225.026-8.424 1.313-11.84 3.794-1.857 1.28-3.55 2.935-4.875 4.76-1.513-.167-2.965.003-4.437.447-4.484 1.207-7.97 5.173-8.54 9.777-.61 4.12 1.104 8.57 4.394 11.13 2.368 1.904 5.48 2.836 8.49 2.59 1.89 2.687 4.398 4.793 7.336 6.305 6.342 3.383 14.51 3.07 20.586-.776 1.01-.76 2.342-1.32 2.886-2.52.597-1.46-.995-3.11-2.488-2.58-.185.07-.37.15-.53.27-4.325 3.73-10.683 4.94-16.102 3.12-2.92-.93-5.52-2.65-7.496-4.985 3.33-1.594 5.864-4.88 6.58-8.5.843-3.94-.477-8.225-3.402-11.01-.876-.863-1.897-1.473-3-2.023.904-1.037 1.925-2.066 3.073-2.84 5.28-3.74 12.85-3.94 18.304-.466 1.07.517 1.81 1.678 3.05 1.818 1.58.17 2.72-1.8 1.81-3.09-1.2-1.28-2.76-2.173-4.29-2.982C36.45 1.19 33.13.46 29.86.492zm85.165 9.523c-2.3 0-5.025 2.65-5.075 4.962l.036 12.02c.014 2.36 2.7 5.01 5.04 5.04h10.023C126 32 127 31 126.99 30.01 127 29 126 28 125.042 28.028h-10.02c-.55-.065-1.022-.53-1.02-1.02l-.03-12.028c.028-.56.51-.99 1.05-.97h10.027C126 14 127 13 127.02 11.983 127 11 126 10 125.05 10.017zm43.015 3.993c-2.435-.082-5.07 2.83-5.02 5.42-.05 2.41 2.553 5.57 5.02 5.576l7.008-.04c.53.068.952.622.99 1.534-.038.85-.52 1.51-.99 1.533H154.96c-.974-.043-1.88.967-1.94 2.055.06.912.894 1.92 1.94 1.936h10.088c2.28-.03 4.966-3 4.962-5.524.004-2.477-2.612-5.5-4.962-5.482l-7.01-.013c-.608-.005-1.038-.642-1.03-1.574-.008-.8.53-1.42 1.03-1.44h10.02c.992.02 1.992-.98 1.952-1.97.04-1.01-.96-2.01-1.952-2zm-24.05-.013c-2.297.003-4.99 2.657-5.007 4.985V30c.017 1 1.017 2 2.047 2.007C132 32 133 31 133.007 30V18.982c-.007-.51.517-.982 1.024-.956H137c.63-.026 1.004.408.993.956V30c.01 1 1.01 2 2.02 2.007C141 32 142 31 141.98 30V18.982c.02-.51.5-.982 1.054-.956h3.024c.548-.026.942.51.97.956V30c-.028 1 .972 2 2.004 2.007C150 32 151.05 31 151.027 30V18.982c.023-2.29-2.654-4.982-4.97-4.985z"/>
    <path fill="#fff" fill-rule="evenodd" d="M19.836 22.604c-.57 2.915-2.897 5.404-5.768 6.124-2.804.787-6-.133-7.942-2.308-1.896-2-2.586-5.023-1.817-7.658.71-2.535 2.76-4.643 5.27-5.423 2.58-.83 5.59-.24 7.62 1.58 2.19 1.84 3.21 4.9 2.62 7.68z" clip-rule="evenodd"/>
    <path fill="#003082" fill-rule="evenodd" d="M37.02 10.018c-2.323-.03-5.03 2.676-5.003 4.965v12.003c-.058 2.34 2.665 5.015 5.004 5.01h9.02c2.25.003 4.97-2.72 4.96-4.98V15.29c.01-2.594-2.61-5.28-4.96-5.272zm0 3.975h9.013c.477.012.967.444.97 1.006l.017 12.02c-.02.48-.525.98-.987 1.01H37.02c-.603-.04-.97-.43-.978-1.03l-.023-12.01c.03-.61.48-1 1-1.01zm58.992.044C93.688 13.99 91 16.627 90.998 19v10.97C91 31 92 32 92.954 31.998 94 32 95 31 95.054 29.97L95.008 19c-.008-.618.49-.944 1.03-.98h7.012c.534-.026.967.477.976.98v10.97C103.98 31 105 32 106.01 31.93c.99.07 1.99-.93 2.025-1.96l.013-10.97c-.048-2.37-2.513-5-5.088-4.963zm-7.025 1.943C88.98 15 88.042 14 87.032 14h-10.02c-2.27.002-5.012 2.656-4.985 4.99l.03 8.062C72 29.32 74.712 32 77.012 31.974l10.02.023C88 32 89 31 88.987 30.06 89 29 88 28 87.032 28.03l-10.02-.04c-.48.008-1.012-.713-.998-1.55-.014-.756.432-1.442.998-1.442l10.02-.005C88 25 89.054 24.05 88.987 23c.067-.95-.987-2-1.955-1.973l-10.02-.034c-.6.007-1.012-.6-1.034-1.574.022-.82.497-1.42 1.034-1.4h10.02c.996-.02 1.948-1.02 1.955-2.04zm-35.97-.024c.01 1.044.983 2.04 1.977 2.062h10.114c.597.08.88.463.92 1.007v8c-.015.447-.444.95-1.038 1.007h-9.026c-1.49-.057-2.978 1.443-2.946 2.96v3.974C53.022 36 54 37 54.998 36.97 56 37 57.01 36 57 34.962V32.91c-.005-.46.538-.86 1.062-.902.94-.008 4.39-.008 6.652 0 2.59-.008 5.303-2.665 5.298-4.983v-8c-.025-2.376-2.722-5.073-5-5.02h-9.99c-1.02-.057-1.992.995-2.002 1.95zM15.9 21.784c-.18.996-.784 1.883-1.61 2.466-.744.534-1.68.79-2.586.728-.966-.08-1.896-.504-2.567-1.202-.803-.8-1.22-1.98-1.13-3.115.062-.72.315-1.43.75-2.02.694-.95 1.812-1.58 2.99-1.64.966-.07 1.962.25 2.717.85.76.59 1.286 1.46 1.45 2.4.102.51.096 1.03-.013 1.54z" clip-rule="evenodd"/>
</svg>