<svg xmlns="http://www.w3.org/2000/svg" viewBox="0 0 1024 1024" width="40" height="40">
  <title/>
  <path fill="#b31b34" d="M992 512c0 265-215 480-480 480S32 777 32 512 247 32 512 32s480 215 480 480z"/>
  <path fill="#fff" d="M832 512c0 176.7-143.3 320-320 320S192 688.7 192 512s143.3-320 320-320 320 143.3 320 320z"/>
  <path fill="#003082" d="M592 373.5c48.2 28.2 80 79.6 80 138.5 0 29.5-8 57-22 81-27.7 47.2-79 79-138 79-29.5 0-57-8-81-22-47.2-27.7-79-79-79-138 0-29.5 8-57 22-81 27.7-47.2 79-79 138-79 29.5 0 57 8 80.8 22z"/>
</svg>
